<?xml version="1.0" encoding="UTF-8"?>
<svg id="Layer_2" xmlns="http://www.w3.org/2000/svg" viewBox="0 0 1000 416.32">
  <g id="Layer_1-2" data-name="Layer_1">
    <g>
      <path d="M184.48,126.07l70.04-70.04c11.58-11.59,11.58-30.44,0-42.02-5.61-5.61-13.07-8.7-21.01-8.7s-15.4,3.09-21.01,8.7h0L36.7,189.8c-3.86,3.86-10.15,3.86-14.01,0-3.86-3.86-3.86-10.15,0-14.01l70.74-70.74h0c13.52-13.52,13.52-35.51,0-49.02L37.4,0l-14.01,14.01,56.03,56.03c5.79,5.79,5.79,15.22,0,21.01h0S8.69,161.78,8.69,161.78c-11.58,11.59-11.58,30.44,0,42.02,5.79,5.79,13.4,8.69,21.01,8.69s15.22-2.9,21.01-8.69L226.5,28.02h0c1.87-1.87,4.36-2.9,7-2.9s5.13,1.03,7,2.9c3.86,3.86,3.86,10.14,0,14.01l-70.04,70.04h0c-13.52,13.52-13.52,35.51,0,49.03l56.03,56.03,14.01-14.01-56.03-56.03c-5.79-5.79-5.79-15.22,0-21.01h0Z"/>
      <g>
        <path d="M106.13,414.33h-22.91l-37.32-61.36h-20.18v61.36H6v-143.43h49.31c14.24,0,25.48,3.72,33.73,11.16,8.25,7.44,12.38,17.4,12.38,29.88,0,10.89-3.13,19.82-9.38,26.79-6.26,6.97-14.77,11.39-25.55,13.25l39.64,62.35ZM25.72,289.42v45.02h29.68c8.23,0,14.54-2.02,18.92-6.08,4.38-4.05,6.57-9.53,6.57-16.43s-2.26-12.72-6.77-16.63c-4.52-3.92-10.76-5.88-18.73-5.88h-29.68Z"/>
        <path d="M151.64,416.32c-11.02,0-19.69-3.69-26-11.06-6.31-7.37-9.46-17.5-9.46-30.38v-64.74h18.53v62.15c0,8.76,1.89,15.41,5.68,19.92,3.78,4.52,9.06,6.77,15.84,6.77,7.97,0,14.44-2.79,19.42-8.37,4.98-5.58,7.47-12.68,7.47-21.31v-59.16h18.53v104.19h-18.53v-12.95h-.4c-7.7,9.96-18.06,14.94-31.08,14.94Z"/>
        <path d="M242.01,266.91v58.37h.4c8.23-11.42,19.65-17.13,34.26-17.13s25.8,4.95,34.76,14.84c8.96,9.89,13.45,22.94,13.45,39.14s-4.48,29.28-13.45,39.24c-8.96,9.96-20.55,14.94-34.76,14.94-7.04,0-13.55-1.53-19.52-4.58s-10.89-7.3-14.74-12.75h-.4v15.34h-18.53v-147.41h18.53ZM273.69,325.48c-9.83,0-17.63,3.49-23.41,10.46-5.78,6.97-8.67,15.71-8.67,26.2s2.89,19.39,8.67,26.3c5.78,6.91,13.58,10.36,23.41,10.36s17.1-3.39,23.01-10.16c5.91-6.77,8.86-15.6,8.86-26.49s-2.96-19.72-8.86-26.49c-5.91-6.77-13.58-10.16-23.01-10.16Z"/>
        <path d="M360.46,290.62c-2.52,2.52-5.65,3.78-9.36,3.78s-6.87-1.26-9.46-3.78c-2.59-2.52-3.88-5.64-3.88-9.36s1.29-6.87,3.88-9.46c2.59-2.59,5.74-3.88,9.46-3.88s6.84,1.3,9.36,3.88c2.52,2.59,3.78,5.75,3.78,9.46s-1.26,6.84-3.78,9.36ZM341.73,310.14h18.53v104.19h-18.53v-104.19Z"/>
        <path d="M427.61,399.19c6.51,0,12.25-1.82,17.23-5.48,4.98-3.65,8.47-9.06,10.46-16.24l19.32,2.59c-3.19,11.69-8.9,20.65-17.13,26.89-8.24,6.24-18.13,9.36-29.68,9.36-15.27,0-27.59-5.08-36.95-15.24-9.36-10.16-14.04-23.14-14.04-38.95s4.68-28.59,14.04-38.75c9.36-10.16,21.68-15.24,36.95-15.24,11.55,0,21.45,3.12,29.68,9.36,8.23,6.24,13.94,15.21,17.13,26.89l-19.32,2.59c-1.99-7.17-5.48-12.61-10.46-16.33-4.98-3.72-10.73-5.58-17.23-5.58-9.56,0-17.2,3.49-22.91,10.46-5.71,6.97-8.57,15.84-8.57,26.59s2.85,19.79,8.57,26.69c5.71,6.91,13.35,10.36,22.91,10.36Z"/>
        <path d="M483.39,362.33c0-15.27,5.08-28.12,15.24-38.55,10.16-10.42,22.74-15.64,37.75-15.64s27.59,5.21,37.75,15.64c10.16,10.43,15.24,23.28,15.24,38.55s-5.08,27.92-15.24,38.35c-10.16,10.43-22.74,15.64-37.75,15.64s-27.59-5.21-37.75-15.64c-10.16-10.42-15.24-23.21-15.24-38.35ZM512.07,388.63c6.24,7.04,14.34,10.56,24.3,10.56s18.06-3.52,24.3-10.56c6.24-7.04,9.36-15.8,9.36-26.3s-3.12-19.25-9.36-26.3c-6.24-7.04-14.34-10.56-24.3-10.56s-18.06,3.52-24.3,10.56c-6.24,7.04-9.36,15.81-9.36,26.3s3.12,19.26,9.36,26.3Z"/>
        <path d="M605,310.14h18.53v13.35h.4c3.45-4.78,8.13-8.53,14.04-11.26,5.91-2.72,11.85-4.08,17.83-4.08,10.89,0,19.69,3.62,26.39,10.86,6.7,7.24,10.06,17.76,10.06,31.57v63.75h-18.53v-60.36c0-19.12-7.44-28.69-22.31-28.69-8.24,0-14.94,2.82-20.12,8.47-5.18,5.65-7.77,12.78-7.77,21.42v59.16h-18.53v-104.19Z"/>
        <path d="M714.24,270.9h20.52l51.99,118.73h.4l51.79-118.73h20.52v143.43h-19.72v-99.4h-.4l-43.83,99.4h-17.53l-43.63-99.4h-.4v99.4h-19.72v-143.43Z"/>
        <path d="M931.07,270.9c20.58,0,37.22,6.77,49.9,20.32,12.68,13.55,19.02,30.68,19.02,51.39s-6.34,37.85-19.02,51.4c-12.68,13.55-29.32,20.32-49.9,20.32h-48.01v-143.43h48.01ZM930.28,395.8c15.27,0,27.32-4.98,36.16-14.94,8.83-9.96,13.25-22.71,13.25-38.25s-4.42-28.29-13.25-38.25c-8.83-9.96-20.88-14.94-36.16-14.94h-27.49v106.38h27.49Z"/>
      </g>
    </g>
  </g>
</svg>