<?xml version="1.0" encoding="UTF-8"?>
<svg id="Layer_2" xmlns="http://www.w3.org/2000/svg" viewBox="0 0 244 79.09">
  <defs>
  </defs>
  <g id="Layer_1-2" data-name="Layer_1">
    <g>
      <path class="cls-15" d="M0,33.09c1.49-1.54,1.27-3.69,1.84-5.52C7.43,9.82,25.85-2.77,46.04.52c21.06,3.43,35.02,20.93,33.91,41.51-.93,17.19-13.36,31.74-30.85,36.07-.78.19-1.69.04-2.09.99h-14c-.42-.93-1.32-.79-2.09-.99-15.17-3.95-25.07-13.41-29.69-28.41-.37-1.21.13-2.73-1.22-3.61v-13ZM57.98,71.03c12.24-5.98,18.02-16.4,18.9-29.42,1.09-16.04-8.41-30.19-23.22-36.03C38.83-.28,21.95,3.97,11.53,16.13,2.53,26.63.23,43.03,6.4,54.05c4.98-.52,10.13-.61,15.01-2.48,5.26-2.01,7.08-7.29,10.38-11.72,1.44,4.04,1.65,8.18,5.63,10.13,3.3.79,4.93-1.61,6.48-3.68,6.37-8.5,8.74-18.12,7.52-28.64-.21-1.84-.78-3.7.25-6.25,5.72,7.49,9.58,15.1,12.1,23.36,2.21,7.24,2.96,14.62,1.18,22.14-1.25,5.27-4.47,9.51-6.88,14.18-.39,0-.86-.08-.72.59.65.18.65-.24.64-.67Z"/>
      <path d="M243.1,53.23c-.97,4.35-3.92,6.82-7.96,8.11-4.23,1.36-8.51,1.35-12.74-.1-5.12-1.75-8.1-5.45-8.26-10.74-.28-9.32-.3-18.66,0-27.98.17-5.28,3.22-8.9,8.32-10.71,9.02-3.22,17.72.17,20.65,8.14-.1,1.47-.69,3.04.88,4.16v25c-1.55,1.11-1,2.67-.9,4.13ZM228.87,54.08c1.78-.85,2.07-2.23,2.07-3.78,0-9.3.01-18.6,0-27.9,0-1.55-.24-3.04-2.24-3.17-.82.41-1.57.94-1.57,1.82-.05,10.29-.05,20.59-.04,30.88,0,.9.7,1.46,1.79,2.15Z"/>
      <path class="cls-1" d="M163,79.09c-1.03-1.26-3.49-1.28-3.27-4.19,3.08,2.13,6.09,3.63,9.37.57-1.84-4.22-7-.67-8.94-4.1-.63-1.08-.39-2.2,0-3.32,4.64-3.15,7.18-2.91,10.22,1.55-3.32-1.15-6.33-3.2-9.01-.12,1.79,4.46,8.9-.09,9.61,5.85,0,2.11-2.19,2.38-2.97,3.77h-5Z"/>
      <path class="cls-10" d="M236,79.09c-.84-1.26-3.35-1.11-2.92-3.46,4.57,2.21,6.18,2.11,8.9-.69-1.98-3.48-6.75-.15-8.7-3.58-1.21-2.79.37-4.31,2.82-5.15,2.76-.95,5.07.07,7.33,3.34-3.29-1.03-6.32-3.23-9.11.14,2.63,3.28,6.87,1.33,9.67,3.39v4c-1.16.42-2.32.86-3,2h-5Z"/>
      <path class="cls-5" d="M104.99,78.12v-11.79c3.68-.02,6.99-1.17,9.67,1.78,1.47,2.69.48,4.77-1.59,6.39.33,1.84,2.7,2.54,1.93,4.59h-1c-1.53-2.48-2.98-5.08-6.27-4.73-1.6,1.07.04,3.93-2.74,3.76ZM114,70.65c-.8-2.71-2.65-2.69-4.51-2.63-.81.03-1.67-.12-2.36.71-.3,1.34-.7,2.76.46,4.19,2.32,0,4.96.99,6.42-2.27Z"/>
      <path class="cls-11" d="M142,79.09c-.35-4.15-.36-8.3,0-12.84,3.77,1.86,4.65,6.14,7.8,8.19,1.2-2.54-.62-5.62,1.87-8.53.6,4.52.45,8.31.18,12.67-4.21-1.82-4.95-6.06-8.85-8.51v9.01h-1Z"/>
      <path class="cls-14" d="M91,79.09v-10.05c-1.44-1.6-3.31-.33-4.43-1.55,2.34-1.81,6.65-1.98,11.2-.34-1.2,1.42-2.89.61-4.36,1.27-.86,3.43-.2,7.08-.41,10.67h-2Z"/>
      <path class="cls-6" d="M122,79.09c1.09-4.75,3.9-8.65,6.6-13.76,2.35,5.07,5.57,8.79,6.4,13.76h-1c-.53-1.36-1.22-2.6-2.39-3.6-2.05-.29-4.13-.28-6.12,0-1.3.96-1.75,2.37-2.49,3.59h-1ZM125.96,73.92c1.9.03,3.43.51,5.02-.35-.56-1.73-1.11-3.21-2.41-4.32-1.36,1.05-1.85,2.55-2.61,4.67Z"/>
      <path class="cls-9" d="M224,79.09c-1.82-2.39-3.34-5.26-7.07-4.79-1.19,1.55-.7,3.24-.93,4.79h-1c-.13-3.99-.4-7.97.07-11.95.61.17.9.63,1.1,1.18.09,1.44-.37,2.93.55,4.68h5.15c.35.31.69.62,1.04.94-1.11.82-.17,1.39.32,1.88.93.93,1.78,1.86,1.77,3.28h-1Z"/>
      <path class="cls-3" d="M180.13,74.23c-.04,1.62-.09,3.24-.13,4.86h-1c-.22-3.99-.4-7.98.04-11.96.61.13.91.57,1.1,1.11,0,1.23.02,2.46.02,3.69-.01.77-.02,1.53-.03,2.3Z"/>
      <path class="cls-12" d="M197,79.09c.03-.35.05-.71.08-1.06,2.96.01,5.93.02,8.89.03.01.34.02.69.03,1.03h-9Z"/>
      <path class="cls-18" d="M243.1,53.23c-.1-1.46-.65-3.03.9-4.13v4c-.31-.03-.61.02-.9.13Z"/>
      <path class="cls-16" d="M244,24.09c-1.57-1.12-.99-2.69-.88-4.16.29.05.59.1.88.16v4Z"/>
      <path d="M134.95,28.75c1.32.86,2.27.54,3.69.38V12.16h13v48.82h-12.73v-19.38c-1.2-1.33-2.22-1.09-3.72-.99v20.35h-13V12.08h12.75v16.68Z"/>
      <path class="cls-2" d="M207.29,61.06h-11.06c-2.78-6.11-3.49-13.13-7.07-20.36v20.23h-10.62V12.11c3.56-.4,7.09-.38,10.84.02,2.16,6.43,4.28,12.77,6.4,19.1.27-.06.53-.12.8-.18V12.32c3.65-.8,7.06-.46,10.72-.22v48.96Z"/>
      <path d="M109.41,35.69c4.53,1.53,5.97,4.64,5.81,8.97-.19,5.3-.05,10.62-.05,16.16-3.86.8-7.64.24-11.75.33-.86-6.96.23-13.94-.64-20.61-.91-1.23-1.89-1.67-3.51-1.1v21.43c-4.39.61-8.48.28-12.86.23V12.03c6.84-.32,13.62-.32,20.37.24,2.95.24,5.51,1.74,6.82,4.46,2.35,4.86,2,10.01.83,15.1-.54,2.34-2.9,2.82-5.03,3.86ZM102.84,29.86c.37-2.79.6-5.57-.09-8.25-.96-.88-1.84-1.62-3.34-1.06-.4,3.44-.61,6.94.08,10.33,1.36.37,2.29.23,3.35-1.02Z"/>
      <path class="cls-2" d="M158.67,60.93V11.92c4.24-.01,8.42-.31,12.83.27v48.75h-12.83Z"/>
      <path class="cls-4" d="M216.17,68.32c-.19-.55-.49-1.01-1.1-1.18,3.48-2.15,6.58-1.22,9.63,1,.47,2.38,1.22,4.64-1.79,5.79-.35-.31-.69-.62-1.04-.94,1.11-1.33,1.92-2.71.46-4.47-1.95-.84-4.06-.49-6.16-.2Z"/>
      <path class="cls-9" d="M205.97,78.06c-2.96-.01-5.93-.02-8.89-.03-.3-3.63-.3-7.25,0-10.88.64.14.92.63,1.15,1.17v3.02c2.34,1.37,4.98,0,7.62,1.19-2.47,1.22-4.95.06-7.08.86-.82,1.11-.74,2.16-.2,3.21,2.29,1.59,5.29-.73,7.42,1.45Z"/>
      <path class="cls-7" d="M180.14,68.24c-.19-.54-.48-.98-1.1-1.11,2.8-1.97,5.72-.9,9.5-.58-3.04,2.54-5.95.95-8.41,1.69Z"/>
      <path class="cls-8" d="M198.22,68.33c-.23-.54-.51-1.03-1.15-1.17,2.78-2.47,5.77-.34,8.68-.59-2.13,2.58-5.11.85-7.53,1.76Z"/>
      <path class="cls-13" d="M180.13,74.23c.01-.77.02-1.53.03-2.3,2.31.12,4.62.23,6.93.4.17.01.31.47.7,1.11-2.53,1.17-5.21.28-7.66.79Z"/>
      <path class="cls-17" d="M57.98,71.03c0,.43.01.85-.64.67-.14-.67.33-.58.72-.59l-.08-.08Z"/>
    </g>
  </g>
</svg>