<?xml version="1.0" encoding="UTF-8"?>
<svg id="Layer_2" xmlns="http://www.w3.org/2000/svg" viewBox="0 0 969 221">
  <defs>
    <style>
      .cls-1 {
        fill: #404040;
      }

      .cls-2 {
        fill: #010101;
      }

      .cls-3 {
        fill: #151515;
      }

      .cls-4 {
        fill: #2f2f2f;
      }

      .cls-5 {
        fill: #232323;
      }

      .cls-6 {
        fill: #292929;
      }

      .cls-7 {
        fill: #5f5f5f;
      }

      .cls-8 {
        fill: #828282;
      }

      .cls-9 {
        fill: #1c1c1c;
      }

      .cls-10 {
        fill: #f6f6f6;
      }

      .cls-11 {
        fill: #0d0d0d;
      }

      .cls-12 {
        fill: #1d1d1d;
      }

      .cls-13 {
        fill: #212121;
      }

      .cls-14 {
        fill: #5c5c5c;
      }

      .cls-15 {
        fill: #272727;
      }

      .cls-16 {
        fill: #4f4f4f;
      }

      .cls-17 {
        fill: #797979;
      }

      .cls-18 {
        fill: #141414;
      }

      .cls-19 {
        fill: #060606;
      }

      .cls-20 {
        fill: #020202;
      }

      .cls-21 {
        fill: #343434;
      }

      .cls-22 {
        fill: #101010;
      }

      .cls-23 {
        fill: #878787;
      }

      .cls-24 {
        fill: #8b8b8b;
      }

      .cls-25 {
        fill: #747474;
      }

      .cls-26 {
        fill: #0c0c0c;
      }

      .cls-27 {
        fill: #424242;
      }

      .cls-28 {
        fill: #949494;
      }

      .cls-29 {
        fill: #bfbfbf;
      }

      .cls-30 {
        fill: #131313;
      }

      .cls-31 {
        fill: #202020;
      }

      .cls-32 {
        fill: #2d2d2d;
      }

      .cls-33 {
        fill: #313131;
      }

      .cls-34 {
        fill: #0f0f0f;
      }

      .cls-35 {
        fill: #161616;
      }

      .cls-36 {
        fill: #0e0e0e;
      }

      .cls-37 {
        fill: #222;
      }
    </style>
  </defs>
  <g id="Layer_1-2" data-name="Layer_1">
    <g>
      <path d="M0,203c6.48-6.56,14.99-5.64,22.95-5.73,24.99-.29,49.99-.09,74.98-.11,33.13-.02,66.26-1.92,99.39-.95,22.11.64,44.16,2.82,66.29,3.35,23.45.56,46.89,1.67,70.34,2.41,12.82.41,25.37,3.79,38.24,3.51,19.13-.43,38.52.84,57.34-1.83,27.91-3.97,55.95-.46,83.7-3.76,44.42-5.27,89.12-3.24,133.62-5.94,21.75-1.32,43.4-4.1,65.23-4.51,21.63-.41,43.27-.91,64.89-1.66,16.14-.55,32.39-1.83,48.37.27,23.34,3.07,46.52.21,69.77.14,20.8-.07,41.61.81,62.36-1.31,4.44-.45,8.62.13,11.52,4.12v7c-3.52,3.47-7.66,5.42-12.62,6.28-14.42,2.5-28.85,1.59-43.32.94-20.15-.92-40.29.12-60.4,1.3-14.08.82-27.83-2.86-41.8-2.63-31.96.53-63.89,1.98-95.86,2.07-13.31.04-26.64.48-39.84,2.29-12.55,1.72-25.14,3.03-37.76,3.49-41.23,1.5-82.54,1.08-123.67,5.24-19.42,1.97-38.95.67-58.4,1.57-5.82.27-11.74.21-17.31,2.45h-89c-.68-1.35-2.02-.94-3.09-1.06-12.73-1.42-25.54-1.44-38.32-2.04-35.19-1.64-70.38-3.25-105.58-4.71-27.05-1.13-54.2.36-81.31.63-35.76.36-71.52.68-107.28.99-5.04.04-10.02-.22-13.42-4.82v-7Z"/>
      <path d="M811,0c5.05,1.63,10.54,4.8,15,4.65,6.17-.2,8.52,2.34,11.18,6.37.43.65,1.26,1.1,1.98,1.49,15.29,8.31,15.89,25.63,12.39,37.55-1.26,4.29-4.73,7.36-7.54,10.72-4.11,4.94-4.86,8.68-2.21,12.57,3.23,4.76,9.21,7.15,14.33,5.34,14-4.95,27.35-3.92,40.3,3.53,6.92,3.98,11.26,2.81,16.55-3.34,1.67-1.94,2.83-5.13,6.37-4.17,4.29,1.16,4.51,4.86,4.79,8.36.91,11.28-3.41,21.36-8.36,30.9-6.77,13.08-16.46,23.69-30.44,29.62-.15.06-.31.12-.44.22-2.72,2.04-7.86.52-8.76,4.22-.76,3.11.84,6.82,1.49,10.24,1.31,6.93.84,7.64-5.99,8.66-3.78.56-7.57,1.04-11.34,1.68-1.25.21-2.52.35-3.08-.85-.74-1.6.67-2.51,1.79-3.04,3.23-1.53,6.8-1.49,10.26-1.65,3.65-.17,4.76-1.37,3.8-5.19-2.35-9.34-2.18-9.4-11.81-9.38-4.33,0-8.71.19-12.87-1.13-2.66-.84-3.64.27-4.32,2.48-1.32,4.28-2.73,8.53-4.03,12.81-.58,1.9-1.54,2.89-3.63,2.13-5.29-1.93-10.61-3.8-15.88-5.8-1.39-.53-3.07-1.55-2.48-3.22.62-1.78,2.64-1.11,3.9-.73,3.96,1.21,7.92,2.52,11.73,4.14,2.36,1,2.96.37,3.72-1.89,3.59-10.66,3.75-10.77-6.21-15.96-8.54-4.45-16.19-9.83-21.66-17.92-9.01-13.32-6.94-26.75-.33-40.15,1.46-2.96,3.46-5.67,5.41-8.36,2.09-2.89,1.35-4.61-1.97-5.22-6.81-1.25-11.55-5.59-15.83-10.52-2.09-2.41-3.76-1.25-5.57.05-8.14,5.88-18.24,2.31-20.89-7.41-.85-3.13-.38-6.02,2.03-8.27,2.34-2.19,5.11-2.07,7.91-.85.91.4,1.8.85,2.72,1.23,5.75,2.36,5.3,1.73,6.28-4.28,1.35-8.23-2.95-11.97-8.73-15.71-4.6-2.97-8.93-6.38-13.32-9.68-1.44-1.09-3.25-2.47-1.64-4.49,1.55-1.94,3.16-.01,4.29.79,5.56,3.95,11.02,8.04,16.4,12.23,2.4,1.86,3.58,1.53,4.33-1.44.65-2.57,1.57-5.07,2.49-7.56,2.76-7.45,7.49-12.48,15.97-12.9.32-.02.62-.6.93-.92.33,0,.67,0,1,0ZM808.57,99.62c-.2,11.41,2.52,18.92,8.68,24.91,3.57,3.47,7.45,6.66,11.43,9.66,18.16,13.67,45.12,13.54,63.19-.2,12.54-9.54,21.03-22.03,26.55-36.67,1.56-4.14,1.97-8.44,1.47-12.77-.33-2.83-2.14-4.12-4.36-1.76-7.95,8.47-16.27,7.19-25.14,1.67-6.85-4.27-14.4-4.75-22.17-3.15-3.42.71-6.84,1.39-10.26,2.11-7.09,1.5-13.18-.72-18.41-5.35-5.77-5.1-6.05-12.27-1-18.12,1.09-1.26,2.11-2.58,3.26-3.78,2.98-3.11,3.17-5.36-.89-8.18-12.33-8.59-25.43-14.91-40.55-16.69-5.36-.63-6.19-.33-6.52,5.06-.87,14.21,7.4,25.53,20.92,28.64,5.91,1.36,8.02,6.07,4.99,11.35-.82,1.43-2.03,2.64-2.91,4.05-4.22,6.81-7.67,13.91-8.27,19.23ZM839.8,31.89c-1.54-6.19-2.53-13-7.32-18.39-1.12-1.26-2.17-1.79-3.86-1.57-8.75,1.11-14.49,5.84-17.75,14.01-1.05,2.63-.41,3.45,2.09,4.02,6.53,1.49,12.51,4.38,18.36,7.55,7.07,3.82,8.54,2.92,8.48-5.61ZM823.7,8.95c-14.27-6.4-24.21-2.71-28.36,9.31-2.45,7.11-2.3,6.86,4.82,8.87,3.8,1.07,5.24-.02,6.48-3.29,2.81-7.44,6.97-13.64,17.06-14.89ZM783.88,58.16c2.62.64,4.27-1.77,6.48-2.72,1.08-.46,3.56.08,2.51-2.46-.64-1.55-.87-3.9-3.44-3.41-3.15.6-5.81-.73-8.59-1.75-1.92-.71-4.27-2.29-5.75.12-1.4,2.27-.67,4.83,1.14,6.87,1.97,2.22,4.4,3.47,7.66,3.35ZM841.56,20.05c2.33,5.84,2.46,11.66,1.41,17.59-.23,1.3-.54,2.59-.68,3.9-.34,3.16,2.11,4.83,4.3,5.12,2.27.3,1.2-2.5,1.49-3.91.77-3.77.47-7.61-.19-11.35-.78-4.45-1.87-8.86-6.35-11.35Z"/>
      <path d="M36.91,140.2c-.23.21-.59.38-.67.63-3.16,10.28-2.78,11.02,8.02,13.26,7.75,1.61,15.47,1.9,23.12-.89,3.29-1.2,4.84-2.91,4.56-6.61-.56-7.3-.86-14.62-1.06-21.93-.09-3.24-1.46-4.2-4.59-4.22-12.82-.08-25.64-.51-38.46-.55-4.36-.02-6.97-1.36-9.41-5.36-4.21-6.9-6.05-13.68-4.58-21.74,1.45-7.99,1.12-16.3,3.44-24.16,2.29-7.76,3.23-8.19,11.24-7.5,12.51,1.07,24.9-1.5,37.39-1.23,4.08.09,8,.65,11.67,2.2,4.21,1.78,7.14,4.58,6.62,9.9-.45,4.63-.55,9.34-.27,13.97.23,3.73-1.25,4.69-4.55,4.21-.98-.14-2-.17-2.99-.13-4.53.2-6.41-1.66-6.39-6.46.03-6.37-1.79-7.79-8.2-7.75-7.33.04-14.66.24-21.98.3-3.64.03-5.78,1.77-7.04,5.18-1.71,4.64-1.98,9.37-1.9,14.24.06,3.41,1.05,4.4,4.72,4.18,14.63-.89,29.27-.78,43.93-.1,4.11.19,4.56,1.83,4.5,5.03-.34,17.14-.61,34.28-.91,51.42-.01.67-.24,1.38-.07,1.99,1.69,5.93-.85,9.88-5.09,13.99-4.29,4.16-8.76,5.33-14.4,4.99-10.79-.64-21.61-.73-32.41-1.25-11.85-.58-18.65-8.34-18.35-20.29.15-5.99-.2-11.98-.26-17.97-.02-1.59-.51-3.85,1.43-4.3,2.37-.54,2.4,1.53,2.33,3.29-.08,1.99,1.54,1.38,2.51,1.41,4.83.13,9.66.16,14.49.2,1.65.01,3.46-.33,3.49,2.2l.14-.16Z"/>
      <path d="M420.01,141.24c.93-16.09-1.18-31.28-2.41-46.51-.71-8.79-1.21-17.6-1.75-26.4-.14-2.28-.55-4.71,3.01-4.95,3.28-.22,6.71-1.51,8.57,2.74,1.98,4.54,2.36,9.38,2.36,14.18-.02,23.48.44,46.96,1.27,70.43.21,5.98.94,11.94,1.57,17.9.71,6.67-.82,8.75-7.46,9.74-10.42,1.54-10.33,1.52-13.31-8.46-7.33-24.56-18.02-47.82-27.93-71.37-.99-2.35-2.82-4.35-4.7-7.18-2.74,11.5-2.47,22.33-3,33.06-.77,15.46.11,30.98-1.18,46.43-.14,1.65-.48,3.29-.8,4.92-.36,1.82-.7,3.7-3.2,3.74-2.2.03-3.95-.77-4.81-2.86-1.42-3.41-2.03-7.01-2.21-10.7-1.35-28.32.6-56.57,1.76-84.83.16-3.98.45-7.96.82-11.93.33-3.53,2.36-5.35,5.95-5.39.66,0,1.31-.23,1.97-.27,8.67-.55,8.8-.6,12.23,7.21,9.42,21.42,19.89,42.37,28.57,64.13.88,2.21,1.68,4.63,4.7,6.4Z"/>
      <path d="M515,106.5c-.04-14.98-.38-29.94-1.45-44.89-.52-7.33,1.6-9.44,9-9.44,1.33,0,2.68.14,3.99-.03,3.47-.46,4.11,1.56,3.54,4.21-3.88,18-2.26,36.41-4.11,54.56-1.02,10.01,2.62,19.35,4.1,29,.36,2.33,1.88,3.27,4.3,3.09,8.12-.6,16.26-.96,24.37-1.69,5.52-.5,10.95-7.68,11.24-14.56.88-20.77,1.68-41.54,2.53-62.31.06-1.49.35-2.99.3-4.47-.14-3.83.16-6.82,5.45-6.22,5.2.58,6.68,1.74,6.75,7.09.34,26.46.49,52.92,1.12,79.38.19,7.9-2.36,14.19-6.36,20.88-5.03,8.4-10.62,11.19-20.42,9.4-10.37-1.89-21.23-.89-31.45-4.47-1.57-.55-3.24-.18-4.8.71-3.91,2.24-5.61.71-6.41-3.45-.91-4.76-1.66-9.5-1.66-14.33-.02-14.15,0-28.3,0-42.46Z"/>
      <path d="M236.04,138.1c-.69,8.97-.55,17.96-.13,26.92.16,3.45-1.1,4.45-4.24,3.99-1.64-.24-3.31-.27-4.95-.49-2.64-.36-3.9-1.56-3.95-4.59-.58-31.11-1.43-62.22.29-93.33.19-3.37,1.78-4.72,4.62-5.45,7.22-1.85,14.55-1.65,21.84-.89,9.6,1.01,19.19,2.28,28.86,1.5,3.52-.29,5.04,1.07,5.9,4.33.78,2.93,1.26,5.83,1.23,8.84-.12,13.65-.32,27.3-.27,40.95.01,2.91-.75,4.33-3.73,4.44-1.31.05-2.63.39-3.91.73-4.08,1.08-5.99,4.21-4.52,7.99,4.21,10.82,8.41,21.66,13.02,32.31,1.77,4.09-.09,5.11-3.3,5.53-4.04.53-7.06.34-9.53-4.49-5.36-10.48-11.87-20.37-18.13-30.38-3.28-5.24-13.43-5.65-18.32-1.01-1.07.82-.91,1.96-.79,3.08ZM255.44,75.99c-6.42,0-11.23,0-16.05,0-2.64,0-3.75,1.46-3.08,3.85,2.74,9.82,1.23,19.83,1.47,29.75.24,9.75.09,9.98,9.44,8.29,7.75-1.41,15.96-1.48,22.68-6.52,1.28-.96,3.21-1.72,2.86-3.73-1.61-9.19-1.27-18.53-2.2-27.77-.22-2.16-1.07-3.51-3.79-3.44-4.3.11-8.62-.31-11.33-.44Z"/>
      <path d="M441.5,114.91c0-12.96.15-25.93-.05-38.88-.13-8.64,3.48-12.84,12.62-14.01,6.29-.81,12.2.98,18.17,2.43,5.66,1.37,11.32,2.53,17.18,2.76,12.08.47,21.15,9.25,21.34,21.29.36,22.79.28,45.59.43,68.38.01,2.09-.46,3.88-1.84,5.5-.96,1.13-1.75,2.43-2.47,3.73-6.4,11.51-15.19,18.75-29.35,16.92-2.08-.27-4.47-.06-6.4.72-9.1,3.64-16.35-1.13-23.81-4.93-2.2-1.12-2.25-3.4-2.52-5.62-2.38-19.36-1.86-38.84-3.29-58.28ZM495.99,90c-.65-.67-1.29-1.34-1.94-2.01-10.89-6.27-22.58-9.39-35.19-9.21-3.14.04-3.86,1.15-3.75,4.11.56,14.78,1.18,29.56.36,44.35-.6,10.84-.03,21.58,1.61,32.29.67,4.39,4.34,9.3-2.77,11.94.88.76,1.12,1.15,1.35,1.14,15.27-.69,29.85-4.28,43.77-10.58,2.25-1.02,3.08-2.93,3.47-5.12,1.1-6.25,2.07-12.62.27-18.8-2.62-8.97-3.91-17.96-3.43-27.32.24-4.61-.25-9.32-.95-13.9-.36-2.37.21-5.47-2.8-6.89Z"/>
      <path d="M218.98,116.54c-.54,14.63-.6,29.24.8,43.84.82,8.46-4.05,14.94-8.39,21.29-1.51,2.21-5.62,1.3-8.57,1.11-6.63-.43-13.24-1.19-19.87-1.56-4.47-.25-8.98-.41-13.42.6-2.02.46-3.21.31-3.7-2.37-7.01-38.32-9.61-76.81-5.25-115.65.36-3.24,1.57-3.94,4.52-4.03,11.57-.38,22.83-3.83,34.61-2.91,11.02.86,18.18,6.65,19.41,17.81,1.06,9.62-.45,19.26-.17,28.9.13,4.32.02,8.65.02,12.97ZM206.83,113.12c-.29,0-.58,0-.87,0,0-11.79-.02-23.59.01-35.38,0-3.24-1.29-4.57-4.72-4.87-6.88-.6-13.61.02-20.32,1.26-11.45,2.13-11.44,2.17-11.43,13.85,0,.83,0,1.66,0,2.5.12,21.62,1.03,43.2,3.71,64.67.26,2.07-.03,4.48,1.98,5.94,4.03,2.93,7.89,6.18,12.24,8.55,11.15,6.09,15.65,3.94,19.68-8.05,1.7-5.05.14-9.67-.1-14.53-.57-11.29-.18-22.62-.18-33.94Z"/>
      <path d="M650,111.08c-.8-14.46,2.25-28.91,0-43.37-.33-2.13-.65-4.28-.81-6.43-.2-2.79.27-5.46,3.17-6.72,2.96-1.28,5.99-.63,8.69.73,2.04,1.03,1.08,3.3,1.04,5-.33,15.13-1.12,30.27-.05,45.4.11,1.54-.74,3.7,1.19,4.48,1.99.81,3.92-.27,5.51-1.54,3.55-2.84,6.05-6.61,8.82-10.14,8.93-11.38,16.88-23.57,27.31-33.73,2.74-2.66,5.77-5.02,8.63-7.56,1.66-1.47,2.71-1.42,3.54.87,1.97,5.41,2.65,10.95,1.96,16.65-.26,2.12-1.39,3.93-3.18,4.85-7.93,4.07-12.54,11.23-17.4,18.19-2.76,3.96-5.61,7.85-8.24,11.9-1.44,2.22-2.71,3.9-5.88,3.39-3.23-.52-2.71,2.28-2.53,4.09.45,4.53,2.2,8.69,4.51,12.57,8.33,13.99,16.74,27.93,25.11,41.91.73,1.23,2.34,2.45,1.33,3.96-.78,1.16-2.46.43-3.75.47-6.53.25-11.02-2.45-14.85-8-7.38-10.67-15.55-20.79-23.51-31.04-1.14-1.47-1.78-4.44-4.69-3.15-2.67,1.18-3.62,3.36-3.5,6.44.39,9.97.61,19.96.54,29.94-.01,1.39,1.66,5.04-1.54,4.46-2.96-.54-7.89.94-8.36-4.81-1.44-17.75-3.02-35.48-3.08-53.31,0-1.83,0-3.67,0-5.5Z"/>
      <path d="M88.51,182.55c-1.24-1.82-1.02-3.99-.57-5.71,2.36-9.12,1.02-18.15.02-27.24-1.59-14.44-.83-28.94-1.06-43.42-.12-7.48-.9-14.97-.04-22.45.26-2.31.62-4.6,1.04-6.89.75-4.12,3.03-5.34,7.2-4.43,13.52,2.95,27.13,5.17,41.06,3.63.66-.07,1.33-.1,1.99-.16,3.51-.3,7.52-2.92,10.38.4,3.62,4.21,7.14,8.62,7.06,14.91-.13,10.15.08,20.31.5,30.46.16,3.9-.69,5.18-4.92,5.64-14.18,1.54-28.59,1.5-42.46,5.63-3.46,1.03-4.86,2.64-4.78,6.3.21,10.15,0,20.31.18,30.47.06,3.46-1.38,6.08-3.38,8.59-.96,1.21-2.26,1.99-3.87,2.01-4.39.05-6.48.59-8.35,2.27ZM126.89,87c-5.37.32-11.84,1.01-18.32.99-4.33-.01-5.93,2.04-6.52,5.81-1.04,6.65-.37,13.28.11,19.92.06.8.23,1.37.97,2.03,4.85,4.34,10.6,5.37,16.74,4.62,7.92-.96,15.81-2.23,23.71-3.33,2.7-.37,3.96-2.05,4.65-4.52,2.19-7.83-.25-15.13-3.99-21.51-2.87-4.89-9.16-3.7-14.24-4-.66-.04-1.33,0-3.12,0Z"/>
      <path d="M626.1,83.35c-4.03.22-8.67.56-13.32.7-3.45.1-5.31,1.65-6.32,5.01-4.26,14.07-4.8,28.48-4.05,42.97.28,5.38-1.27,12.8,2.68,15.66,6.39,4.62,14.59,6.99,22.96,7.17,5.3.11,10.62-.29,15.89.91,2.48.56,3.17,1.29,2.54,4-2.34,9.95-5.26,12.94-15.32,12.64-11.95-.35-23.87-1.61-35.82-2.23-2.85-.15-2.64-2.1-2.95-3.66-5.77-29.24-7-58.39,1.91-87.32,1.41-4.58,1.54-10.81,4.65-13.23,2.76-2.15,8.82.06,13.42.1,8.49.07,16.98.07,25.46-.12,3.08-.07,4.61,1,4.76,4.11.1,1.99.4,3.97.58,5.95.71,8,.7,8.02-7.47,7.81-2.99-.08-5.97-.29-9.59-.47Z"/>
      <path d="M324.36,65.76c9.79-.26,19.55-1.36,29.36.17,4.47.7,7.02,2.3,6.86,7.23-.12,3.81-.08,7.69.49,11.45.79,5.18-1.84,6.05-6.08,5.95-3.48-.08-7,.02-10.44.49-5.45.74-7.32,3.11-7.73,8.61-1.69,22.61.2,45.21.33,67.81.02,3,1.1,6.57-4.18,6.41-6.35-.19-7.63-1.09-7.99-6.51-1.4-21.07-.86-42.22-2.92-63.26-.39-4,.03-7.84,1.92-11.61,2.91-5.81.6-9.86-6.03-10.24-7.13-.41-14.31-.27-21.46-.03-4.46.15-6.17-.63-4.85-5.78,2.27-8.85,1.88-8.97,10.8-9.49,7.3-.42,14.6-.81,21.91-1.21Z"/>
      <path class="cls-36" d="M304.93,104.8c-.97-3.4-1.67-5.85-2.37-8.31-.29-1.04-1.12-2.41.92-2.44,1.28-.02,3.19-.91,3.4,1.54.24,2.8.4,5.61-1.96,9.21Z"/>
      <path class="cls-18" d="M66.68,131.26c.76,2.65.6,5.25-1.42,7.05-.8.71-2.95-.67-2.94-1.83,0-2.54,1.08-4.77,4.37-5.21Z"/>
      <path class="cls-9" d="M360.92,113.07c.56,5.45,1.14,10.89-.28,16.74-1.22-2.03-.4-3.96-.77-5.7,1.07-3.61-1.17-7.53,1.05-11.03Z"/>
      <path class="cls-33" d="M108.98,144.04c-1.7-1.79-2.53-3.58-.62-5.25.51-.44,2.07-.63,2.24-.36,1.47,2.37-1.11,3.64-1.62,5.61Z"/>
      <path class="cls-8" d="M360.92,113.07c-2.22,3.5.03,7.42-1.05,11.03-.87-4.62-.85-9.28-.8-14.34,1.65.88,2.12,1.89,1.85,3.3Z"/>
      <path class="cls-13" d="M606.19,135.09c2.19,1.52,3.51,3.04,3.56,5.32,0,.12-1.16.52-1.64.36-2.72-.91-2.28-3.1-1.92-5.69Z"/>
      <path class="cls-20" d="M109.97,171.52c-1.54-2.34-1.12-4.75-.76-7.51,2.5,2.52,1.46,5.04.76,7.51Z"/>
      <path class="cls-20" d="M36.76,140.36c1.52-.21.65-2.63,2.66-2.67.88,2.31.34,4.39-.78,6.45-1.85-.84-1.36-2.57-1.74-3.94,0,0-.15.17-.15.17Z"/>
      <path class="cls-35" d="M384.82,107.22c-2.69-2.04-3.12-4.38-2.54-7.47,2.47,2.07,2.68,4.48,2.54,7.47Z"/>
      <path class="cls-6" d="M245.68,137.44c2.21-2.19,4-1.47,5.92-.08-1.89,2.01-3.7,2.08-5.92.08Z"/>
      <path class="cls-15" d="M278.1,136.42c-2.73-1.43-3.47-2.9-3.05-4.87.06-.26.99-.66,1.24-.51,1.9,1.11,1.48,2.96,1.8,5.39Z"/>
      <path class="cls-30" d="M150.24,138.34c2.12-2.23,3.72-2.81,5.47-3.1.09.64.48,1.44.22,1.88-1.18,2.05-3.09.72-5.69,1.22Z"/>
      <path class="cls-30" d="M60.97,92.29c1.78-.87,3.53-.46,5.31.02q-2.24,2.36-5.31-.02Z"/>
      <path class="cls-26" d="M236.04,138.1c-.12-1.12-.29-2.26.79-3.08.62,1.35,3.31-.57,3.09,1.79-.28,2.96-2.93-.25-3.87,1.29Z"/>
      <path class="cls-33" d="M884.68,166.89c1.3-1.83,1.89-3.38,3.66-3.71.21-.04.84.69.77.9-.53,1.69-1.75,2.56-4.43,2.81Z"/>
      <path class="cls-1" d="M404.1,154.98c1.38,1.34,1.39,3.02,1.73,5.53-2.52-1.81-2.34-3.79-2.63-5.57l.45-.08.44.11Z"/>
      <path class="cls-4" d="M718.02,95.85c.12,1.21-.37,2.01-1.52,2.14-.57.07-1.41,0-1.38-.94.05-1.27.64-2.2,1.95-2.45,1.07-.2.67.84.95,1.25Z"/>
      <path class="cls-32" d="M283.03,132.09c1.59-.24,1.98.37,2.03,1.28.03.61.14,1.39-.67,1.54-1.26.23-1.64-.77-1.89-1.7-.21-.8.39-1.08.53-1.12Z"/>
      <path class="cls-23" d="M413.3,69.08c.88,1.81.92,3.55,0,6.72v-6.72Z"/>
      <path class="cls-14" d="M666.21,102.25c1.85,1.12,2.21,2.09,1.35,3.25-.18.25-1.05.37-1.2.2-.9-1.04-.25-2.14-.15-3.46Z"/>
      <path class="cls-22" d="M404.1,154.98l-.44-.11-.45.08c-.5-1.32-1.49-2.53-.89-4.36,1.46,1.24,1.8,2.74,1.78,4.39Z"/>
      <path class="cls-19" d="M153.9,77.09c-1.58-.22-1.92-1.6-2.62-2.62.55-.15,1.16-.54,1.64-.41,1.8.47,1.32,1.78.98,3.03Z"/>
      <path class="cls-17" d="M406.05,65.69c-.23,1.15-.81,1.51-1.38,1.06-.39-.31-.57-1.09-.54-1.65.04-.72.75-1.14,1.32-.74.41.29.49,1.06.59,1.32Z"/>
      <path class="cls-25" d="M58.49,125.25c-.38.84-1.01.9-1.64.79-.46-.08-.99-.26-.71-.93.27-.65.78-1.07,1.48-.77.37.15.6.62.86.91Z"/>
      <path class="cls-4" d="M808.47,164.03c-.72-.11-1.17-.48-.78-1.22.19-.37.66-.8,1.02-.82.64-.03,1.23.32,1.12,1.14-.11.77-.64.99-1.36.89Z"/>
      <path class="cls-28" d="M552.6,56.88c-.3-.76-.57-1.14-.58-1.51,0-.61.09-1.37.98-1.19.29.06.73.66.67.89-.16.54-.57,1.01-1.07,1.81Z"/>
      <path class="cls-27" d="M844.43,167.36c-1.19-.23-1.97-.25-1.91-1.11.02-.3.7-.86.89-.79.53.19,1.08.58,1.39,1.04.13.19-.32.77-.37.86Z"/>
      <path class="cls-10" d="M841.56,20.05c4.47,2.49,5.57,6.9,6.35,11.35.65,3.74.96,7.58.19,11.35-.29,1.41.78,4.21-1.49,3.91-2.19-.29-4.64-1.96-4.3-5.12.14-1.31.45-2.6.68-3.9,1.05-5.93.92-11.74-1.41-17.59Z"/>
      <path class="cls-22" d="M495.99,90c-1.14,1.51-.17,5.31-2.06,4.77-2.83-.81.03-3.44.08-5.3.01-.49.03-.99.05-1.48.65.67,1.29,1.34,1.94,2.01Z"/>
      <path class="cls-2" d="M865.63,87.73c8.41.57,16.72,1.68,23.09,8.45,2.72,2.89,5.97,2.54,9.08.49,2.66-1.76,5.52-3.04,8.25-.79,2.7,2.22,2.28,5.49,1.07,8.32-6.5,15.17-15.54,28.24-33.48,29.88-13.22,1.21-24.12-4.93-32.06-15.7-1.79-2.43-2.86-5.35-1.56-8.45.28-.66,1.07-1.39,1.75-1.54.92-.2,1.46.7,1.6,1.55,2.34,14.05,13.38,18.06,24.88,19.87,12.43,1.96,21.59-5,28.67-14.63,2.54-3.45,5.1-7.01,6.18-11.31.36-1.44,1-3.08-.24-4.26-1.18-1.12-2.62-.05-3.67.51-5.19,2.78-9.44,1.93-14.14-1.75-10.91-8.54-24.9-8.44-36.65-.44-1.26.85-2.82,2.05-3.97.76-1.32-1.49-.05-3.24,1.14-4.34,5.6-5.23,12.68-6.12,20.07-6.62Z"/>
      <path class="cls-20" d="M808.6,41.49c-.77,3.06.27,8.1-4.19,8.23-4.81.13-4.1-5-4.71-8.4-.14-.79.12-1.64.2-2.47.23-2.5,1.06-4.75,3.9-4.93,2.9-.18,3.88,2.05,4.35,4.49.19.97.29,1.96.45,3.09Z"/>
      <path class="cls-21" d="M250.65,102.65c-2.44-5.01-2.03-9.12-.21-13.58,1.85,4.46,1.77,8.59.21,13.58Z"/>
      <path class="cls-5" d="M247.88,81.68c-2.2.67-2.38,4.19-5.2,2.28-.83-.56-2.77-1.67-1.57-2.95,1.92-2.04,4.11-.65,6.76.68Z"/>
      <path class="cls-22" d="M268.83,82.84c-.15.6.1,1.68-1.08,1.53-.35-.04-.78-.9-.84-1.42-.08-.68-.22-1.73.98-1.64.71.05.92.75.95,1.53Z"/>
      <path class="cls-37" d="M253.81,85.21c-.88-.1-.84-.82-.84-1.41,0-.63.07-1.43.86-1.5,1.09-.1,1.32.76,1.25,1.63-.06.69-.47,1.2-1.26,1.29Z"/>
      <path class="cls-24" d="M495.31,103.56c.93,2.97.88,4.67,0,6.39v-6.39Z"/>
      <path class="cls-31" d="M173.86,92.07c1.63,9.54,1.25,19.15.81,28.77-1.61-6.43-1.98-12.98-1.89-19.57.85-3.01-.8-6.31,1.09-9.2Z"/>
      <path class="cls-7" d="M173.86,92.07c-1.89,2.88-.23,6.19-1.09,9.2-1.48-4.38-.17-8.84-.98-13.8,2.32,1.44,2.19,3.02,2.07,4.61Z"/>
      <path class="cls-12" d="M177.88,151.05c-.1,3.24,2.05,5.31,4.41,7.74-4.54.23-5.41-2.27-5.47-5.53.35-.74.71-1.47,1.06-2.21Z"/>
      <path class="cls-16" d="M177.88,151.05c-.35.74-.71,1.47-1.06,2.21-.68-1.33-1.59-3.07-.27-4.02,1-.73,1.43.75,1.33,1.82Z"/>
      <path class="cls-11" d="M119.07,92.6c-3.37,1.09-6.74,2.17-10.1,3.27-1.36.45-2.17-.04-2.67-1.34-.57-1.5.18-2.25,1.48-2.46,3.64-.6,7.27-1.71,11.29.53Z"/>
      <path class="cls-3" d="M140.39,92.77c-4.58.5-7.99.1-11.23-1.69,3.56-.81,7.14-1.83,11.23,1.69Z"/>
      <path class="cls-15" d="M107.81,110.05c2.07.97,3.97,2.15,3.82,4.36-.07,1.02-1.92,1.23-2.94.81-2.68-1.11-.71-3.31-.89-5.17Z"/>
      <path class="cls-29" d="M108.91,101.97c-.2.18-.49.67-.79.67-.8.02-1.02-.67-.93-1.3.05-.34.48-.88.77-.9.83-.04.88.68.96,1.52Z"/>
      <path class="cls-34" d="M113.69,111.64c.76.03,1.24.45,1.24,1.18,0,.73-.5,1.24-1.23,1.19-.31-.02-.74-.53-.81-.88-.13-.62-.01-1.28.8-1.48Z"/>
    </g>
  </g>
</svg>