<?xml version="1.0" encoding="UTF-8"?>
<svg id="Layer_2" xmlns="http://www.w3.org/2000/svg" viewBox="0 0 444.3 113.99">
  <defs>
    <style>
      .cls-1 {
        fill: #25bdbe;
      }

      .cls-2 {
        fill: #f05323;
      }

      .cls-3 {
        fill: #065382;
      }
    </style>
  </defs>
  <g id="Layer_1-2" data-name="Layer_1">
    <g>
      <g>
        <path class="cls-3" d="M145.75,62.91c.35.03.61.05.79.06.18,0,.33.01.46.01.16,0,.34,0,.55-.02s.42-.03.66-.05l-.07.36s-.05,0-.08,0c-.03,0-.06,0-.07,0-.23,0-.4.06-.5.19-.11.12-.2.43-.29.92l-.73,4.18c-.02.12-.04.22-.05.31,0,.08-.02.15-.02.2,0,.21.04.35.12.42s.22.11.42.11c.02,0,.04,0,.07,0,.03,0,.05,0,.06,0,.02,0,.04,0,.05,0,.01,0,.02,0,.02,0l-.07.33c-.28-.02-.53-.04-.73-.05-.21-.01-.38-.02-.52-.02s-.32,0-.53.02c-.21,0-.46.03-.75.05l.08-.33s.05,0,.07,0,.06,0,.1,0c.22,0,.38-.06.48-.18.1-.12.19-.4.27-.85l.77-4.42c.01-.07.02-.14.03-.21s.01-.12.01-.15c0-.21-.04-.34-.14-.41-.09-.07-.27-.1-.54-.1l.08-.36Z"/>
        <path class="cls-3" d="M155.14,66.43l.83-.81c.29-.28.51-.46.66-.55.15-.09.29-.13.42-.13.23,0,.41.1.55.3.14.2.21.46.21.79s-.08.85-.25,1.54-.25,1.19-.25,1.49c0,.09.02.16.05.2.03.05.08.07.15.07.03,0,.07-.01.12-.04.05-.03.09-.06.14-.11l.39-.38.18.27-.56.57c-.13.14-.27.25-.4.33-.13.08-.25.12-.35.12-.17,0-.31-.08-.42-.22-.11-.15-.16-.35-.16-.59,0-.29.09-.81.26-1.54.18-.74.26-1.27.26-1.61,0-.13-.03-.23-.08-.31-.05-.08-.12-.12-.21-.12-.13,0-.54.32-1.23.95-.18.17-.32.3-.43.4l-.32,1.81s-.02.08-.03.15c-.07.37-.12.65-.13.84l-.92.23c.23-.99.41-1.84.54-2.57.13-.73.2-1.21.2-1.43,0-.14-.02-.24-.05-.3-.03-.06-.08-.09-.15-.09-.04,0-.11.02-.2.07-.09.05-.21.12-.36.21l-.14-.27s.09-.08.17-.13c.53-.43.88-.64,1.06-.64s.3.06.38.19c.08.13.12.33.12.6,0,.1,0,.21-.02.33,0,.12-.03.25-.05.38Z"/>
        <path class="cls-3" d="M165.75,66.43l.83-.81c.29-.28.51-.46.66-.55.15-.09.29-.13.42-.13.23,0,.41.1.55.3.14.2.21.46.21.79s-.08.85-.25,1.54-.25,1.19-.25,1.49c0,.09.02.16.05.2.03.05.08.07.15.07.03,0,.07-.01.12-.04.05-.03.09-.06.14-.11l.39-.38.18.27-.56.57c-.13.14-.27.25-.4.33-.13.08-.25.12-.35.12-.17,0-.31-.08-.42-.22-.11-.15-.16-.35-.16-.59,0-.29.09-.81.26-1.54.18-.74.26-1.27.26-1.61,0-.13-.03-.23-.08-.31-.05-.08-.12-.12-.21-.12-.13,0-.54.32-1.23.95-.18.17-.32.3-.43.4l-.32,1.81s-.02.08-.03.15c-.07.37-.12.65-.13.84l-.92.23c.23-.99.41-1.84.54-2.57.13-.73.2-1.21.2-1.43,0-.14-.02-.24-.05-.3-.03-.06-.08-.09-.15-.09-.04,0-.11.02-.2.07-.09.05-.21.12-.36.21l-.14-.27s.09-.08.17-.13c.53-.43.88-.64,1.06-.64s.3.06.38.19c.08.13.12.33.12.6,0,.1,0,.21-.02.33,0,.12-.03.25-.05.38Z"/>
        <path class="cls-3" d="M177.35,64.95c.51,0,.9.16,1.17.48.27.32.4.78.4,1.39,0,.35-.07.72-.21,1.12-.14.4-.32.75-.56,1.07-.25.34-.54.61-.85.79-.32.18-.65.28-1,.28-.46,0-.83-.17-1.1-.5-.27-.33-.41-.78-.41-1.34,0-.42.07-.82.2-1.22s.33-.75.58-1.07c.25-.32.53-.57.84-.74.31-.17.63-.26.94-.26ZM177.13,65.45c-.4,0-.74.27-1.03.82-.29.55-.43,1.22-.43,2.02,0,.42.07.75.22.97.15.22.36.33.64.33.42,0,.78-.27,1.07-.81s.44-1.2.44-1.98c0-.46-.07-.81-.22-1.03-.15-.22-.37-.33-.68-.33Z"/>
        <path class="cls-3" d="M186.02,70.14c0-.16.01-.3.02-.41,0-.11,0-.21,0-.31,0-.6-.02-1.21-.07-1.82-.05-.61-.1-1.12-.17-1.53-.02-.14-.06-.25-.11-.33-.05-.08-.1-.11-.17-.11-.09,0-.26.13-.53.38l-.04.03-.19-.28c.29-.32.52-.54.68-.66s.31-.18.44-.18c.47,0,.74,1.29.81,3.87,0,.18,0,.31.01.41.48-.83.86-1.54,1.14-2.12.28-.58.41-.96.41-1.15,0-.09-.02-.16-.05-.23-.03-.07-.08-.14-.15-.21l.31-.33c.08-.08.15-.15.22-.18.06-.03.14-.05.22-.05.11,0,.19.04.26.13.07.09.1.2.1.34,0,.3-.42,1.16-1.26,2.59l-.3.51-.88,1.5-.71.15Z"/>
        <path class="cls-3" d="M199.54,69.06l-.33.32c-.24.24-.44.41-.58.51-.15.09-.28.14-.39.14-.18,0-.31-.07-.42-.22-.1-.15-.15-.35-.15-.62,0-.1,0-.2.01-.31s.02-.21.03-.32c-.65.62-1.1,1.03-1.35,1.21s-.47.27-.64.27c-.26,0-.46-.11-.59-.34s-.2-.56-.2-1.01c0-.4.05-.79.16-1.17.1-.38.26-.73.46-1.06.29-.47.63-.82,1.01-1.07s.78-.37,1.21-.37c.09,0,.19,0,.3.03.11.02.23.05.35.08l.72-.3c-.2.97-.36,1.84-.48,2.61-.12.77-.18,1.27-.18,1.51,0,.11.02.19.05.25s.09.08.17.08c.05,0,.13-.04.22-.1s.25-.21.46-.41l.17.31ZM197.74,67.99c.06-.31.12-.65.19-1.02s.13-.79.2-1.25c-.16-.09-.29-.15-.38-.18-.1-.03-.19-.05-.29-.05-.44,0-.83.3-1.17.9s-.5,1.3-.5,2.12c0,.26.03.45.08.58s.14.19.26.19.31-.11.58-.31c.26-.21.61-.53,1.04-.96Z"/>
        <path class="cls-3" d="M207.44,63.77c-.07.23-.16.59-.27,1.08-.03.14-.06.25-.08.32.2,0,.41,0,.62,0s.43-.01.67-.02l-.12.52c-.09,0-.2,0-.31,0h-.96c-.16.71-.28,1.33-.36,1.85-.08.53-.12.97-.12,1.33,0,.15.02.27.07.36.05.09.12.13.21.13.07,0,.18-.05.32-.17.15-.11.35-.29.6-.53l.18.33c-.49.51-.83.83-1.02.97-.19.14-.34.21-.47.21-.24,0-.43-.11-.57-.33-.14-.22-.21-.53-.21-.91,0-.25.04-.61.12-1.08s.23-1.2.45-2.18c-.05,0-.13,0-.21,0-.09,0-.15,0-.18,0h-.36l.06-.35c.16,0,.3-.03.43-.08.13-.05.27-.12.4-.23.03-.12.07-.25.11-.39.04-.14.08-.28.14-.43l.84-.39Z"/>
        <path class="cls-3" d="M216.12,68.76l.18.3c-.42.44-.72.71-.88.83-.16.12-.31.18-.44.18-.18,0-.33-.08-.44-.23-.11-.15-.17-.36-.17-.62,0-.32.1-.86.31-1.62.2-.76.31-1.3.31-1.63,0-.08-.02-.15-.06-.21-.04-.05-.09-.08-.16-.08-.06,0-.13.02-.22.07-.09.04-.2.11-.33.21l-.15-.27.69-.5c.13-.1.24-.17.34-.21.1-.04.19-.06.27-.06.16,0,.29.07.38.2.09.13.14.31.14.54,0,.25-.09.74-.27,1.47-.04.17-.07.29-.09.37-.1.39-.17.71-.22.96-.05.25-.08.43-.08.53,0,.08.02.16.06.21.04.05.09.08.14.08.05,0,.13-.03.22-.1.09-.07.25-.21.47-.43ZM216.08,62.12l.29.33c.08.09.14.16.17.23.03.07.05.13.05.2,0,.07-.03.14-.07.21-.05.07-.12.13-.22.19l-.45.25-.33-.39c-.07-.08-.11-.15-.13-.2-.02-.05-.03-.1-.03-.16,0-.08.02-.15.06-.21.04-.06.11-.12.21-.18l.45-.27Z"/>
        <path class="cls-3" d="M223.82,66.43l.83-.81c.29-.28.51-.46.66-.55.15-.09.29-.13.42-.13.23,0,.41.1.55.3.14.2.21.46.21.79s-.08.85-.25,1.54-.25,1.19-.25,1.49c0,.09.02.16.05.2.03.05.08.07.15.07.03,0,.07-.01.12-.04.05-.03.09-.06.14-.11l.39-.38.18.27-.56.57c-.13.14-.27.25-.4.33-.13.08-.25.12-.35.12-.17,0-.31-.08-.42-.22-.11-.15-.16-.35-.16-.59,0-.29.09-.81.26-1.54.18-.74.26-1.27.26-1.61,0-.13-.03-.23-.08-.31-.05-.08-.12-.12-.21-.12-.13,0-.54.32-1.23.95-.18.17-.32.3-.43.4l-.32,1.81s-.02.08-.03.15c-.07.37-.12.65-.13.84l-.92.23c.23-.99.41-1.84.54-2.57.13-.73.2-1.21.2-1.43,0-.14-.02-.24-.05-.3-.03-.06-.08-.09-.15-.09-.04,0-.11.02-.2.07-.09.05-.21.12-.36.21l-.14-.27s.09-.08.17-.13c.53-.43.88-.64,1.06-.64s.3.06.38.19c.08.13.12.33.12.6,0,.1,0,.21-.02.33,0,.12-.03.25-.05.38Z"/>
        <path class="cls-3" d="M237.45,65.01l-.22.58s-.02,0-.03,0c-.13.01-.24.02-.31.02-.09,0-.29-.02-.62-.07h-.02c.14.12.24.26.3.41.06.15.09.33.09.54,0,.4-.11.76-.32,1.07s-.51.55-.88.7c-.09.04-.22.09-.38.16-.75.3-1.12.5-1.12.59s.2.21.58.36c.13.05.24.09.31.12.81.33,1.34.6,1.56.79s.34.42.34.69c0,.44-.27.83-.82,1.19-.55.36-1.19.53-1.92.53-.57,0-1.04-.13-1.4-.38-.36-.25-.54-.58-.54-.96,0-.26.13-.5.4-.73s.73-.49,1.38-.78c-.28-.13-.48-.24-.61-.35-.13-.1-.19-.21-.19-.32s.07-.21.22-.31c.14-.11.46-.27.94-.48-.02,0-.04,0-.06,0-.02,0-.06,0-.11,0-.31,0-.54-.1-.72-.31-.17-.2-.26-.49-.26-.85,0-.63.21-1.17.63-1.61.42-.45.92-.67,1.5-.67.19,0,.44.03.76.08.32.06.54.08.68.08.1,0,.22,0,.36-.03.13-.02.29-.05.47-.08ZM234.21,70.01c-.5.26-.84.47-1.03.65-.19.17-.28.36-.28.55,0,.25.15.46.46.64.31.18.68.27,1.13.27.41,0,.74-.09,1.01-.27.27-.18.4-.4.4-.67s-.42-.58-1.26-.96c-.19-.09-.34-.15-.44-.21ZM235.07,65.34c-.33,0-.61.18-.83.55-.22.37-.33.83-.33,1.38,0,.29.06.5.18.66.12.15.3.23.52.23.35,0,.64-.18.86-.54.22-.36.34-.81.34-1.37,0-.29-.06-.51-.2-.67s-.31-.24-.55-.24Z"/>
        <path class="cls-3" d="M255.14,69.06l-.33.32c-.24.24-.44.41-.58.51-.15.09-.28.14-.39.14-.18,0-.31-.07-.42-.22-.1-.15-.15-.35-.15-.62,0-.1,0-.2.01-.31,0-.11.02-.21.03-.32-.64.62-1.1,1.03-1.35,1.21s-.47.27-.64.27c-.26,0-.46-.11-.59-.34-.13-.23-.2-.56-.2-1.01,0-.4.05-.79.16-1.17.1-.38.26-.73.46-1.06.29-.47.63-.82,1.01-1.07.38-.25.78-.37,1.21-.37.09,0,.19,0,.3.03.11.02.23.05.35.08l.72-.3c-.2.97-.36,1.84-.48,2.61s-.18,1.27-.18,1.51c0,.11.02.19.05.25.04.05.09.08.17.08.05,0,.13-.04.22-.1.09-.07.25-.21.46-.41l.17.31ZM253.34,67.99c.06-.31.12-.65.19-1.02.06-.37.13-.79.2-1.25-.16-.09-.29-.15-.38-.18-.1-.03-.19-.05-.29-.05-.44,0-.83.3-1.17.9-.34.6-.51,1.3-.51,2.12,0,.26.03.45.09.58s.14.19.26.19.31-.11.58-.31c.27-.21.61-.53,1.04-.96Z"/>
        <path class="cls-3" d="M268.18,69.59h.2c.21,0,.37-.06.46-.18.09-.12.18-.46.28-1.02l.72-4.27c.01-.09.03-.17.03-.25,0-.07.01-.13.01-.18,0-.15-.04-.26-.13-.32s-.23-.1-.43-.1h-.09l.06-.35c.26.02.49.04.68.05.19,0,.35.01.48.01.17,0,.36,0,.57-.01.21-.01.44-.03.69-.05l-.05.35h-.11c-.26,0-.44.05-.54.14s-.17.28-.22.56l-.36,2.07c.29.01.57.02.85.03.28,0,.56,0,.83,0,.31,0,.63,0,.96,0s.67-.02,1.02-.03l.3-1.92c.02-.16.04-.27.04-.32s0-.09,0-.11c0-.14-.04-.25-.13-.31s-.23-.1-.43-.1h-.11l.07-.35c.25.02.46.04.65.05.19,0,.35.01.48.01.18,0,.38,0,.59-.01.22-.01.45-.03.7-.05l-.07.35h-.1c-.19,0-.33.02-.41.07-.09.04-.16.12-.21.24-.03.07-.09.3-.17.7-.08.4-.2,1.07-.36,2l-.07.41c-.03.19-.08.45-.13.78-.16.93-.24,1.48-.24,1.66s.04.3.11.37.21.1.43.1h.15l-.07.34c-.37-.03-.63-.05-.81-.06-.18-.01-.32-.02-.43-.02-.2,0-.6.02-1.22.07h-.02l.05-.33s.04,0,.07,0c.03,0,.07,0,.12,0,.37,0,.62-.36.76-1.07l.02-.07.33-1.9c-.37-.01-.74-.03-1.1-.03-.37,0-.72-.01-1.06-.01-.27,0-.52,0-.77.01s-.49.02-.72.03l-.35,1.99c-.02.12-.03.22-.04.3,0,.08-.01.15-.01.2,0,.19.04.33.11.41.07.08.2.12.38.12h.2l-.07.34c-.23-.02-.45-.04-.66-.05-.21-.01-.41-.02-.59-.02-.12,0-.28,0-.49.02-.21.01-.45.03-.72.05l.06-.34Z"/>
        <path class="cls-3" d="M283.97,67.25l-1.57.81v.05c0,.41.06.72.19.93s.32.32.56.32c.14,0,.32-.06.54-.19.22-.13.5-.34.84-.63l.18.33c-.49.45-.88.77-1.17.94-.29.17-.55.26-.79.26-.36,0-.65-.16-.88-.47s-.34-.72-.34-1.23c0-.36.06-.75.18-1.16.12-.41.27-.78.46-1.08.24-.38.51-.67.81-.88.31-.21.62-.31.95-.31s.61.11.84.32c.22.21.34.47.34.77,0,.24-.07.45-.2.61s-.45.36-.93.61ZM282.42,67.61l.05-.03c1.22-.62,1.83-1.11,1.83-1.45,0-.18-.06-.34-.2-.47-.13-.13-.28-.2-.46-.2-.27,0-.51.19-.73.56-.22.38-.38.9-.5,1.59Z"/>
        <path class="cls-3" d="M295.44,69.06l-.33.32c-.24.24-.44.41-.58.51-.15.09-.28.14-.39.14-.18,0-.31-.07-.42-.22-.1-.15-.15-.35-.15-.62,0-.1,0-.2.01-.31,0-.11.02-.21.03-.32-.64.62-1.1,1.03-1.35,1.21s-.47.27-.64.27c-.26,0-.46-.11-.59-.34-.13-.23-.2-.56-.2-1.01,0-.4.05-.79.16-1.17.1-.38.26-.73.46-1.06.29-.47.63-.82,1.01-1.07.38-.25.78-.37,1.21-.37.09,0,.19,0,.3.03.11.02.23.05.35.08l.72-.3c-.2.97-.36,1.84-.48,2.61s-.18,1.27-.18,1.51c0,.11.02.19.05.25.04.05.09.08.17.08.05,0,.13-.04.22-.1.09-.07.25-.21.46-.41l.17.31ZM293.64,67.99c.06-.31.12-.65.19-1.02.06-.37.13-.79.2-1.25-.16-.09-.29-.15-.38-.18-.1-.03-.19-.05-.29-.05-.44,0-.83.3-1.17.9-.34.6-.51,1.3-.51,2.12,0,.26.03.45.09.58s.14.19.26.19.31-.11.58-.31c.27-.21.61-.53,1.04-.96Z"/>
        <path class="cls-3" d="M303.3,69.09l-.48.45c-.22.21-.39.35-.51.42-.12.08-.23.12-.33.12-.2,0-.35-.07-.46-.22-.1-.15-.16-.36-.16-.64,0-.23.08-.74.23-1.53.09-.44.15-.78.2-1.04l.21-1.16c.13-.75.24-1.36.31-1.83.07-.47.11-.75.11-.85,0-.11-.03-.19-.08-.24-.05-.05-.13-.08-.24-.08-.02,0-.06,0-.12,0-.06,0-.11,0-.15,0l-.03-.28c.22-.03.47-.07.74-.13.27-.05.58-.12.94-.2-.37,1.87-.68,3.48-.92,4.83-.24,1.35-.36,2.11-.36,2.29,0,.1.02.17.05.23s.08.08.15.08c.04,0,.09-.02.15-.06.06-.04.14-.1.23-.17l.35-.28.16.28Z"/>
        <path class="cls-3" d="M311.46,63.77c-.06.23-.16.59-.27,1.08-.04.14-.06.25-.08.32.2,0,.41,0,.62,0s.43-.01.67-.02l-.12.52c-.09,0-.2,0-.31,0h-.96c-.16.71-.28,1.33-.36,1.85-.08.53-.12.97-.12,1.33,0,.15.02.27.07.36.05.09.12.13.21.13.07,0,.18-.05.32-.17.15-.11.35-.29.6-.53l.18.33c-.49.51-.84.83-1.02.97-.19.14-.34.21-.47.21-.24,0-.43-.11-.57-.33-.14-.22-.21-.53-.21-.91,0-.25.04-.61.12-1.08.08-.47.23-1.2.45-2.18-.05,0-.12,0-.21,0-.09,0-.15,0-.18,0h-.36l.06-.35c.16,0,.3-.03.43-.08.13-.05.27-.12.4-.23.03-.12.07-.25.11-.39s.08-.28.14-.43l.84-.39Z"/>
        <path class="cls-3" d="M320.46,61.9c-.16.73-.27,1.24-.33,1.54s-.11.51-.13.65l-.45,2.35.87-.82c.29-.28.51-.46.66-.54.15-.09.29-.13.43-.13.23,0,.42.1.56.29.14.2.21.46.21.78s-.09.85-.25,1.54-.25,1.19-.25,1.49c0,.09.02.16.05.2.04.05.08.07.14.07.04,0,.07-.01.12-.04.04-.03.09-.06.14-.11l.39-.38.18.27-.56.57c-.14.14-.27.25-.4.33-.13.08-.25.12-.35.12-.17,0-.31-.08-.41-.22-.11-.15-.16-.35-.16-.59,0-.29.09-.81.26-1.54.18-.74.26-1.27.26-1.61,0-.13-.03-.23-.08-.31-.05-.08-.12-.12-.21-.12-.13,0-.45.24-.97.72-.29.27-.53.49-.71.65l-.32,1.8c0,.05-.02.13-.04.23-.06.33-.1.59-.11.77l-.92.24c.15-.65.33-1.59.55-2.8l.06-.32.24-1.29c.13-.73.24-1.37.32-1.9s.13-.83.13-.91c0-.12-.03-.21-.08-.26-.05-.06-.13-.08-.25-.08-.06,0-.11,0-.14,0-.04,0-.07,0-.11,0l-.03-.3c.3-.04.59-.09.88-.14.29-.05.57-.12.84-.19Z"/>
        <path class="cls-3" d="M330.68,68.76l.18.3c-.42.44-.72.71-.88.83s-.31.18-.44.18c-.18,0-.33-.08-.44-.23-.11-.15-.17-.36-.17-.62,0-.32.1-.86.31-1.62.21-.76.31-1.3.31-1.63,0-.08-.02-.15-.06-.21-.04-.05-.09-.08-.16-.08-.06,0-.13.02-.22.07s-.2.11-.34.21l-.15-.27.69-.5c.13-.1.24-.17.34-.21s.19-.06.27-.06c.16,0,.29.07.38.2.1.13.14.31.14.54,0,.25-.09.74-.27,1.47-.04.17-.07.29-.09.37-.1.39-.17.71-.22.96-.05.25-.07.43-.07.53,0,.08.02.16.06.21s.09.08.14.08c.05,0,.13-.03.22-.1.09-.07.24-.21.47-.43ZM330.63,62.12l.29.33c.08.09.14.16.17.23.03.07.05.13.05.2,0,.07-.03.14-.07.21s-.12.13-.22.19l-.45.25-.33-.39c-.07-.08-.11-.15-.13-.2-.02-.05-.03-.1-.03-.16,0-.08.02-.15.06-.21.04-.06.11-.12.21-.18l.46-.27Z"/>
        <path class="cls-3" d="M339.18,67.25l-1.57.81v.05c0,.41.06.72.19.93s.31.32.56.32c.14,0,.33-.06.54-.19.22-.13.5-.34.84-.63l.18.33c-.49.45-.88.77-1.17.94-.29.17-.55.26-.79.26-.36,0-.65-.16-.88-.47s-.34-.72-.34-1.23c0-.36.06-.75.18-1.16s.27-.78.46-1.08c.24-.38.51-.67.81-.88.3-.21.62-.31.95-.31s.61.11.84.32c.22.21.34.47.34.77,0,.24-.07.45-.2.61-.13.16-.45.36-.93.61ZM337.63,67.61l.05-.03c1.22-.62,1.83-1.11,1.83-1.45,0-.18-.06-.34-.2-.47s-.28-.2-.46-.2c-.27,0-.51.19-.73.56-.21.38-.38.9-.5,1.59Z"/>
        <path class="cls-3" d="M346.28,70.07c.21-.89.38-1.68.5-2.37.12-.69.18-1.2.18-1.55,0-.15-.02-.26-.06-.33-.04-.07-.11-.11-.19-.11-.06,0-.23.09-.52.27l-.04.03-.18-.29.08-.06c.62-.46,1.02-.7,1.2-.7.17,0,.29.05.36.16.07.11.11.29.11.54,0,.22,0,.42-.02.62-.01.19-.04.36-.06.49.47-.78.8-1.27,1-1.49.2-.21.38-.32.56-.32.12,0,.21.04.29.13.08.09.12.19.12.31,0,.08-.02.17-.06.28-.04.11-.12.29-.25.54-.06-.09-.12-.15-.19-.19-.06-.04-.13-.06-.2-.06-.13,0-.28.09-.45.27s-.45.53-.82,1.06c-.12.47-.21.92-.29,1.35-.08.43-.14.83-.18,1.21l-.9.21Z"/>
        <path class="cls-3" d="M364.71,70.1c-.01-.25-.05-.58-.1-.99-.01-.1-.02-.17-.03-.21l-.61-4.76c-.04-.36-.11-.58-.19-.68-.08-.1-.23-.14-.45-.14h-.12l.06-.39c.24.03.47.05.68.07s.4.03.56.03.32,0,.52-.01c.19,0,.4-.02.62-.03l-.06.34h-.25c-.16,0-.29.04-.38.11-.09.07-.14.17-.14.29,0,.08,0,.14,0,.18,0,.04,0,.08,0,.11l.61,4.74,2.26-4.33-.1-.56c-.03-.2-.09-.34-.17-.42-.08-.08-.21-.12-.39-.12h-.11l.08-.39c.21.02.42.03.61.04.2,0,.37.01.52.01.12,0,.27,0,.45-.01.18,0,.42-.02.72-.04l-.06.39h-.18c-.23,0-.38.03-.47.1-.08.07-.12.19-.12.37,0,.03,0,.07,0,.1,0,.04,0,.09.02.16l.71,4.72,2.24-4.62c.08-.16.12-.28.15-.35.02-.07.03-.13.03-.19,0-.11-.04-.18-.12-.23-.08-.05-.21-.07-.39-.07h-.21l.09-.39c.29.02.52.03.68.04s.3.01.41.01.24,0,.4-.01c.16,0,.4-.02.7-.04l-.08.38s-.03,0-.04,0c-.02,0-.03,0-.04,0-.34,0-.66.29-.94.86-.03.05-.04.08-.05.11l-2.24,4.42s-.06.12-.11.22c-.24.46-.43.86-.56,1.2h-.58c-.02-.27-.06-.6-.13-.99h0s-.58-3.83-.58-3.83l-2.13,4.01c-.09.15-.16.3-.22.42-.06.13-.12.26-.18.39h-.58Z"/>
        <path class="cls-3" d="M380.18,64.95c.51,0,.9.16,1.17.48.27.32.4.78.4,1.39,0,.35-.07.72-.21,1.12-.14.4-.32.75-.55,1.07-.25.34-.54.61-.85.79s-.65.28-1,.28c-.46,0-.83-.17-1.1-.5s-.41-.78-.41-1.34c0-.42.07-.82.2-1.22.13-.39.33-.75.58-1.07.25-.32.53-.57.84-.74.31-.17.63-.26.94-.26ZM379.96,65.45c-.4,0-.74.27-1.03.82-.29.55-.43,1.22-.43,2.02,0,.42.07.75.22.97.14.22.36.33.63.33.42,0,.78-.27,1.07-.81.29-.54.44-1.2.44-1.98,0-.46-.07-.81-.22-1.03-.15-.22-.38-.33-.68-.33Z"/>
        <path class="cls-3" d="M387.88,70.07c.22-.89.38-1.68.51-2.37.12-.69.18-1.2.18-1.55,0-.15-.02-.26-.06-.33-.04-.07-.11-.11-.19-.11-.06,0-.24.09-.52.27l-.04.03-.18-.29.08-.06c.62-.46,1.02-.7,1.2-.7.17,0,.29.05.36.16s.11.29.11.54c0,.22,0,.42-.02.62-.01.19-.04.36-.06.49.47-.78.81-1.27,1.01-1.49.2-.21.38-.32.56-.32.12,0,.21.04.29.13.08.09.12.19.12.31,0,.08-.02.17-.06.28-.04.11-.12.29-.25.54-.06-.09-.12-.15-.19-.19-.07-.04-.13-.06-.2-.06-.13,0-.28.09-.45.27s-.45.53-.82,1.06c-.12.47-.21.92-.29,1.35-.08.43-.14.83-.18,1.21l-.9.21Z"/>
        <path class="cls-3" d="M399.03,69.09l-.48.45c-.22.21-.39.35-.51.42-.12.08-.23.12-.33.12-.2,0-.35-.07-.46-.22-.1-.15-.16-.36-.16-.64,0-.23.08-.74.23-1.53.09-.44.15-.78.2-1.04l.21-1.16c.13-.75.24-1.36.31-1.83.07-.47.11-.75.11-.85,0-.11-.03-.19-.08-.24-.05-.05-.13-.08-.24-.08-.02,0-.06,0-.12,0-.06,0-.11,0-.15,0l-.03-.28c.22-.03.47-.07.74-.13.27-.05.58-.12.94-.2-.37,1.87-.68,3.48-.92,4.83-.24,1.35-.36,2.11-.36,2.29,0,.1.02.17.05.23s.08.08.15.08c.04,0,.09-.02.15-.06.06-.04.14-.1.23-.17l.35-.28.16.28Z"/>
        <path class="cls-3" d="M407.81,68.61l-.88.79c-.26.23-.46.39-.62.48-.15.09-.3.13-.43.13-.31,0-.55-.13-.71-.39-.17-.26-.25-.64-.25-1.14,0-.97.25-1.81.74-2.51.49-.7,1.08-1.05,1.76-1.05.14,0,.28.02.42.05.14.04.29.09.45.16l.29-1.86c0-.07.02-.15.02-.22,0-.07,0-.15,0-.22,0-.14-.03-.23-.08-.28s-.16-.08-.3-.08c-.04,0-.09,0-.14,0-.05,0-.1,0-.15,0l-.02-.3c.29-.03.57-.06.86-.11.29-.05.58-.11.88-.17-.32,1.65-.58,3.14-.79,4.46-.21,1.33-.31,2.13-.31,2.42,0,.17.02.3.05.37s.09.11.16.11c.04,0,.09-.02.15-.05s.13-.09.21-.17l.31-.28.17.29-.59.58c-.21.2-.36.33-.45.38-.09.05-.18.08-.27.08-.18,0-.32-.09-.4-.26s-.12-.44-.12-.8c0-.08,0-.15,0-.21,0-.06,0-.13.02-.2ZM407.8,68.09l.39-2.33c-.19-.11-.36-.19-.51-.24-.15-.05-.29-.08-.41-.08-.42,0-.78.27-1.07.81-.29.54-.43,1.21-.43,2.02,0,.33.04.57.12.74.08.17.19.25.34.25.1,0,.29-.11.57-.31.28-.21.61-.5,1-.87Z"/>
      </g>
      <g>
        <path class="cls-2" d="M88.52,26.75c-.05-3.38-1.4-6.52-3.82-8.86-2.42-2.34-5.6-3.61-8.96-3.56l-.05-2.86c4.16-.07,8.04,1.48,11.01,4.36,2.95,2.89,4.62,6.73,4.68,10.87l-2.86.05Z"/>
        <path class="cls-2" d="M93.9,26.66c-.14-9.92-8.33-17.86-18.25-17.72l-.03-2.86c11.49-.17,20.97,9.04,21.15,20.54l-2.87.04Z"/>
        <path class="cls-2" d="M100,26.57c-.2-13.27-11.15-23.9-24.43-23.71l-.04-2.86h.41c14.66,0,26.7,11.82,26.92,26.52l-2.85.05Z"/>
      </g>
      <path class="cls-3" d="M75.38,19.94c-1.96,0-3.78.77-5.14,2.17-1.34,1.38-2.04,3.22-1.97,5.17.04,1.96.88,3.79,2.3,5.17,1.42,1.38,3.28,2.13,5.21,2.13s3.79-.77,5.15-2.17c2.76-2.87,2.6-7.51-.35-10.34-1.42-1.38-3.27-2.13-5.21-2.13Z"/>
      <path class="cls-3" d="M111.03,90.13c.42-1.52.64-3.1.68-4.7.04-1.49-.08-3.06-.39-4.87-.26-1.48-.68-3.02-1.27-4.74-1.02-2.91-2.49-5.86-4.39-8.8-1.7-2.63-3.74-5.23-6.06-7.73-3.74-4.04-8.2-7.82-13.24-11.21l-.86-.57.9-.94c.07-.08.14-.14.21-.22,2.97-3.08,6.54-6.65,10.42-9.84,1.56-1.25,3.62-2.85,5.89-4.08.89-.47,2.08-1.04,3.39-1.33.06-.01.11-.02.15-.04-.03,0-.07-.02-.11-.03-.46-.08-.97-.15-1.49-.17-.73-.04-1.49,0-2.33.1-2.3.29-4.66.96-7.47,2.1-2.22.91-4.46,2.06-6.88,3.47-2.11,1.24-4.25,2.67-6.4,4.23-.94.69-1.92,1.43-2.9,2.21l-.44.36-.51-.27c-.49-.26-1.16-.6-1.83-.95-1.38-.67-2.83-1.34-4.42-2.04-.72-.31-1.48-.63-2.24-.93-.59-.24-1.47-.59-2.25-.88l-2.3-.83c-.68-.23-1.51-.52-2.3-.76-1.79-.57-3.28-1-4.66-1.37-3.23-.85-6.43-1.51-9.52-1.97-2.97-.46-5.92-.75-8.78-.88-3.65-.17-7.25-.07-10.69.29-3.4.36-6.66.97-9.65,1.84-3.36.94-6.42,2.2-9.1,3.73-3.1,1.76-5.65,3.83-7.56,6.14-1.03,1.23-1.9,2.57-2.6,4-.02.02-.02.05-.03.07,1.09-1.11,2.31-2.11,3.64-2.99,1.3-.84,2.63-1.56,3.95-2.12,1.44-.63,2.8-1.12,4.18-1.5,5.01-1.45,10.73-2.04,17.45-1.83.26.02.51.02.76.02,5.32.25,10.95,1.01,16.75,2.29,2.92.64,5.81,1.39,8.57,2.24,1.67.5,3.01.92,4.23,1.34l2.09.72,2.07.76c.76.29,1.39.52,2.1.8.68.27,1.38.55,2.05.84.53.21,1.05.44,1.58.66l1.18.51-.92.9c-3.35,3.36-6.58,6.97-9.6,10.75-3.19,4.03-6.14,8.19-8.75,12.4-2.84,4.61-5.15,9-7.08,13.47-1.08,2.48-1.94,4.83-2.69,7.16-.85,2.66-1.46,5.11-1.86,7.48-.24,1.41-.4,2.66-.46,3.85-.05,1.06-.09,2.48.06,3.88.16,1.46.45,2.67.93,3.73,0,.03.01.05.02.08v-.13c0-1.35.29-2.63.56-3.6.7-2.51,1.79-4.87,2.65-6.64,2.24-4.53,4.94-8.79,7.28-12.37,4.79-7.25,10.35-14.83,17.02-23.17,3.83-4.79,7.39-9.06,10.93-13.08l.45-.53.69.38c5.43,2.98,10.37,6.28,14.7,9.78,5.2,4.28,9.1,8.48,11.93,12.87.78,1.18,1.5,2.48,2.15,3.87.62,1.29,1.14,2.71,1.59,4.2.42,1.55.69,3.11.77,4.68,0-.03.03-.09.04-.12Z"/>
      <g>
        <path class="cls-3" d="M118.45,59.05h-8.43v-25.3h8.43c7.67,0,12.86,4.89,12.86,12.65s-5.19,12.65-12.86,12.65ZM112.97,36.5v19.82h5.31c5.69,0,10.03-3.67,10.03-9.91s-4.34-9.91-10.03-9.91h-5.31Z"/>
        <path class="cls-3" d="M148.97,59.05h-2.02l-.34-2.45h-.21c-1.14,1.69-3.2,2.87-6.07,2.87-4.38,0-6.83-2.53-6.83-5.65,0-3.37,2.78-5.78,8.09-5.78,1.98,0,3.5.34,4.6.72v-.63c0-3.2-1.81-4.64-5.06-4.64-2.82,0-5.02,1.43-5.02,1.43l-1.14-2.4s2.57-1.6,6.37-1.6c5.44,0,7.63,2.87,7.63,7.21v10.92ZM146.19,51.08c-.8-.38-2.19-.89-4.34-.89-3.79,0-5.4,1.35-5.4,3.54,0,1.9,1.43,3.42,4.26,3.42,3.2,0,5.48-2.23,5.48-4.81v-1.26Z"/>
        <path class="cls-3" d="M149.14,33.76h3.04l9.11,21.5,9.15-21.5h3.04l-10.83,25.3h-2.66l-10.83-25.3Z"/>
        <path class="cls-3" d="M175.53,35.53c0-1.1.88-1.98,1.98-1.98s1.98.89,1.98,1.98-.89,1.94-1.98,1.94-1.98-.84-1.98-1.94ZM176.08,41.34h2.91v17.71h-2.91v-17.71Z"/>
        <path class="cls-3" d="M184.05,41.34h2.07l.25,2.61h.21c1.18-1.9,2.99-3.04,6.2-3.04,4.64,0,7.34,3.33,7.34,8.14v9.99h-2.91v-9.65c0-3.42-1.73-6.03-5.06-6.03-3.58,0-5.1,2.99-5.19,5.06v10.62h-2.91v-17.71Z"/>
        <path class="cls-3" d="M203.74,50.24c0-5.52,3.58-9.32,8.77-9.32,3.96,0,5.4,1.56,5.4,1.56l-.89,2.19s-1.69-1.31-4.34-1.31c-3.33,0-5.99,2.49-5.99,6.87s2.66,6.79,5.99,6.79c2.66,0,4.34-1.31,4.34-1.31l.8,2.19s-1.39,1.56-5.31,1.56c-5.19,0-8.77-3.71-8.77-9.23Z"/>
        <path class="cls-3" d="M221.07,35.53c0-1.1.88-1.98,1.98-1.98s1.98.89,1.98,1.98-.89,1.94-1.98,1.94-1.98-.84-1.98-1.94ZM221.61,41.34h2.91v17.71h-2.91v-17.71Z"/>
        <path class="cls-3" d="M243.54,59.05h-2.02l-.34-2.45h-.21c-1.14,1.69-3.2,2.87-6.07,2.87-4.38,0-6.83-2.53-6.83-5.65,0-3.37,2.78-5.78,8.09-5.78,1.98,0,3.5.34,4.6.72v-.63c0-3.2-1.81-4.64-5.06-4.64-2.82,0-5.02,1.43-5.02,1.43l-1.14-2.4s2.57-1.6,6.37-1.6c5.44,0,7.63,2.87,7.63,7.21v10.92ZM240.75,51.08c-.8-.38-2.19-.89-4.34-.89-3.79,0-5.4,1.35-5.4,3.54,0,1.9,1.43,3.42,4.26,3.42,3.2,0,5.48-2.23,5.48-4.81v-1.26Z"/>
        <path class="cls-3" d="M248.34,41.34h2.07l.25,2.61h.21c1.18-1.9,2.99-3.04,6.2-3.04,4.64,0,7.34,3.33,7.34,8.14v9.99h-2.91v-9.65c0-3.42-1.73-6.03-5.06-6.03-3.58,0-5.1,2.99-5.19,5.06v10.62h-2.91v-17.71Z"/>
        <path class="cls-1" d="M298.81,59.05h-2.95v-11.09h-14.33v11.09h-2.95v-25.3h2.95v11.47h14.33v-11.47h2.95v25.3Z"/>
        <path class="cls-1" d="M318.12,57.45s-1.86,2.07-6.28,2.07c-5.52,0-8.94-3.75-8.94-9.28s3.25-9.32,8.31-9.32,7.8,3.88,7.8,8.81v.72h-13.2c.08,4.34,2.74,6.58,6.2,6.58,3.25,0,5.02-1.69,5.02-1.69l1.1,2.11ZM305.98,48.09h10.03c-.42-3.08-2.07-4.68-4.85-4.68s-4.64,1.52-5.19,4.68Z"/>
        <path class="cls-1" d="M336.58,59.05h-2.02l-.34-2.45h-.21c-1.14,1.69-3.2,2.87-6.07,2.87-4.38,0-6.83-2.53-6.83-5.65,0-3.37,2.78-5.78,8.09-5.78,1.98,0,3.5.34,4.6.72v-.63c0-3.2-1.81-4.64-5.06-4.64-2.82,0-5.02,1.43-5.02,1.43l-1.14-2.4s2.57-1.6,6.37-1.6c5.44,0,7.63,2.87,7.63,7.21v10.92ZM333.8,51.08c-.8-.38-2.19-.89-4.34-.89-3.79,0-5.4,1.35-5.4,3.54,0,1.9,1.43,3.42,4.26,3.42,3.2,0,5.48-2.23,5.48-4.81v-1.26Z"/>
        <path class="cls-1" d="M341.52,33.54h2.91v25.51h-2.91v-25.51Z"/>
        <path class="cls-1" d="M350.67,41.34v-5.4h2.91v5.4h5.27v2.36h-5.27v10.41c0,1.85.84,2.87,2.61,2.87,1.31,0,2.61-.8,2.61-.8l.97,2.11s-1.52,1.18-3.84,1.18c-3.63,0-5.27-2.07-5.27-5.4v-10.37h-3.33v-2.36h3.33Z"/>
        <path class="cls-1" d="M362.34,33.54h2.91v9.53h.13c1.35-1.56,3.08-2.15,5.65-2.15,4.64,0,7.34,3.33,7.34,8.14v9.99h-2.91v-9.61c0-3.46-1.69-6.07-5.02-6.07-3.58,0-5.1,3.04-5.19,5.1v10.58h-2.91v-25.51Z"/>
        <path class="cls-1" d="M381.99,50.24c0-5.52,3.58-9.32,8.77-9.32,3.96,0,5.4,1.56,5.4,1.56l-.89,2.19s-1.69-1.31-4.34-1.31c-3.33,0-5.99,2.49-5.99,6.87s2.66,6.79,5.99,6.79c2.66,0,4.34-1.31,4.34-1.31l.8,2.19s-1.39,1.56-5.31,1.56c-5.19,0-8.77-3.71-8.77-9.23Z"/>
        <path class="cls-1" d="M413.74,59.05h-2.02l-.34-2.45h-.21c-1.14,1.69-3.2,2.87-6.07,2.87-4.38,0-6.83-2.53-6.83-5.65,0-3.37,2.78-5.78,8.09-5.78,1.98,0,3.5.34,4.6.72v-.63c0-3.2-1.81-4.64-5.06-4.64-2.82,0-5.02,1.43-5.02,1.43l-1.14-2.4s2.57-1.6,6.37-1.6c5.44,0,7.63,2.87,7.63,7.21v10.92ZM410.95,51.08c-.8-.38-2.19-.89-4.34-.89-3.79,0-5.4,1.35-5.4,3.54,0,1.9,1.43,3.42,4.26,3.42,3.2,0,5.48-2.23,5.48-4.81v-1.26Z"/>
        <path class="cls-1" d="M427.19,43.66h-.97c-2.57,0-4.76,2.11-4.76,4.93v10.46h-2.91v-17.71h2.07l.25,3.12h.17c.84-2.02,2.82-3.16,5.14-3.16h1.01v2.36Z"/>
        <path class="cls-1" d="M443.42,57.45s-1.86,2.07-6.28,2.07c-5.52,0-8.94-3.75-8.94-9.28s3.25-9.32,8.31-9.32,7.8,3.88,7.8,8.81v.72h-13.2c.08,4.34,2.74,6.58,6.2,6.58,3.25,0,5.02-1.69,5.02-1.69l1.1,2.11ZM431.28,48.09h10.03c-.42-3.08-2.07-4.68-4.85-4.68s-4.64,1.52-5.19,4.68Z"/>
      </g>
    </g>
  </g>
</svg>