<?xml version="1.0" encoding="UTF-8"?>
<svg id="Layer_2" xmlns="http://www.w3.org/2000/svg" viewBox="0 0 156.06 78.19">
  <defs>
    <style>
      .cls-1 {
        fill: #3f3a60;
      }

      .cls-2 {
        fill: #00af9a;
      }
    </style>
  </defs>
  <g id="Layer_1-2" data-name="Layer_1">
    <g id="logos">
      <g id="dark_logos">
        <rect class="cls-1" width="7.27" height="62.3"/>
        <polygon class="cls-1" points="72.49 0 65.22 0 65.22 15.89 55.46 15.89 55.46 22.58 65.22 22.58 65.22 62.3 72.49 62.3 72.49 22.58 82.67 22.58 82.67 15.89 72.49 15.89 72.49 0"/>
        <path class="cls-1" d="M95,20.74v-4.85h-7.28v46.41h7.28v-27c0-8.14,4-12.5,12.3-13.3l.52-.05v-7.17h-.6c-5.83.33-9.69,2.22-12.22,5.96Z"/>
        <polygon class="cls-1" points="148.27 15.89 133.36 51.03 119.42 15.89 111.47 15.89 129.24 60.23 121.63 78.19 129.42 78.19 156.06 15.89 148.27 15.89"/>
        <path class="cls-2" d="M41.11,42.48c-1.26,0-2.28,1.02-2.28,2.28s1.02,2.28,2.28,2.28,2.28-1.02,2.28-2.28c0,0,0,0,0,0,0-1.26-1.02-2.27-2.28-2.27Z"/>
        <path class="cls-1" d="M34.23,14.81h-.15c-12.85,0-19.93,8.22-19.93,23.16v24.36h7.27v-24.33c0-10.59,4.29-16.08,12.74-16.36h0c8.44.26,12.73,5.75,12.73,16.36v24.3h7.27v-24.3c0-15-7.08-23.19-19.93-23.19Z"/>
      </g>
    </g>
  </g>
</svg>