<?xml version="1.0" encoding="UTF-8"?>
<svg id="Layer_2" xmlns="http://www.w3.org/2000/svg" viewBox="0 0 880.1 175.15">
  <defs>
    <style>
      .cls-1 {
        fill: #dec67c;
      }

      .cls-2 {
        fill: #eadbac;
      }
    </style>
  </defs>
  <g id="Layer_1-2" data-name="Layer_1">
    <g>
      <path class="cls-2" d="M418.1.15c.03,55.95.04,111.89.16,167.84,0,3.33-1.13,4.54-4.33,4.19-1.32-.15-2.68-.15-3.99,0-3.2.37-4.03-1.18-3.88-4.09.18-3.64.04-7.29.04-11.67-4.2,3.56-7.49,7.52-11.71,9.67-7.12,3.63-14.83,6.1-22.28,9.07h-11c-5.42-1.87-11.17-3.11-16.21-5.73-16.47-8.56-25.63-22.07-27.99-40.82-3.44-27.37,17.14-52.04,40.26-55.84,18.2-2.99,34.32,1.11,46.44,16.15.48.59,1.13,1.05,2.49,2.3V.15h12ZM367.97,162.26c19.96,1.06,39.02-14.64,38.94-38.44-.08-22.9-16.4-39.3-38.24-39.6-22.84-.31-38.78,19.27-38.87,39.08-.09,19.79,17.25,40.49,38.17,38.96Z"/>
      <path class="cls-2" d="M123.1,175.15c-6.74-2.55-13.94-4.28-20.12-7.8-16.38-9.34-26.38-29.77-24.31-50.43,1.96-19.56,18.78-40.74,40.66-44.19,18.14-2.86,34.41.94,46.36,16.34.4.51.94.91,2.37,2.27,0-4.78.23-8.62-.07-12.42-.29-3.75,1.03-4.93,4.78-4.8,9.67.34,8.19-.98,8.22,8.25.06,28.13-.16,56.27.17,84.4.07,5.8-2.79,5.37-6.69,5.47-4.14.1-7.26-.03-6.49-5.6.43-3.1.08-6.3.08-10.1-1.26.93-2.24,1.43-2.94,2.19-8.36,9.01-18.49,14.46-30.83,15.59-.41.04-.79.54-1.18.83h-10ZM130.77,162.26c19.34.53,37.91-14.51,37.97-38.47.05-22.46-16.35-39.54-38.83-39.56-22.33-.02-38.27,19.47-38.15,39.79.11,17.99,16.84,40.06,39.02,38.24Z"/>
      <path class="cls-2" d="M659.1,175.15c-7.52-3.25-15.66-5.56-22.45-9.95-17.44-11.29-25.2-33.72-20.09-54.94,4.73-19.67,22.08-35.58,42.24-37.95,15.86-1.87,30.04,2.09,41.23,14.23,1.31,1.42,2.65,2.8,4.97,5.24,0-5.12.24-9.04-.07-12.92-.3-3.86,1.24-5.16,4.87-4.67.98.13,2.01.12,2.99,0,3.15-.37,4.38.73,4.37,4.13-.11,29.97-.1,59.94-.01,89.91,0,3.06-.98,4.27-4.02,3.97-1.65-.17-3.49.39-4.94-.16-1.28-.48-2.87-1.96-3.04-3.17-.44-3.1-.06-6.31-.28-9.46-.03-.45-2.11-1.31-2.29-1.11-8.78,9.6-20.2,14.07-32.48,16.88h-11ZM666.62,162.28c20.68,1,38.73-16.08,38.57-38.22-.16-22.63-16.55-39.86-38.4-39.9-21.21-.04-38.86,17.76-38.65,39.36.21,21.57,17.94,39.92,38.48,38.77Z"/>
      <path class="cls-2" d="M813.1.15v113.24c5.57-4.75,10.42-8.8,15.18-12.94,8.65-7.52,17.26-15.08,25.86-22.66,2.99-2.63,6.19-4.1,10.37-3.67,3.79.39,7.64.08,12.59.08-3.56,3.31-6.39,6.12-9.4,8.71-13.33,11.48-26.72,22.91-40.09,34.35-4.27,3.65-4.12,3.58.38,7.56,10.95,9.69,21.7,19.6,32.61,29.34,6.43,5.75,13,11.34,19.51,17v1c-.17,0-.33,0-.5,0-18.42.03-18.3-.1-31.81-12.77-10.54-9.89-21.44-19.4-32.2-29.06-.44-.39-1.07-.57-2.44-1.27,0,4.06,0,7.48,0,10.9,0,9.33-.12,18.66.06,27.98.06,3.25-.95,4.38-4.25,4.29-10.65-.28-8.77,1.06-8.78-8.65-.08-54.47-.06-108.94-.08-163.41h13Z"/>
      <path class="cls-2" d="M14.1.15c-.03,51.65-.03,103.3-.16,154.95,0,3.48,1.39,4.13,4.45,4.1,13.49-.12,26.99.1,40.49-.14,4.08-.07,5.94,1,5.29,5.25-.17,1.14-.16,2.35,0,3.49.5,3.65-1.24,4.44-4.59,4.42-19.83-.13-39.65-.06-59.48-.06C.1,116.14.14,60.12,0,4.1,0,.61.77-.29,4.14.07c3.29.35,6.64.08,9.96.08Z"/>
      <path class="cls-1" d="M525.1.15c14.68,5.38,20.14,13.14,20.17,28.08,0,3.75-.86,5.25-4.99,5.13-10.65-.31-21.32.07-31.97-.19-4.14-.1-4.78,1.64-4.25,5.09,1.2,7.82,7.88,14.59,15.89,14.82,5.57.16,11.16-1.09,16.76-1.39,1.36-.07,3.66.83,3.99,1.8.56,1.67.62,4.82-.37,5.48-9.18,6.18-30.74,3.48-39.03-4.24-13.79-12.85-11.21-48.07,12.65-53.71.43-.1.76-.57,1.14-.87,3.33,0,6.67,0,10,0ZM518.77,25.24c3.31,0,6.62,0,9.94,0,5.8-.01,6.71-1.23,5.02-6.68-2.09-6.74-8.58-11.14-15.16-10.28-7.05.93-14.24,8.06-14.27,14.47,0,.82,1.61,2.3,2.55,2.37,3.96.27,7.94.11,11.92.12Z"/>
      <path class="cls-1" d="M721.1.15c14.9,5.46,20.3,13.31,20.2,28.53-.03,3.86-1.36,4.72-4.95,4.65-10.65-.21-21.31.1-31.96-.16-4.07-.1-4.85,1.49-4.31,5.02,1.19,7.78,7.85,14.57,15.83,14.88,5.41.21,10.89-.58,16.28-1.37,2.39-.35,4.23-1.04,4.85,2.15.49,2.54,1.92,5.5-2.36,5.93-7.7.76-15.66,2.79-23.1,1.63-16.71-2.59-25.57-18.31-22.12-36.4,2.4-12.57,9.55-20.82,21.64-24.85h10ZM715.17,25.24c3.16,0,6.33,0,9.49,0,5.95-.01,6.9-1.39,4.91-7.12-2.3-6.63-8.54-10.71-15.05-9.83-6.69.9-13.8,7.88-14.14,14.27-.04.84,1.76,2.48,2.8,2.55,3.97.3,7.99.12,11.98.13Z"/>
      <path class="cls-1" d="M591.1.15c13.35,4.85,17.9,11.5,17.91,26.2,0,10-.23,20,.11,29.99.15,4.34-1.68,5-5.27,4.78-3.17-.19-6.21.62-5.98-4.59.42-9.14.17-18.32.08-27.49-.02-2.47-.28-4.97-.71-7.41-1.42-8.07-5.57-11.98-12.73-12.19-6.06-.18-12.75,4.84-14.3,11.19-.74,3.03-.92,6.24-.97,9.37-.12,9-.28,18,.05,26.99.18,5.11-3.09,3.95-5.91,4.09-3,.15-5.36.27-5.3-4.19.22-16.99.08-33.99-.03-50.98-.02-2.82.05-4.89,3.83-4.62,3.22.23,6.69-.47,6.18,4.61-.11,1.14.09,2.31.11,2.67,5.19-2.74,10.56-5.58,15.93-8.41,2.33,0,4.67,0,7,0Z"/>
      <path class="cls-1" d="M777.1.15c1.7.54,3.36,1.21,5.09,1.58,4.07.87,5.54,2.76,3.64,6.92-1.05,2.3-1.53,3.33-4.5,2.19-3.31-1.27-7.24-2.17-10.62-1.59-2.76.47-6.09,2.84-7.38,5.3-1.77,3.38.11,6.86,3.73,8.65,4.17,2.07,8.5,3.8,12.64,5.91,5.54,2.82,9.14,7.13,9.41,13.65.43,10.49-5.17,17.7-16.31,18.89-6.1.65-12.48-.77-18.66-1.73-4.92-.77-3.11-4.09-2.28-7.19,1.15-4.26,3.22-1.42,5.21-1.14,4.98.7,10.1,1.79,14.99,1.23,2.26-.26,4.9-3.67,5.97-6.24,1.38-3.33-.44-6.54-3.53-8.53-1.8-1.16-3.81-2.01-5.76-2.94-2.7-1.29-5.55-2.32-8.11-3.83-6.11-3.6-9.4-8.82-8.46-16.17.82-6.4,6.11-12.12,12.78-13.89,1.08-.29,2.12-.72,3.17-1.08,3,0,6,0,9,0Z"/>
      <path class="cls-2" d="M221.15,91.38c7.93-9.79,16.62-16.57,28.04-18.68,23.91-4.41,42.26,8.69,43.7,31.63,1.35,21.39.85,42.9,1.24,64.35.05,2.58-.88,3.4-3.46,3.52-9.53.46-9.52.56-9.52-8.95-.01-16.66.09-33.32-.1-49.97-.09-7.72-1.34-15.36-6.66-21.44-9.15-10.47-27.6-10.61-38.78-.84-9.28,8.1-13.49,18.16-13.58,30.34-.12,15.46-.67,30.92-.78,46.38-.03,3.52-1.1,4.6-4.57,4.5-10.08-.31-8.41,1.04-8.44-8.52-.08-27.99.06-55.97-.12-83.96-.03-4.29.92-5.89,5.49-5.64,8.58.45,7.47-.79,7.56,7.47.03,2.83,0,5.66,0,9.82Z"/>
      <path class="cls-2" d="M459.2,89.48c19.36-25.39,55.71-22.79,64.67,3.74,4.44-4.55,8.55-9.82,13.66-13.81,16.54-12.9,40.43-9.35,49.78,8.12,3.74,6.99,5.19,15.81,5.54,23.9.8,18.46.16,36.99.39,55.48.05,4.1-1.04,5.92-5.26,5.28-1.14-.17-2.35-.16-3.49,0-3.6.49-4.48-1.14-4.45-4.55.13-19.16.21-38.33-.06-57.49-.09-6.07-.53-12.26-4.69-17.45-5.63-7.03-14.92-10.23-23.63-7.81-14.79,4.11-24.02,15.76-24.5,31.41-.49,16.13-.72,32.26-.98,48.39-.12,7.47-.02,7.47-5.97,7.47q-6.2,0-6.2-7.24c0-12,.12-24-.04-35.99-.1-7.8-.3-15.63-1.03-23.39-.84-8.98-4.7-16.38-13.71-19.7-9.78-3.6-18.61-1.25-26.53,5.2-8.64,7.03-12.07,16.63-12.49,27.25-.64,16.29-.94,32.6-.86,48.89.03,5.17-2.48,5.13-6.1,5.02-3.34-.1-6.36.69-6.31-4.78.26-29.49.26-58.99,0-88.49-.05-5.47,2.98-4.66,6.32-4.78,3.68-.13,6.65-.09,6.03,5.06-.41,3.37-.08,6.84-.08,10.26Z"/>
      <path class="cls-2" d="M740.15,123.19c0-14.65.11-29.3-.08-43.94-.05-3.8.84-5.73,4.95-5.07.97.16,2.01.15,2.99,0,4.33-.69,5.53,1.33,5.17,5.35-.18,2.02.45,4.11.71,6.17,1.63-1.27,3.46-2.36,4.85-3.85,7.21-7.69,15.57-11.89,26.3-8.82,5.34,1.53,5.08,1.75,2.45,6.58-2.23,4.09-4.9,6.38-9.77,5.57-8.38-1.39-14.1,3.27-17.26,9.88-3.14,6.58-5.68,14.03-6.06,21.23-.9,16.93-.48,33.94-.31,50.92.04,3.98-1.13,5.13-5.07,5.04-8.88-.2-8.89,0-8.89-9.11,0-13.32,0-26.63,0-39.95Z"/>
      <path class="cls-1" d="M666.19,51.77c-5.72,6.72-11.52,10.41-19.24,10.41-11.98,0-20.28-7.35-20.73-19.47-.47-12.64-.08-25.3-.26-37.95-.06-4.18,2.68-3.43,5.06-3.38,2.63.06,5.96-1.06,5.93,3.69-.07,11.15-.18,22.32.2,33.46.2,5.76,1.71,11.32,8.1,13.66,7.88,2.88,17.04-2.08,18.81-10.61.87-4.18.84-8.57.91-12.88.13-7.99.15-15.98,0-23.97-.09-4.66,3.23-3.31,5.57-3.31,2.34,0,5.56-1.34,5.54,3.33-.1,17.65-.06,35.3.1,52.94.03,3.21-1.62,3.75-4.03,3.32-2.19-.39-5.84,1.87-5.94-2.87-.04-1.66,0-3.31,0-6.37Z"/>
      <path class="cls-1" d="M460.71,48.91c5.04-14.7,9.89-28.83,14.73-42.95,1.35-3.94,8.24-6.58,11.6-4.28.59.4.83,2.1.51,2.92-6.98,17.95-14.1,35.85-21.11,53.8-1.59,4.08-5.01,2.67-7.68,2.51-1.71-.1-4.29-1.4-4.85-2.81-6.94-17.61-13.57-35.34-20.33-53.02-.98-2.55-.43-3.57,2.45-3.77,7.85-.54,7.88-.62,10.52,6.99,4.63,13.32,9.27,26.64,14.14,40.62Z"/>
    </g>
  </g>
</svg>