<svg width="27" height="31" viewBox="0 0 27 31" fill="none" xmlns="http://www.w3.org/2000/svg">
<g clip-path="url(#clip0_3391_1692)">
<path d="M14.0762 25.7246C14.1445 25.7051 14.2031 25.6758 14.2715 25.6367L21.918 21.2812C22.8262 20.7637 23.3145 20.2363 23.3145 18.8203V11.2129C23.3145 10.9199 23.2949 10.6856 23.2363 10.4707L14.0762 15.7051V25.7246ZM12.7383 25.7246V15.7051L3.57812 10.4707C3.51953 10.6856 3.5 10.9199 3.5 11.2129V18.8203C3.5 20.2363 3.99805 20.7637 4.89648 21.2812L12.5527 25.6367C12.6113 25.6758 12.6699 25.7051 12.7383 25.7246ZM13.4121 14.5332L17.582 12.1699L8.33398 6.88672L4.75 8.92773C4.53516 9.04492 4.35938 9.16211 4.20312 9.30859L13.4121 14.5332ZM18.9395 11.3984L22.6113 9.30859C22.4648 9.16211 22.2891 9.04492 22.0742 8.92773L15.1797 5.00195C14.584 4.66016 13.9883 4.47461 13.4121 4.47461C12.8262 4.47461 12.2305 4.66016 11.6348 5.00195L9.65234 6.125L18.9395 11.3984Z" fill="black"/>
<path d="M13.5 0C14.3284 0 15 0.671573 15 1.5C15 1.51242 14.9983 1.52476 14.998 1.53711L24.5781 7.06836C24.8326 6.86955 25.152 6.75 25.5 6.75C26.3284 6.75 27 7.42157 27 8.25C27 8.85544 26.6405 9.37534 26.124 9.6123V20.8867C26.6407 21.1236 27 21.6444 27 22.25C27 23.0784 26.3284 23.75 25.5 23.75C25.1518 23.75 24.8327 23.6297 24.5781 23.4307L14.9814 28.9707C14.8746 29.6943 14.2533 30.25 13.5 30.25C12.7466 30.25 12.1244 29.6944 12.0176 28.9707L2.4209 23.4307C2.16645 23.6294 1.84789 23.75 1.5 23.75C0.671573 23.75 0 23.0784 0 22.25C0 21.6444 0.359305 21.1236 0.875977 20.8867V9.6123C0.359504 9.37534 0 8.85544 0 8.25C0 7.42157 0.671573 6.75 1.5 6.75C1.84768 6.75 2.16652 6.86983 2.4209 7.06836L12.001 1.53711C12.0007 1.52477 12 1.51241 12 1.5C12 0.671573 12.6716 0 13.5 0ZM14.6318 2.48145C14.3568 2.79834 13.9525 3 13.5 3C13.0472 3 12.6422 2.79862 12.3672 2.48145L2.95996 7.91211C2.98502 8.02083 3 8.13367 3 8.25C3 8.94839 2.52216 9.53315 1.87598 9.7002V20.7988C2.52228 20.9658 3 21.5515 3 22.25C3 22.366 2.98488 22.4785 2.95996 22.5869L12.2363 27.9424C12.5029 27.5261 12.969 27.25 13.5 27.25C14.0308 27.25 14.4961 27.5264 14.7627 27.9424L24.0391 22.5869C24.0142 22.4785 24 22.3659 24 22.25C24 21.5515 24.4777 20.9658 25.124 20.7988V9.7002C24.4778 9.53315 24 8.94839 24 8.25C24 8.13374 24.014 8.02076 24.0391 7.91211L14.6318 2.48145Z" fill="black"/>
</g>
<defs>
<clipPath id="clip0_3391_1692">
<rect width="27" height="30.25" fill="white"/>
</clipPath>
</defs>
</svg>
