<svg id="Layer_1" data-name="Layer 1" xmlns="http://www.w3.org/2000/svg" viewBox="0 0 778.23 228.7"><path d="M53.27,94.88,52.7,96c-.5.88-.87,1.32-1.12,1.32s-.38.18-.38.56c.38.38.31.56-.19.56q-.37,0-1.41,1.32A5.88,5.88,0,0,0,48.38,102a17.37,17.37,0,0,1-.94,2.82c-.5,1.25-.88,1.88-1.12,1.88s-.57.28-.94.85-.79,1.22-1.23,2A22.47,22.47,0,0,0,43,111.7a4.21,4.21,0,0,0-.47,1.41,1.54,1.54,0,0,1-.38,1.13c-.37.12-.88.69-1.5,1.69a4.94,4.94,0,0,0-.94,2.25,2.31,2.31,0,0,1-.56,1.69c-.51.5-.76.88-.76,1.13a9.2,9.2,0,0,1-1.22,2.35,28.18,28.18,0,0,1-2.72,3.47q-2.07,2.27-3.29,3.76t-.84,1.5c.12,0,.06.19-.19.57A6.74,6.74,0,0,1,28.84,134a22.1,22.1,0,0,1-3.47,2.73,10,10,0,0,1-2.54,1.41,5.27,5.27,0,0,0-1.32-.38,10.64,10.64,0,0,1-1.78-.94,20.13,20.13,0,0,1-2.54-1.88l-2.63-2.25a9.85,9.85,0,0,1-1.88-2.07l-1.5-2.25a8.29,8.29,0,0,0-.75-2.07,5,5,0,0,1-.94-2.44,10.92,10.92,0,0,1-.19-2.45c0-1.12,0-2.34.1-3.66s.15-2.56.28-3.76.25-2.16.37-2.91l.94-4.51.75-2.25a2.74,2.74,0,0,0,.57-1.69c.25-1,.69-2.47,1.31-4.42s1.25-3.72,1.88-5.35q1.32-2.82,2.73-6.2c.94-2.26,1.78-4.32,2.53-6.2s1.38-3.48,1.88-4.79a17.27,17.27,0,0,0,.75-2.17c-.12-.12-.06-.56.19-1.31a9.64,9.64,0,0,0,.47-1.41,19.88,19.88,0,0,0,.47-2.35c.12-.75.25-1.44.38-2.06a2.73,2.73,0,0,1,.37-1.13c.13-.13.63,0,1.51.28s1.84.69,2.91,1.13,2.09.91,3.1,1.41a9.1,9.1,0,0,1,1.88,1.12c.75.75,1.25,1.13,1.5,1.13s.5.47.38,1.41A4.83,4.83,0,0,1,35.61,74a5.34,5.34,0,0,0-.94,2.82,9.09,9.09,0,0,1-.47,2.63Q33.72,81,32,84.74a1.56,1.56,0,0,0-.47.75,3.86,3.86,0,0,1-.29.75,1.14,1.14,0,0,0-.18.75,4.65,4.65,0,0,1-.47,1.13c-.32.63-.66,1.38-1,2.25q-3.19,7.16-5.54,13.25T20.2,115c-.25,1.12-.5,2.44-.75,3.94s-.44,2.88-.57,4.14-.22,2.31-.28,3.19,0,1.32.28,1.32a11,11,0,0,0,2-1.7q1.79-1.68,4.22-4.13c1.51-1.63,2.85-3,4-4.13a10.64,10.64,0,0,1,2-1.69c.37,0,1.25-.69,2.63-2.07l4.88-4.51L51.2,96.76,52,96l.75-.75Zm-40,20.48c.25-1.88.44-3.57.56-5.07a7.16,7.16,0,0,1,.57-2.82,2.23,2.23,0,0,1,.37-.94c.38-2.38.75-3.69,1.13-3.94a5.88,5.88,0,0,0,.37-1.32,12.91,12.91,0,0,1,1.13-4.13v-.38l.19-.19a.76.76,0,0,1,.19-.56,2.33,2.33,0,0,1,.18-.66c.13-.31.25-.65.38-1a4.27,4.27,0,0,1,.75-1.69l.75-2.44.57-1.7.19-.93c-.26,0-.57.62-.94,1.87l-1.13,3a5.06,5.06,0,0,0-.57,1.5l-.75,2.26-1.88,5.63A31.93,31.93,0,0,0,14,106.16c-.13.75-.31,1.87-.56,3.38s-.44,2.72-.57,4-.31,2.85-.56,4.6-.07,2,.19,1.22A27.79,27.79,0,0,0,13.25,115.36ZM14.56,112c.25-.25.25-.37,0-.37a.32.32,0,0,0-.37.37l.19.19Zm.19-2.07-.37.76c0,.37.06.56.18.56s.19-.19.19-.56Zm.19-2.25c.12.37.31.44.56.19a.52.52,0,0,1-.37-.19Zm.94-.94c.25-.5.19-.56-.19-.19a1.29,1.29,0,0,0-.38.94c.25.25.32.38.19.38Zm.37-1.5q.57,0,.57-.75c0-.38-.13-.57-.38-.57s-.37.19-.37.57S16,105.22,16.25,105.22Zm.19-1.88c0,.25.12.16.38-.28a2.5,2.5,0,0,0,.37-1.23,3.32,3.32,0,0,0,.29-.84,2.85,2.85,0,0,1,.46-1c.63-1.38,1.16-2.7,1.6-3.95s.78-2.38,1-3.38l.75-1.69c.12,0,.18-.13.18-.38a3.21,3.21,0,0,1,.57-1.31c.25-.63.31-1,.19-1.13s.06-.38.18-.38L23,86.62A5,5,0,0,1,24,84.17l.75-1.87c0-1-.5-.19-1.5,2.44a6.5,6.5,0,0,1-1.13,2.44.77.77,0,0,1-.19.56c-.25.75-.38,1.07-.38.94a19.9,19.9,0,0,0-.93,2.45c-.38,1.12-1.13,3.07-2.26,5.82l-.56,1.69-.57,2.07-.56,1.88Zm1.32,4.13c.12,0,.18-.12.18-.37v-.38a.33.33,0,0,0-.37.38C17.32,107.35,17.38,107.47,17.76,107.47Zm1.69-5.26c.12-.12.12-.31,0-.56l-.19-.19v.37A.52.52,0,0,0,19.45,102.21ZM20,100c-.25,0-.37.18-.37.56s.06.38.18.38l.19-.38Zm.75-13.34c-.25.37-.25.56,0,.56l.75-1.5A20,20,0,0,0,22.83,83a20.26,20.26,0,0,1,.94-2.16L25.27,77A2.85,2.85,0,0,1,26,75.34c.38-.87.5-1.37.38-1.5l.19-.19c.25,0,.37-.19.37-.56a2.27,2.27,0,0,1,.1-.56,3.22,3.22,0,0,0,.09-.76c.12-.5.06-.62-.19-.37a4.49,4.49,0,0,0-.56.94q-.37.75-.75,1.59c-.25.57-.47,1.13-.66,1.7a4.83,4.83,0,0,0-.28,1A5.14,5.14,0,0,1,24,78.35q-.95,1.5-.57,1.5V80a6.61,6.61,0,0,0-.65,1,10.23,10.23,0,0,0-.85,2.16Zm3.39,2.25c.24-.25.24-.38,0-.38a.33.33,0,0,0-.38.38c0,.38.06.56.19.56v-.18Zm1.12-7.7c.25-.38.31-.63.19-.75s-.31.06-.56.56a.75.75,0,0,0-.19.56v.19A.5.5,0,0,0,25.27,81.17Zm6.39,40.58c1-1,1-1.34.09-1a14,14,0,0,0-3.66,2.16A5.91,5.91,0,0,1,25.84,124c-.13-.13-.22-.16-.29-.1s0,.16.1.28c.5.88,1.5.5,3-1.12,1-1,1.63-1.38,1.88-1.13S31.16,122.25,31.66,121.75Zm3.19-61.63c-.25.38-.69.94-1.31,1.7s-1.25,1.44-1.88,2.06l-2.25,2.26.37-1.88,1.13-4.89c.62-2.13,1.13-3.91,1.5-5.35s.72-2.69,1-3.76.62-2,.93-2.82.66-1.66,1-2.53.72-2.07,1-3.2a10.68,10.68,0,0,0,.47-2.44c0-1.13.06-1.69.19-1.69.5,0,1.44.56,2.82,1.69a16.78,16.78,0,0,1,3,3,8.19,8.19,0,0,1,1.32,2.63,5.77,5.77,0,0,1-.75,3l-1.69,3.76a10.29,10.29,0,0,1-2,3.1,30.73,30.73,0,0,1-2.91,2.91A7,7,0,0,0,34.85,60.12Zm20.3,32.7c.12-.13.31-.13.56,0V93A1.86,1.86,0,0,1,55,94.41c-.5.44-.88.6-1.13.47s-.44-.12-.56,0l.75-.75q1.13-.37.75-.75C54.77,93,54.89,92.82,55.15,92.82Z"/><path d="M59.84,84c-.25,0-.56.28-.94.84s-.81,1.16-1.31,1.79L55.9,89.25l1.31.94a20.82,20.82,0,0,0,2.54,1.22c1.31.56,2.72,1.16,4.23,1.78q2.63,1.13,4.32,1.88t2.91,1.41a17.88,17.88,0,0,1,2.44,1.6c.82.63,1.79,1.44,2.91,2.44s2,1.91,2.92,2.72a22.71,22.71,0,0,0,2,1.6,10.82,10.82,0,0,1,2.91,2.91c.94,1.32,1.35,2.35,1.22,3.1v3.57a4.27,4.27,0,0,1-.28,2.45,15,15,0,0,1-2.54,3c-.87.75-1.66,1.44-2.34,2.07s-1.16.94-1.41.94a10.72,10.72,0,0,0-1.13.66,15.68,15.68,0,0,0-1.69,1.22,15.49,15.49,0,0,1-2.35,1.5c-.94.5-1.72.87-2.35,1.13l-5.07,2.06q-1.12.57-2.73,1.32A27.91,27.91,0,0,1,61,131.9a41.87,41.87,0,0,1-4.89,2c-2,.69-3.94,1.34-5.82,2s-3.51,1.13-4.88,1.51-2.13.49-2.26.37l-.19-.19a1.09,1.09,0,0,0-.75.38,1.63,1.63,0,0,1-1.13.56c-.12,0-.56,0-1.31.1s-1.6.15-2.54.28-1.84.22-2.72.28-1.44.09-1.69.09a4.54,4.54,0,0,1-1.88,0,2.89,2.89,0,0,1-1.69-1.12c-.13-.51-.44-.63-.94-.38a1.85,1.85,0,0,1-1.32-.19,1.74,1.74,0,0,0-1-.47,12.08,12.08,0,0,1-1.41-.28,16.25,16.25,0,0,1-3.76-.94c-1.37-.5-2.06-.94-2.06-1.31s.56-1.16,1.69-2a19.79,19.79,0,0,1,3.94-2.16,46.7,46.7,0,0,1,5.26-2c1.51-.44,2.13-.47,1.88-.09q-.93,1.3,2.82-.75a4.15,4.15,0,0,0,1.22-.66c.19-.19.1-.22-.28-.1-1.25.38-1.44.25-.56-.37,1.12-.25,1.75-.32,1.87-.19a2.23,2.23,0,0,0,1.79,0c.56-.25.72-.56.47-.94-.12-.13-.09-.22.09-.28a.85.85,0,0,1,.66.09,3,3,0,0,0,2.07,0q1.13-.37.75-.75c-.25-.25.19-.37,1.31-.37a3.6,3.6,0,0,0,2.63-1.13c.51-.75,1.07-.94,1.7-.57s1.18,0,1.69-.75.75-.69.75-.19.31.47.94.29a2.87,2.87,0,0,0,1.5-1,1.82,1.82,0,0,1,1.32-.56l4.13-1.32c2-.49,2.88-1.06,2.63-1.69s.06-.81.94-.56,1.13.13,1.13-.38a1,1,0,0,1,.75-1.12c.62-.25.94-.19.94.18s.19.63.56.38.44-.69.19-.94-.19-.56.19-.56a.89.89,0,0,1,.94.75c.12.63.5.63,1.12,0s.94-1.13.94-1.5.29-.6.85-1,1.22-1,2-1.59q4.89-3.57,3-4.89a2.85,2.85,0,0,0-1.69-.75,23.68,23.68,0,0,1-4.23-1.41c-2.44-.94-4.67-1.91-6.67-2.91a30,30,0,0,1-6.58-4,27.77,27.77,0,0,1-4.69-5.73A8.67,8.67,0,0,0,49,88.49a1,1,0,0,0-1.13,0l-.19.19-.19-.56a3,3,0,0,0,.47-1.6,9,9,0,0,0-.47-1.41q-3-5.25,3.38-11.65l2.26-2.25c.62-.63,1.06-.94,1.31-.94a1.7,1.7,0,0,0,1.51-.94,18.22,18.22,0,0,1,2.35-1.78c1.18-.82,2.44-1.63,3.75-2.45s2.51-1.56,3.57-2.25a6.18,6.18,0,0,1,2-1,.5.5,0,0,0,.56-.57q0-.18.75-.66c.5-.31,1.06-.62,1.69-.93a15.14,15.14,0,0,1,2.07-.85,6,6,0,0,1,1.69-.38,7,7,0,0,1,4.88,2.45A4.84,4.84,0,0,0,81.45,62c1,.63,1.56,1.13,1.69,1.51a4.48,4.48,0,0,0,1.5,1.5,2.33,2.33,0,0,1,1.51,1.88,1.35,1.35,0,0,1-.38,1.41,14.11,14.11,0,0,1-3,1.41c-1,.25-1.94.5-2.81.75a8.51,8.51,0,0,1-1.69.37A3.6,3.6,0,0,0,76,72.15a18.82,18.82,0,0,1-2.16,1.69c-1.07.75-2.16,1.5-3.29,2.26s-2.19,1.47-3.19,2.16a16.74,16.74,0,0,0-1.88,1.4Q61.16,84,59.84,84ZM30.34,129.1c.38-.37.35-.53-.09-.47a6.45,6.45,0,0,0-2,.85l-1.32.94,1.32-.38A3.51,3.51,0,0,0,30.34,129.1Zm5.08.17c.63,0,.94-.19.94-.57s-.31-.44-.94-.19-.75.32-.75.57l.18.19Zm2.82-1.13a.47.47,0,0,0,.75,0V128a1.77,1.77,0,0,0-1.13,0C37.74,128.07,37.86,128.14,38.24,128.14Zm6.57-1.88c.38-.38.28-.56-.28-.56a7.19,7.19,0,0,0-2.35.56l-2.25.75,2.25-.19c.63-.12,1.19-.25,1.69-.37A5.32,5.32,0,0,1,44.81,126.26Zm1.13-.19a.5.5,0,0,0,.56-.56l-.19-.38V125c-.12,0-.37.18-.75.56S45.31,126.07,45.94,126.07Zm3.19-1.69c.25-.37.22-.56-.09-.56a3.29,3.29,0,0,0-1.41.56c-.75.25-.69.38.19.38A1.3,1.3,0,0,0,49.13,124.38Zm3.39-1.31c.37-.51-.19-.51-1.7,0-.62.25-.94.4-.94.47s.32.09.94.09C51.7,123.63,52.26,123.44,52.52,123.07Zm2.81-49.61A6,6,0,0,1,54,74c-.13,0,.06-.19.56-.57S56.21,72.4,58,71.4l3.76-2.26.75-.37-1.31.37c-1.51.63-2.54,1-3.1,1.22s-.91.22-1,.1l-.18-.19-1.69,1.32L54,72.34,53.08,74A13.2,13.2,0,0,0,51,75.53a3,3,0,0,0-1,1.32c-.19.5,0,.94.66,1.31Zm.57,48.29c.62-.63.78-.94.47-.94a5.38,5.38,0,0,0-2,.94c-.87.5-1.06.75-.56.75A4.66,4.66,0,0,0,55.9,121.75Zm6.39-53.36q.55-.18.75,0a.77.77,0,0,1,.56-.19l.75-.37.57-.57a.54.54,0,0,0,.18-.37l.19-.19a8.94,8.94,0,0,1-2.44.94c-1.38.63-1.94.94-1.69.94A5,5,0,0,0,62.29,68.39Z"/><path d="M176.14,88.12c.5-.5.75-.44.75.19s-.75,1.88-2.25,3.38L173,93.38c-.5.5-.75.88-.75,1.13-.26.37-.88.56-1.88.56s-2.07.69-3.2,2.07c-1.38,1.38-2.25,2-2.63,1.88a3.61,3.61,0,0,0-2.34.56,8.71,8.71,0,0,0-2.54,2.07c-2,2.38-1.5,2.38,1.5,0a6.94,6.94,0,0,1,2.44-1.79c.63-.19.5.16-.37,1s-1,1.25-.75,1.5.56,0,1.31-.47,1.57-1,2.44-1.6,1.73-1.25,2.54-1.88a5.93,5.93,0,0,0,1.41-1.31c.12-.5.5-.75,1.13-.75s.75.37.37,1.12a6.62,6.62,0,0,1-2.06,2.26c-1.26.88-1.88,1.69-1.88,2.44s-.13,1.13-.38,1.13a1.66,1.66,0,0,0-1.41-.1c-.31.19-.34.47-.09.85.12.13-.16.69-.85,1.69l-2.25,3.29a37.32,37.32,0,0,1-2.44,3.19c-.82.94-1.35,1.41-1.6,1.41l-.75.57-1.51,1.5a23.93,23.93,0,0,1-5.54,4,25.12,25.12,0,0,1-6.86,2.53,16.53,16.53,0,0,1-5.07.57,12,12,0,0,1-4.32-1.51,11.57,11.57,0,0,1-3-2.72c-1.25-1.44-1.87-2.41-1.87-2.91a9.07,9.07,0,0,0-.94-1.69,3.39,3.39,0,0,1-1.13-2.44,10.13,10.13,0,0,0-.94-3.2,10.09,10.09,0,0,1-.56-1.88,7.38,7.38,0,0,1-.19-1.31c0-1-.22-1.35-.66-1a5.65,5.65,0,0,0-1.41,2.35,26.63,26.63,0,0,1-2.07,3.57c-1.12,1.76-2.38,3.7-3.75,5.83s-2.57,3.79-3.57,5.35A11,11,0,0,0,113,124c0,.37-.47,1-1.41,1.78a29.93,29.93,0,0,1-3.1,2.35,29.55,29.55,0,0,1-3.19,1.88c-1,.5-1.57.62-1.69.37-.13-.5-.75-.62-1.88-.37a4,4,0,0,1-2.91-1,12,12,0,0,1-2.73-2.91,3.33,3.33,0,0,1-.65-.94,10.9,10.9,0,0,0-.66-1.12,14.72,14.72,0,0,1-.47-3.29c-.07-1.32-.09-2.63-.09-4s0-2.53.09-3.66a10.1,10.1,0,0,1,.28-2.26,5,5,0,0,0,.56-3.38,10.83,10.83,0,0,1,.1-1.22,3.14,3.14,0,0,1,.47-1.41,16.46,16.46,0,0,0,.84-3.57c.19-1.38.16-1.94-.09-1.69-.63.63-1.32,2.44-2.07,5.45a56.62,56.62,0,0,0-1.5,9.39l-.38,4.7v-2.07a8.37,8.37,0,0,0,0,2.45,7.18,7.18,0,0,1-.37-2.26v-3.57a44.9,44.9,0,0,1,.75-8.55A62.53,62.53,0,0,1,96.29,94.7a1.81,1.81,0,0,0,.57-1.32l.18-.56h.57c.62.25.94.18.94-.19a.5.5,0,0,0-.57-.57c-.25,0-.22-.46.1-1.4a13.62,13.62,0,0,1,1.41-2.92l.94-1.12-.57,1.12a15.8,15.8,0,0,0-.37,2.63l-.57,2.82c-.37.75-.75.94-1.13.57-.12-.25-.22-.32-.28-.19a.66.66,0,0,0,.1.56,3.77,3.77,0,0,1-.57,3c-.62,1.13-.75,1.69-.37,1.69a1.78,1.78,0,0,0,1.22-.75,2.15,2.15,0,0,0,.66-1.32,11.76,11.76,0,0,1,.75-2.35q.75-2,1.78-4.41t2.16-4.79c.76-1.57,1.38-2.79,1.88-3.67l2.26-3.94.94-1.69-1.51,1.69c-1,1.25-1.44,1.6-1.31,1a12.8,12.8,0,0,1,1.88-3.29,24.32,24.32,0,0,0,1.78-2.44L110.38,71a6.65,6.65,0,0,1,1.13-1.69c.12-.12.41-.44.85-.94a21.29,21.29,0,0,0,1.41-1.88l.18-.18,1.88-1.51q2.82-1.87,4.7-1.69A9.06,9.06,0,0,1,125,65.57c3.25,2.89,5.23,5.23,5.92,7.05s-.16,2.47-2.54,2a7.71,7.71,0,0,0-4.23.47,8,8,0,0,0-3.47,2.54,7.22,7.22,0,0,1-1.13,1.31l-.94.94a12.22,12.22,0,0,0-1.22,1.69l-1.79,2.82a28.88,28.88,0,0,1-1.59,2.82l-1.22,1.88a35.46,35.46,0,0,0-3.29,5.64q-2,3.94-3.85,8t-3.1,7.23c-.82,2.14-1.1,3.32-.85,3.57s1-.53,2.63-2.34,3.54-4.11,5.73-6.86,4.48-5.7,6.86-8.83,4.44-5.89,6.2-8.27q2.07-3.2,3.94-6c1.26-1.88,2.07-3.07,2.45-3.57a7.92,7.92,0,0,1,1.5-1.5,3.09,3.09,0,0,1,1.69-.38c.75.25,1.25.19,1.5-.19a17.13,17.13,0,0,0,1.13-3.76,13.28,13.28,0,0,1,1.6-4.13c.44-.5,1-.25,1.78.75a3.16,3.16,0,0,0,2.07,1.13,2.89,2.89,0,0,1,1.6.94,18,18,0,0,1,2,2.16,13.86,13.86,0,0,1,1.5,2.35c.38.75.5,1.19.38,1.31-.38.25-.78,1.16-1.22,2.73a24.86,24.86,0,0,0-.85,4.6,36.88,36.88,0,0,1-1.41,4.7q-1.22,3.57-2.72,7.32c-1,2.64-1.88,5-2.63,7.14s-1.25,3.45-1.5,4c-.26.75-.29,1.22-.1,1.41s.78.16,1.79-.1a26,26,0,0,0,5.16-2.06,49.71,49.71,0,0,0,6.48-3.76,3.7,3.7,0,0,1,1.51-.84c.37-.07.44,0,.19.28l-.38.75-.19.19a8.16,8.16,0,0,0,1.51-.57q1.31-.55,3-1.41c1.13-.56,2.29-1.15,3.48-1.78s2.16-1.19,2.91-1.69a18,18,0,0,1,2.63-1.41c.75-.31,1.13-.41,1.13-.28l1.5-.94a23.25,23.25,0,0,0,2.63-1.6c1-.69,2-1.34,3-2s1.84-1.19,2.53-1.69A13,13,0,0,0,176.14,88.12ZM96.86,103.71c-.76,1.51-.76,2.07,0,1.7.37-.13.56-.63.56-1.51-.13-.62-.19-1-.19-1A3.4,3.4,0,0,0,96.86,103.71Zm.37,19.17a3.21,3.21,0,0,0,0-1.51c-.25-.75-.37-.5-.37.76S97,123.63,97.23,122.88Zm.19-7.52c.37,0,.56-.37.56-1.12a.88.88,0,0,0-.09-.38.75.75,0,0,1-.1-.38v-.37c-.25,0-.44.37-.56,1.13S97,115.36,97.42,115.36Zm.56-3.94a.5.5,0,0,0,.57-.57l-.19-.37v-.19a.73.73,0,0,0-.75.56C97.23,111.23,97.35,111.42,98,111.42Zm0-11.09a1.48,1.48,0,0,0-.56,1.32c0,.63.19.63.56,0a1.81,1.81,0,0,0,.57-1.32Q98.55,100.15,98,100.33Zm.75,8.27q.19-.57-.18-.57a.5.5,0,0,0-.57.57V109l.19.19Zm.94-6.58a.86.86,0,0,0,.57-.94q0-.37-.57-.18a1.1,1.1,0,0,0-.56.93C99.11,102.21,99.3,102.28,99.67,102Zm.94-8.64c-.25.63-.34.94-.28.94a4.49,4.49,0,0,0,.85-.75,2.85,2.85,0,0,0,.75-1.69c0-.5-.16-.53-.47-.1A7.25,7.25,0,0,0,100.61,93.38Zm.57,2.44v-.19l1.31-1.87a22.22,22.22,0,0,0,1.22-2.45,5.24,5.24,0,0,0,.47-1.5c0-.5-.18-.5-.56,0-.25.75-.31,1.19-.19,1.32s.19.37-.19.37-.5.32-.75.94Zm1.69,2.45a19.94,19.94,0,0,0-1.13,4.13l4.32-11.27a6.32,6.32,0,0,0-1.31,2.63c-.26.62-.54,1.38-.85,2.25A13,13,0,0,1,102.87,98.27Zm1.69-10.53c-.38.13-.32.44.19.94.25.26.4.38.47.38s0-.06-.1-.19c-.12-.5-.06-.75.19-.75s.75-.69,1.5-2.07,1.07-1.94,1.32-1.69a3.72,3.72,0,0,1,0,1.69l-.38,1.13c-.12.38-.25.82-.37,1.31l4.32-9.2c-1.5,1.75-2,2-1.5.75.12-.38.06-.44-.19-.19-.5.13-.63.57-.38,1.32a4.2,4.2,0,0,1-.37,1.88c-.26.62-.69.62-1.32,0-.5-.38-1.06-.07-1.69.94a5.1,5.1,0,0,0-.94,2.63A1,1,0,0,1,104.56,87.74Zm.37-9.95a15.09,15.09,0,0,0,1.32-2.26.77.77,0,0,1-.19.57A6.4,6.4,0,0,1,104.93,77.79ZM107.56,74v-.19a.56.56,0,0,1-.18.38Zm1.88-2.63a4.81,4.81,0,0,1-.94,1.31,7.81,7.81,0,0,0-.94,1.13,5,5,0,0,1,.94-1.31A7.7,7.7,0,0,0,109.44,71.4Zm18.23,17.28Q131,84.18,130,85a56,56,0,0,0-5,5.73q-2.07,2.44-4.32,5.07C119.21,97.58,118,99,117,100a76.11,76.11,0,0,0-5.36,5.82c-1.31,1.63-1.85,2.63-1.59,3q.38.93.75.75a11,11,0,0,0,1.69-1.51c.5-.49,1.16-1.18,2-2.06s1.66-1.82,2.54-2.82l1.88-2.25.94-.94c.25,0,.75-.57,1.5-1.69a6.88,6.88,0,0,0,1.13-2.07c-.38-.25-.07-.5.94-.75a4.59,4.59,0,0,0,1.31-1.88,11.85,11.85,0,0,1,1-2A34.92,34.92,0,0,1,127.67,88.68Z"/><path d="M254.3,88.12c.5-.5.75-.44.75.19s-.75,1.88-2.25,3.38l-1.69,1.69c-.51.5-.76.88-.76,1.13-.25.37-.87.56-1.87.56s-2.07.69-3.2,2.07c-1.38,1.38-2.25,2-2.63,1.88a3.63,3.63,0,0,0-2.35.56,8.67,8.67,0,0,0-2.53,2.07q-3,3.57,1.5,0a6.86,6.86,0,0,1,2.44-1.79c.63-.19.5.16-.37,1s-1,1.25-.76,1.5.57,0,1.32-.47,1.56-1,2.44-1.6,1.72-1.25,2.54-1.88a5.93,5.93,0,0,0,1.41-1.31c.12-.5.5-.75,1.13-.75s.75.37.37,1.12a6.56,6.56,0,0,1-2.07,2.26c-1.25.88-1.87,1.69-1.87,2.44s-.13,1.13-.38,1.13a1.66,1.66,0,0,0-1.41-.1c-.31.19-.35.47-.09.85.12.13-.16.69-.85,1.69l-2.25,3.29a35.39,35.39,0,0,1-2.45,3.19q-1.21,1.41-1.59,1.41l-.75.57-1.51,1.5a23.93,23.93,0,0,1-5.54,4,25.12,25.12,0,0,1-6.86,2.53,16.53,16.53,0,0,1-5.07.57,11.91,11.91,0,0,1-4.32-1.51,11.57,11.57,0,0,1-3-2.72c-1.25-1.44-1.88-2.41-1.88-2.91a8.42,8.42,0,0,0-.94-1.69,3.41,3.41,0,0,1-1.12-2.44,10.13,10.13,0,0,0-.94-3.2,10.13,10.13,0,0,1-.57-1.88,8.49,8.49,0,0,1-.19-1.31c0-1-.22-1.35-.65-1a5.65,5.65,0,0,0-1.41,2.35A26.63,26.63,0,0,1,200,110.1l-3.76,5.83c-1.38,2-2.57,3.79-3.57,5.35a11.2,11.2,0,0,0-1.5,2.73c0,.37-.47,1-1.41,1.78a31,31,0,0,1-3.1,2.35,30.55,30.55,0,0,1-3.19,1.88c-1,.5-1.57.62-1.69.37-.13-.5-.76-.62-1.88-.37a4,4,0,0,1-2.91-1,11.82,11.82,0,0,1-2.73-2.91,3.57,3.57,0,0,1-.66-.94A9.24,9.24,0,0,0,173,124a14.16,14.16,0,0,1-.47-3.29c-.07-1.32-.1-2.63-.1-4s0-2.53.1-3.66a10.1,10.1,0,0,1,.28-2.26,5.08,5.08,0,0,0,.56-3.38,10.83,10.83,0,0,1,.1-1.22,3,3,0,0,1,.47-1.41,17.07,17.07,0,0,0,.84-3.57c.19-1.38.16-1.94-.09-1.69-.63.63-1.32,2.44-2.07,5.45a56.62,56.62,0,0,0-1.5,9.39l-.38,4.7v-2.07a7.73,7.73,0,0,0,0,2.45,7.18,7.18,0,0,1-.37-2.26v-3.57a44.1,44.1,0,0,1,.75-8.55,61.6,61.6,0,0,1,3.38-10.42,1.84,1.84,0,0,0,.56-1.32l.19-.56h.56c.63.25.94.18.94-.19a.5.5,0,0,0-.56-.57c-.25,0-.22-.46.09-1.4a13.62,13.62,0,0,1,1.41-2.92l.94-1.12L178,87.74a16.15,16.15,0,0,0-.38,2.63l-.56,2.82c-.38.75-.75.94-1.13.57-.12-.25-.22-.32-.28-.19a.69.69,0,0,0,.09.56,3.76,3.76,0,0,1-.56,3c-.63,1.13-.75,1.69-.38,1.69a1.78,1.78,0,0,0,1.23-.75,2.18,2.18,0,0,0,.65-1.32,11.41,11.41,0,0,1,.76-2.35c.49-1.31,1.09-2.78,1.78-4.41s1.41-3.23,2.16-4.79,1.38-2.79,1.88-3.67l2.25-3.94.94-1.69L185,77.6c-1,1.25-1.44,1.6-1.31,1a13,13,0,0,1,1.87-3.29,22.91,22.91,0,0,0,1.79-2.44L188.54,71a6.65,6.65,0,0,1,1.13-1.69c.12-.12.4-.44.84-.94a18,18,0,0,0,1.41-1.88l.19-.18L194,64.82c1.88-1.25,3.44-1.81,4.7-1.69a9.06,9.06,0,0,1,4.51,2.44c3.25,2.89,5.22,5.23,5.91,7.05s-.15,2.47-2.53,2a7.71,7.71,0,0,0-4.23.47,8.05,8.05,0,0,0-3.48,2.54,6.63,6.63,0,0,1-1.12,1.31l-.94.94a11.41,11.41,0,0,0-1.22,1.69c-.57.88-1.16,1.82-1.79,2.82a27,27,0,0,1-1.6,2.82c-.56.88-1,1.5-1.22,1.88a36.25,36.25,0,0,0-3.29,5.64c-1.31,2.63-2.6,5.29-3.85,8s-2.28,5.11-3.1,7.23-1.09,3.32-.84,3.57,1-.53,2.63-2.34,3.54-4.11,5.73-6.86,4.48-5.7,6.86-8.83,4.44-5.89,6.2-8.27c1.37-2.13,2.69-4.13,3.94-6s2.07-3.07,2.44-3.57a8.2,8.2,0,0,1,1.51-1.5,3.06,3.06,0,0,1,1.69-.38c.75.25,1.25.19,1.5-.19a17.13,17.13,0,0,0,1.13-3.76,13,13,0,0,1,1.6-4.13c.43-.5,1-.25,1.78.75A3.14,3.14,0,0,0,219,69.52a2.9,2.9,0,0,1,1.59.94,17.28,17.28,0,0,1,2,2.16,15.23,15.23,0,0,1,1.5,2.35c.38.75.5,1.19.38,1.31-.38.25-.79,1.16-1.22,2.73a23.31,23.31,0,0,0-.85,4.6,40.75,40.75,0,0,1-1.41,4.7c-.82,2.38-1.72,4.82-2.72,7.32s-1.88,5-2.63,7.14-1.26,3.45-1.51,4q-.37,1.13-.09,1.41c.19.19.78.16,1.78-.1A25.8,25.8,0,0,0,221,106a49.71,49.71,0,0,0,6.48-3.76,3.7,3.7,0,0,1,1.51-.84c.37-.07.43,0,.18.28l-.37.75-.19.19a8.21,8.21,0,0,0,1.5-.57c.88-.37,1.88-.84,3-1.41s2.28-1.15,3.47-1.78,2.17-1.19,2.92-1.69a18,18,0,0,1,2.63-1.41c.75-.31,1.12-.41,1.12-.28l1.51-.94a24.17,24.17,0,0,0,2.63-1.6c1-.69,2-1.34,3-2s1.85-1.19,2.54-1.69A13,13,0,0,0,254.3,88.12ZM175,103.71c-.75,1.51-.75,2.07,0,1.7.38-.13.57-.63.57-1.51-.13-.62-.19-1-.19-1A3.55,3.55,0,0,0,175,103.71Zm.38,19.17a3.21,3.21,0,0,0,0-1.51c-.25-.75-.38-.5-.38.76S175.14,123.63,175.39,122.88Zm.19-7.52c.37,0,.56-.37.56-1.12a.88.88,0,0,0-.09-.38.75.75,0,0,1-.1-.38v-.37c-.25,0-.44.37-.56,1.13S175.2,115.36,175.58,115.36Zm.56-3.94a.5.5,0,0,0,.56-.57l-.18-.37v-.19a.75.75,0,0,0-.76.56C175.39,111.23,175.51,111.42,176.14,111.42Zm0-11.09a1.46,1.46,0,0,0-.56,1.32c0,.63.18.63.56,0a1.8,1.8,0,0,0,.56-1.32C176.7,100.21,176.52,100.21,176.14,100.33Zm.75,8.27c.12-.38.06-.57-.19-.57a.5.5,0,0,0-.56.57V109l.19.19Zm.94-6.58c.38-.12.56-.43.56-.94,0-.25-.18-.31-.56-.18a1.1,1.1,0,0,0-.56.93C177.27,102.21,177.46,102.28,177.83,102Zm.94-8.64c-.25.63-.35.94-.28.94a4.29,4.29,0,0,0,.84-.75,2.87,2.87,0,0,0,.76-1.69c0-.5-.16-.53-.47-.1A7.25,7.25,0,0,0,178.77,93.38Zm.56,2.44v-.19l1.32-1.87a22.22,22.22,0,0,0,1.22-2.45,5.24,5.24,0,0,0,.47-1.5c0-.5-.19-.5-.56,0-.26.75-.32,1.19-.19,1.32s.19.37-.19.37-.5.32-.75.94ZM181,98.27a19.94,19.94,0,0,0-1.12,4.13l4.32-11.27a6.43,6.43,0,0,0-1.32,2.63c-.25.62-.53,1.38-.84,2.25A13,13,0,0,1,181,98.27Zm1.7-10.53c-.38.13-.32.44.18.94.25.26.41.38.47.38s0-.06-.09-.19c-.13-.5-.07-.75.19-.75s.75-.69,1.5-2.07,1.06-1.94,1.32-1.69a3.72,3.72,0,0,1,0,1.69c-.13.38-.26.75-.38,1.13s-.25.82-.38,1.31l4.33-9.2q-2.27,2.63-1.51.75c.13-.38.06-.44-.19-.19-.5.13-.62.57-.37,1.32a4.19,4.19,0,0,1-.38,1.88c-.25.62-.69.62-1.31,0-.5-.38-1.07-.07-1.69.94a5.1,5.1,0,0,0-.94,2.63A1,1,0,0,1,182.72,87.74Zm.37-9.95a16,16,0,0,0,1.32-2.26.81.81,0,0,1-.19.57A6.65,6.65,0,0,1,183.09,77.79ZM185.72,74v-.19a.53.53,0,0,1-.19.38Zm1.88-2.63a4.81,4.81,0,0,1-.94,1.31,7.81,7.81,0,0,0-.94,1.13,5,5,0,0,1,.94-1.31A7.7,7.7,0,0,0,187.6,71.4Zm18.23,17.28q3.38-4.5,2.34-3.66a56.47,56.47,0,0,0-5,5.73q-2.07,2.44-4.33,5.07c-1.5,1.76-2.75,3.13-3.75,4.14a76.11,76.11,0,0,0-5.36,5.82c-1.31,1.63-1.85,2.63-1.6,3,.25.62.5.87.76.75a11,11,0,0,0,1.69-1.51c.5-.49,1.15-1.18,2-2.06s1.66-1.82,2.54-2.82L197,100.9l.93-.94c.25,0,.76-.57,1.51-1.69a6.73,6.73,0,0,0,1.12-2.07c-.37-.25-.06-.5.94-.75a4.64,4.64,0,0,0,1.32-1.88,11.56,11.56,0,0,1,1-2A35.15,35.15,0,0,1,205.83,88.68Z"/><path d="M275.9,64.07a22.19,22.19,0,0,1,5.83.94c.87.25,1.72.53,2.53.85a17.64,17.64,0,0,0,2,.65,7.94,7.94,0,0,1,3.38,2.26,13.72,13.72,0,0,1,2.82,3.94,12.69,12.69,0,0,1,1,5.45,14.51,14.51,0,0,1-1.13,5.26,13.31,13.31,0,0,1-2.81,4.23,7.51,7.51,0,0,1-4.23,2.16,7.14,7.14,0,0,1-3.57-.75,6.08,6.08,0,0,1-1.79-1.13,2.16,2.16,0,0,1-.09-1.5l.56-2.07.94-2.63a23,23,0,0,0,1.32-5.35,10.73,10.73,0,0,0-.38-4c-.63-1.38-1.13-2-1.5-1.88a14.15,14.15,0,0,0-3.1,2,10.15,10.15,0,0,0-2.35,2.35,4.29,4.29,0,0,0-.66.85c-.19.31-.34.47-.47.47s-.69.87-1.69,2.25-2.13,3-3.38,4.79-2.44,3.57-3.57,5.26a38,38,0,0,0-2.25,3.66,21.9,21.9,0,0,1-2.07,3,2.82,2.82,0,0,0-.75,1.5,2.88,2.88,0,0,1-.94,2.07,10.61,10.61,0,0,0-1,3.85q-.47,3.11-.75,6.67a57.8,57.8,0,0,0-.19,6.39c.07,1.88.29,2.88.66,3s.31.37.19,1.12-.06,1,.56,1.13.69.44.57.56c-.38.38-.25.57.37.57.25.37.31.62.19.75s.06.56.57,1.32a4.26,4.26,0,0,0,1.22.94,4.2,4.2,0,0,0,1.78,0,28.29,28.29,0,0,0,3.48-.94c1.06-.38,1.53-.69,1.41-.94s-.13-.38.37-.38a3.36,3.36,0,0,0,1.41-.75c.69-.5,1.47-1.07,2.35-1.69s1.75-1.32,2.63-2.07,1.56-1.38,2.07-1.88,1-1.19,1.41-1.69.72-.81.84-.94q2.63-2.62,5.07-4.88t3.39-3l4.32-3.76c.75-.75,1.44-1.41,2.06-2s.94-.78.94-.66-.09.32-.65.94-1.23,1.32-2,2.07-1.56,1.53-2.44,2.35-1.57,1.41-2.07,1.78l-2.25,2.07a6.34,6.34,0,0,0-.75,1c0,.07.25.1.75.1s.87-.19.75-.57-.19-.37.19-.37.72-.1,1.41-.66,1.91-1.6,3.66-3.1c.63-.38.94-.69.94-.94s1.5-1.81,4.51-4.7c.5-.5.75-.87.75-1.12s.19-.38.57-.38.37.38-.38,1.13-.75.94-.38.94c.63,0,.57.12-.18.37-.13,0-.44.35-.94,1s-1.07,1.47-1.69,2.34l-2.45,3.39c-.25,0-.37.18-.37.56a2.69,2.69,0,0,1-.57.94c-.37.5-.81,1.06-1.31,1.69q-2.82,3.38-1.13,2.63c.5-.12.06.5-1.31,1.88a27.49,27.49,0,0,0-1.88,2.07,17.36,17.36,0,0,0-1.51,2.06c-1,1.38-1.63,2.07-1.87,2.07s-.82.44-1.32,1.31a11.12,11.12,0,0,1-2.07,2.64c-.62,1-.81,1.37-.56,1.12.63-.25.78-.22.47.1A23.64,23.64,0,0,1,277,128a14.6,14.6,0,0,1-5.92,3.1,16.5,16.5,0,0,1-6.86-.66,18.35,18.35,0,0,1-4.5-1.88,24.83,24.83,0,0,1-4.51-3.75,20.38,20.38,0,0,1-3.86-6,41.43,41.43,0,0,1-2.72-8.26,26.78,26.78,0,0,1,.38-8.74,39.87,39.87,0,0,1,3-10q.75-1.87,1.88-4.13t2.26-4.42q1.13-2.16,2.25-3.94a27.09,27.09,0,0,1,2.07-2.92c1.37-1.62,2.06-2.63,2.06-3,0-.13.29-.5.85-1.13s1.25-1.35,2.07-2.16,1.65-1.63,2.53-2.44a14.42,14.42,0,0,1,2.26-1.79,7.71,7.71,0,0,1,2.53-1.5A16.41,16.41,0,0,1,275.9,64.07ZM252.61,95.45c0-1-.13-1.51-.38-1.51s-.25.26-.38.76a3.17,3.17,0,0,0,0,1.5c0,.13-.12.31-.37.56a3.2,3.2,0,0,0-.94,1.88l-.38,1.5,1.13-1.5A4.78,4.78,0,0,0,252.61,95.45Z"/><path d="M476.19,34.38c.75,2.63-.07,3.39-2.44,2.26a21.07,21.07,0,0,0-5.26-1.13l-3-.37a5.6,5.6,0,0,0-1.41-.19h-1a24,24,0,0,0-3.76-.28c-2-.07-4.2-.16-6.58-.29s-4.26-.21-6-.28a9.55,9.55,0,0,1-2.82-.28c-.37-.12-.56-.06-.56.19s-.66.22-2,.28-3,.09-5,.09H423c-2,0-3.73,0-5.17-.09A6.92,6.92,0,0,1,415.5,34a.89.89,0,0,0-1.31,0c-.51.37-1.88.44-4.14.19a35.29,35.29,0,0,0-6.38-.19c-2.39.13-4.64.31-6.77.56a30.94,30.94,0,0,0-5.35,1c-1.45.44-2.16.84-2.16,1.22a5.2,5.2,0,0,1-.57,1.59c-.37.82-.75,1.73-1.13,2.73s-.94,1.91-1.31,2.72a6.88,6.88,0,0,0-.56,1.41c0,.5-.57,1.32-1.7,2.44s-1.69,2-1.69,2.45.19.44.57-.19.56-.56.56-.19a6.25,6.25,0,0,1-.37,1.69c-.26.63-.51.69-.76.19-.5-.38-.62-.31-.37.19a3.74,3.74,0,0,1-.19,1.88,14.68,14.68,0,0,1-1.13,3c-.37,1.13-.72,2.1-1,2.92s-.41,1.28-.28,1.4.19.38-.19.38-.82.38-.94,1.13-.5,1-.75.75-.79.22-1.22,1.41a3.91,3.91,0,0,0-.28,2.72c.12.63.06.75-.19.38s-.75-.19-1.13.94c-.63,1.12-.69,1.69-.19,1.69s0,1.82-1.5,5.45c-.5,1.63-1,2.44-1.5,2.44-.26,0-.38.25-.38.75a3,3,0,0,1,0,1.5,15.22,15.22,0,0,1-.56,2.26q-.39,1.13-.75,2.07c-.26.62-.44.93-.57.93l-.19.19c.13.13.07.5-.18,1.13a4.47,4.47,0,0,0-.57,1.31L368,90.37c-.13.63-.22,1.23-.29,1.79a2,2,0,0,1-.47,1.22,4.8,4.8,0,0,0-.56.94,12.17,12.17,0,0,0-.66,1.6c-.18.56-.37,1.12-.56,1.69a4.34,4.34,0,0,0-.28,1.22c0-.12-.13.19-.38.94-.25.25-.37,1.38-.37,3.38q-.19,4.69-1.32,5.45c-.25.13-.41.5-.47,1.13s-.16,1.31-.28,2.06a16.28,16.28,0,0,1-.09,1.88c-.07.5-.16.63-.29.38-.25-.5-.5-.13-.75,1.12a7.73,7.73,0,0,0,0,3.39c.25,1,.19,1.69-.19,2.06a1.84,1.84,0,0,0-.37,1.32,1.56,1.56,0,0,1-.38,1.5,4.48,4.48,0,0,0-.75,1.79c-.25.94-.5,2.06-.75,3.38s-.47,2.66-.66,4a27.68,27.68,0,0,0-.28,3.76,18.81,18.81,0,0,1-.09,2c-.07.56-.22.84-.47.84s-.32.44-.19,1.32.12,1.56-.38,1.69c-.12.12-.06.19.19.19.38.25.56.5.56.75s-.18.44-.56.19-.5.34-.75,1.78a8.05,8.05,0,0,0,0,3.48c.12.87,0,1.19-.38.94s-.62.37-.37,1.88a12.53,12.53,0,0,1,0,4.32,3.86,3.86,0,0,1-.47,1.78,2.66,2.66,0,0,1-1.6.29,6.68,6.68,0,0,1-3-.57,2.8,2.8,0,0,1-1.7-1.31c-.25-.63-.62-.94-1.12-.94s-.75-.51-.75-1.51a4.65,4.65,0,0,0-1.13-2.63,3.41,3.41,0,0,1-1.13-2.44c0-.88-.19-1.31-.56-1.31-.13,0-.19-.32-.19-.94s0-1.35.09-2.16.16-1.63.28-2.45a4.62,4.62,0,0,1,.57-1.78,18.24,18.24,0,0,0,.94-3.38q.56-2.64,1.13-5.83.38-3.2.84-5.63a20.36,20.36,0,0,1,.66-2.82l.56-3.2q.19-2.62.85-6.39T352,101.46c.5-1.75,1-3.76,1.5-6s.87-4.07,1.13-5.45.78-2.79,1.22-4.23.78-2.47,1-3.1a19.93,19.93,0,0,0,1.32-2.91,42.32,42.32,0,0,0,1.31-4c.38-1.25.72-2.44,1-3.57a9.33,9.33,0,0,1,.85-2.26c.38-1,.72-2.06,1-3.19a5.39,5.39,0,0,0,.29-2.44.5.5,0,0,1,.56-.57c.5,0,.62-.12.38-.37s-.19-.69.18-1.32a2.06,2.06,0,0,0,.75-1.31l1.32-3.38c1-1.76,1.38-2.82,1.13-3.2-.13-.62.31-1.62,1.31-3A3.8,3.8,0,0,0,369.47,49l.38-1.13.75-1.5c.25-.63.5-1.22.75-1.79a3.43,3.43,0,0,0,.37-1.22,2.63,2.63,0,0,1,.94-1.69,3,3,0,0,0,.57-2.06,1.3,1.3,0,0,1,.56-1.7c1.38-1,.94-1.43-1.31-1.31a33.07,33.07,0,0,1-3.67.37c-1.82.13-3.66.32-5.54.57-6.27.5-12.27,1.06-18,1.69s-11,1.29-15.69,2-8.76,1.35-12.21,2a59.38,59.38,0,0,0-7.42,1.69,13.11,13.11,0,0,1-3.29.47q-2.16.09-4.41,0a30.3,30.3,0,0,1-3.85-.38c-1.07-.19-1.6-.41-1.6-.66s-.38-.56-1.13-.56-1.69-.69-2.82-2.07a13,13,0,0,1-1.31-2.16,5.83,5.83,0,0,1-.19-2.72c.13-1.88.56-3.07,1.31-3.57a18,18,0,0,1,4.61-1.69,22.76,22.76,0,0,1,5.73-.94,24.25,24.25,0,0,0,2.63-.19,23.24,23.24,0,0,0,3.19-.56q8.28-1.69,10.15-.94a7,7,0,0,0,1.31.28,1.9,1.9,0,0,0,1.32-.28c.5-.13,1.6-.32,3.29-.57s3.6-.47,5.73-.66,4.29-.34,6.48-.47,4-.18,5.54-.18h3c.75,0,1.13-.13,1.13-.38s.69-.44,2.06-.19c1.26,0,1.76-.12,1.51-.37s-.13-.57.37-.57a.5.5,0,0,1,.56.57c0,.12.38.22,1.13.28s1.69.16,2.82.28,2,0,3.1.1,1.79.09,2.16.09c1.13.25,1.69.13,1.69-.38,0-.25.19-.18.57.19.5.63,1,.69,1.5.19a1.69,1.69,0,0,1,1.88,0,3.38,3.38,0,0,0,2.25,0l3-.56c1-.25,1.5-.5,1.5-.76s.38-.31,1.13.19c1.75,1.26,1.38,1.69-1.13,1.32-1.5-.13-2.25,0-2.25.37,0,.63,1.06.94,3.19.94a9.19,9.19,0,0,0,3.66-.19c.57-.25.35-.62-.65-1.12a4.13,4.13,0,0,1-1-.75c-.06-.13.22-.32.85-.57a6.93,6.93,0,0,0,2-1.31c.69-.63,1-1.13,1-1.51a7.85,7.85,0,0,1,.75-2.06l1.88-4.7a20.91,20.91,0,0,0,1.4-4.89,34.46,34.46,0,0,0,.29-4.69c0-3.26.18-5,.56-5.26a6.39,6.39,0,0,1,1.22.37,17.22,17.22,0,0,1,2.07.94c.69.38,1.31.75,1.88,1.13s.84.69.84.94.38.37,1.13.37q1.5,0,3.57,2.45a10.26,10.26,0,0,1,2.44,4.32,13,13,0,0,1-.28,3.94,23.4,23.4,0,0,1-1.41,4.7c-.25.63,0,1.19.75,1.69a1.61,1.61,0,0,0,2.07,0c.5-.5.75-.56.75-.19-.25,1.63-.06,2.45.56,2.45s.63-.13.38-.38q-.2-.75,1.32-.75c.37,0,.49.19.37.56s.5.38,2.26.38a5,5,0,0,0,2.44-.38c.38-.25.12-.5-.75-.75-.26,0-.19,0,.19-.09a9.62,9.62,0,0,1,1.5-.1c1.62-.12,2.06,0,1.31.38q-.93.94-.75,1.5c.25.38.1.6-.47.66s-1.85.09-3.85.09a24.48,24.48,0,0,0-4.41,0c-.57.13-.22.44,1,.94,1,.26,1.19.57.56.94s-.63.63,0,1.13c.25.25.31.25.19,0-.13-.5,0-.63.38-.38s.31.44.18.94c-.25.26-.12.38.38.38a5.93,5.93,0,0,0,1.88-.38c.5-.25.66-.59.47-1a2.07,2.07,0,0,0-1.22-1c-.13-.13.12-.25.75-.38,1.25,0,1.81.63,1.69,1.88-.25.25.06.38.94.38.62,0,1-.19,1-.57s-.16-.75-.65-1.13-.26-.56.37-.56a1.65,1.65,0,0,1,1.13.56v1.32c.12.38.78.63,2,.75s3.6.19,7.23.19a27.73,27.73,0,0,1,5.55.38c1.06.25,1.59.62,1.59,1.12s-.18.82-.56.57-.44.06-.19.94c.25.5.41.75.47.75s.22-.25.47-.75c.75-.5.94-1.07.56-1.7-.12-.24,0-.43.48-.56a12.48,12.48,0,0,1,2.72-.19,27.11,27.11,0,0,0,5.07-.37c.75-.13,1.07.06.94.56-.12.25,0,.25.38,0,.5-.5,1.81-.62,3.94-.37a33.84,33.84,0,0,0,3.57.18,31.32,31.32,0,0,0,3.48-.18,16.81,16.81,0,0,0,2.53-.47c.63-.19.94-.41.94-.66-.25-.63,0-.94.76-.94s1.19.31.94.94c-.63,1.13,1.69,1.5,6.95,1.13,2.25-.25,3.85-.47,4.79-.66s.72-.28-.66-.28c-.88,0-1.19-.19-.94-.57s1.44-.31,3.57-.19a8.89,8.89,0,0,0,2.72,0c.44-.12.6-.31.48-.56a1.35,1.35,0,0,0-1.32-.94,3.2,3.2,0,0,1-.75-.09,3.22,3.22,0,0,0-.75-.1,3,3,0,0,0-1.22-.18,12.85,12.85,0,0,1-2-.19,8.16,8.16,0,0,1-1.78-.1c-.19-.06,0-.15.65-.28q3.39-1.12-4.5-1.13c-3.26-.24-5-.56-5.26-.93s-.07-.69.56-.94a1.11,1.11,0,0,1,1.5.56c.25,1,.38,1.07.38.19q0-.75,1.41-.75c.94,0,1.41.18,1.41.56s.43.5,1.31.38a6.42,6.42,0,0,1,1.88-.19,19.66,19.66,0,0,1,2.72.19c.94.12,1.79.25,2.54.37s1.13.25,1.13.38-.44.31-1.32.18a9.6,9.6,0,0,1-2.25-.56c-.25-.25-.25-.12,0,.38a6.1,6.1,0,0,0,2.35,1.12c1.19.38,1.9.44,2.16.19a2.56,2.56,0,0,0,.37-1.69c0-1.88.88-1.56,2.63.94a6.18,6.18,0,0,0,1.13,1.79,14.13,14.13,0,0,1,1.13,1.4A12.6,12.6,0,0,1,476.19,34.38Zm-136-1.31c.5-.25.72-.41.66-.47a3.75,3.75,0,0,0-1.22-.09c-1.38,0-2.13.18-2.26.56s0,.38.66.38A6.83,6.83,0,0,0,340.16,33.07Zm22-1.5c1.38-.13,2.66-.25,3.85-.38a4.27,4.27,0,0,0,2.16-.56c.38-.25.35-.38-.09-.38s-1.41.07-2.91.19l-9.21.56-4.6.38a15.61,15.61,0,0,0-3.48.56c-1.25.25-.94.35.94.28S355.13,31.94,362.14,31.57Zm-8.45,94.5c.5-.37.43-.56-.19-.56s-.88.37-1.13,1.13a28.33,28.33,0,0,0-.75,4.88l-1.13,6.39c-.25,1.5-.47,2.91-.65,4.23s-.35,2.37-.47,3.19a13.76,13.76,0,0,0-.19,1.5c0,.19.12,0,.37-.65s.29-1.2.47-2.07a23.18,23.18,0,0,1,.66-2.44l.94-5.26c.12-1.63.38-2.32.75-2.07.13,0,.22-.38.28-1.13s.1-1.69.1-2.82C353,127.76,353.31,126.32,353.69,126.07Zm-.75-2.06c-.38-.38-.57-.26-.57.37a.5.5,0,0,0,.57.57h.37l.19-.19C353.5,124.5,353.31,124.25,352.94,124Zm1.5-3.39a25.28,25.28,0,0,1,.94-4.13c.37-1.13.69-1.69.94-1.69s.44-.5.19-1.5-.38-1.19-.76-.57a5.28,5.28,0,0,0-.84,1.79c-.32.94-.63,1.94-.94,3s-.56,2.07-.75,3a12.29,12.29,0,0,0-.28,1.78c0,1,.18,1.29.56.85A5.91,5.91,0,0,0,354.44,120.62Zm2.63-12.21a8.26,8.26,0,0,0,.66-2.35c.06-.68,0-1-.29-1s-.62.44-.75,1.31a5.75,5.75,0,0,1-.18,1.32c-.13.5-.26.94-.38,1.31-.38.76-.31,1.13.19,1.13s.56-.12.56-.37A3.15,3.15,0,0,1,357.07,108.41Zm-.38,17.47c.13-.12.13-.5,0-1.12-.12-.13-.18,0-.18.37a.76.76,0,0,0-.19.57Zm1.13-22.17c.25-.25.25-.56,0-.94s-.19-.18-.19.19C357.51,103.71,357.57,104,357.82,103.71Zm.56-77.59c-.25,0-.44-.19-.56-.57-.38-.37-.19-.56.56-.56s.94.19.57.56S358.51,26.12,358.38,26.12ZM359,99a1.91,1.91,0,0,0,.09-.94c-.06-.13-.16-.06-.28.19a3.47,3.47,0,0,0-.66,1.87c-.06.76,0,1,.28.76C358.63,100.9,358.82,100.27,359,99Zm1.13-65.57c.24-.25.12-.38-.38-.38a1.84,1.84,0,0,0-1.32.38c-.25.25-.09.37.47.37A1.71,1.71,0,0,0,360.08,33.45Zm0,62.56c.12-.38.06-.56-.19-.56-.5,0-.75.18-.75.56s.12.56.37.56Zm2.44-8.83q0-.75-.57-.75c-.37,0-.5.06-.37.19s.09.5-.1,1.12-.4,1.32-.65,2.07a19.34,19.34,0,0,0-1,3.19c-.06.51.1.76.47.76s.63-.32.38-.94-.07-.76.19-.76.68-.68.94-2.06c.12-.63.25-1.19.37-1.69A5.83,5.83,0,0,1,362.52,87.18Zm.19-1.88c.37-.37.5-.69.37-.94s-.5,0-.75.75S362.2,85.8,362.71,85.3Zm2.44-4.88c.37.12.5-.44.37-1.69a3.78,3.78,0,0,0-.28-1.32c-.06,0-.22.31-.47.94q-2.07,4.89-.94,4.51.75-.18.75-1.32C364.58,80.79,364.77,80.42,365.15,80.42Zm.75-47.16a13.26,13.26,0,0,0,2.91-.19.76.76,0,0,0,.66-.75c0-.75-.19-1.13-.56-1.13-.63,0-.76.19-.38.56.12.38-.31.51-1.32.38s-1.69.13-1.69.38-.56.56-1.69.56c-.37.13-.37.22,0,.28A8.37,8.37,0,0,0,365.9,33.26Zm1.5,38.89c.5-1.25.44-1.57-.19-.94l-.56.94-.37,1.13c-.26,1-.19,1.31.18.94A4.54,4.54,0,0,0,367.4,72.15Zm2.07-4.32a.77.77,0,0,0-.19-.57v-.18l-.94,1.31c-.5.5-.72.79-.66.85s.35,0,.85-.28S369.47,68.33,369.47,67.83ZM368.15,28c-.75.25-.5.37.76.37s1.5-.12.75-.37ZM370,65.57a1.77,1.77,0,0,0,.57-1.31q0-1.13-.57,0C369.16,65.76,369.16,66.2,370,65.57Zm4.14-32.5q1.5,0,1.5-.75c0-.38-.69-.44-2.07-.19s-1.75.25-1.12,0c1-.25,1.34-.66,1-1.22s-1-.78-2.16-.66a6.64,6.64,0,0,0-1.69.1c-.13.06.06.28.56.65.75.63.88,1,.38,1.13-.63.38-.82.72-.57,1s.69.35,1.32.1c.12-.13.5-.19,1.13-.19Zm-3.39,30.06c.63,0,.94-.19.94-.56s-.31-.44-.94-.19l-.56.19-.19.19C370,63,370.28,63.13,370.78,63.13Zm5.45-32.69c0-.38-.44-.5-1.31-.38s-.88.38,0,.75l1.13.38Q376.23,31.19,376.23,30.44Zm3-4.7c.38-.37.5-.69.38-.94s-.51-.06-.76.57C378.49,26.24,378.61,26.37,379.24,25.74Zm14.66,7.33c.37,0,.56-.31.56-.94a.8.8,0,0,0-.1-.38.84.84,0,0,1-.09-.37v-.19c-.13,0-.31.31-.56.94S393.39,33.07,393.9,33.07Zm3.75-4.32q-.94.55-.84.66a3.75,3.75,0,0,0,1.22.09c1,0,1.5-.12,1.5-.38,0-.62-.19-.94-.56-.94A2.3,2.3,0,0,0,397.65,28.75Zm4.14,1.88c.75-.25.68-.5-.19-.75a1.7,1.7,0,0,0-1.69.18,1.59,1.59,0,0,0-.94,1.32c0,.37.44.56,1.31.56a1.46,1.46,0,0,0,.94.19.55.55,0,0,1,.38.19l-.19-.57A1,1,0,0,1,401.79,30.63Zm5.45,1.31c0-.75-.63-1.31-1.88-1.69a3.71,3.71,0,0,0-1.6-.28,1.35,1.35,0,0,0-.85.66c-.37.75-.31,1.12.19,1.12a4.38,4.38,0,0,1,3,.76C406.86,33.26,407.24,33.07,407.24,31.94Zm1.31.38c.37,0,.56-.06.56-.19s-.19-.31-.56-.56-.56-.32-.56.18A.5.5,0,0,0,408.55,32.32Zm1.5-1.69c.63,0,.88-.06.75-.19a.81.81,0,0,0-1.12-.19C408.67,30.5,408.8,30.63,410.05,30.63Zm2.26-5.08c-1.38-.12-1.95-.31-1.69-.56s.75-.31,1.88-.19,1.69.32,1.69.57S413.56,25.55,412.31,25.55Zm-.94,2.26c0-.12.28-.22.84-.28a18.77,18.77,0,0,1,2-.1c2,0,3,.13,3,.38s-1,.37-3,.37a16.6,16.6,0,0,1-2-.09C411.65,28,411.37,27.93,411.37,27.81Zm11.46,3.38c.87,0,.81-.12-.19-.38a6.93,6.93,0,0,0-1.88-.28,20.85,20.85,0,0,0-3.38.1A26,26,0,0,0,414,31c-.5.13-.63.38-.38.75.13.63,0,.76-.37.38q-.94-.18-.57,0c.25.38.82.53,1.69.47a7.89,7.89,0,0,0,2.63-.66,5.22,5.22,0,0,1,2.26-.66c.87-.06,1.25.1,1.13.47a3.15,3.15,0,0,0,.19,1.32c0,1,.12,1,.37,0,.12-.5.5-.75,1.13-.75.37,0,.5-.19.37-.57C422.08,31.38,422.2,31.19,422.83,31.19Zm-3.76-5.64c-1.38-.12-2.25-.21-2.63-.28s-.19-.09.56-.09a51.73,51.73,0,0,1,6.67-.28c1.82.06,2.79.22,2.92.47s-.32.4-1.32.47A54.47,54.47,0,0,1,419.07,25.55Zm-.19-1.69c-1.25,0-1.5-.12-.75-.37a2.27,2.27,0,0,1,1.32,0l.19.37Zm.94,3.57c.63-.25,1-.19,1.13.19.12.13-.13.19-.75.19C419.19,27.81,419.07,27.69,419.82,27.43Zm1.51-3.57c-.51.88-.75.75-.75-.37,0-.38.18-.5.56-.38C421.39,23.49,421.45,23.74,421.33,23.86Zm3,4.14a.83.83,0,0,1,1.13.18c.12.13-.13.19-.75.19C423.7,28.37,423.58,28.25,424.33,28Zm4.14.37c-.88,0-1.2-.19-.94-.56a1.43,1.43,0,0,1,1.31-.19C429.72,28.12,429.59,28.37,428.47,28.37Zm7.89-4.69A3.23,3.23,0,0,1,435,24c-.82.06-1.66.09-2.54.09H430c-.63,0-.94-.06-.94-.19,0-.37.38-.56,1.13-.56s1.12-.25,1.12-.75.63-.94,1.88-.94a3.18,3.18,0,0,1,2.63.94C436.29,23.18,436.48,23.55,436.36,23.68Zm-3.57,1.87c.37.76-.19.76-1.69,0l-.94-.37.94-.19A2.33,2.33,0,0,1,432.79,25.55Zm-1.51,2.26c0-.5.19-.57.57-.19s.56.44.56.56-.19.19-.56.19A.5.5,0,0,1,431.28,27.81Zm5.45,3.57H435.6a10.18,10.18,0,0,0-2.25.37l-1.13.57h1.13a4.94,4.94,0,0,0,2.25-.57Zm-.94-5.83c-.62-.25-.87-.37-.75-.37s.69-.06,1.69-.19h6a12.2,12.2,0,0,0,3.19,0c.5-.12.75-.38.75-.75,0-.75-.5-.94-1.5-.56-.88.12-1.32,0-1.32-.38a.5.5,0,0,1,.57-.56c.37-.13-.13-.32-1.51-.57l-2.25-.37h2.63c1.75,0,2.56.18,2.44.56s0,.38.38,0c1-1,1.5-.81,1.5.56-.25.88.06,1.38.94,1.51s.87-.13.37-.38-.46-.72-.28-1.41.53-1,1-1a.6.6,0,0,1,.65.56,10.06,10.06,0,0,1-.28,2.63q0,.38-6,.75c-.88,0-1.69,0-2.44.1s-1.44.09-2.07.09h-1.88c-.12.13-.37.16-.75.1A7.82,7.82,0,0,1,435.79,25.55Zm2.07-1.69c-.63,0-.94-.06-.94-.18s.31-.32.94-.57.75-.06.75.19S438.36,23.86,437.86,23.86Zm.75,3.38c0,.38.44.63,1.32.76.62.12.9.22.84.28a3.75,3.75,0,0,1-1.22.09c-1.25,0-1.88-.25-1.88-.75s.19-.94.57-.94S438.61,26.87,438.61,27.24Zm2.26-3.38c-1.26,0-1.76-.12-1.51-.37a5,5,0,0,1,2.26-.47c1.13-.06,1.56,0,1.31.28S442,23.86,440.87,23.86ZM444.44,28a6.87,6.87,0,0,1,3.19,0q.56.18-1.5.18C444.62,28.18,444.06,28.12,444.44,28Zm12.4-2.45c.49.38.62.57.37.57-.5-.13-1.75-.31-3.76-.57l-3.19-.37h2.82a7.11,7.11,0,0,1,2.35,0A6.38,6.38,0,0,1,456.84,25.55Zm-3.2,5.83c.38-.38.19-.57-.56-.57q-.75,0-.75.57c0,.25.18.37.56.37A1.07,1.07,0,0,0,453.64,31.38Zm1.51-3.57c0-.25.37-.38,1.12-.38s1.13.19,1.13.57-.38.37-1.13.37S455.15,28.18,455.15,27.81Zm3.75,1.13c-.25,0-.44-.25-.56-.76s-.19-.94.19-.94.56.32.56.94S459,28.94,458.9,28.94Zm1.88-.57a.5.5,0,0,1-.56.57c-.38,0-.44-.19-.19-.57l.56-.56C460.72,27.81,460.78,28,460.78,28.37Z"/><path d="M508.69,92.25a3.17,3.17,0,0,0-.56,1.51,4.92,4.92,0,0,1-.57,1.78c-.37.82-.81,1.66-1.31,2.54a17.54,17.54,0,0,1-1.51,2.25c-.5.63-.81.94-.94.94-.62,0-.81.19-.56.56.12.13-.16.7-.84,1.7s-1.57,2.19-2.64,3.57-2.25,2.85-3.56,4.41-2.54,2.91-3.67,4a53.9,53.9,0,0,1-6.76,6,40.32,40.32,0,0,1-7.14,4.51,13,13,0,0,1-7.61,1.22,12.61,12.61,0,0,1-7-2.72l-3.76-2.63a7.43,7.43,0,0,1-2.44-3.38,15.77,15.77,0,0,0-1.88-3c-.37-.5-.75-.62-1.12-.38a2,2,0,0,0-.76,1.32,6.09,6.09,0,0,1-.93,2.63,22.22,22.22,0,0,1-2.35,3.38c-.94,1.13-1.88,2.16-2.82,3.1a10.56,10.56,0,0,1-2.54,2,14.6,14.6,0,0,1-3.76,1.22,1.67,1.67,0,0,1-1.69-.85c-.63-.75-1-.94-1.12-.56-.38.75-.57.81-.57.19s-.31-.88-.94-1.13a7.65,7.65,0,0,1-1.31-1c-.63-.56-1.26-1.16-1.88-1.78a18.86,18.86,0,0,1-1.6-1.79c-.44-.56-.59-.84-.47-.84a1.65,1.65,0,0,0-.56-1.13c-.38-.62-.5-.94-.38-.94.38,0,.31-.25-.18-.75s-.5-1.78-.38-4.23.34-5.22.66-8.36.68-6.1,1.12-8.92a26.42,26.42,0,0,1,1.41-5.92l1.69-6q.57-2.07,1.32-4.89c.5-1.88,1-3.5,1.5-4.88s.91-2.66,1.22-3.85a11.88,11.88,0,0,0,.47-2.54q0-1.32.66-1.32a11.57,11.57,0,0,1,3.29,1.32,10,10,0,0,1,2.16,1.5,13.05,13.05,0,0,1,1.78,2,8.25,8.25,0,0,1,1.13,2.06,2.61,2.61,0,0,1,.19,1.6c-.25.63-.13,1,.38,1.13a1.71,1.71,0,0,1,.37,1.22,12.2,12.2,0,0,1-.75,3.1q-3,10.14-4.7,16.06a49,49,0,0,0-1.69,6.86c0,.5.22.56.66.19a9.71,9.71,0,0,0,1.6-2.07c.87-1.5,1.19-1.63.94-.38,0,.76-.13,1.13-.38,1.13a.5.5,0,0,0-.56.57c0,1.63,1,.37,3-3.76.63-1.13,1.32-2.26,2.07-3.38s1.31-1.94,1.69-2.45A8.05,8.05,0,0,0,453,92.16a3.28,3.28,0,0,0,.1-1.79c-.26-1.12-.57-1.69-.94-1.69s-1,.63-1.88,1.88c-.75,1-1.16,1.44-1.22,1.32a6,6,0,0,1,.84-2.07,20.17,20.17,0,0,0,.94-2.44c-.25-.13.12-.13,1.13,0,4.51,1.38,7.33,2.06,8.45,2.06A4.92,4.92,0,0,1,463.6,91c1.12,1.06,1.56,2,1.31,2.71a30.27,30.27,0,0,0-.84,4.48,50.15,50.15,0,0,0-.47,7.09c-.13,1.25-.22,2.31-.28,3.18A3.4,3.4,0,0,1,463,110c-.12.12-.06.81.19,2l.75,4.48a13.62,13.62,0,0,0,.47,2c.19.56.35.84.47.84a.5.5,0,0,0,.57-.57c0-.37.25-.56.75-.56a4.12,4.12,0,0,0,1.5-.64c.75-.43,1.63-1,2.63-1.56q3-2.2,4.13-2.21c.25,0,.94-.67,2.07-2s1.75-2,2.26-2c.25,0,.65-.25,1.22-.76s1.15-1.06,1.78-1.69q5.44-6.77,4.51-4.69c-.25.87-.16,1.19.28.94a5.76,5.76,0,0,0,1.6-1.88c.75-1.25,1.13-1.44,1.13-.57q0,2.27,1.5.75c.5-.49.75-.43.75.19a1.7,1.7,0,0,1-.94,1.51c-.63.62-.88,1.06-.75,1.31s.5.19,1.13-.19.94-.75.94-1.12c-.13-.13,0-.47.28-1a20.48,20.48,0,0,1,1.13-1.78,17.82,17.82,0,0,1,1.22-1.6c.37-.44.62-.59.75-.47s.06.69-.56,1.32a2.44,2.44,0,0,0-1,1.41c-.06.44.22.53.85.28.5,0,1.06-.75,1.69-2.26s1.25-1.88,1.5-1.5.63.31.75-.19.57-.94.94-.94.5.19.38.57c-.38.5-.19.56.56.18a10.35,10.35,0,0,0,2.07-3.57c.75-2,1.31-2.75,1.69-2.25s.38.44.38-.19c0-.87.18-1.13.56-.75.63.25,1.31-.75,2.07-3l2.06-3.38a.87.87,0,0,0,.57-.94,2.85,2.85,0,0,1,.75-1.69c.5-.62.78-.81.84-.56a12.71,12.71,0,0,1-.28,2.82,25.16,25.16,0,0,1-.84,5A7.65,7.65,0,0,1,508.69,92.25Zm-26.87,25.93c.5,0,.75-.19.75-.56s-.12-.57-.37-.57l-.57.57C481.26,118,481.32,118.18,481.82,118.18Zm5.45-9c.38-.37.31-.56-.19-.56a.5.5,0,0,0-.56.56c0,.38.06.57.19.57S487,109.54,487.27,109.16Zm25.55-50.54c-.5,0-.63.57-.37,1.69a3,3,0,0,1,0,3.2c-.5,1.75-.82,3-.94,3.66s-.26,1.85-.38,3.48c-.12.87-.22,1.63-.28,2.25s-.16.94-.28.94c-.25.25-.07.82.56,1.69s.63,1.32,0,.94c-.63-.12-.81.44-.56,1.69,0,1.25-.19,1.88-.57,1.88a7.65,7.65,0,0,0-2.44.94c-.88.5-1.25.88-1.13,1.13s-.09.59-.65,1-1.29,1-2.16,1.6c-2,1-2.89,1.38-2.63,1.12s.12-.49-.38-.37a1.26,1.26,0,0,1-1.69-.19.86.86,0,0,0-1.13.1,13.3,13.3,0,0,0-1.69,2c-1,1.75-1.38,2.5-1.13,2.25s.57-.06.57.19q0,.75-.57.75a2.75,2.75,0,0,0-1.88.94c-.75.75-1,.82-.75.19l.94-1.32,1.13-1.88c.38-.62.75-1.28,1.13-2a6.57,6.57,0,0,1,.94-1.41,5.44,5.44,0,0,0,.84-1.22c.31-.56.6-1.09.85-1.59.5-1.13.75-1.44.75-.94s.31.25.94-.76c.25-.5.72-1.4,1.41-2.72s1.44-2.79,2.25-4.42,1.63-3.28,2.44-5,1.54-3.1,2.17-4.23l1.31-2.63a13.62,13.62,0,0,1,.75-2q.75-1.78,1.88-4.23c.63-1.76,1.16-3.2,1.6-4.32s.53-1.76.28-1.88-.31-.28-.19-.85.28-1.16.47-1.78a15.76,15.76,0,0,1,.66-1.79q.38-.84.75-.84c.38,0,.44.12.19.37s-.19.82.19,1.69a1.66,1.66,0,0,1-.38,2.07c-.63.63-.75.94-.37.94s.68.31.94.94.06.69-.19.56-.51,0-.75.75-.19,1.13.18,1.13a.5.5,0,0,0,.57-.56c0-.5.12-.63.37-.38s.06.57-.18,1.32a20.42,20.42,0,0,1-1,2.44,16.79,16.79,0,0,1-1.41,2.35C513.26,58.28,513,58.62,512.82,58.62ZM497.23,90c-.75,0-1.13-.19-1.13-.57a.9.9,0,0,1,.19-.47,7.05,7.05,0,0,0,.38-.65c.49-.5.81-.57.93-.19.13.63.38.75.76.37s.81-.12.93.38.07.44-.18.19c-.5-.12-.75-.06-.75.19C498.36,89.75,498,90,497.23,90Zm9.39-16.72c.63,0,1.07-.5,1.32-1.51.12-.62.15-1,.09-1s-.22.16-.47.66a1.55,1.55,0,0,1-1.5.56c-.63-.25-1.19.44-1.69,2.07a24.62,24.62,0,0,1-1.13,2.35c-.5.94-.94,1.72-1.31,2.35a11.14,11.14,0,0,0-1.32,2.06,13.2,13.2,0,0,0-.75,1.69L499.29,84l1.13-1.51a15.3,15.3,0,0,1,1.13-1.41,7.87,7.87,0,0,0,1.13-1.59c.25-.5.59-1.13,1-1.88a15.24,15.24,0,0,0,1-2.07C505.24,74,505.87,73.28,506.62,73.28ZM502.3,83.42c0-.5-.19-.68-.56-.56a1.6,1.6,0,0,0-.57,1.13c0,.75.19.94.57.56C502.11,84.43,502.3,84.05,502.3,83.42Zm1.32-2.63c0,.5.15.44.47-.19a3.87,3.87,0,0,0,.47-1.69c0-.25-.19-.18-.57.19A15,15,0,0,0,503.62,80.79Zm2.63-5.63q.75,0,.75-.57c0-.37-.13-.56-.38-.56s-.44.19-.56.56S505.87,75.16,506.25,75.16Zm2.25-7.33a7.74,7.74,0,0,0,.75-1.32c.38-.75.75-1.53,1.13-2.35s.72-1.62,1-2.44a6,6,0,0,0,.47-1.6c-.25-.25-.69.32-1.31,1.7-.88,2.13-1.48,3.5-1.79,4.13a5.1,5.1,0,0,1-.84,1.31,5.29,5.29,0,0,0-1,1.7c-.31.75-.34,1.12-.09,1.12.5,0,.88-.31,1.13-.94A2.55,2.55,0,0,1,508.5,67.83Zm.38,8.08c.12-.88.06-1.32-.19-1.32s-.63.38-.75,1.13-.22,1,.09,1S508.62,76.53,508.88,75.91Z"/><path d="M599.44,88.12c.5-.5.75-.44.75.19s-.75,1.88-2.26,3.38l-1.69,1.69c-.5.5-.75.88-.75,1.13-.25.37-.88.56-1.88.56s-2.06.69-3.19,2.07c-1.38,1.38-2.26,2-2.63,1.88a3.63,3.63,0,0,0-2.35.56,8.71,8.71,0,0,0-2.54,2.07q-3,3.57,1.51,0a6.86,6.86,0,0,1,2.44-1.79c.62-.19.5.16-.38,1s-1,1.25-.75,1.5.56,0,1.32-.47,1.56-1,2.44-1.6,1.72-1.25,2.54-1.88a5.6,5.6,0,0,0,1.4-1.31,1,1,0,0,1,1.13-.75c.63,0,.75.37.38,1.12a6.77,6.77,0,0,1-2.07,2.26c-1.25.88-1.88,1.69-1.88,2.44s-.12,1.13-.37,1.13a1.66,1.66,0,0,0-1.41-.1c-.32.19-.35.47-.1.85.13.13-.16.69-.84,1.69L586,109.07a35.38,35.38,0,0,1-2.44,3.19c-.82.94-1.35,1.41-1.6,1.41l-.75.57-1.5,1.5a23.93,23.93,0,0,1-5.54,4,25.24,25.24,0,0,1-6.86,2.53,16.53,16.53,0,0,1-5.07.57,12,12,0,0,1-4.33-1.51,11.57,11.57,0,0,1-3-2.72c-1.26-1.44-1.88-2.41-1.88-2.91a9.07,9.07,0,0,0-.94-1.69,3.42,3.42,0,0,1-1.13-2.44,9.86,9.86,0,0,0-.94-3.2,10.09,10.09,0,0,1-.56-1.88,7.38,7.38,0,0,1-.19-1.31c0-1-.22-1.35-.66-1a5.56,5.56,0,0,0-1.4,2.35,27.85,27.85,0,0,1-2.07,3.57l-3.76,5.83c-1.38,2-2.57,3.79-3.57,5.35a11.2,11.2,0,0,0-1.5,2.73c0,.37-.47,1-1.41,1.78a31,31,0,0,1-3.1,2.35,29.63,29.63,0,0,1-3.2,1.88c-1,.5-1.56.62-1.69.37-.12-.5-.75-.62-1.88-.37a4,4,0,0,1-2.91-1,12,12,0,0,1-2.72-2.91,3.57,3.57,0,0,1-.66-.94,10.9,10.9,0,0,0-.66-1.12,14.72,14.72,0,0,1-.47-3.29c-.06-1.32-.09-2.63-.09-4s0-2.53.09-3.66a10.75,10.75,0,0,1,.28-2.26,5,5,0,0,0,.57-3.38c0-.25,0-.66.09-1.22a3.14,3.14,0,0,1,.47-1.41,16.43,16.43,0,0,0,.85-3.57c.19-1.38.15-1.94-.1-1.69-.62.63-1.31,2.44-2.06,5.45a56.62,56.62,0,0,0-1.51,9.39l-.37,4.7v-2.07a7.73,7.73,0,0,0,0,2.45,7.19,7.19,0,0,1-.38-2.26v-3.57a44.9,44.9,0,0,1,.75-8.55,61.81,61.81,0,0,1,3.39-10.42,1.84,1.84,0,0,0,.56-1.32l.19-.56h.56c.63.25.94.18.94-.19a.5.5,0,0,0-.56-.57c-.26,0-.22-.46.09-1.4a13.62,13.62,0,0,1,1.41-2.92l.94-1.12-.56,1.12a15.08,15.08,0,0,0-.38,2.63l-.56,2.82c-.38.75-.76.94-1.13.57-.13-.25-.22-.32-.28-.19s0,.31.09.56a3.8,3.8,0,0,1-.56,3c-.63,1.13-.75,1.69-.38,1.69a1.76,1.76,0,0,0,1.22-.75,2.15,2.15,0,0,0,.66-1.32,11.76,11.76,0,0,1,.75-2.35q.75-2,1.79-4.41c.68-1.63,1.41-3.23,2.16-4.79s1.37-2.79,1.88-3.67l2.25-3.94.94-1.69-1.5,1.69c-1,1.25-1.44,1.6-1.32,1a13.13,13.13,0,0,1,1.88-3.29,24.38,24.38,0,0,0,1.79-2.44c.56-.87,1-1.5,1.22-1.88a6.66,6.66,0,0,1,1.12-1.69c.13-.12.41-.44.85-.94a18,18,0,0,0,1.41-1.88l.19-.18,1.88-1.51c1.87-1.25,3.44-1.81,4.69-1.69a9,9,0,0,1,4.51,2.44c3.26,2.89,5.23,5.23,5.92,7.05s-.16,2.47-2.54,2a7.66,7.66,0,0,0-4.22.47A8,8,0,0,0,544,77.6a6.81,6.81,0,0,1-1.13,1.31l-.94.94a13.16,13.16,0,0,0-1.22,1.69c-.56.88-1.16,1.82-1.78,2.82a28.9,28.9,0,0,1-1.6,2.82c-.56.88-1,1.5-1.22,1.88a36.25,36.25,0,0,0-3.29,5.64c-1.31,2.63-2.6,5.29-3.85,8s-2.29,5.11-3.1,7.23-1.1,3.32-.85,3.57,1-.53,2.64-2.34,3.53-4.11,5.73-6.86,4.47-5.7,6.85-8.83,4.45-5.89,6.2-8.27q2.07-3.2,3.95-6c1.25-1.88,2.07-3.07,2.44-3.57a8.55,8.55,0,0,1,1.5-1.5,3.1,3.1,0,0,1,1.7-.38c.75.25,1.25.19,1.5-.19a17.75,17.75,0,0,0,1.13-3.76,13.1,13.1,0,0,1,1.59-4.13c.44-.5,1-.25,1.79.75a3.14,3.14,0,0,0,2.06,1.13,2.89,2.89,0,0,1,1.6.94,16.49,16.49,0,0,1,2,2.16A14.62,14.62,0,0,1,569.19,75c.37.75.5,1.19.37,1.31-.37.25-.78,1.16-1.22,2.73a24,24,0,0,0-.84,4.6,40.75,40.75,0,0,1-1.41,4.7q-1.23,3.57-2.73,7.32-1.5,4-2.63,7.14c-.75,2.14-1.25,3.45-1.5,4q-.37,1.13-.09,1.41c.18.19.78.16,1.78-.1a25.8,25.8,0,0,0,5.17-2.06,51.07,51.07,0,0,0,6.48-3.76,3.68,3.68,0,0,1,1.5-.84c.38-.07.44,0,.19.28l-.38.75-.18.19a8.52,8.52,0,0,0,1.5-.57c.87-.37,1.88-.84,3-1.41s2.28-1.15,3.47-1.78,2.16-1.19,2.91-1.69a18,18,0,0,1,2.63-1.41c.76-.31,1.13-.41,1.13-.28l1.5-.94a22.39,22.39,0,0,0,2.63-1.6c1-.69,2-1.34,3-2s1.85-1.19,2.54-1.69A15.47,15.47,0,0,0,599.44,88.12Zm-79.29,15.59c-.75,1.51-.75,2.07,0,1.7.38-.13.56-.63.56-1.51-.12-.62-.18-1-.18-1A3.55,3.55,0,0,0,520.15,103.71Zm.38,19.17a3.21,3.21,0,0,0,0-1.51c-.26-.75-.38-.5-.38.76S520.27,123.63,520.53,122.88Zm.18-7.52c.38,0,.57-.37.57-1.12a.9.9,0,0,0-.1-.38.85.85,0,0,1-.09-.38v-.37c-.25,0-.44.37-.56,1.13S520.34,115.36,520.71,115.36Zm.57-3.94a.5.5,0,0,0,.56-.57l-.19-.37v-.19a.74.74,0,0,0-.75.56C520.53,111.23,520.65,111.42,521.28,111.42Zm0-11.09a1.46,1.46,0,0,0-.57,1.32q0,.94.57,0a1.84,1.84,0,0,0,.56-1.32C521.84,100.21,521.65,100.21,521.28,100.33Zm.75,8.27c.12-.38.06-.57-.19-.57a.5.5,0,0,0-.56.57V109l.18.19ZM523,102a.86.86,0,0,0,.56-.94c0-.25-.19-.31-.56-.18a1.09,1.09,0,0,0-.57.93C522.4,102.21,522.59,102.28,523,102Zm.94-8.64c-.26.63-.35.94-.29.94a3.88,3.88,0,0,0,.85-.75,2.85,2.85,0,0,0,.75-1.69c0-.5-.16-.53-.47-.1A7.7,7.7,0,0,0,523.91,93.38Zm.56,2.44v-.19l1.32-1.87A24.15,24.15,0,0,0,527,91.31a5.24,5.24,0,0,0,.47-1.5q0-.75-.57,0-.37,1.13-.18,1.32c.24.25.18.37-.19.37s-.5.32-.75.94Zm1.69,2.45A19.94,19.94,0,0,0,525,102.4l4.33-11.27A6.31,6.31,0,0,0,528,93.76c-.25.62-.53,1.38-.84,2.25A13,13,0,0,1,526.16,98.27Zm1.69-10.53c-.37.13-.31.44.19.94.25.26.41.38.47.38s0-.06-.09-.19q-.2-.75.18-.75c.25,0,.76-.69,1.51-2.07s1.06-1.94,1.31-1.69a3.44,3.44,0,0,1,0,1.69c-.12.38-.25.75-.37,1.13s-.26.82-.38,1.31l4.32-9.2q-2.25,2.63-1.5.75c.12-.38.06-.44-.19-.19-.5.13-.63.57-.37,1.32a4.19,4.19,0,0,1-.38,1.88q-.37.93-1.32,0c-.5-.38-1.06-.07-1.69.94a5.2,5.2,0,0,0-.94,2.63A1,1,0,0,1,527.85,87.74Zm.38-9.95a16.14,16.14,0,0,0,1.31-2.26.81.81,0,0,1-.18.57A6.93,6.93,0,0,1,528.23,77.79ZM530.86,74v-.19a.58.58,0,0,1-.19.38Zm1.88-2.63a5,5,0,0,1-.94,1.31,7.21,7.21,0,0,0-.94,1.13,4.81,4.81,0,0,1,.94-1.31A8.39,8.39,0,0,0,532.74,71.4ZM551,88.68q3.39-4.5,2.35-3.66a56,56,0,0,0-5,5.73q-2.07,2.44-4.32,5.07c-1.5,1.76-2.76,3.13-3.76,4.14a75.69,75.69,0,0,0-5.35,5.82c-1.32,1.63-1.85,2.63-1.6,3q.38.93.75.75a10.56,10.56,0,0,0,1.69-1.51c.5-.49,1.16-1.18,2-2.06s1.66-1.82,2.53-2.82l1.88-2.25.94-.94c.25,0,.75-.57,1.5-1.69a6.63,6.63,0,0,0,1.13-2.07c-.37-.25-.06-.5.94-.75A4.75,4.75,0,0,0,548,93.57a11.56,11.56,0,0,1,1-2A34.92,34.92,0,0,1,551,88.68Z"/><path d="M718.18,34.38c.75,2.63-.07,3.39-2.45,2.26a20.86,20.86,0,0,0-5.26-1.13l-3-.37a5.6,5.6,0,0,0-1.41-.19h-1a24,24,0,0,0-3.76-.28c-2-.07-4.2-.16-6.58-.29s-4.26-.21-6-.28a9.48,9.48,0,0,1-2.82-.28c-.37-.12-.56-.06-.56.19s-.66.22-2,.28-3,.09-5,.09H665c-2,0-3.73,0-5.17-.09a6.92,6.92,0,0,1-2.35-.28.9.9,0,0,0-1.32,0c-.5.37-1.87.44-4.13.19a35.37,35.37,0,0,0-6.39-.19c-2.38.13-4.63.31-6.76.56a30.75,30.75,0,0,0-5.35,1c-1.45.44-2.17.84-2.17,1.22a5.07,5.07,0,0,1-.56,1.59c-.38.82-.75,1.73-1.13,2.73s-.94,1.91-1.31,2.72a7.29,7.29,0,0,0-.57,1.41c0,.5-.56,1.32-1.69,2.44s-1.69,2-1.69,2.45.19.44.57-.19.56-.56.56-.19a6,6,0,0,1-.38,1.69c-.25.63-.5.69-.75.19-.5-.38-.63-.31-.37.19a3.74,3.74,0,0,1-.19,1.88,14.68,14.68,0,0,1-1.13,3c-.37,1.13-.72,2.1-1,2.92s-.41,1.28-.28,1.4.18.38-.19.38-.82.38-.94,1.13-.5,1-.75.75-.79.22-1.22,1.41a4,4,0,0,0-.29,2.72c.13.63.07.75-.18.38s-.76-.19-1.13.94c-.63,1.12-.69,1.69-.19,1.69s0,1.82-1.5,5.45c-.5,1.63-1,2.44-1.5,2.44-.26,0-.38.25-.38.75a3,3,0,0,1,0,1.5,16.57,16.57,0,0,1-.56,2.26c-.26.75-.51,1.44-.76,2.07s-.44.93-.56.93l-.19.19c.13.13.06.5-.19,1.13a4.89,4.89,0,0,0-.56,1.31L610,90.37c-.13.63-.22,1.23-.29,1.79a2,2,0,0,1-.47,1.22,4.8,4.8,0,0,0-.56.94,12.17,12.17,0,0,0-.66,1.6c-.19.56-.37,1.12-.56,1.69a4.34,4.34,0,0,0-.28,1.22c0-.12-.13.19-.38.94-.25.25-.37,1.38-.37,3.38q-.2,4.69-1.32,5.45c-.25.13-.41.5-.47,1.13s-.16,1.31-.28,2.06a14.08,14.08,0,0,1-.1,1.88c-.06.5-.15.63-.28.38-.25-.5-.5-.13-.75,1.12a7.73,7.73,0,0,0,0,3.39c.25,1,.19,1.69-.19,2.06a1.84,1.84,0,0,0-.37,1.32,1.56,1.56,0,0,1-.38,1.5,4.48,4.48,0,0,0-.75,1.79c-.25.94-.5,2.06-.75,3.38s-.47,2.66-.66,4a27.68,27.68,0,0,0-.28,3.76,18.81,18.81,0,0,1-.09,2c-.07.56-.22.84-.47.84s-.32.44-.19,1.32.12,1.56-.38,1.69c-.12.12-.06.19.19.19.38.25.56.5.56.75s-.18.44-.56.19-.5.34-.75,1.78a8.05,8.05,0,0,0,0,3.48c.12.87,0,1.19-.38.94s-.63.37-.37,1.88a12.53,12.53,0,0,1,0,4.32,4,4,0,0,1-.47,1.78,2.68,2.68,0,0,1-1.6.29,6.76,6.76,0,0,1-3-.57A2.81,2.81,0,0,1,590.6,156c-.25-.63-.62-.94-1.12-.94s-.76-.51-.76-1.51a4.63,4.63,0,0,0-1.12-2.63,3.41,3.41,0,0,1-1.13-2.44c0-.88-.19-1.31-.56-1.31-.13,0-.19-.32-.19-.94s0-1.35.09-2.16.16-1.63.28-2.45a4.62,4.62,0,0,1,.57-1.78,18.24,18.24,0,0,0,.94-3.38c.37-1.76.75-3.7,1.12-5.83s.54-4,.85-5.63a17.54,17.54,0,0,1,.66-2.82l.56-3.2q.19-2.62.85-6.39T594,101.46c.49-1.75,1-3.76,1.5-6s.87-4.07,1.13-5.45.78-2.79,1.22-4.23.78-2.47,1-3.1a19.93,19.93,0,0,0,1.32-2.91c.49-1.32.93-2.66,1.31-4s.72-2.44,1-3.57a8.92,8.92,0,0,1,.85-2.26c.37-1,.72-2.06,1-3.19a5.34,5.34,0,0,0,.28-2.44.5.5,0,0,1,.57-.57c.5,0,.62-.12.37-.37s-.18-.69.19-1.32a2.06,2.06,0,0,0,.75-1.31l1.32-3.38c1-1.76,1.38-2.82,1.13-3.2-.13-.62.31-1.62,1.31-3A3.8,3.8,0,0,0,611.46,49l.37-1.13.76-1.5c.24-.63.49-1.22.75-1.79a3.43,3.43,0,0,0,.37-1.22,2.59,2.59,0,0,1,.94-1.69,3,3,0,0,0,.57-2.06,1.29,1.29,0,0,1,.56-1.7c1.38-1,.94-1.43-1.32-1.31a32.51,32.51,0,0,1-3.66.37c-1.82.13-3.66.32-5.54.57q-9.4.75-18,1.69t-15.69,2q-7,1-12.21,2a59.38,59.38,0,0,0-7.42,1.69,13.11,13.11,0,0,1-3.29.47q-2.16.09-4.41,0a30.68,30.68,0,0,1-3.86-.38q-1.59-.28-1.59-.66c0-.37-.38-.56-1.13-.56s-1.69-.69-2.82-2.07a13,13,0,0,1-1.31-2.16,5.69,5.69,0,0,1-.19-2.72c.12-1.88.56-3.07,1.31-3.57a18,18,0,0,1,4.61-1.69,22.69,22.69,0,0,1,5.73-.94,24.25,24.25,0,0,0,2.63-.19,23.24,23.24,0,0,0,3.19-.56q8.28-1.69,10.15-.94a7,7,0,0,0,1.31.28,1.91,1.91,0,0,0,1.32-.28c.5-.13,1.59-.32,3.29-.57s3.6-.47,5.73-.66,4.29-.34,6.48-.47,4-.18,5.54-.18h3c.75,0,1.12-.13,1.12-.38s.69-.44,2.07-.19c1.25,0,1.76-.12,1.5-.37s-.12-.57.38-.57a.5.5,0,0,1,.56.57c0,.12.38.22,1.13.28s1.69.16,2.82.28,2,0,3.1.1,1.78.09,2.16.09c1.13.25,1.69.13,1.69-.38,0-.25.19-.18.56.19.5.63,1,.69,1.51.19a1.69,1.69,0,0,1,1.88,0,3.38,3.38,0,0,0,2.25,0l3-.56c1-.25,1.5-.5,1.5-.76s.38-.31,1.13.19c1.75,1.26,1.37,1.69-1.13,1.32-1.5-.13-2.25,0-2.25.37,0,.63,1.06.94,3.19.94a9.19,9.19,0,0,0,3.66-.19c.57-.25.35-.62-.65-1.12a3.93,3.93,0,0,1-1-.75c-.06-.13.22-.32.85-.57a6.93,6.93,0,0,0,2-1.31c.69-.63,1-1.13,1-1.51a8.06,8.06,0,0,1,.76-2.06l1.87-4.7a20.51,20.51,0,0,0,1.41-4.89,34.46,34.46,0,0,0,.29-4.69c0-3.26.18-5,.56-5.26a6.39,6.39,0,0,1,1.22.37,17.22,17.22,0,0,1,2.07.94c.68.38,1.31.75,1.88,1.13s.84.69.84.94.38.37,1.13.37q1.5,0,3.57,2.45a10.26,10.26,0,0,1,2.44,4.32,13.38,13.38,0,0,1-.28,3.94,24.07,24.07,0,0,1-1.41,4.7c-.25.63,0,1.19.75,1.69a1.61,1.61,0,0,0,2.07,0c.5-.5.75-.56.75-.19-.25,1.63-.06,2.45.56,2.45s.63-.13.38-.38c-.13-.5.31-.75,1.31-.75.38,0,.5.19.38.56s.5.38,2.26.38a5,5,0,0,0,2.44-.38q.55-.37-.75-.75c-.26,0-.19,0,.18-.09a9.86,9.86,0,0,1,1.51-.1c1.62-.12,2.06,0,1.31.38q-.95.94-.75,1.5c.25.38.09.6-.47.66s-1.85.09-3.85.09a24.63,24.63,0,0,0-4.42,0c-.56.13-.22.44,1,.94,1,.26,1.19.57.56.94s-.63.63,0,1.13c.25.25.31.25.19,0-.13-.5,0-.63.37-.38s.32.44.19.94c-.25.26-.12.38.38.38a5.93,5.93,0,0,0,1.88-.38c.5-.25.66-.59.47-1a2.07,2.07,0,0,0-1.22-1c-.13-.13.12-.25.75-.38,1.25,0,1.81.63,1.69,1.88-.25.25.06.38.94.38.62,0,1-.19,1-.57s-.16-.75-.66-1.13-.25-.56.38-.56a1.67,1.67,0,0,1,1.13.56v1.32c.12.38.78.63,2,.75s3.6.19,7.23.19a27.8,27.8,0,0,1,5.55.38c1.06.25,1.59.62,1.59,1.12s-.19.82-.56.57-.44.06-.19.94c.25.5.41.75.47.75s.22-.25.47-.75c.75-.5.94-1.07.56-1.7-.12-.24,0-.43.47-.56a12.66,12.66,0,0,1,2.73-.19,27.11,27.11,0,0,0,5.07-.37c.75-.13,1.06.06.94.56-.13.25,0,.25.38,0,.5-.5,1.81-.62,3.94-.37a33.84,33.84,0,0,0,3.57.18,31.32,31.32,0,0,0,3.48-.18,16.81,16.81,0,0,0,2.53-.47c.63-.19.94-.41.94-.66-.25-.63,0-.94.75-.94s1.19.31.94.94c-.62,1.13,1.69,1.5,7,1.13,2.25-.25,3.85-.47,4.79-.66s.72-.28-.66-.28c-.88,0-1.19-.19-.94-.57s1.44-.31,3.57-.19a8.9,8.9,0,0,0,2.72,0c.44-.12.6-.31.47-.56a1.34,1.34,0,0,0-1.31-.94,3.2,3.2,0,0,1-.75-.09,3.29,3.29,0,0,0-.75-.1,3.08,3.08,0,0,0-1.23-.18,12.85,12.85,0,0,1-2-.19,8.1,8.1,0,0,1-1.78-.1c-.19-.06,0-.15.65-.28q3.39-1.12-4.5-1.13c-3.26-.24-5-.56-5.27-.93s-.06-.69.57-.94a1.11,1.11,0,0,1,1.5.56c.25,1,.38,1.07.38.19q0-.75,1.41-.75c.94,0,1.41.18,1.41.56s.43.5,1.31.38a6.42,6.42,0,0,1,1.88-.19,19.87,19.87,0,0,1,2.72.19c.94.12,1.79.25,2.54.37s1.13.25,1.13.38-.44.31-1.32.18a9.47,9.47,0,0,1-2.25-.56c-.26-.25-.26-.12,0,.38a6.1,6.1,0,0,0,2.35,1.12c1.19.38,1.9.44,2.16.19a2.56,2.56,0,0,0,.37-1.69c0-1.88.88-1.56,2.63.94a6.18,6.18,0,0,0,1.13,1.79,15.77,15.77,0,0,1,1.13,1.4A12.68,12.68,0,0,1,718.18,34.38Zm-136-1.31c.5-.25.72-.41.66-.47a3.83,3.83,0,0,0-1.23-.09c-1.37,0-2.12.18-2.25.56s0,.38.66.38A6.83,6.83,0,0,0,582.15,33.07Zm22-1.5c1.38-.13,2.66-.25,3.85-.38a4.27,4.27,0,0,0,2.16-.56c.38-.25.35-.38-.09-.38s-1.41.07-2.91.19l-9.21.56-4.6.38a15.61,15.61,0,0,0-3.48.56c-1.25.25-.94.35.94.28S597.11,31.94,604.13,31.57Zm-8.45,94.5c.49-.37.43-.56-.19-.56s-.88.37-1.13,1.13a28.33,28.33,0,0,0-.75,4.88l-1.13,6.39q-.37,2.25-.66,4.23c-.18,1.31-.34,2.37-.47,3.19s-.18,1.32-.18,1.5.12,0,.37-.65.28-1.2.47-2.07a23.18,23.18,0,0,1,.66-2.44l.94-5.26c.12-1.63.38-2.32.75-2.07.12,0,.22-.38.28-1.13s.1-1.69.1-2.82C595,127.76,595.3,126.32,595.68,126.07Zm-.76-2.06c-.37-.38-.56-.26-.56.37a.5.5,0,0,0,.56.57h.38l.19-.19Q595.49,124.37,594.92,124Zm1.51-3.39a25.28,25.28,0,0,1,.94-4.13c.37-1.13.68-1.69.94-1.69s.43-.5.18-1.5-.37-1.19-.75-.57a5.28,5.28,0,0,0-.84,1.79c-.32.94-.63,1.94-.94,3a30.69,30.69,0,0,0-.75,3,12.94,12.94,0,0,0-.29,1.78c0,1,.19,1.29.57.85A6.19,6.19,0,0,0,596.43,120.62Zm2.63-12.21a8.26,8.26,0,0,0,.66-2.35c.06-.68,0-1-.29-1s-.62.44-.75,1.31a5.3,5.3,0,0,1-.19,1.32c-.12.5-.25.94-.37,1.31-.38.76-.32,1.13.19,1.13s.56-.12.56-.37A3.15,3.15,0,0,1,599.06,108.41Zm-.38,17.47c.13-.12.13-.5,0-1.12-.12-.13-.19,0-.19.37a.8.8,0,0,0-.18.57Zm1.13-22.17c.25-.25.25-.56,0-.94s-.19-.18-.19.19C599.5,103.71,599.56,104,599.81,103.71Zm.56-77.59c-.25,0-.44-.19-.56-.57-.38-.37-.19-.56.56-.56s.94.19.57.56S600.5,26.12,600.37,26.12Zm.57,72.9a1.91,1.91,0,0,0,.09-.94c-.06-.13-.16-.06-.28.19a3.47,3.47,0,0,0-.66,1.87c-.06.76,0,1,.28.76C600.62,100.9,600.81,100.27,600.94,99Zm1.12-65.57c.25-.25.13-.38-.37-.38a1.84,1.84,0,0,0-1.32.38c-.25.25-.09.37.47.37A1.67,1.67,0,0,0,602.06,33.45Zm0,62.56c.13-.38.07-.56-.18-.56-.51,0-.76.18-.76.56s.13.56.38.56Zm2.45-8.83q0-.75-.57-.75c-.37,0-.5.06-.37.19s.09.5-.1,1.12-.4,1.32-.65,2.07a18.36,18.36,0,0,0-1,3.19c-.06.51.1.76.47.76s.63-.32.38-.94-.07-.76.19-.76.68-.68.93-2.06c.13-.63.25-1.19.38-1.69A5.22,5.22,0,0,1,604.51,87.18Zm.18-1.88c.38-.37.5-.69.38-.94s-.5,0-.75.75S604.19,85.8,604.69,85.3Zm2.45-4.88c.37.12.5-.44.37-1.69a3.78,3.78,0,0,0-.28-1.32c-.06,0-.22.31-.47.94q-2.07,4.89-.94,4.51.75-.18.75-1.32C606.57,80.79,606.76,80.42,607.14,80.42Zm.75-47.16a13.26,13.26,0,0,0,2.91-.19.76.76,0,0,0,.66-.75c0-.75-.19-1.13-.57-1.13-.62,0-.75.19-.37.56.12.38-.31.51-1.32.38s-1.69.13-1.69.38-.56.56-1.69.56c-.37.13-.37.22,0,.28A8.37,8.37,0,0,0,607.89,33.26Zm1.5,38.89c.5-1.25.44-1.57-.19-.94l-.56.94-.38,1.13c-.25,1-.18,1.31.19.94A4.54,4.54,0,0,0,609.39,72.15Zm2.07-4.32a.81.81,0,0,0-.19-.57v-.18l-.94,1.31c-.5.5-.72.79-.66.85s.35,0,.85-.28S611.46,68.33,611.46,67.83ZM610.14,28c-.75.25-.5.37.75.37s1.51-.12.76-.37ZM612,65.57a1.77,1.77,0,0,0,.57-1.31q0-1.13-.57,0C611.14,65.76,611.14,66.2,612,65.57Zm4.14-32.5q1.5,0,1.5-.75c0-.38-.69-.44-2.07-.19s-1.75.25-1.13,0c1-.25,1.35-.66,1-1.22s-1-.78-2.16-.66a6.64,6.64,0,0,0-1.69.1c-.13.06.06.28.56.65.75.63.87,1,.38,1.13-.63.38-.82.72-.57,1s.69.35,1.32.1c.12-.13.5-.19,1.12-.19Zm-3.39,30.06c.63,0,.94-.19.94-.56s-.31-.44-.94-.19l-.56.19-.19.19C612,63,612.27,63.13,612.77,63.13Zm5.45-32.69c0-.38-.44-.5-1.31-.38s-.88.38,0,.75l1.12.38C618.16,31.19,618.22,30.94,618.22,30.44Zm3-4.7c.37-.37.5-.69.37-.94s-.5-.06-.75.57C620.48,26.24,620.6,26.37,621.23,25.74Zm14.65,7.33c.38,0,.57-.31.57-.94a.8.8,0,0,0-.1-.38.84.84,0,0,1-.09-.37v-.19c-.13,0-.31.31-.56.94S635.38,33.07,635.88,33.07Zm3.76-4.32q-.95.55-.84.66a3.75,3.75,0,0,0,1.22.09c1,0,1.5-.12,1.5-.38,0-.62-.19-.94-.56-.94A2.3,2.3,0,0,0,639.64,28.75Zm4.13,1.88c.76-.25.69-.5-.18-.75a1.7,1.7,0,0,0-1.69.18,1.59,1.59,0,0,0-.94,1.32c0,.37.43.56,1.31.56.12.13.44.19.94.19a.55.55,0,0,1,.38.19l-.19-.57A1.06,1.06,0,0,1,643.77,30.63Zm5.45,1.31c0-.75-.63-1.31-1.88-1.69a3.65,3.65,0,0,0-1.59-.28,1.35,1.35,0,0,0-.85.66c-.37.75-.31,1.12.19,1.12a4.38,4.38,0,0,1,3,.76C648.85,33.26,649.22,33.07,649.22,31.94Zm1.32.38c.37,0,.56-.06.56-.19s-.19-.31-.56-.56-.57-.32-.57.18A.5.5,0,0,0,650.54,32.32Zm1.5-1.69c.63,0,.88-.06.75-.19a.81.81,0,0,0-1.12-.19C650.66,30.5,650.79,30.63,652,30.63Zm2.26-5.08c-1.38-.12-1.95-.31-1.69-.56s.75-.31,1.87-.19,1.69.32,1.69.57S655.55,25.55,654.3,25.55Zm-.94,2.26c0-.12.28-.22.84-.28a18.71,18.71,0,0,1,2-.1c2,0,3,.13,3,.38s-1,.37-3,.37a16.53,16.53,0,0,1-2-.09C653.64,28,653.36,27.93,653.36,27.81Zm11.46,3.38c.87,0,.81-.12-.19-.38a6.93,6.93,0,0,0-1.88-.28,20.85,20.85,0,0,0-3.38.1A26,26,0,0,0,656,31c-.5.13-.63.38-.38.75.12.63,0,.76-.37.38q-.94-.18-.57,0c.25.38.82.53,1.69.47a7.89,7.89,0,0,0,2.63-.66,5.22,5.22,0,0,1,2.26-.66c.87-.06,1.25.1,1.13.47a3.37,3.37,0,0,0,.18,1.32c0,1,.13,1,.38,0,.12-.5.5-.75,1.13-.75.37,0,.5-.19.37-.57C664.07,31.38,664.19,31.19,664.82,31.19Zm-3.76-5.64c-1.38-.12-2.25-.21-2.63-.28s-.19-.09.56-.09a51.66,51.66,0,0,1,6.67-.28c1.82.06,2.79.22,2.92.47s-.32.4-1.32.47A54.47,54.47,0,0,1,661.06,25.55Zm-.19-1.69c-1.25,0-1.5-.12-.75-.37a2.27,2.27,0,0,1,1.32,0l.18.37Zm.94,3.57c.63-.25,1-.19,1.13.19.12.13-.13.19-.75.19C661.18,27.81,661.06,27.69,661.81,27.43Zm1.5-3.57c-.5.88-.75.75-.75-.37,0-.38.19-.5.57-.38Q663.51,23.68,663.31,23.86Zm3,4.14a.83.83,0,0,1,1.13.18c.12.13-.13.19-.75.19C665.69,28.37,665.57,28.25,666.32,28Zm4.13.37c-.87,0-1.19-.19-.94-.56a1.45,1.45,0,0,1,1.32-.19C671.71,28.12,671.58,28.37,670.45,28.37Zm7.9-4.69a3.23,3.23,0,0,1-1.41.28c-.82.06-1.67.09-2.54.09H672c-.63,0-.94-.06-.94-.19,0-.37.37-.56,1.13-.56s1.12-.25,1.12-.75.63-.94,1.88-.94a3.18,3.18,0,0,1,2.63.94C678.28,23.18,678.47,23.55,678.35,23.68Zm-3.57,1.87c.37.76-.19.76-1.7,0l-.93-.37.93-.19A2.34,2.34,0,0,1,674.78,25.55Zm-1.51,2.26c0-.5.19-.57.57-.19s.56.44.56.56-.19.19-.56.19A.5.5,0,0,1,673.27,27.81Zm5.45,3.57h-1.13a10.18,10.18,0,0,0-2.25.37l-1.13.57h1.13a4.94,4.94,0,0,0,2.25-.57Zm-.94-5.83c-.63-.25-.88-.37-.75-.37s.69-.06,1.69-.19h6a12.26,12.26,0,0,0,3.2,0c.5-.12.75-.38.75-.75,0-.75-.5-.94-1.5-.56-.88.12-1.32,0-1.32-.38a.49.49,0,0,1,.56-.56q.57-.19-1.5-.57l-2.25-.37h2.63c1.75,0,2.56.18,2.44.56s0,.38.38,0c1-1,1.5-.81,1.5.56-.25.88.06,1.38.94,1.51s.87-.13.37-.38-.47-.72-.28-1.41.53-1,1-1a.6.6,0,0,1,.65.56,10.55,10.55,0,0,1-.28,2.63q0,.38-6,.75c-.88,0-1.69,0-2.44.1s-1.44.09-2.07.09h-1.88c-.13.13-.37.16-.75.1A7.82,7.82,0,0,1,677.78,25.55Zm2.07-1.69c-.63,0-.94-.06-.94-.18s.31-.32.94-.57.75-.06.75.19S680.35,23.86,679.85,23.86Zm.75,3.38c0,.38.44.63,1.32.76.62.12.9.22.84.28a3.75,3.75,0,0,1-1.22.09c-1.25,0-1.88-.25-1.88-.75s.19-.94.56-.94S680.6,26.87,680.6,27.24Zm2.25-3.38c-1.25,0-1.75-.12-1.5-.37a5,5,0,0,1,2.26-.47c1.12-.06,1.56,0,1.31.28S684,23.86,682.85,23.86ZM686.42,28a6.92,6.92,0,0,1,3.2,0q.55.18-1.5.18C686.61,28.18,686.05,28.12,686.42,28Zm12.41-2.45c.49.38.62.57.37.57-.5-.13-1.75-.31-3.76-.57l-3.19-.37h2.82a7.11,7.11,0,0,1,2.35,0A6.38,6.38,0,0,1,698.83,25.55Zm-3.2,5.83c.38-.38.19-.57-.56-.57q-.75,0-.75.57c0,.25.18.37.56.37A1.07,1.07,0,0,0,695.63,31.38Zm1.5-3.57c0-.25.38-.38,1.13-.38s1.13.19,1.13.57-.38.37-1.13.37S697.13,28.18,697.13,27.81Zm3.76,1.13c-.25,0-.44-.25-.56-.76s-.19-.94.19-.94.56.32.56.94S701,28.94,700.89,28.94Zm1.88-.57a.5.5,0,0,1-.56.57c-.38,0-.44-.19-.19-.57l.56-.56C702.71,27.81,702.77,28,702.77,28.37Z"/><path d="M629.68,84c-.25,0-.56.28-.94.84s-.82,1.16-1.31,1.79l-1.69,2.63,1.31.94a20.82,20.82,0,0,0,2.54,1.22c1.31.56,2.72,1.16,4.22,1.78q2.64,1.13,4.33,1.88t2.91,1.41a18.51,18.51,0,0,1,2.44,1.6c.81.63,1.79,1.44,2.91,2.44s2,1.91,2.91,2.72a22.37,22.37,0,0,0,2,1.6,10.82,10.82,0,0,1,2.91,2.91c.94,1.32,1.34,2.35,1.22,3.1v3.57a4.36,4.36,0,0,1-.28,2.45,15,15,0,0,1-2.54,3c-.88.75-1.66,1.44-2.35,2.07s-1.16.94-1.41.94a12,12,0,0,0-1.12.66,15.68,15.68,0,0,0-1.69,1.22,15.49,15.49,0,0,1-2.35,1.5c-.94.5-1.72.87-2.35,1.13l-5.07,2.06q-1.14.57-2.73,1.32a27.91,27.91,0,0,1-2.72,1.13,43.37,43.37,0,0,1-4.89,2c-2,.69-3.94,1.34-5.82,2s-3.51,1.13-4.89,1.51-2.13.49-2.25.37l-.19-.19a1.09,1.09,0,0,0-.75.38,1.65,1.65,0,0,1-1.13.56c-.12,0-.56,0-1.31.1s-1.6.15-2.54.28-1.85.22-2.72.28-1.44.09-1.7.09a4.48,4.48,0,0,1-1.87,0,2.89,2.89,0,0,1-1.69-1.12c-.13-.51-.44-.63-.94-.38a1.85,1.85,0,0,1-1.32-.19,1.74,1.74,0,0,0-1-.47,12.08,12.08,0,0,1-1.41-.28,16.25,16.25,0,0,1-3.76-.94c-1.38-.5-2.07-.94-2.07-1.31s.57-1.16,1.69-2a20.17,20.17,0,0,1,3.95-2.16,46.7,46.7,0,0,1,5.26-2c1.5-.44,2.13-.47,1.88-.09q-.94,1.3,2.82-.75a4.15,4.15,0,0,0,1.22-.66c.19-.19.09-.22-.28-.1-1.25.38-1.44.25-.57-.37,1.13-.25,1.76-.32,1.88-.19a2.23,2.23,0,0,0,1.79,0c.56-.25.72-.56.47-.94-.13-.13-.1-.22.09-.28a.85.85,0,0,1,.66.09,2.94,2.94,0,0,0,2.07,0q1.13-.37.75-.75c-.25-.25.19-.37,1.31-.37a3.6,3.6,0,0,0,2.63-1.13c.51-.75,1.07-.94,1.69-.57s1.19,0,1.7-.75.75-.69.75-.19.31.47.94.29a2.91,2.91,0,0,0,1.5-1,1.8,1.8,0,0,1,1.31-.56l4.14-1.32c2-.49,2.88-1.06,2.63-1.69s.06-.81.94-.56,1.13.13,1.13-.38.24-1,.75-1.12.94-.19.94.18.18.63.56.38.44-.69.19-.94-.19-.56.18-.56a.89.89,0,0,1,.94.75c.13.63.5.63,1.13,0s.94-1.13.94-1.5.28-.6.85-1,1.22-1,2-1.59c3.25-2.38,4.26-4,3-4.89a2.87,2.87,0,0,0-1.7-.75,24,24,0,0,1-4.22-1.41q-3.67-1.41-6.67-2.91a29.48,29.48,0,0,1-6.58-4,28.1,28.1,0,0,1-4.7-5.73,8.26,8.26,0,0,0-1.69-2.45,1,1,0,0,0-1.12,0l-.19.19-.19-.56a3,3,0,0,0,.47-1.6,9,9,0,0,0-.47-1.41q-3-5.25,3.38-11.65l2.26-2.25c.62-.63,1.06-.94,1.31-.94a1.7,1.7,0,0,0,1.51-.94,18.65,18.65,0,0,1,2.34-1.78c1.19-.82,2.45-1.63,3.76-2.45s2.51-1.56,3.57-2.25a6.18,6.18,0,0,1,2-1,.5.5,0,0,0,.57-.57q0-.18.75-.66c.5-.31,1.06-.62,1.69-.93a15.14,15.14,0,0,1,2.07-.85,6,6,0,0,1,1.69-.38A7.05,7.05,0,0,1,649,60.88,4.8,4.8,0,0,0,651.29,62c1,.63,1.56,1.13,1.69,1.51a4.31,4.31,0,0,0,1.5,1.5,2.3,2.3,0,0,1,1.5,1.88,1.35,1.35,0,0,1-.37,1.41,14.11,14.11,0,0,1-3,1.41q-1.5.38-2.82.75a8.23,8.23,0,0,1-1.69.37,3.56,3.56,0,0,0-2.25,1.32,18.82,18.82,0,0,1-2.16,1.69c-1.07.75-2.16,1.5-3.29,2.26s-2.19,1.47-3.19,2.16a16.74,16.74,0,0,0-1.88,1.4C632.43,82.55,630.56,84,629.68,84Zm-29.5,45.11c.38-.37.35-.53-.09-.47a6.35,6.35,0,0,0-2,.85l-1.32.94,1.32-.38A3.57,3.57,0,0,0,600.18,129.1Zm5.08.17c.62,0,.94-.19.94-.57s-.32-.44-.94-.19-.76.32-.76.57l.19.19Zm2.81-1.13a.48.48,0,0,0,.76,0V128a1.77,1.77,0,0,0-1.13,0C607.58,128.07,607.7,128.14,608.07,128.14Zm6.58-1.88c.38-.38.28-.56-.28-.56a7.08,7.08,0,0,0-2.35.56l-2.26.75,2.26-.19c.63-.12,1.19-.25,1.69-.37A5.32,5.32,0,0,1,614.65,126.26Zm1.13-.19a.5.5,0,0,0,.56-.56l-.19-.38V125c-.12,0-.37.18-.75.56S615.15,126.07,615.78,126.07Zm3.19-1.69c.25-.37.22-.56-.09-.56a3.2,3.2,0,0,0-1.41.56c-.75.25-.69.38.19.38A1.3,1.3,0,0,0,619,124.38Zm3.38-1.31c.38-.51-.18-.51-1.69,0-.63.25-.94.4-.94.47s.31.09.94.09C621.54,123.63,622.1,123.44,622.35,123.07Zm2.82-49.61a6,6,0,0,1-1.31.57c-.13,0,.06-.19.56-.57s1.63-1.06,3.38-2.06l3.76-2.26.75-.37-1.31.37c-1.51.63-2.54,1-3.1,1.22s-.91.22-1,.1l-.19-.19L625,71.59l-1.12.75L622.92,74a13.2,13.2,0,0,0-2.07,1.5,2.92,2.92,0,0,0-1,1.32c-.19.5,0,.94.65,1.31Zm.57,48.29c.62-.63.78-.94.47-.94a5.3,5.3,0,0,0-2,.94c-.88.5-1.06.75-.56.75A4.66,4.66,0,0,0,625.74,121.75Zm6.38-53.36c.38-.12.63-.12.76,0a.77.77,0,0,1,.56-.19l.75-.37.56-.57a.52.52,0,0,0,.19-.37l.19-.19a8.94,8.94,0,0,1-2.44.94c-1.38.63-2,.94-1.69.94A4.84,4.84,0,0,0,632.12,68.39Z"/><path d="M706.15,62.57a41.55,41.55,0,0,1,6.29-.75c1.32,0,1.66.12,1,.37a4.22,4.22,0,0,1-1.41.75c-.69.26-1.41.5-2.16.75L707.09,65a8.21,8.21,0,0,1-3,1.5,11.63,11.63,0,0,0-2.35,1.13,10,10,0,0,0-1.59,1.13,3.27,3.27,0,0,1-2.26,1.12c-.75,0-1.13.13-1.13.38a5.54,5.54,0,0,0,1.13,1.88,14,14,0,0,1,1.69,3.38l.94,1.88a7.89,7.89,0,0,1,.19,2.16q0,1.61-.09,3.48a29,29,0,0,1-.38,3.47,5.78,5.78,0,0,1-.47,1.79,13.51,13.51,0,0,0-.94,2.63q-.37,2.25-.75,2.25l-.94,2.07a37.52,37.52,0,0,1-2.91,6,32.62,32.62,0,0,1-4,5.64q-4.51,4.7-4.7,4.7c-.25,0-.56.31-.94.93a4.3,4.3,0,0,1-1.12,1.13,16.71,16.71,0,0,1-2.26,1.5l-2.63,1.32-2.25.75a12,12,0,0,1-4.23.38,5.86,5.86,0,0,1-3.29-1.13q-6.19-5.07-6.58-9.39v-1.88l-.18.19a18.4,18.4,0,0,1-.1-3.2c.07-1,.16-1.88.28-2.63l.38-1.5.38-3,2.63-6a2.75,2.75,0,0,1,.75-1.5l.56-1.32a21,21,0,0,1,1.41-3.38q1-2.07,2.25-4.23c.82-1.44,1.63-2.75,2.45-3.94a18.82,18.82,0,0,1,2-2.54q1.69-2.07,3.57-.19c.38.63.75.94,1.13.94s.72.31.65.94a4.94,4.94,0,0,1-1,2.26,11.55,11.55,0,0,0-1.5,2.44,7,7,0,0,1-.57,2.06,8.85,8.85,0,0,0-1.12,2c-.51,1.06-1,2.19-1.6,3.38s-1,2.29-1.41,3.29a11.5,11.5,0,0,0-.56,1.69c.12.37.06.56-.19.56s-.38,0-.75.38c0,.5.12.63.37.37s.35-.19.29.19a24,24,0,0,1-1.6,3.57,37.19,37.19,0,0,0-2.16,6,21.6,21.6,0,0,0-.66,5.26,15,15,0,0,0,.09,2.35c.07.19.41.28,1,.28a9.82,9.82,0,0,0,3.38-.94l1.5-.75a.8.8,0,0,1,.57-.19c0,.13.43-.24,1.31-1.12l7.71-7.71c0-.25.31-.68.93-1.31A12.52,12.52,0,0,0,686,95.63c.63-1,1.26-2.09,1.88-3.28s1.23-2.38,1.79-3.57a27.36,27.36,0,0,0,1.22-2.92q1.7-6.75.94-10.7-.37-2.44-.75-2.07c-.25,0-.38-.19-.38-.56s-.44-.5-1.31-.38a23.44,23.44,0,0,1-4.51.38q-5.64,0-6-3.2a3.53,3.53,0,0,1,.65-2.07,1.92,1.92,0,0,1,1.6-.93,1.09,1.09,0,0,0,.75-.19l.75-.38c.5-.5,2.07-.81,4.7-.94a22.58,22.58,0,0,0,4.89-.37c.87-.13,1.81-.25,2.81-.38s2.32-.25,4-.38c.62-.12,1.63-.28,3-.47S704.77,62.82,706.15,62.57Zm-25.18,43a10.88,10.88,0,0,0,1.6-1.78c.06-.19-.35.09-1.22.84s-1.13.88-1.13.38c-.13-.25-.44-.06-.94.56a2.77,2.77,0,0,0-.75,1.51C678.53,107.72,679.34,107.22,681,105.59Zm9-13.15a5.34,5.34,0,0,0,1.32-2.16c.49-1.19,1-2.5,1.5-4s.94-2.81,1.31-4.13a11.73,11.73,0,0,0,.57-2.91c0-1.13-.13-1.44-.38-.94a6.57,6.57,0,0,0-.37,2.07,8.68,8.68,0,0,1-.47,2.06c-.32,1-.69,2.1-1.13,3.29s-.91,2.32-1.41,3.38a14.39,14.39,0,0,1-1.31,2.35c-.76,1.25-1.38,2.38-1.88,3.38s-.63,1.51-.38,1.51.81-.63,1.32-1.88S689.74,92.44,690,92.44Z"/><path d="M765.14,92.82c2.76-2.26,4-3.07,3.76-2.45S767,92.88,763.83,96A20.17,20.17,0,0,0,762,98.08a3.41,3.41,0,0,0-.84,1.69,3.4,3.4,0,0,1-1.13,1.69c-1.63.88-2.44,1.82-2.44,2.82,0,.5.19.44.56-.19l.38-.38h.19q0,.57.75-.18c.62-.38.94-.44.94-.19s-.38.63-1.13,1.13-.82.87.19,1.5c.5.37.68.66.56.84a7.69,7.69,0,0,1-1.69,1.22,11.91,11.91,0,0,0-2.54,2.17c-.56.69-.53,1.16.1,1.41.12,0,0,.25-.47.75s-1,1.09-1.69,1.78a17.38,17.38,0,0,1-2.07,1.79,3.36,3.36,0,0,1-1.41.75,4.94,4.94,0,0,0-2.25.94,12.63,12.63,0,0,1-3.1.94,21.12,21.12,0,0,1-4,.37,18.81,18.81,0,0,1-3.47-.28c-1-.19-1.51-.53-1.51-1,0-.25-.25-.38-.75-.38a1.2,1.2,0,0,1-1.31-1.13c-.13-.49-.38-.49-.76,0s-.56.32-.56-.18a2.2,2.2,0,0,0-.75-1.51,3.72,3.72,0,0,1-.94-2.25,4.23,4.23,0,0,0-.75-2.16c-.38-.44-.69-.35-.94.28s-.63.56-.75.19a5.79,5.79,0,0,1-.1-2,28.65,28.65,0,0,1,.47-3.38c.25-1.31.57-2.72.94-4.22A20.31,20.31,0,0,0,731,96.57l.38-1.87-.76.18c-.62.26-.81.51-.56.75.25.51-.82,2-3.19,4.51a23.05,23.05,0,0,0-2.26,3.2,21.9,21.9,0,0,0-1.5,2.82,6.18,6.18,0,0,1-1.22,2.34c-.82,1.2-1.6,2.29-2.35,3.29a13.11,13.11,0,0,0-1.32,2c-.63,1.06-1.25,2.22-1.88,3.47s-1.38,2.51-2.25,4.13-1.63,2.95-2.25,3.95a21.61,21.61,0,0,1-.94,2c-.38.69-.76,1.35-1.13,2L708.21,134l-.93.75a4.82,4.82,0,0,1-1.13,1.13q-1.32,1.13-2.73,2.16c-.94.69-1.59,1-2,.85a9.14,9.14,0,0,1-3-1.22c-.88-.57-1.32-1.1-1.32-1.6s-.19-.75-.56-.75-.57-.63-.57-1.88a4.86,4.86,0,0,0-.09-1.41q-.09-.09-.66.66c-.25.37-.44.47-.56.28a11,11,0,0,1-.57-2.35,26.17,26.17,0,0,1,1.22-9.3,68.2,68.2,0,0,1,4.23-11.18l.38-1.5a10.93,10.93,0,0,1,.94-2.82,13.57,13.57,0,0,1,.75-1.6,2.46,2.46,0,0,0,.37-.84c0-.38.32-.88.94-1.51a4.42,4.42,0,0,0,1.13-3,6.17,6.17,0,0,1,.1-1.13c.06-.37.21-.56.47-.56s.56-.25.56-.75a10.18,10.18,0,0,1,.47-2c.31-1.06.72-2.31,1.22-3.75s1.06-3,1.69-4.7,1.32-3.41,2.07-5.17q.75-1.87,1.69-4.6c.62-1.82,1.22-3.63,1.78-5.45s1.1-3.54,1.6-5.17.88-2.94,1.13-3.94c.12-1.25.5-1.88,1.13-1.88a2.54,2.54,0,0,1,1.22.75c.56.5,1.15,1.07,1.78,1.69a12.67,12.67,0,0,1,2,2.91,8,8,0,0,1,.66,3.39,28.43,28.43,0,0,1-.56,5q-.57,3-1.69,7.71a20.87,20.87,0,0,1-1.13,3.19,7.32,7.32,0,0,0-.75,2.82,7.41,7.41,0,0,0-.19,2.07v2.06l.75-2.25.19.19a5.75,5.75,0,0,1-.56,2.06,1.08,1.08,0,0,0-.38.75V93l1.32-.94q1.5-.93.93-.93c-.25,0,0-.41.76-1.23s1.62-1.72,2.63-2.72l4.51-5.07c.5-.88,1.06-1.32,1.69-1.32.37,0,.72-.28,1-.84a1.3,1.3,0,0,0,.09-1.41c0-.13.44-.19,1.32-.19a9.42,9.42,0,0,1,2.44.19,5.41,5.41,0,0,1,1.51.94c.37.25.9.62,1.59,1.12s1.35.94,2,1.32c1.63,1,2.2,1.57,1.7,1.69s-.57.38.18,1.13a3.37,3.37,0,0,1,1,2.16,20.14,20.14,0,0,1-.85,5c-.25,1.12-.5,2.38-.75,3.75s-.5,2.57-.75,3.57-.28,2-.47,3-.35,1.82-.47,2.44c-.5,1.51-.19,2,.94,1.51.37-.13,1.09-.41,2.16-.85a31.81,31.81,0,0,0,3.29-1.6c1.12-.5,2.16-.94,3.1-1.31a7,7,0,0,1,1.78-.57c.63,0,2.26-.9,4.89-2.72S762.26,95.2,765.14,92.82Zm-44.71,3.94c.87-1.13,1.19-1.69.94-1.69s-.88.69-1.88,2.07l-1.13,1.69a1.17,1.17,0,0,0,.1.56.92.92,0,0,1,.09.38l.19-.19A6.25,6.25,0,0,1,720.43,96.76Zm.19-8.08a.78.78,0,0,0-.57.19l.38-.94h.19c.37-.12.56-.06.56.19A.5.5,0,0,1,720.62,88.68Zm12.58-3.75c.76-.5,1.13-.94,1.13-1.32s-.88.19-2.63,1.32c-.63.5-1.22,1-1.78,1.4s-.85.79-.85,1a.66.66,0,0,1-.75.75c-.63,0-1.5.66-2.63,2S724,92.44,724,93.19s-.19,1.19-.57.94a.84.84,0,0,1-.18-.94c.25-.37.25-.53,0-.47s-.57.41-.94,1-.57.69-.19.56.75-.25.75,0a20.64,20.64,0,0,1-.56,2.63l-.38,2.25L723.81,97c1.25-1.25,1.88-2.13,1.88-2.63s-.19-.38-.57,0c-.62.25-.62.06,0-.56s.88-1,1.13-.76.59.16,1-.28a1.85,1.85,0,0,0,.65-1.22c0-.25-.19-.31-.56-.19-.13.13-.22.19-.28.19s0-.06.09-.19l.94-1.12c1.13-1.13,1.69-1.82,1.69-2.07s.25-.56.75-.56a1.34,1.34,0,0,0,1.32-.94A2.72,2.72,0,0,1,733.2,84.93Zm-.56,15.78c.38,0,.56-.31.56-.94S733,99,732.64,99a15.25,15.25,0,0,0-1,2.44c-.19.63-.35,1.22-.47,1.78s-.13.91,0,1,.19.37-.19.37-.56.51-.56,1.51.18,1.38.56,1.12a.81.81,0,0,0,.19-1.12h.19a1,1,0,0,1,.18-1.32,3.23,3.23,0,0,0,.57-2.25C732.2,101.34,732.39,100.71,732.64,100.71Zm1.13-3.2a2,2,0,0,0,.19-2.25l-.38-1.69-.75,1.88a7.06,7.06,0,0,0-.75,2.63c0,.25.18.06.56-.57.12-.87.38-1.31.75-1.31s.25.31,0,.94-.35.78-.28.84S733.39,97.89,733.77,97.51Zm4.13,6.2c.63-.25.81-.5.56-.75s-.53-.47-.84-.28a.92.92,0,0,0-.47.85Q737.15,103.91,737.9,103.71Zm8.46,5.26.93-.94,1.51-1.12-1.69.37q-3.2.39-3.2,2.82c0,1,1.07.94,3.2-.19,1.12-.37,1.69-.81,1.69-1.31a3.72,3.72,0,0,0-1.69,0Z"/><path d="M7.59,171.87h33.2v4.69h-28v19.73H38.83V201H12.76v26.3H7.59Z"/><path d="M76.09,199.58a31.34,31.34,0,0,1,2.12-11.67,27.87,27.87,0,0,1,5.87-9.2,26.63,26.63,0,0,1,9-6.06,31.95,31.95,0,0,1,23.25,0,26.63,26.63,0,0,1,9,6.06,27.71,27.71,0,0,1,5.87,9.2,33.26,33.26,0,0,1,0,23.37,27.38,27.38,0,0,1-5.87,9.24,26.27,26.27,0,0,1-9,6,32.5,32.5,0,0,1-23.25,0,26.27,26.27,0,0,1-9-6,27.54,27.54,0,0,1-5.87-9.24A31.58,31.58,0,0,1,76.09,199.58Zm5.17,0a27.82,27.82,0,0,0,1.64,9.63A23,23,0,0,0,87.6,217a21.71,21.71,0,0,0,7.4,5.16,26.2,26.2,0,0,0,19.49,0,21.71,21.71,0,0,0,7.4-5.16,22.89,22.89,0,0,0,4.7-7.75,29.09,29.09,0,0,0,0-19.26,22.79,22.79,0,0,0-4.7-7.75,21.74,21.74,0,0,0-7.4-5.17A26.2,26.2,0,0,0,95,177a21.74,21.74,0,0,0-7.4,5.17A23,23,0,0,0,82.9,190,27.74,27.74,0,0,0,81.26,199.58Z"/><path d="M212.94,206.08a35,35,0,0,1-1,8.53,19.65,19.65,0,0,1-3.41,7.2,17,17,0,0,1-6.26,5,25,25,0,0,1-19,0,17.08,17.08,0,0,1-6.27-5,19.63,19.63,0,0,1-3.4-7.2,35,35,0,0,1-1-8.53V171.87h5.17v32.87a39.14,39.14,0,0,0,.55,6.35,19.06,19.06,0,0,0,2.15,6.26,13.19,13.19,0,0,0,4.54,4.77,17.08,17.08,0,0,0,15.58,0,13.27,13.27,0,0,0,4.54-4.77,19.06,19.06,0,0,0,2.15-6.26,39.14,39.14,0,0,0,.55-6.35V171.87h5.17Z"/><path d="M255.68,171.87h6.65l33.74,48.53h.16V171.87h5.17v55.42h-6.66L261,178.75h-.15v48.54h-5.17Z"/><path d="M344.45,171.87H361.6a36.9,36.9,0,0,1,12.21,1.76,27,27,0,0,1,8.34,4.5,22.19,22.19,0,0,1,5.24,6.07,29.36,29.36,0,0,1,2.82,6.38,29.94,29.94,0,0,1,1.14,5.51c.15,1.65.23,2.81.23,3.49s-.08,1.84-.23,3.48a29.73,29.73,0,0,1-4,11.9,22.34,22.34,0,0,1-5.24,6.07,27,27,0,0,1-8.34,4.5,37.16,37.16,0,0,1-12.21,1.76H344.45Zm5.17,50.72h10.65a36.75,36.75,0,0,0,10.25-1.37,23.52,23.52,0,0,0,8.3-4.18,19.76,19.76,0,0,0,5.56-7.17,27,27,0,0,0,0-20.59,19.81,19.81,0,0,0-5.56-7.16,23.54,23.54,0,0,0-8.3-4.19,37.13,37.13,0,0,0-10.25-1.37H349.62Z"/><path d="M448.73,171.87h5.32l23.33,55.42h-5.79l-6-14.72H436.2l-6.26,14.72h-5.4Zm2.43,5.63-12.92,30.38h25.44Z"/><path d="M520.91,176.56H502v-4.69H545v4.69H526.08v50.73h-5.17Z"/><path d="M582.13,171.87h5.16v55.42h-5.16Z"/><path d="M627.45,199.58a31.34,31.34,0,0,1,2.12-11.67,27.87,27.87,0,0,1,5.87-9.2,26.63,26.63,0,0,1,9-6.06,31.95,31.95,0,0,1,23.25,0,26.63,26.63,0,0,1,9,6.06,27.89,27.89,0,0,1,5.88,9.2,33.41,33.41,0,0,1,0,23.37,27.56,27.56,0,0,1-5.88,9.24,26.27,26.27,0,0,1-9,6,32.5,32.5,0,0,1-23.25,0,26.27,26.27,0,0,1-9-6,27.54,27.54,0,0,1-5.87-9.24A31.58,31.58,0,0,1,627.45,199.58Zm5.17,0a27.59,27.59,0,0,0,1.65,9.63A22.86,22.86,0,0,0,639,217a21.71,21.71,0,0,0,7.4,5.16,26.2,26.2,0,0,0,19.49,0,21.62,21.62,0,0,0,7.4-5.16,22.89,22.89,0,0,0,4.7-7.75A29.09,29.09,0,0,0,678,190a22.79,22.79,0,0,0-4.7-7.75,21.64,21.64,0,0,0-7.4-5.17,26.2,26.2,0,0,0-19.49,0,21.74,21.74,0,0,0-7.4,5.17,22.77,22.77,0,0,0-4.69,7.75A27.51,27.51,0,0,0,632.62,199.58Z"/><path d="M724.92,171.87h6.65l33.75,48.53h.15V171.87h5.17v55.42H764l-33.74-48.54h-.15v48.54h-5.17Z"/></svg>