<?xml version="1.0" encoding="UTF-8"?>
<svg id="Layer_2" xmlns="http://www.w3.org/2000/svg" viewBox="0 0 464.13 141.39">
  <g id="iPhone_Elements">
    <g id="Start_screen">
      <g>
        <path d="M0,138.65V0h4.31v134.73h68.93v3.92H0Z"/>
        <path d="M140.51,126.22c-2.42,3.33-5.19,6.1-8.32,8.32-3.13,2.22-6.53,3.92-10.18,5.09-3.66,1.18-7.44,1.76-11.36,1.76-6.27,0-11.49-1.11-15.67-3.33-4.18-2.22-7.51-5.16-9.99-8.81-2.48-3.65-4.24-7.77-5.29-12.34-1.05-4.57-1.57-9.2-1.57-13.9v-54.44h4.31v54.05c0,3.79.39,7.74,1.18,11.85.78,4.11,2.25,7.87,4.41,11.26,2.15,3.4,5.02,6.24,8.62,8.52,3.59,2.29,8.26,3.43,14,3.43,4.96,0,9.63-1.01,14-3.04,4.37-2.02,8.16-4.93,11.36-8.71,3.2-3.79,5.74-8.39,7.64-13.81,1.89-5.42,2.84-11.58,2.84-18.51v-45.04h4.31v67.37c0,1.44.03,3.2.1,5.29.06,2.09.13,4.21.2,6.36.06,2.15.16,4.21.29,6.17.13,1.96.26,3.59.39,4.9h-4.31c-.13-1.3-.23-2.94-.29-4.9-.07-1.96-.13-4.08-.2-6.36-.07-2.28-.13-4.5-.2-6.66-.07-2.15-.1-4.08-.1-5.78h-.39c-1.44,4.18-3.36,7.93-5.78,11.26Z"/>
        <path d="M245.97,73.44c2.61-8.88,7.05-15.7,13.32-20.46,6.27-4.76,13.38-7.15,21.35-7.15,6,0,11.06,1.11,15.18,3.33,4.11,2.22,7.38,5.16,9.79,8.81,2.41,3.66,4.14,7.77,5.19,12.34,1.04,4.57,1.57,9.2,1.57,13.9v54.44h-4.31v-54.05c0-3.65-.43-7.57-1.27-11.75-.85-4.18-2.32-7.96-4.41-11.36-2.09-3.39-4.9-6.23-8.42-8.52-3.52-2.28-7.96-3.43-13.32-3.43-4.7,0-9.11,1.01-13.22,3.04-4.11,2.03-7.71,4.93-10.77,8.71-3.07,3.79-5.52,8.39-7.34,13.81-1.83,5.42-2.74,11.59-2.74,18.51v45.04h-4.31v-54.05c0-3.65-.36-7.57-1.08-11.75-.72-4.18-2.06-7.96-4.01-11.36-1.96-3.39-4.67-6.23-8.13-8.52-3.46-2.28-7.87-3.43-13.22-3.43-4.7,0-9.11,1.01-13.22,3.04-4.11,2.03-7.71,4.93-10.77,8.71-3.07,3.79-5.48,8.39-7.25,13.81-1.76,5.42-2.64,11.59-2.64,18.51v45.04h-4.31v-67.37c0-1.44-.03-3.2-.1-5.29-.07-2.09-.13-4.21-.2-6.36-.07-2.15-.17-4.21-.29-6.17-.13-1.96-.26-3.59-.39-4.9h4.31c.13,1.31.23,2.94.29,4.9.06,1.96.13,4.08.2,6.36.06,2.29.13,4.5.2,6.66.06,2.15.1,4.08.1,5.78h.39c1.3-4.18,3.13-7.9,5.48-11.16,2.35-3.26,4.99-6.04,7.93-8.32,2.94-2.28,6.14-4.01,9.6-5.19,3.46-1.17,7.02-1.76,10.67-1.76,4.7,0,8.78.72,12.24,2.15,3.46,1.44,6.37,3.4,8.71,5.88,2.35,2.48,4.24,5.39,5.68,8.71,1.43,3.33,2.48,6.95,3.13,10.87h.39Z"/>
        <path d="M338.59,14.69c-1.17,0-2.22-.46-3.13-1.37-.92-.91-1.37-2.15-1.37-3.72,0-1.44.46-2.61,1.37-3.53.91-.91,1.96-1.37,3.13-1.37s2.22.46,3.13,1.37c.91.92,1.37,2.09,1.37,3.53,0,1.57-.49,2.81-1.47,3.72-.98.92-1.99,1.37-3.04,1.37ZM336.44,138.65V48.57h4.31v90.08h-4.31Z"/>
        <path d="M371.1,3.92v60.9h69.52v3.92h-69.52v69.91h-4.31V0h79.12v3.92h-74.81Z"/>
        <path d="M459.62,14.69c-1.17,0-2.22-.46-3.13-1.37-.92-.91-1.37-2.15-1.37-3.72,0-1.44.46-2.61,1.37-3.53.91-.91,1.96-1.37,3.13-1.37s2.22.46,3.13,1.37c.91.92,1.37,2.09,1.37,3.53,0,1.57-.49,2.81-1.47,3.72-.98.92-1.99,1.37-3.04,1.37ZM457.47,138.65V48.57h4.31v90.08h-4.31Z"/>
      </g>
    </g>
  </g>
</svg>