<?xml version="1.0" encoding="UTF-8"?>
<svg id="Layer_2" xmlns="http://www.w3.org/2000/svg" viewBox="0 0 183.78 25.27">
  <defs>
    <style>
      .cls-1 {
        fill: none !important;
        stroke: var(--text);
        stroke-miterlimit: 10;
        stroke-width: .05px;
      }

      .cls-2 {
        font-family: Athelas-Regular, Athelas;
        font-size: 10.84px;
      }

      .cls-3 {
        letter-spacing: .18em;
      }

      .cls-4 {
        letter-spacing: .2em;
      }

      .cls-5 {
        letter-spacing: .22em;
      }

      .cls-6 {
        letter-spacing: .17em;
      }

      .cls-7 {
        letter-spacing: .16em;
      }

      .cls-8 {
        letter-spacing: .17em;
      }

      .cls-9 {
        letter-spacing: .18em;
      }

      .cls-10 {
        letter-spacing: .14em;
      }

      .cls-11 {
        letter-spacing: .15em;
      }
    </style>
  </defs>
  <g id="Layer_1-2" data-name="Layer_1">
    <polyline class="cls-1" points="12.7 25.25 7.22 22.12 7.19 15.82 12.63 12.63"/>
    <polyline class="cls-1" points="13.69 25.2 7.98 22.52 7.45 16.23 12.63 12.63"/>
    <polyline class="cls-1" points="14.67 25.08 8.77 22.85 7.75 16.63 12.63 12.63"/>
    <polyline class="cls-1" points="15.64 24.88 9.58 23.12 8.08 17 12.63 12.63"/>
    <polyline class="cls-1" points="16.58 24.61 10.41 23.33 8.43 17.34 12.63 12.63"/>
    <polyline class="cls-1" points="17.51 24.26 11.25 23.47 8.82 17.65 12.63 12.63"/>
    <polyline class="cls-1" points="18.41 23.85 12.11 23.54 9.22 17.94 12.63 12.63"/>
    <polyline class="cls-1" points="19.27 23.36 12.96 23.55 9.65 18.19 12.63 12.63"/>
    <polyline class="cls-1" points="20.08 22.81 13.82 23.49 10.09 18.4 12.63 12.63"/>
    <polyline class="cls-1" points="20.86 22.19 14.66 23.37 10.55 18.59 12.63 12.63"/>
    <polyline class="cls-1" points="21.58 21.52 15.5 23.17 11.02 18.73 12.63 12.63"/>
    <polyline class="cls-1" points="22.25 20.79 16.31 22.92 11.5 18.84 12.63 12.63"/>
    <polyline class="cls-1" points="22.86 20.02 17.11 22.6 11.99 18.91 12.63 12.63"/>
    <polyline class="cls-1" points="23.4 19.19 17.87 22.22 12.49 18.94 12.63 12.63"/>
    <polyline class="cls-1" points="23.89 18.33 18.61 21.78 12.98 18.93 12.63 12.63"/>
    <polyline class="cls-1" points="24.3 17.43 19.3 21.28 13.47 18.88 12.63 12.63"/>
    <polyline class="cls-1" points="24.64 16.5 19.96 20.73 13.96 18.8 12.63 12.63"/>
    <polyline class="cls-1" points="24.9 15.55 20.57 20.14 14.44 18.68 12.63 12.63"/>
    <polyline class="cls-1" points="25.09 14.58 21.13 19.49 14.9 18.52 12.63 12.63"/>
    <polyline class="cls-1" points="25.21 13.6 21.64 18.81 15.36 18.32 12.63 12.63"/>
    <polyline class="cls-1" points="25.25 12.62 22.1 18.08 15.79 18.09 12.63 12.63"/>
    <polyline class="cls-1" points="25.21 11.63 22.5 17.32 16.21 17.83 12.63 12.63"/>
    <polyline class="cls-1" points="25.09 10.65 22.83 16.54 16.61 17.53 12.63 12.63"/>
    <polyline class="cls-1" points="24.89 9.68 23.11 15.73 16.98 17.2 12.63 12.63"/>
    <polyline class="cls-1" points="24.63 8.73 23.32 14.9 17.32 16.85 12.63 12.63"/>
    <polyline class="cls-1" points="24.28 7.8 23.46 14.05 17.64 16.47 12.63 12.63"/>
    <polyline class="cls-1" points="23.87 6.91 23.54 13.2 17.92 16.07 12.63 12.63"/>
    <polyline class="cls-1" points="23.39 6.04 23.55 12.35 18.18 15.64 12.63 12.63"/>
    <polyline class="cls-1" points="22.84 5.22 23.5 11.49 18.39 15.2 12.63 12.63"/>
    <polyline class="cls-1" points="22.23 4.45 23.37 10.65 18.58 14.74 12.63 12.63"/>
    <polyline class="cls-1" points="21.56 3.72 23.18 9.81 18.72 14.27 12.63 12.63"/>
    <polyline class="cls-1" points="20.83 3.05 22.93 9 18.83 13.79 12.63 12.63"/>
    <polyline class="cls-1" points="20.06 2.44 22.62 8.2 18.9 13.3 12.63 12.63"/>
    <polyline class="cls-1" points="19.24 1.89 22.24 7.43 18.94 12.81 12.63 12.63"/>
    <polyline class="cls-1" points="18.37 1.4 21.8 6.7 18.93 12.31 12.63 12.63"/>
    <polyline class="cls-1" points="17.48 .99 21.31 6 18.89 11.82 12.63 12.63"/>
    <polyline class="cls-1" points="16.55 .65 20.76 5.34 18.8 11.33 12.63 12.63"/>
    <polyline class="cls-1" points="15.6 .38 20.17 4.73 18.68 10.85 12.63 12.63"/>
    <polyline class="cls-1" points="14.63 .18 19.52 4.16 18.53 10.39 12.63 12.63"/>
    <polyline class="cls-1" points="13.65 .06 18.84 3.65 18.33 9.93 12.63 12.63"/>
    <polyline class="cls-1" points="12.67 .02 18.12 3.19 18.1 9.49 12.63 12.63"/>
    <polyline class="cls-1" points="11.68 .06 17.36 2.79 17.84 9.08 12.63 12.63"/>
    <polyline class="cls-1" points="10.7 .17 16.58 2.45 17.55 8.68 12.63 12.63"/>
    <polyline class="cls-1" points="9.73 .36 15.77 2.17 17.22 8.31 12.63 12.63"/>
    <polyline class="cls-1" points="8.78 .63 14.94 1.96 16.87 7.96 12.63 12.63"/>
    <polyline class="cls-1" points="7.85 .96 14.1 1.81 16.49 7.64 12.63 12.63"/>
    <polyline class="cls-1" points="6.95 1.38 13.25 1.73 16.09 7.36 12.63 12.63"/>
    <polyline class="cls-1" points="6.09 1.85 12.39 1.71 15.66 7.1 12.63 12.63"/>
    <polyline class="cls-1" points="5.26 2.4 11.54 1.77 15.22 6.88 12.63 12.63"/>
    <polyline class="cls-1" points="4.48 3.01 10.69 1.89 14.76 6.7 12.63 12.63"/>
    <polyline class="cls-1" points="3.76 3.68 9.85 2.07 14.29 6.55 12.63 12.63"/>
    <polyline class="cls-1" points="3.08 4.4 9.04 2.32 13.81 6.44 12.63 12.63"/>
    <polyline class="cls-1" points="2.47 5.17 8.24 2.63 13.32 6.37 12.63 12.63"/>
    <polyline class="cls-1" points="1.91 5.99 7.47 3.01 12.83 6.33 12.63 12.63"/>
    <polyline class="cls-1" points="1.43 6.85 6.73 3.44 12.34 6.33 12.63 12.63"/>
    <polyline class="cls-1" points="1.01 7.74 6.03 3.93 11.84 6.38 12.63 12.63"/>
    <polyline class="cls-1" points=".66 8.67 5.37 4.48 11.36 6.46 12.63 12.63"/>
    <polyline class="cls-1" points=".39 9.62 4.75 5.07 10.88 6.58 12.63 12.63"/>
    <polyline class="cls-1" points=".19 10.59 4.19 5.71 10.41 6.73 12.63 12.63"/>
    <polyline class="cls-1" points=".07 11.57 3.67 6.39 9.95 6.92 12.63 12.63"/>
    <polyline class="cls-1" points=".02 12.55 3.21 7.11 9.52 7.15 12.63 12.63"/>
    <polyline class="cls-1" points=".05 13.54 2.81 7.87 9.1 7.41 12.63 12.63"/>
    <polyline class="cls-1" points=".16 14.52 2.46 8.65 8.7 7.71 12.63 12.63"/>
    <polyline class="cls-1" points=".35 15.49 2.18 9.46 8.32 8.03 12.63 12.63"/>
    <polyline class="cls-1" points=".61 16.44 1.97 10.29 7.98 8.38 12.63 12.63"/>
    <polyline class="cls-1" points=".95 17.37 1.82 11.13 7.66 8.76 12.63 12.63"/>
    <polyline class="cls-1" points="1.35 18.27 1.73 11.98 7.37 9.16 12.63 12.63"/>
    <polyline class="cls-1" points="1.83 19.14 1.71 12.83 7.12 9.58 12.63 12.63"/>
    <polyline class="cls-1" points="2.37 19.96 1.76 13.69 6.89 10.02 12.63 12.63"/>
    <polyline class="cls-1" points="2.98 20.75 1.88 14.54 6.71 10.48 12.63 12.63"/>
    <polyline class="cls-1" points="3.64 21.48 2.06 15.37 6.56 10.95 12.63 12.63"/>
    <polyline class="cls-1" points="4.36 22.15 2.31 16.19 6.44 11.43 12.63 12.63"/>
    <polyline class="cls-1" points="5.13 22.77 2.62 16.99 6.37 11.92 12.63 12.63"/>
    <polyline class="cls-1" points="5.95 23.33 2.99 17.76 6.33 12.41 12.63 12.63"/>
    <polyline class="cls-1" points="6.8 23.82 3.42 18.5 6.33 12.91 12.63 12.63"/>
    <polyline class="cls-1" points="7.7 24.24 3.91 19.2 6.37 13.4 12.63 12.63"/>
    <polyline class="cls-1" points="8.62 24.59 4.45 19.86 6.45 13.89 12.63 12.63"/>
    <polyline class="cls-1" points="9.57 24.87 5.04 20.48 6.57 14.37 12.63 12.63"/>
    <polyline class="cls-1" points="10.54 25.07 5.68 21.05 6.72 14.83 12.63 12.63"/>
    <polyline class="cls-1" points="11.6 25.2 6.42 21.61 6.93 15.33 12.63 12.63"/>
    <text class="cls-2" transform="translate(34.15 15.91)"><tspan class="cls-11" x="0" y="0">A</tspan><tspan class="cls-6" x="9.08" y="0">S</tspan><tspan class="cls-5" x="16.85" y="0">A </tspan><tspan class="cls-4" x="31.35" y="0">N</tspan><tspan class="cls-5" x="41.33" y="0">ISI </tspan><tspan class="cls-7" x="66.49" y="0">M</tspan><tspan class="cls-8" x="77.98" y="0">A</tspan><tspan class="cls-3" x="87.28" y="0">S</tspan><tspan class="cls-5" x="95.27" y="0">A FI</tspan><tspan class="cls-9" x="124.36" y="0">L</tspan><tspan class="cls-10" x="132.36" y="0">M</tspan><tspan class="cls-5" x="143.64" y="0">S</tspan></text>
  </g>
</svg>