<?xml version="1.0" encoding="UTF-8"?>
<svg id="Layer_2" xmlns="http://www.w3.org/2000/svg" viewBox="0 0 549.78 400.86">
  <defs>
    <style>
      .cls-1 {
        fill: #231f20;
      }
    </style>
  </defs>
  <g id="Layer_1-2" data-name="Layer_1">
    <g>
      <path class="cls-1" d="M549.78,242.22c-1.81,4.26-1.29,8.99-2.85,13.38-1.5,4.25-4.28,6.52-8.39,6.41-4.1-.11-7.55-2.03-9.09-6.38-2.52-7.1-2.56-7.05-8.75-2.99-3.33,2.18-6.72,4.26-10.14,6.29-1.38.82-3.07,3.16-4.44.94-1-1.62-.85-4.2,1.58-5.63,4.86-2.86,9.7-5.75,14.46-8.76,1.88-1.19,5.36-2.01,4.93-4.18-.57-2.9-4.06-1.87-6.44-2.07-2.8-.24-5.47-1.3-8.36-1.04-2.18.19-3.39-.96-3.46-3.25-.09-2.8,1.83-2.84,3.71-2.65,6.57.69,13.18,1.22,19.68,2.34,5.84,1.01,11.87.76,17.58,2.61v4.98ZM529.81,244.48c-.12,7.01,3.59,11.55,8.7,11.68,4.94.13,7.81-3.35,7.39-11.56-.25-4.9-5.44-2.7-8.52-3.39-.64-.14-1.36-.06-1.95-.3-4.72-1.9-5.45,1-5.62,3.56Z"/>
      <path class="cls-1" d="M0,399.69c4.18-5.68,8.4-11.32,12.52-17.04,1.79-2.48,2.85-5.55,6.25-7.53.04,9.77,3.79,17.75,10.19,25.57H0c0-.33,0-.66,0-1Z"/>
      <path class="cls-1" d="M96.02,182.24c5.15,11.46,9.95,22.11,14.72,32.77,8.27,18.49,16.58,36.96,24.77,55.48,8.14,18.38,15.97,36.9,24.28,55.2,10.49,23.09,19.65,46.78,31.72,69.15,3.2,5.92,3.33,5.85-3.77,5.85-16.16,0-32.31.04-48.47-.07-1.46,0-4.72,1.41-3.57-2.57,3.27-11.37-.11-21.87-4.29-32.22-5.81-14.41-11.82-28.75-17.62-43.17-1.2-2.98-3.1-3.77-6.15-3.75-20.82.11-41.64.1-62.46-.04-1.51-.01-4.8,1.64-4.49-1.67.22-2.34.91-5.37,5.13-5.32,18.99.23,37.98.1,56.96.1,6.71,0,6.68,0,4.15-6.04-9.7-23.18-19.28-46.4-29.14-69.51-1.7-3.98-1.92-7.31-.01-11.28,6.61-13.7,10.89-28.39,18.24-42.92Z"/>
      <path class="cls-1" d="M341.54,400.69c-13.18,0-25.79,0-38.4,0-5.66,0-11.32,0-16.99,0-1.83,0-3.36,0-2.52-2.72,4.13-13.41-1.25-25.42-6.03-37.38-4.77-11.96-10.14-23.67-15.11-35.55-5.99-14.32-11.81-28.7-17.74-43.04-6.57-15.87-13.13-31.74-19.81-47.57-.74-1.74-.46-3.03.15-4.66,5.61-15.04,11.97-29.77,18.83-45.98,32.75,72.76,65.06,144.55,97.62,216.9Z"/>
      <path class="cls-1" d="M396.5,220.6c1.26-11.05.41-20.54-5.91-28.58-6.07-7.73-13.66-13.34-23.62-15.57,16.03,0,32.05,0,48.08,0,1.87,0,2.95.45,1.94,2.63-3.54,7.63-6.75,15.43-10.64,22.88-2.37,4.55-4.3,9.28-6.5,13.9-.62,1.31-.95,2.74-3.36,4.75Z"/>
      <path class="cls-1" d="M497.88,94.68c-8.46,2.71-16.91,5.42-25.37,8.15-1.73.56-3.42,1.32-5.18,1.74-1.4.34-2.55-.28-3.35-1.59-.83-1.36-.43-2.26.48-3.51,7.13-9.73,14.12-19.56,21.19-29.34.85-1.17,1.34-3.85,3.41-2.16,1.27,1.04,3.13,2.61.93,5.34-6.11,7.58-11.74,15.54-17.53,23.38-.47.64-.73,1.44-1.33,2.67,5.21.59,9.02-2.53,13.33-3.53,5.8-1.34,11.44-3.41,17.14-5.17,1.54-.47,3.19-1.63,4.54.16,1.37,1.82-.22,2.94-1.17,4.29-5.97,8.5-11.86,17.05-18.66,26.86,8.67-2.88,15.96-5.27,23.23-7.73,2.81-.95,5.58-2.05,8.36-3.09,1.71-.64,3.51-.89,4.08,1.28.62,2.36-1.51,1.86-2.85,2.27-9.63,3.01-19.22,6.18-28.88,9.13-3.09.94-6.84,4.16-9.4,1.19-3.04-3.52,1.67-6.2,3.36-8.81,4.54-7.01,9.69-13.63,14.59-20.4-.31-.37-.62-.74-.94-1.12Z"/>
      <path class="cls-1" d="M213.83,42.92c1.58,11.33,3.05,21.81,4.64,33.21-9.97-5-19.24-9.64-28.51-14.29-.27.22-.55.45-.82.67,2.87,5.18,5.68,10.41,8.65,15.54,1.4,2.42,3.1,4.68,4.73,6.97,1.14,1.6.65,2.57-.89,3.58-1.45.96-2.09.34-2.7-.85-5.95-11.36-11.89-22.72-18.57-35.47,12.28,4.51,22.01,11.24,33.67,15.1-.9-6.79-1.76-13.11-2.58-19.43-.53-4.08-1.09-8.16-1.49-12.26-.1-1.06-.56-2.53.73-3.15,1.36-.66,2.12.7,2.8,1.51,7.39,8.74,15.15,17.13,23.28,25.19,1.01,1,3.19,2.09.62,3.83-1.62,1.09-2.82,2.66-4.92.14-5.28-6.36-10.92-12.44-16.43-18.61-.4-.45-.98-.75-2.22-1.68Z"/>
      <path class="cls-1" d="M524.28,199.36c-12.55-.02-22.09-10.14-22.42-23.76-.28-11.5,10-21.12,22.52-21.09,11.78.03,21.37,10.93,21.42,24.14.04,11.76-7.84,21.04-21.52,20.71ZM524.26,193.38c3.31.84,6.68-.86,9.95-2.37,6.99-3.22,9.74-9.37,8.56-18.31-.62-4.73-6.04-9.77-11.71-11.36-7.52-2.12-14.05.13-20.21,4.13-4.07,2.65-6.77,9.75-5.74,14.43,2,9.1,8.04,13.47,19.15,13.47Z"/>
      <path class="cls-1" d="M355.34,42.4c-4.31,1.27-7.07.18-9.26-3.59-2.91-4.99-6.32-9.68-9.58-14.47-.83-1.21-1.79-2.7-3.57-2.03-1.61.61-1.15,2.31-1.01,3.51.49,4.36-1.27,8.49-1.13,12.82.08,2.48-1.94,2.23-3.6,2.2-2.09-.04-2.31-1.32-2.13-3.06.96-9.02,1.63-18.06,1.85-27.14.07-2.78.7-5.55.98-8.33.14-1.37.71-2.17,2.12-2.24,5.99-.3,11.91.25,17.67,1.9,3.99,1.15,6.2,4.21,6,8.16-.23,4.54-2.4,8.79-7.18,9.63-6.55,1.15-4.64,3.71-2.1,7.15,3.7,5.03,7.22,10.19,10.94,15.48ZM336.79,18.97c.93,0,1.43,0,1.92,0,4.72-.08,9.16-4.21,9.14-8.5-.02-4.7-3.67-7.04-9.77-7.55-7.12-.59-4.9,4.29-5.19,7.79-.11,1.31.22,2.7-.06,3.96-.86,3.91.87,4.97,3.97,4.3Z"/>
      <path class="cls-1" d="M515.16,303.21c1.55,9.6,8.17,17.41,7.91,26.94-.55.17-1.1.35-1.65.52-2.19-6.06-4.69-12.02-6.44-18.2-1.03-3.62-2.05-5.14-6.09-3.73-6.23,2.17-12.63,3.85-18.98,5.67-1.63.47-4.11,1.63-4.5-.75-.28-1.68.84-4.01,3.52-4.7,6.88-1.75,13.69-3.76,20.5-5.74,1.01-.29,2.74.29,2.84-1.32.1-1.75-1.77-1.56-2.87-2.16-3.93-2.12-8.34-3.2-12.05-5.83-1.38-.98-2.34-1.52-1.35-3.4.88-1.68,1.7-2.01,3.46-1.19,10.78,5.01,21.6,9.91,32.41,14.86,1.62.74,2.33,1.93,1.41,3.58-.81,1.47-1.9,1.82-3.72,1.2-4.78-1.62-8.98-4.78-14.41-5.75Z"/>
      <path class="cls-1" d="M165.15,110.22c-1.1-.48-1.63.74-2.48,1.85-7.2,9.45-7.09,9.35-.76,19.18,1.33,2.06,6.02,4.64,2.04,7.13-2.64,1.65-3.35-3.03-4.67-4.98-6.22-9.18-12.28-18.46-18.3-27.77-.81-1.26-2.89-2.56-1.42-4.29,1.13-1.34,3.19-.81,4.76-.55,7.98,1.29,15.94,2.72,23.91,4.12,3.74.66,7.54,1.12,11.15,2.2,1.32.39,4.6-.55,3.83,2.3-.62,2.28-2.01,4.77-5.82,3.4-3.69-1.33-7.72-1.69-12.23-2.6ZM145.61,106.96c1.45,2.26,2.38,3.77,3.37,5.24,4.96,7.38,4.87,7.31,10.14-.1,1.61-2.26,1.49-3.08-1.26-3.43-3.72-.48-7.44-1.03-12.25-1.71Z"/>
      <path class="cls-1" d="M261.92,47.97c2.03-12.9,4.03-25.58,6.02-38.26.16-1.04.51-2,1.6-2.27,1.4-.34,2.08.81,2.8,1.67,3.6,4.31,6.87,8.89,10.27,13.34,4.2,5.52,8.78,10.75,12.78,16.41.76,1.08,3.7,2.3,1.24,3.68-1.58.88-4.45,2.8-6.44-.65-1.89-3.28-4.41-6.19-6.48-9.38-1.21-1.86-2.6-2.36-4.59-1.52-.61.26-1.24.49-1.88.66q-11.08,3.02-11.35,14.61c-.01.5,0,1,0,1.49-.03,1.69,0,3.76-2.21,3.78-2.7.03-1.4-2.41-1.76-3.57ZM270.32,15.61c-.61,3.32-1.64,5.64-1.26,7.71.45,2.47-3.22,5.57.21,6.94,2.03.81,5.06-.81,7.62-1.45,2.49-.62,2.73-1.63.9-3.64-2.43-2.66-4.47-5.68-7.46-9.56Z"/>
      <path class="cls-1" d="M420.22,58.38c1.85,2.78,1.38,6.44,4.27,8.69,3.5,2.72,8.06,2.99,11.29.09,3.01-2.7,3.46-7.23,1.07-10.75-1.57-2.32-3.47-4.49-4.62-7-2.59-5.62-1.97-9.64,2.31-13.45,3.67-3.27,8.14-3.16,12.54-1.37,1.83.75,3.57,1.67,5.06,3.09,4.2,4.03,4.18,4.92-.84,8.62-1.06-1.88-.01-4.21-1.5-5.97-2.59-3.07-7.35-4.47-10.2-2.61-3.03,1.98-3.85,6.42-1.71,10.21,1.62,2.88,3.31,5.73,5.22,8.42,2.42,3.41,1.63,6.53-.4,9.65-2.72,4.18-6.75,7.07-11.55,6.55-5.39-.58-10.57-2.76-13.51-8.1-1.72-3.12.31-4.47,2.57-6.07Z"/>
      <path class="cls-1" d="M473.99,341.4c-2.23.5-4.55.76-6.68,1.54-4.47,1.64-6.56,6.01-5.2,10.34,1.35,4.31,5.69,6.6,10.39,5.09,2.96-.95,5.7-2.59,8.61-3.72,4.51-1.76,8.51-.72,11.75,2.79,3.09,3.34,3.71,7.22,2.04,11.49-1.78,4.57-4.74,8.17-9.56,9.33-2.57.62-3.29-1.98-4.04-4,2.49-1.08,4.96.16,7.05-1.51,3.09-2.47,4.57-5.6,3.07-9.14-1.59-3.73-5.18-4.16-8.93-3.57-3.68.59-6.6,2.92-10,4.18-7.53,2.79-14.25-4.09-14.12-12.03.09-5.53,3.44-9.95,8.08-13.06,3.53-2.36,5.93-1.54,7.55,2.25Z"/>
      <path class="cls-1" d="M386.18,51.44c-1.54-.71-3.91-.52-2.9-3.48,3.86-11.26,7.66-22.54,11.36-33.85.72-2.19,2.15-2.33,3.86-2.01,2.72.51,1.64,2.46,1.17,3.89-3.61,10.99-7.28,21.97-10.99,32.93-.39,1.14-.64,2.72-2.49,2.52Z"/>
    </g>
  </g>
</svg>