<?xml version="1.0" encoding="UTF-8"?>
<svg id="Layer_2" xmlns="http://www.w3.org/2000/svg" viewBox="0 0 1545.77 797.47">
  <g id="Layer_1-2" data-name="Layer_1">
    <g>
      <path d="M663.67,494.85c.69.83,1.21,1.99,2.09,2.45,4.22,2.15,6.65,5.01,4.03,10.73,5.17-1.09,9.56-1.84,13.82-3.04,1-.28,1.98-1.99,2.24-3.2.49-2.25.44-4.63.65-6.95.32-3.58,2.16-5.77,5.74-6.57,6.38-1.42,12.85-3.24,18.71,1.21,2.45,1.86,4.36,4.43,6.51,6.67-.23.5-.46,1-.69,1.5,3.83-.78,7.67-1.48,11.46-2.42.73-.18,1.37-1.23,1.8-2.02.28-.53,0-1.33.16-1.97,1.11-4.55-1.07-10.82,5.54-12.64,7.86-2.17,15.89-3.27,22.59,3.09,1.44,1.36,2.04,3.61,3.4,6.14,3.67-.78,7.98-1.7,11.43-2.44,1.62-5.61,1.77-11.74,4.89-15.18,2.52-2.79,8.57-2.88,13.13-3.2,6.89-.48,12.71,4.41,14.32,11.3,4.33-.98,8.67-1.96,12.86-2.91,2.68-17.19,3.34-17.93,16.15-18.32,8.07-.25,13.66,3.88,15.19,11.46,3.56-.73,7.17-1.28,10.65-2.29,1.08-.31,1.86-1.83,2.65-2.89.25-.34.05-.98.15-1.47,1.01-4.61-1.13-10.86,5.18-12.9,7.76-2.51,15.83-3.72,22.55,2.69,1.7,1.62,2.33,4.37,3.73,7.17,3.5-.71,7.85-1.6,12.04-2.45,2.71-5.5-1.74-13.44,4.87-16.53,4.69-2.19,10.73-2.56,16.03-2.11,7.23.62,10.78,5.83,9.72,12.52,4.01-.69,7.95-1.16,11.74-2.16,1.14-.3,2.23-1.99,2.69-3.28.49-1.34.17-2.96.25-4.46.26-4.82-.11-9.93,6.11-11.71,9.66-2.76,19.84-1.03,22.88,4.76,1.18,2.26.19,5.66.19,8.91,3.84-.64,9.02-1.39,14.13-2.49.8-.17,1.57-1.84,1.82-2.94.61-2.75.83-5.59,1.37-8.37,1.35-7.04,2.54-8.09,9.82-8.83,5.56-.56,10.9-.45,15.63,3.38,3.74,3.02,6.45,6.03,2.41,11.74,6.23-.96,11.4-1.76,16.55-2.55,1.01-4.99,1.68-9.91,3.12-14.6.65-2.11,2.56-5.03,4.35-5.39,6.83-1.39,13.85-2.26,19.97,2.79,5.37,4.43,5.84,5.78,3.09,12.64,5.31-.77,10.34-1.51,14.73-2.15,3.31-6.54-.84-15.63,7.75-18.81,8.66-3.21,18.95-.67,22.82,5.38,1.43,2.23.65,5.86.9,9.09-.23,0,.77.11,1.74-.02,3.76-.51,7.52-1.11,11.19-1.66.55-4.46,1.05-8.57,1.58-12.68.51-3.93,2.61-6.82,6.64-6.88,5.37-.08,11.33-.74,16,1.26,8.66,3.7,8.89,6.96,3.08,15.01,6.31-.74,12.37-1.45,18.47-2.17.84-4.51,1.6-8.74,2.41-12.96.68-3.56,2.83-5.44,6.47-5.83,5.97-.65,11.89-1.65,17.32,2.27,6.13,4.43,6.71,6.02,3.58,13.19,4.2-.43,8.17-.69,12.08-1.33.95-.15,2.09-1.39,2.45-2.38.79-2.17,1.04-4.53,1.68-6.76,2.38-8.27,3.65-9.6,9.19-9.79,10.4-.36,18.76,3.42,20.75,9.71.56,1.75.08,3.83.08,6.01,3.49-.27,7.3-.43,11.05-.97.97-.14,1.94-1.35,2.58-2.29.53-.78.5-1.91.81-2.86,1.49-4.49.53-10.83,7.22-11.73,8.27-1.11,16.59-1.07,22.09,6.78,1.26,1.8,1.18,4.53,1.83,7.35,3.96-.33,8.56-.71,12.14-1,2.91-5.99,4.35-12.73,8.51-16.27,2.87-2.44,9.61-1.09,14.43-.27,6.73,1.15,11.32,8.11,10.09,14.53,4.69-.31,9.25-.61,13.68-.91,6.39-18.86,8.54-20.46,22.05-16.68,7.28,2.03,11.53,8.36,10.11,15.05,12.18,1.24,12.75.74,16.88-8.9,1.48-3.45,3.69-8.38,6.49-9.12,6.01-1.59,12.72-.83,17.97,3.51,4.02,3.33,7.89,7.07,4.33,13.4h13.84c1.63-4.7,2.73-9.49,4.97-13.67,1.16-2.17,4.27-4.41,6.65-4.59,6.3-.47,12.7,0,17.59,5.13,5.2,5.46,5.41,7.33.86,13.43h16.88c1.88-4.53,3.36-9.35,5.84-13.58,1.2-2.04,4.28-4.15,6.51-4.15,4.22,0,8.51,1.25,12.63,2.46,4,1.18,7.77,3.14,11.74,4.45,9.19,3.04,12.5,8.08,11.5,17.68-.74,7.12-1.3,14.26-2.01,21.39-.69,6.93-3.12,9.23-9.94,8.89-5.47-.28-10.91-1.23-16.38-1.54-4.23-.24-8.56.55-12.72,0-8.81-1.18-9.45-2.24-8.79-10.92.44-5.78.91-11.55,1.42-17.9h-23.18c-.68,6.73-1.41,13.63-2.06,20.54-.61,6.51-2.21,7.97-8.84,7.91-.67,0-1.33,0-2-.04-9.85-.51-11.43-2.39-10.69-12.33.27-3.65.31-7.32.41-10.98.05-1.65,0-3.29,0-5.27h-22.63c-.81,7.42-1.62,14.5-2.36,21.58-.7,6.68-2.56,8.31-9.29,8.05-.83-.03-1.67-.05-2.5-.13-9.02-.84-10.23-2.18-9.88-11.15.23-5.77.56-11.54.85-17.29-6.97,0-13.41-.16-19.83.16-1.05.05-2.75,2.13-2.86,3.4-.62,6.63-.73,13.3-1.2,19.94-.44,6.11-1.95,7.39-8.14,7.49-12.54.21-13.43-.64-13.43-12.98,0-5.31,0-10.62,0-16.73-7.82.39-14.89.75-23.29,1.18,0,5.96.03,11.7-.01,17.45-.02,2.5-.15,4.99-.29,7.49-.05.99.04,2.15-.44,2.93-3.77,6.23-9.82,3.14-14.98,3.4-3.8.19-5.71-2.18-5.88-5.96-.34-7.63-.7-15.26-1.09-23.62-7.38.51-14.59,1-21.75,1.5,0,7.39,0,14.5,0,21.62,0,3.63.89,8.61-3.29,9.56-5.09,1.15-10.73.54-15.99-.22-1.14-.17-2.17-4.2-2.44-6.55-.86-7.26-1.33-14.57-1.99-22.4-7.4.67-14.48,1.31-22.84,2.06,0,6.77.05,13.52-.02,20.28-.04,3.77.82,8.94-3.71,9.85-4.97,1-10.46.1-15.58-.81-1.11-.2-2.08-3.91-2.27-6.07-.57-6.75-.72-13.54-1.06-20.92-6.64.64-12.86,1.23-19.89,1.91.51,6.77.9,13.33,1.53,19.87.8,8.33-.43,10.01-8.65,11-1.65.2-3.3.45-4.96.55-4.58.26-7.12-1.79-7.73-6.49-.94-7.24-2.13-14.45-3.31-22.28-7.55.89-14.88,1.75-22.63,2.66.79,7.05,1.48,13.63,2.28,20.2.78,6.37-.6,8.34-7,9.57-.16.03-.32.08-.49.11-11.22,2.07-12.72,1.05-14.68-9.99-.98-5.52-2.01-11.03-3.09-16.98-7.1.91-13.66,1.75-20.92,2.68.63,6.88,1.29,13.58,1.84,20.29.28,3.43,1.44,8.03-2.7,9.18-4.92,1.37-10.34,1.2-15.52,1.04-.99-.03-2.39-3.01-2.75-4.79-1.46-7.31-2.59-14.68-3.92-22.45-6.97.93-13.57,1.63-20.07,2.86-1.19.23-2.8,2.6-2.81,3.99-.06,6.15.52,12.3.62,18.45.09,5.48-1.92,7.56-7.26,8.08-.33.03-.67.03-1,.05-11.92.74-12.56.18-13.76-11.71-.48-4.78-1.03-9.56-1.62-15.03-7.78,1.21-15.24,2.36-23.15,3.59.64,7.31,1.37,14.22,1.83,21.15.51,7.83-.92,9.37-8.66,10.1-1,.09-1.99.24-2.98.3-7.43.44-8.75-.54-9.95-7.8-1.06-6.39-1.97-12.8-3.06-19.92-7.45,1.27-14.56,2.47-22.15,3.76,1.29,6.65,2.62,12.8,3.61,19,.56,3.49,2.39,8.28-1.69,9.98-4.68,1.95-10.16,2.32-15.33,2.52-1.15.05-2.97-3.28-3.57-5.32-2.08-6.99-3.77-14.11-5.8-21.95-7.07,1.27-14,2.52-21.76,3.91,1.26,6.94,2.4,13.57,3.68,20.17,1.92,9.92-6.36,16.98-16.18,13.42-1.76-.64-3.46-3.08-4.05-5.03-2.34-7.77-4.24-15.68-6.4-23.91-7.24,1.5-14.18,2.95-21.61,4.49,1.48,7.83,2.85,15.31,4.31,22.77,1.42,7.26.26,9.07-7.13,10.81-.81.19-1.6.48-2.42.63-8.29,1.56-9.8.58-11.91-7.6-1.82-7.05-3.69-14.09-5.66-21.61-7.23,1.57-14.15,3.08-21.52,4.68,1.54,8.35,3.06,16.32,4.47,24.31,1.01,5.77-.46,7.92-6.1,9.32-.97.24-1.94.48-2.92.68-8.83,1.84-10.53.82-12.74-7.75-1.82-7.05-3.6-14.11-5.5-21.58-7.34,1.61-14.25,3.13-21.62,4.75,1.46,7.59,2.91,14.72,4.16,21.89.62,3.52,2.37,8.33-1.62,9.97-4.84,1.98-10.49,2.18-15.83,2.52-.91.06-2.45-2.93-2.96-4.71-2.27-7.98-4.27-16.04-6.52-24.64-7.18,1.57-14.21,3.1-21.58,4.71,1.55,8.17,2.99,15.82,4.46,23.47,1.35,7,0,9.16-6.75,10.68-.97.22-1.93.49-2.91.69-7.89,1.65-9.75.48-11.73-7.24-1.89-7.38-3.83-14.76-5.86-22.58-7.19,1.58-14.1,3.09-21.53,4.72,1.56,8.35,3.07,16.32,4.53,24.29,1.15,6.29-.34,8.56-6.46,10.01-11.85,2.81-12.7,2.29-15.76-9.52-1.66-6.41-3.35-12.81-5.16-19.73-7.21,1.58-14.13,3.09-21.69,4.74,1.49,6.83,3.27,13.36,4.23,20.02.48,3.34.54,9.17-1.07,9.93-4.72,2.23-10.35,2.77-15.69,3.24-1.01.09-2.79-3.06-3.4-4.97-2.37-7.42-4.42-14.95-6.78-23.13-8.52,1.84-16.89,3.65-25.92,5.6,1.29,7.03,2.49,13.84,3.8,20.63,1.58,8.23.6,9.76-7.81,11.61-1.62.36-3.28.55-4.91.86-4.46.83-6.9-1.14-7.96-5.43-1.83-7.4-3.81-14.77-5.84-22.58-6.88,1.49-13.47,2.93-20.7,4.5,1.44,7.01,2.78,13.77,4.23,20.52,1.83,8.54.83,10.24-7.58,12.29-1.78.43-3.58.79-5.39,1-5.29.62-7.74-.99-9.13-6.19-1.93-7.21-3.7-14.47-5.7-22.35-7.23,1.58-14.26,3.12-21.76,4.76,1.39,7.24,2.78,14.06,3.99,20.9.59,3.38,2.05,7.97-1.92,9.4-4.93,1.78-10.51,1.99-15.83,2.24-.91.04-2.36-2.98-2.88-4.78-2.1-7.34-3.94-14.75-6.03-22.72-7.63,1.67-15.01,3.28-22.84,4.99,1.46,7.77,2.83,15.09,4.2,22.41,1.17,6.27-.27,8.46-6.55,9.9-.49.11-.98.18-1.47.29-10.22,2.3-11.27,1.67-13.95-8.34-.34-1.25-.72-2.49-1.65-3.68-.6,9.92-1.06,19.86-1.85,29.76-.88,10.95-1.91,21.9-3.16,32.82-1.02,8.88-7.88,15-19.6,17.18,2.52-1.35,3.96-2.17,5.45-2.92,7.67-3.86,11.35-9.73,11.77-18.65.74-15.67,2.88-31.28,3.81-46.95.54-9.07.19-18.17-2.61-27.11-4.97-15.83-9.23-31.88-14.21-47.71-1.37-4.34-3.75-8.61-6.57-12.21-12.38-15.8-25.1-31.34-37.71-46.96-.13-.16-.51-.11-1.85-.38,4.06,5.35,7.63,10.04,11.18,14.74,9.41,12.47,19.04,24.79,28.09,37.53,3.1,4.37,5.33,9.61,6.91,14.77,4.14,13.51,7.33,27.32,11.6,40.79,3.51,11.05,2.42,22.1,1.48,33.17-1.22,14.43-3.04,28.81-4.56,43.21-.91,8.58-8.08,15.9-18.14,17.2-7.88,1.02-15.94,1.68-23.86,1.27-16.17-.84-32.33-2.21-48.43-3.97-8.56-.94-16.94-3.4-25.48-4.67-4.2-.62-8.57-.11-12.96-1.04,3.14-.6,6.28-1.19,9.42-1.79-.08-.39-.17-.77-.25-1.16-7.92,1.7-15.84,3.41-24.52,5.27,11.09-6.4,21.41-12.81,32.2-18.31,3.26-1.66,7.81-.78,11.77-1.05,5.14-.35,10.38-.16,15.4-1.12,9.17-1.74,12.47-7.63,12.55-16.85.03-3.49,1.57-7.01-.12-10.55-2.03-4.28-3.98-8.61-6.27-12.74-.51-.92-2.31-1.13-3.5-1.67,3.17,6.2,5.95,11.64,8.73,17.08-.59.32-1.18.64-1.78.95-2.54-4.56-5.23-9.04-7.55-13.71-1.45-2.92-3.15-3.54-6.14-1.63.49,1.14.9,2.34,1.51,3.44,2.72,4.96,5.62,9.83,8.23,14.85,4.49,8.62,1.6,14.92-8.03,16.31-6.39.92-12.98.32-19.43.92-3.51.33-7.31,1.06-10.3,2.78-85.46,49.08-170.86,98.28-256.18,147.59-7.8,4.51-15.24,5.67-22.84.35-2.25-1.57-4.42-3.69-5.77-6.04-13.79-24.13-27.43-48.35-41.06-72.57-7.53-13.4-5.39-21.49,8.11-28.76,35.45-19.1,71.07-37.89,106.51-57.01,36.76-19.83,73.38-39.94,110.08-59.88,12.57-6.83,24.89-14.27,37.93-20.08,12.58-5.61,20.28-16.43,30.12-24.95,7.52-6.51,12.15-6.17,17.19,2.74,7.12,12.61,13.85,25.43,20.75,38.16.79,1.45,1.61,2.89,2.61,4.66,1.43-.51,2.75-.99,4.56-1.64-9.07-16.73-17.93-33.08-26.79-49.43l.27-.51c2.45,2.65,5.49,4.97,7.25,8.02,5.08,8.78,9.66,17.85,14.43,26.81,2.03,3.82,3.94,7.7,6.13,11.43.6,1.02,2,1.57,3.03,2.33.32-.34.63-.67.95-1.01-7.72-14.23-15.16-28.63-23.34-42.59-2.37-4.04-6.89-6.81-10.81-10.53,6.09-5.51,13.01-11.77,19.92-18.03l-1.24-1.63c-3.01,2.19-6.31,4.07-8.95,6.63-4.07,3.95-7.5,8.55-11.57,12.5-1.58,1.53-4.17,2.01-6.3,2.97-.25-.39-.49-.78-.74-1.18.64-.81,1.19-1.72,1.95-2.41,6.58-6.05,12.96-12.36,19.92-17.92,2.68-2.14,6.11-5.73,10.02-2.61,9.58-6.52,18.97-13.01,28.51-19.3,1.5-.99,3.81-.68,5.44-1.55,2.22-1.17,4.02-3.14,6.23-4.33,7.73-4.16,17.98-1.69,23.29,5.42,6.78,9.08,13.56,18.15,20.35,27.21,3.69,4.93,6.63,10.8,11.27,14.59,8.83,7.2,9.91,17.47,12.82,27.08,1.11,3.65,2.31,5.31,6.55,3.88,5.46-1.84,11.19-2.89,17.18-4.37-1.47-7.61-2.96-14.75-4.18-21.93-.57-3.32-2.32-7.82,1.64-9.47,4.72-1.97,10.11-2.62,15.27-3,1.11-.08,3.02,3.27,3.65,5.32,2.27,7.46,4.15,15.04,6.39,23.37,7.23-1.76,14.23-3.46,21.62-5.27-1.59-7.67-2.99-14.98-4.65-22.23-1.09-4.76.36-7.8,5.14-9.12.48-.13.92-.4,1.4-.54,10.99-3.31,12.78-2.3,15.8,8.76,1.53,5.6,3.07,11.19,4.8,17.47,7.28-1.8,14.27-3.52,21.58-5.33-1.57-7.63-3.08-14.76-4.48-21.91-1.13-5.77-.12-7.41,5.42-9.32.79-.27,1.58-.54,2.38-.75,9.92-2.61,11.35-1.81,14.13,8.04,1.58,5.6,3.1,11.22,4.67,16.83.08.29.39.52,1.02,1.32,6.76-1.66,13.79-3.4,21.33-5.25-1.67-6.77-3.22-13.18-4.84-19.57-2.04-8.04-1.21-9.66,6.43-12.17,1.58-.52,3.19-.97,4.8-1.37,4.47-1.1,7.44.49,8.87,4.93,2.34,7.27,4.74,14.53,7.34,22.48,8.46-2.06,16.75-4.08,25.41-6.19-1.7-8.4-3.15-16.39-4.99-24.29-1.14-4.9.54-7.7,5.21-9.04.64-.18,1.25-.48,1.89-.66,10.48-3.03,12.22-2.04,15.12,8.57,1.75,6.39,3.51,12.77,5.41,19.71,7.28-1.78,14.15-3.46,21.42-5.24-1.67-8.33-3.09-16.32-4.93-24.2-1.17-5.02.88-7.6,5.37-8.97.8-.24,1.59-.51,2.39-.72,10.16-2.75,11.59-1.9,14.36,8.34,1.73,6.4,3.51,12.79,5.45,19.87,7.28-1.8,14.25-3.52,21.53-5.32-1.59-7.53-3.07-14.5-4.53-21.47-1.74-8.26-.74-9.87,7.41-12.05,1.29-.34,2.57-.68,3.88-.96,5.39-1.12,7.75.19,9.29,5.47,2.22,7.63,4.28,15.31,6.52,23.38,7.28-1.8,14.17-3.5,21.47-5.3-1.5-7.26-3.25-14.16-4.23-21.18-.44-3.14-.31-8.65,1.25-9.36,4.76-2.17,10.32-2.82,15.63-3.33.99-.09,2.78,3.08,3.37,5,2.31,7.45,4.28,15.01,6.55,23.17,7.18-1.75,14.19-3.45,21.55-5.24-1.58-7.48-3.11-14.6-4.59-21.74-1.52-7.3-.42-9.11,6.78-11.2,1.44-.42,2.89-.78,4.36-1.1,5.72-1.23,7.95.01,9.61,5.66,2.15,7.32,4.14,14.68,6.38,22.66,7.23-1.75,14.23-3.44,21.54-5.2-1.61-7.75-3.14-15.06-4.63-22.37-1.27-6.24-.17-8.14,5.77-10.07.63-.21,1.29-.33,1.93-.5,9.94-2.72,11.34-1.93,14.09,7.97,1.73,6.23,3.47,12.45,5.38,19.28,7.29-1.79,14.28-3.51,21.54-5.29-1.62-7.79-3.17-15.1-4.66-22.41-1.2-5.88-.11-7.72,5.67-9.68,1.42-.48,2.87-.86,4.33-1.19,7.33-1.68,9.43-.37,11.46,7.03,1.85,6.71,3.72,13.42,5.71,20.63,7.15-1.76,14.02-3.46,21.5-5.3-1.48-7.31-2.94-14.4-4.35-21.5-1.37-6.89-.37-8.59,6.21-10.6,1.27-.39,2.59-.63,3.88-.94,6.97-1.67,9.09-.49,10.98,6.26,1.93,6.87,3.8,13.76,5.84,21.14,7.48-1.85,14.67-3.62,22.42-5.54-1.23-6.55-2.42-12.86-3.6-19.17-.43-2.29-1.45-4.69-1.07-6.85.37-2.16,1.67-5.01,3.41-5.89,3.18-1.61,6.94-2.23,10.53-2.82,4.64-.76,6.48,2.26,7.5,6.22,1.89,7.4,3.89,14.78,6,22.79,7.15-1.74,14-3.4,21.58-5.25-1.3-6.5-2.63-12.77-3.78-19.07-.67-3.64-2.94-8.39,1.32-10.45,4.86-2.35,10.54-3.28,15.98-3.95,1.18-.14,3.47,3.27,4.13,5.4,2.2,7.12,3.9,14.39,5.92,22.12,6.89-1.68,13.44-3.27,20.56-5-1.37-6.77-2.65-13.24-4-19.69-1.72-8.25-.81-9.78,7.38-12.06,9.9-2.75,11.38-1.91,14.09,7.92,1.63,5.91,3.31,11.81,5.1,18.16,7.35-1.82,14.38-3.56,22-5.45-1.68-6.5-3.61-12.65-4.75-18.94-.57-3.15-.85-8.55.74-9.46,4.39-2.53,9.76-3.7,14.88-4.33,1.32-.16,3.74,3.47,4.6,5.75,2.56,6.82,4.6,13.84,7.02,21.33,6.35-1.56,12.4-3.05,18.9-4.65-1.65-8.12-3.28-15.88-4.78-23.67-1.23-6.36-.27-7.86,5.92-9.84,1.26-.4,2.56-.7,3.85-1.02,7.44-1.83,9.38-.7,11.48,6.75,2.03,7.18,4.03,14.36,6.2,22.09,7.22-1.77,14.08-3.46,21.38-5.26-1.66-8.28-3.07-16.26-4.92-24.14-1.19-5.04.89-7.6,5.39-8.95.64-.19,1.28-.37,1.92-.56,10.47-3.01,11.95-2.18,14.82,8.18,1.69,6.09,3.38,12.18,5.09,18.27.08.3.33.55.84,1.38,6.8-1.67,13.78-3.38,21.04-5.16-1.63-7.72-3.21-14.84-4.64-21.99-1.53-7.7-.52-9.24,7.12-11.39,1.44-.41,2.9-.76,4.36-1.07,5.32-1.13,7.67.2,9.22,5.55,2.17,7.49,4.19,15.02,6.47,23.24,7.24-1.76,14.23-3.46,21.54-5.23-1.6-7.62-3.43-14.7-4.45-21.9-.41-2.93.09-8.15,1.64-8.79,4.83-2,10.34-2.61,15.65-3.02.97-.07,2.63,3.18,3.23,5.12,2.24,7.31,4.18,14.71,6.44,22.85,7.09-1.71,14.09-3.39,21.54-5.19-1.52-7.29-3.26-14.2-4.28-21.2-.44-3-.33-8.28,1.16-8.96,4.77-2.17,10.26-3.02,15.55-3.55,1.07-.11,3.02,3.26,3.66,5.31,2.3,7.27,4.21,14.67,6.46,22.69,7.22-1.77,14.21-3.5,21.54-5.3-1.58-7.55-3.07-14.69-4.56-21.82-1.42-6.79-.38-8.6,6.24-10.61,1.91-.58,3.86-1.01,5.81-1.46,4.56-1.06,7.38.72,8.62,5.23,2.06,7.51,4.2,15.01,6.44,23,7.19-1.74,14.06-3.41,21.49-5.22-1.53-7.51-3.02-14.77-4.5-22.03-1.31-6.41-.17-8.31,6.14-10.24,1.27-.39,2.57-.72,3.86-1.02,7.12-1.69,9.33-.4,11.27,6.62,1.9,6.85,3.77,13.71,5.77,20.97,6.99-1.71,13.55-3.3,20.69-5.05-1.65-6.46-3.22-12.52-4.74-18.6-1.96-7.86-.74-10.17,7.07-12.44,4.62-1.34,9.34-2.42,14.08-3.27,5.71-1.03,8.34.8,9.86,6.47,2.02,7.56,3.98,15.13,5.9,22.71,2.1,8.32-.12,13.58-7.77,17.27-12.45,6-15.09,7.21-23.25-5.81-4.24,1.04-8.57,2.11-12.94,3.18,3.59,6.11,3.5,8.02-1.11,13.86-4.52,5.74-11.16,6.98-17.82,7.35-1.73.09-4.02-2.14-5.31-3.85-2.18-2.9-3.77-6.24-5.85-9.81-4.57,1.09-9.21,2.19-14.34,3.41,4.77,4.47,2.85,8.49-.02,12.57-4.63,6.59-11.58,8.03-18.85,8.21-1.66.04-3.81-1.91-4.98-3.5-2.16-2.91-3.77-6.24-5.86-9.83-4.6,1.14-9.22,2.28-13.93,3.45,3.79,6.05,1.51,13.52-5.43,17.05-3.37,1.71-7.14,2.72-10.83,3.65-3.9.98-6.58-.89-8.65-4.28-5.58-9.15-5.66-9.11-15.87-6.36-.96.26-1.88.63-2.86.95,4,5.53,1.66,11.45-5.77,16.53-3.3,2.25-7.71,3.61-11.7,3.84-2.49.15-6.04-1.94-7.56-4.11-6.27-8.97-6.05-9.13-16.57-6.14-.79.22-1.54.56-2.33.86,2.94,5.98.3,13.34-6.3,16.56-3.54,1.73-7.48,3.27-11.34,3.52-2.4.16-5.87-1.6-7.31-3.61-6.82-9.49-6.63-9.63-17.89-6.04-.3.1-.55.35-.82.54,2.01,5.4,1.21,10.83-4.1,14.27-4.56,2.95-10.29,4.29-15.68,5.63-1.46.36-3.8-1.59-5.29-2.97-1.29-1.19-2.15-2.98-2.85-4.66-1.68-4.05-4.12-5.61-8.5-3.7-2.37,1.04-5.06,1.36-7.62,2.01,1.87,5.96.1,12.34-5.28,15.37-4.23,2.39-9.21,3.83-14.03,4.61-1.9.31-4.99-1.83-6.3-3.71-6.31-9.05-6.16-9.16-16.53-5.54,4.05,5.67,2.04,13.49-4.84,17.35-3.15,1.77-6.69,2.97-10.18,3.98-3.73,1.08-6.83-.13-8.94-3.64-2.05-3.41-4.27-6.71-6.62-10.37-2.66.66-5.37,1.34-8.09,2.01-2.54.63-5.08,1.27-7.96,1.99,6.25,5.13,5.45,12.39-2.17,17.09-3.98,2.45-8.88,3.82-13.54,4.58-1.95.32-4.98-1.73-6.44-3.56-2.56-3.21-4.29-7.08-6.55-10.98-4.45,1.09-8.94,2.18-13.15,3.21,1,2.5,2.92,5.03,2.67,7.31-.28,2.57-2.21,5.18-3.99,7.31-4.6,5.51-11.14,7.11-17.88,7.3-1.79.05-4.13-1.97-5.39-3.65-2.36-3.17-4.12-6.79-6.32-10.56-4.6,1.12-9.2,2.25-13.92,3.4,3.95,6.64,3.89,11.24-2.36,15.73-4.47,3.21-10.49,4.77-16.05,5.69-1.94.32-5.22-3.07-6.76-5.48-5.32-8.36-5.13-8.49-14.68-6.11-1.76.44-3.49.98-5.27,1.48,3.68,6.48,3.79,10.57-2.31,15.11-4.52,3.37-10.74,4.68-16.4,6.12-1.44.37-4.1-1.91-5.38-3.59-2.28-3.03-3.93-6.53-6.07-10.22-4.51,1.11-9.12,2.26-14.38,3.56,5.43,4.98,2.74,9.26-.39,13.43-4.42,5.88-11.11,7.06-17.73,7.69-1.73.17-4.2-1.9-5.48-3.59-2.29-3.01-3.92-6.52-6.02-10.14-4.51,1.1-9,2.2-13.5,3.3,3.27,7.6.49,14.55-7.13,18.1-.45.21-.91.41-1.37.59-11.54,4.55-13.42,3.91-19.5-6.7-.74-1.29-1.48-2.59-2.47-4.33-4.55,1.1-9.17,2.22-14.27,3.45,4.65,4.42,2.51,8.31-.21,12.24-4.59,6.61-11.57,8.24-18.81,8.19-2.05-.01-4.62-2.92-6.01-5.1-5.04-7.85-4.89-7.95-14.08-5.66-1.44.36-2.85.82-4.32,1.25,3.29,6.07.72,13.49-6.18,16.92-3.38,1.68-7.15,2.73-10.85,3.61-3.7.88-6.22-1-8.19-4.22-5.58-9.1-5.66-9.06-15.92-6.28-.8.22-1.56.54-2.34.81,2.22,6.5-.26,13.47-6.45,16.57-3.67,1.84-7.8,3.48-11.8,3.67-2.48.12-5.97-2.06-7.49-4.25-5.81-8.33-5.58-8.5-15.32-6.01-.96.24-1.89.6-2.83.91,2.07,7.07-.99,13.99-7.81,16.99-3.17,1.4-6.6,2.26-9.98,3.09-3.47.85-6.02-.53-8-3.58-6.48-9.96-6.54-9.92-18.22-5.34,4.38,10.02-8.41,20.83-21.72,19.36-2.49-2.93-4.88-5.94-7.44-8.8-.99-1.1-2.52-2.82-3.5-2.63-5.45,1.01-10.81,2.52-15.24,3.61.59,3.02,1.86,5.51,1.36,7.57-2.22,9.11-9.83,12.22-17.22,14.05.36,3.69.65,6.61.96,9.86,5.86-1.31,11.97-2.68,18.49-4.14,0-3.34,0-6.32,0-9.31-.02-5.05,2.15-8.33,7.42-8.89,5.08-.54,10.17-.92,15.26-1.38ZM14.94,691.55c1.43,3.83,2.16,6.76,3.55,9.34,9.91,18.46,19.89,36.87,29.96,55.24,5.11,9.32,11.92,11.91,21.74,8.03,4.92-1.95,9.37-5.07,14.27-7.08,8.04-3.29,14.83-8.69,23.67-11.06,8.46-2.27,15.62-9.14,23.57-13.59,10.97-6.13,19.5-18.26,10.64-32.69-9.28-15.11-17.44-30.93-25.65-46.67-8.11-15.56-18.3-18.97-33.82-10.74-13.5,7.16-26.99,14.35-40.64,21.21-8.15,4.1-15.51,9.18-21.1,16.33-2.74,3.51-4.28,7.97-6.19,11.68ZM443.49,552.04c-1.88-5.3-3.93-12.69-7.11-19.57-2.25-4.86-6.5-5.5-11.46-3.35-1.97.85-4.04,1.49-6.1,2.11-17.13,5.22-34.3,10.32-51.4,15.64-12.98,4.04-25.31,10.31-39.22,11.06-.64.03-1.62.18-1.85.6-2.34,4.33-6.84,3.38-10.51,4.47-13.1,3.86-26.22,7.64-39.24,11.73-8.37,2.63-16.57,5.76-24.85,8.66-3.28,1.15-5.73,2.95-4.82,6.93,1.25,5.44,2.45,10.91,4,16.27,2.05,7.08,8.78,10.51,15.89,8.32,27.02-8.32,53.99-16.79,81.05-24.96,16.79-5.07,33.73-9.66,50.57-14.57,9.86-2.87,19.67-5.93,29.48-8.95,3.01-.93,6.04-1.86,8.96-3.03,4.1-1.64,6.24-4.81,6.63-11.37ZM239.27,661.97c-2.31-5.37-4.78-9.93-6.28-14.79-6.2-20.01-12-40.15-18.23-60.15-1.09-3.5-.31-4.94,2.73-6.57,24.33-13.06,48.57-26.31,72.86-39.45,6.46-3.5,9.42-2.58,12.91,3.91,2.91,5.4,5.71,10.85,8.75,16.62,2.18-.84,4.09-1.59,5.96-2.31-2.77-6.92-5.09-13.5-8.02-19.8-2.05-4.39-5.61-6.82-11-6.04-2.42.35-5-.46-7.6-.75-1.03,3.05-35.05,22.81-44.2,25.08,3.37-2.27,5.92-3.99,8.48-5.71-1.9.02-3.36.69-4.72,1.52-5.96,3.62-11.75,7.55-17.86,10.9-14.69,8.05-29.53,15.84-44.31,23.73-12.06,6.45-14.83,14.15-8.18,26.23,10.41,18.93,21.36,37.56,32.27,56.21,3.51,6,7.49,7.07,14.01,4.53,1.85-.72,3.62-1.7,5.33-2.71,34.67-20.34,69.33-40.7,103.98-61.08,6.4-3.76,7.81-9.17,4.06-15.72-2.43.74-4.92,1.5-8,2.45,3.67,6.23-.21,9.03-4.73,11.68-8.47,4.97-16.86,10.07-25.31,15.07-20.61,12.19-41.23,24.36-62.89,37.15ZM1488.69,245.13c1.23,4.86,2.22,8.71,3.17,12.56.96,3.86,1.83,7.75,2.85,11.6,2.76,10.5,5.76,11.88,15.11,6.26,2.23-1.34,5.16-4.72,4.81-6.61-1.73-9.37-4.46-18.56-6.99-28.41-6.6,1.6-12.5,3.03-18.96,4.59ZM1517.07,425.74c6.54.44,11.97.91,17.41,1.06.84.02,2.39-1.36,2.48-2.22.97-8.59,2.08-17.19,2.23-25.81.04-2.18-2.91-4.9-5.13-6.44-1.58-1.1-5.09-1.63-6.27-.65-2.73,2.26-5.73,5.3-6.53,8.54-1.97,8-2.77,16.28-4.2,25.52ZM1069.05,422.55c-2.12-1.82-3.02-3.25-4.13-3.42-3.85-.61-7.84-1.32-11.62-.81-1.13.15-2.5,4.17-2.47,6.4.15,11.46.72,22.92,1.14,34.19,9.55.68,9.52.68,9.2-7.13-.18-4.31-.14-8.63-.36-12.94-.34-6.67-1.61-13.66,8.22-16.28ZM931.86,446.84c-2.78-1.53-4-2.42-5.36-2.91-6.96-2.46-13.33,1.22-12.45,8.16,1.43,11.23,4.24,22.29,6.56,33.92,3.76-.93,6.38-1.59,9.19-2.29-1.31-6.79-2.43-12.98-3.73-19.14-1.41-6.68-3.69-13.48,5.78-17.75ZM1248.44,402.31c-2.19-1.96-3.17-3.11-4.39-3.88-6.28-3.93-13.23-1.86-13.86,5.17-.98,10.82-.34,21.79-.22,32.7,0,.67,1.44,1.77,2.31,1.9,2.05.28,4.16.09,6.87.09,0-6.99-.05-13.27.01-19.56.06-6.77-.79-14.02,9.27-16.42ZM812,447.79c-10.21.37-10.75-7.39-12.55-14.23-1.58-6.02-3.33-11.99-5.08-18.25-3.2.94-5.69,1.66-8.43,2.46,1.13,5.6,1.84,10.88,3.31,15.95,2.01,6.95,4.48,13.78,7.05,20.55.41,1.07,2.58,2.35,3.67,2.14,4.73-.9,9.6-1.94,12.04-8.62ZM1153.19,446.02c-.62-5.24-1.41-10.59-1.84-15.97-.59-7.55-4.9-16.12,6.29-20.71-2.1-1.45-3.21-2.43-4.48-3.06-6.5-3.22-13.44-.14-13.22,6.69.3,9.36,1.92,18.69,3.33,27.99,1.03,6.81,1.29,6.77,8.15,5.52.33-.06.64-.16,1.77-.45ZM1431.82,391.34c-1.79-2.02-2.57-3.7-3.77-4.09-3.57-1.17-7.3-2.41-10.96-2.37-1.21.01-3.16,3.7-3.46,5.88-1.55,11.4-2.67,22.85-3.96,34.51,3.92.4,6.5.67,9.48.97.85-7.41,2.09-14.31,2.3-21.23.21-6.8,1.82-12.06,10.37-13.67ZM975.83,436.84c-2.25-1.3-3.63-2.76-5.04-2.79-3.58-.08-7.39-.12-10.65,1.08-1.29.47-2.2,4.44-1.82,6.54,1.98,10.88,4.4,21.67,6.84,32.46.14.6,1.85,1.27,2.77,1.18,1.93-.18,3.81-.85,6.14-1.42-1.19-6.42-2.05-12.64-3.54-18.71-1.7-6.98-3.57-13.74,5.29-18.35ZM831.74,505.01c9.4-.04,9.65-.31,8.19-8.13-.86-4.57-1.44-9.23-2.77-13.66-1.92-6.43-1.65-11.96,4.34-16.12.18-.13.13-.6.24-1.23-1.34-.74-2.67-1.8-4.18-2.27-6.72-2.07-12.85,1.41-12.1,8.13,1.25,11.26,4.13,22.34,6.28,33.28ZM708.26,533.45c-1.37-7.07-2.3-13.64-3.97-20.02-1.7-6.51-2.13-12.32,4.23-16.61.2-.13.16-.61.25-.96-3.7-3.72-8.11-2.76-12.57-2.02-2.53.42-3.84,1.5-3.59,4.21.45,4.89.35,9.88,1.31,14.66,1.51,7.54,3.71,14.94,5.68,22.65,3.17-.7,5.56-1.23,8.65-1.91ZM1476.87,390.25c-2.73-5.89-7.41-6.23-11.8-6.43-1.53-.07-4,1.42-4.6,2.81-5.16,12.14-2.89,24.99-3.89,37.47q8.83,1.6,9.54-6.51c.42-4.62,1.28-9.24,1.28-13.86,0-6.71,1.46-12.13,9.47-13.49ZM741.74,428.38c1.56,7.48,2.65,14.38,4.51,21.08,1.49,5.36,3.82,10.51,5.99,15.66.42.99,1.78,2.13,2.8,2.23,4.73.46,10.48-3.56,12.39-8.72-7.52-.25-10.18-5.02-11.5-11.67-1.38-6.93-3.65-13.67-5.64-20.88-3.04.82-5.56,1.49-8.55,2.3ZM1339.65,395.64c-2.23-1.9-3.25-3.02-4.5-3.79-6.33-3.89-13.3-1.85-13.89,5.12-.96,11.27-.26,22.68-.26,34.15h9.17c0-6.3-.09-12.25.02-18.19.13-7-1.17-14.73,9.46-17.3ZM1007.83,467.09c8.9.77,9.05.62,8.31-7.41-.44-4.79-.32-9.7-1.36-14.36-1.45-6.57-.1-11.55,5.84-15.01.19-.11.17-.58.24-.87-3.8-3.57-10.08-5.5-13.98-2.78-2.06,1.43-2.35,5.65-3.04,8.7-.39,1.72-.17,3.65.08,5.44,1.23,8.7,2.57,17.39,3.9,26.29ZM664.64,504.17c-1.92-1.13-2.78-2.07-3.64-2.06-4.06.03-8.27-.26-12.07.83-1.19.34-2.13,4.8-1.67,7.07,2.25,11.12,5,22.14,7.68,33.62,3.77-1,6.39-1.7,9.13-2.43-1.49-6.72-2.58-12.95-4.29-19.02-1.93-6.85-3.54-13.35,4.86-18.02ZM1139.48,331.52c1.94,7.62,3.43,14.78,5.65,21.7,1.6,4.98,4.1,9.69,6.4,14.43.49,1.01,1.8,2.2,2.82,2.29,4.64.4,10.8-4.42,12.07-9.56-8.22.54-10.4-5.03-12.12-11.56-1.75-6.66-4.21-13.13-6.44-19.93-3.04.95-5.38,1.69-8.39,2.64ZM653.6,449.75c.52,2.92.76,5.24,1.37,7.46,2.67,9.67,2.53,20.21,8.68,28.81.78,1.1,1.92,2.54,3.05,2.69,4.48.59,10.41-3.45,12.67-8.76-10.37.25-10.62-7.88-12.44-14.81-.46-1.76-.97-3.52-1.46-5.27-1.15-4.07-2.3-8.14-3.5-12.36-3.15.84-5.52,1.48-8.38,2.24ZM1198.16,441.57c-.52-6.78-.53-13.48-1.67-19.99-1.2-6.81-.74-12.42,5.93-16.07.2-.11.2-.57.33-.98-4.35-5.02-9.93-3.22-15.58-2.9-.45,2.06-1.33,4.01-1.2,5.9.67,9.57,1.37,19.14,2.53,28.66.89,7.3,1.2,7.26,9.67,5.38ZM944.33,415.84c-10.42-.12-10.84-8.03-12.63-15.01-1.51-5.86-3.27-11.65-4.99-17.7-3.14.95-5.61,1.7-8.48,2.58,1.86,8.49,3.37,16.64,5.51,24.62,1.13,4.24,3.25,8.24,5.18,12.22.45.92,2.11,2.03,2.97,1.86,4.85-1,9.94-1.85,12.45-8.55ZM1181.52,318.79c1.31,6.36,2.2,12.43,3.85,18.28,1.74,6.15,4.1,12.13,6.44,18.09.43,1.09,2.2,2.56,3.09,2.4,5.03-.92,10.32-1.73,12.37-7.85-.86-.45-1.69-1.19-2.6-1.29-5.58-.63-7.34-4.38-8.49-9.25-1.76-7.52-4.04-14.93-6.18-22.69-3.1.84-5.58,1.52-8.49,2.31ZM1427.78,295.9c-.88-.39-1.74-1.01-2.66-1.13-5.35-.64-7.13-4.16-8.22-8.94-1.72-7.55-4.03-14.97-6.07-22.34-8.74.61-8.89.81-7.22,8.73.14.65.15,1.33.32,1.96,2.48,9.22,2.56,19.18,8.36,27.37.78,1.1,1.96,2.54,3.08,2.66,4.61.47,10.4-3.56,12.4-8.31ZM480.34,581.65c-1.24-6.82-2.02-13.42-3.72-19.76-1.78-6.66-2.35-12.58,4.18-17.01.15-.1.02-.62.02-.97-3.56-3.47-7.79-2.68-12.12-1.94-2.71.46-4.34,1.42-3.91,4.44,1.12,7.8,2.05,15.63,3.44,23.38.83,4.62,2.39,9.11,3.66,13.78,3.17-.72,5.55-1.26,8.44-1.92ZM1269.76,297.3c1.26,6.2,2.04,11.82,3.6,17.21,1.91,6.62,4.4,13.09,6.84,19.55.38,1,1.77,2.15,2.8,2.27,4.5.52,10.54-3.68,12.32-8.36-.89-.37-1.75-.96-2.68-1.09-5.01-.7-6.94-3.8-7.99-8.54-1.71-7.71-4.16-15.27-6.4-23.27-2.99.78-5.5,1.44-8.49,2.22ZM1322.38,284.28c-3.05.9-5.67,1.67-8.48,2.5,1.21,5.83,2.02,11.27,3.52,16.51,1.9,6.64,4.26,13.15,6.66,19.63.42,1.13,1.93,2.48,3.07,2.61,4.54.53,10.44-3.54,12.28-8.22-.89-.38-1.75-.96-2.69-1.11-4.96-.78-6.95-3.81-7.99-8.58-1.69-7.74-4.14-15.31-6.38-23.34ZM570.04,472.73c-3,.73-5.49,1.34-8.38,2.05.44,2.61.63,4.9,1.22,7.08,2.64,9.85,2.56,20.52,8.74,29.29.78,1.11,1.91,2.61,3.03,2.75,4.37.58,10.42-3.57,12.47-8.24-.89-.41-1.75-1.08-2.68-1.19-5.38-.61-7.13-4.16-8.22-8.91-1.73-7.54-4.02-14.96-6.18-22.84ZM1121.85,373.12c-1.17-.46-2.04-1-2.98-1.14-4.95-.78-6.99-3.77-8.02-8.58-1.65-7.74-4.1-15.31-6.33-23.37-3.11.92-5.73,1.7-8.55,2.53,1.86,8.65,3.35,16.82,5.46,24.83,1.08,4.09,3.14,7.96,5.07,11.77.53,1.04,2.38,2.32,3.28,2.1,4.74-1.18,10.03-1.79,12.06-8.14ZM988.39,405.17c-10.06-.07-10.78-7.81-12.54-14.89-1.46-5.89-3.26-11.7-4.96-17.73-3.16.85-5.64,1.53-8.37,2.26.88,4.62,1.45,8.73,2.48,12.73,2.09,8.13,2.36,16.88,7.77,23.92.74.97,1.75,2.26,2.76,2.4,4.24.56,10.43-3.57,12.86-8.69ZM526,571.42c-1.36-6.97-2.34-13.22-3.84-19.34-1.64-6.68-2.65-12.97,4.21-17.51.14-.09.02-.59.02-1.05-1.1-.62-2.19-1.44-3.42-1.89-7.17-2.6-13.67,1.02-12.79,8.2,1.37,11.21,4.28,22.23,6.6,33.64,3.73-.84,6.26-1.4,9.22-2.06ZM1472.17,284.62c-8.07-.21-10.47-5.14-11.76-11.78-1.35-6.92-3.68-13.65-5.65-20.7-3.04.89-5.53,1.62-8.31,2.43.55,3.1.85,5.9,1.57,8.58,2.52,9.37,2.53,19.54,8.55,27.81.77,1.06,2.31,2.56,3.18,2.38,4.93-1.04,10.32-1.68,12.43-8.72ZM1251.42,338.9c-1.15-.54-2.01-1.23-2.94-1.33-5.18-.56-6.93-3.89-7.95-8.54-1.46-6.63-3.7-13.08-5.31-19.68-.68-2.77-1.92-3.63-4.52-2.81-1.55.49-3.11.96-5.22,1.62,3.9,13.32,3.25,27.64,12.32,39.25,5.28-1.59,11.12-1.77,13.62-8.5ZM1370.22,315.32c5.55-1.75,11.52-1.95,13.6-8.61-1.1-.47-2.12-1.18-3.22-1.33-4.9-.67-6.64-3.85-7.68-8.3-1.81-7.71-4.13-15.31-6.37-23.44-3.06.84-5.66,1.56-8.7,2.4,3.91,13.43,3.38,27.61,12.36,39.28ZM1292.65,399.3c-3.7-5.64-8.39-5.24-12.81-4.81-1.41.14-3.29,1.74-3.87,3.13-3.18,7.56-1.15,15.42-.74,23.16.26,4.9.97,9.77,1.51,14.95,3.26-.17,5.82-.31,8.24-.43,0-6.84.13-13.13-.03-19.42-.17-6.82-1.55-14.01,7.72-16.58ZM899.96,427.07c-1.12-.48-1.98-1.09-2.9-1.21-5.06-.66-6.99-3.83-8.05-8.53-1.74-7.71-4.09-15.29-6.32-23.42-3.05.88-5.64,1.62-8.5,2.44,1.42,6.92,2.38,13.33,4.12,19.51,1.64,5.83,4,11.48,6.31,17.1.43,1.05,2.32,2.41,3.19,2.2,4.75-1.16,9.98-1.86,12.14-8.09ZM632.14,493.63c-1.2-.47-2.1-1.08-3.04-1.14-5.18-.36-7.08-3.57-8.35-8.2-2.09-7.62-4.84-15.06-7.44-22.97-3.06,1.05-5.61,1.92-8.38,2.87,2.15,8.26,3.88,16.04,6.27,23.61,1.38,4.35,3.72,8.42,5.86,12.49.51.96,2.16,2.23,2.9,2.02,4.85-1.39,10.28-2.17,12.19-8.69ZM885.96,456.44c-4.03-3.35-5.06-3.39-10.37-2.73-4.11.51-5.85,1.96-5.96,6.5-.32,12.39,4.86,23.43,7.19,35.5,3.18-.69,5.69-1.23,8.64-1.88-1.24-6.69-1.98-12.96-3.64-18.98-1.9-6.93-2.63-13.2,4.14-17.96.07-.05,0-.3,0-.46ZM829.96,406.88c1.88,8.82,3.33,17,5.46,24.99,1.13,4.24,3.38,8.2,5.31,12.2.42.87,1.57,1.85,2.47,1.94,4.4.44,10.32-3.52,12.6-8.28-1.07-.44-2.09-1.1-3.2-1.28-4.54-.73-6.59-3.36-7.59-7.83-1.77-7.89-4.17-15.64-6.4-23.82-2.99.72-5.5,1.32-8.66,2.08ZM796.89,513.56c-1.38-7.09-2.36-13.48-3.9-19.73-1.61-6.53-2.54-12.64,4.17-17.04.17-.11.09-.62.15-1.05-.95-.58-1.88-1.31-2.94-1.76-7.06-3.05-14.16.72-13.26,7.95,1.4,11.22,4.26,22.26,6.58,33.75,3.67-.85,6.19-1.43,9.2-2.12ZM1109.06,453.11c-.73-7.11-1.09-13.57-2.12-19.92-1.11-6.84-1.25-13.05,5.79-16.99.1-.06.09-.3.15-.52-3.12-4.48-7.75-3.43-12.17-3.37-2.63.04-3.6,1.14-4.13,3.76-2.57,12.85,2.31,24.84,3.45,37.64,3.09-.21,5.66-.38,9.03-.61ZM615.82,514.82c-4.37-4.36-8.55-3.52-12.88-2.89-3.14.46-4.5,1.92-4.07,4.9,1.13,7.82,2.23,15.64,3.67,23.41.83,4.46,2.31,8.8,3.52,13.32,3.1-.69,5.49-1.23,8.44-1.88-1.25-6.76-2.28-13.26-3.67-19.68-1.42-6.55-3.65-13.13,4.99-17.17ZM697.58,438.98c1.66,7.88,2.84,15.08,4.75,22.09,1.38,5.05,3.62,9.87,5.69,14.7.44,1.02,1.73,2.23,2.74,2.35,4.4.51,10.4-3.57,12.57-8.31-.89-.38-1.74-.99-2.66-1.11-5.27-.68-7.19-3.96-8.25-8.89-1.62-7.57-4.04-14.96-6.24-22.86-2.96.7-5.47,1.29-8.61,2.03ZM754.07,486.5c-2.12-1.34-3.33-2.75-4.55-2.76-3.75-.02-7.68-.05-11.15,1.09-1.16.38-1.9,4.43-1.54,6.59,1.88,11.32,4.18,22.57,6.39,34.17,3.85-.86,6.36-1.42,9.32-2.08-1.14-5.95-2.26-11.44-3.24-16.95-1.29-7.22-5.32-14.98,4.77-20.07ZM517.32,485.61c1.48,7.03,2.52,13.61,4.3,19.98,1.59,5.69,3.92,11.19,6.13,16.69.4,1,1.78,2.13,2.83,2.26,4.58.58,10.6-3.61,12.26-8.64-7.82-.37-10.13-5.63-11.49-12.34-1.37-6.78-3.62-13.37-5.54-20.24-2.98.8-5.36,1.44-8.5,2.28ZM1365.26,428.06h9.45c.39-6.19.85-11.96,1.08-17.74.28-7.16-1.42-15.17,9.66-17.3-2.13-1.97-3.14-3.66-4.51-4.02-3.46-.9-7.19-1.92-10.59-1.4-1.45.22-3.17,4.09-3.35,6.4-.84,11.17-1.2,22.38-1.75,34.06ZM1007.77,363.79c1.56,7.52,2.76,14.71,4.6,21.74,1.24,4.75,3.29,9.31,5.17,13.87.37.91,1.49,1.91,2.43,2.11,4.03.85,10.62-3.34,12.15-7.9-7.88-.16-9.25-5.81-10.52-12-1.36-6.61-3.41-13.07-5.25-19.98-3.07.77-5.58,1.41-8.58,2.16ZM498.07,526.32c-8.53-.19-9.74-6.43-11.17-12.77-1.45-6.43-3.33-12.77-5.13-19.51-3,.79-5.49,1.46-8.63,2.29,3.58,12.99,3.22,26.67,11.35,38.1,5.2-1.54,10.99-1.41,13.57-8.11ZM1522.63,387.68c-3.61-1.15-5.62-1.72-7.59-2.43-4.13-1.5-7.25-.74-8.04,4.01-1.83,11.07-3.52,22.17-5.04,33.28-.11.83,1.41,2.43,2.46,2.76,1.79.57,3.82.42,5.89.58,3.46-12.88-.86-27.57,12.31-38.21ZM562.26,563.41c3.56-.88,5.6-1.38,7.98-1.97-1.29-6.81-2.17-13.24-3.77-19.47-1.7-6.62-2.55-12.68,4.19-17.09.18-.12.1-.62.16-1.09-.93-.58-1.85-1.31-2.89-1.77-6.22-2.69-13.3,1.01-12.46,7.43,1.47,11.24,4.38,22.29,6.8,33.96ZM1053.26,352.63c.6,3.51.93,6.48,1.64,9.36,2.21,8.97,2.07,18.64,7.67,26.62.78,1.12,1.89,2.57,3.03,2.77,3.9.67,9.92-3.2,12.07-7.5-1.03-.45-2.02-1.15-3.08-1.29-4.88-.64-6.72-3.66-7.76-8.2-1.76-7.74-4.15-15.34-6.39-23.42-2.44.56-4.5,1.04-7.18,1.66ZM591.25,498.5c1.35,3.28,2.57,6.25,3.58,8.71,5.17-.89,10.91-1.87,16.67-2.86q-4.66-9.76-14.46-7.28c-2.08.52-4.16,1.03-5.79,1.43ZM578.94,528.2c4.49-1.05,8.78-2.05,13.03-3.04.32-4.94.6-9.38.83-13-4.8,2.86-9.48,5.65-14.29,8.52.11,1.9.26,4.44.43,7.52ZM565.46,514.49q-3.4-8.82-12.16-6.58c-2.23.57-4.46,1.15-6.26,1.61,1.34,2.66,2.65,5.27,3.78,7.52,4.57-.8,9.42-1.64,14.64-2.55ZM533.66,538.1c4.65-1.02,9.25-2.03,14.01-3.08.23-4.34.45-8.35.62-11.61-4.73,2.64-9.48,5.3-14.63,8.17v6.52ZM487.87,547.95c16.06-2.34,16.99-3.19,15.76-13.37-4.73,2.49-9.72,5.11-15.07,7.92-.15,1.21-.4,3.13-.69,5.45ZM506.64,526.96c4.81-.95,9.45-1.86,15.85-3.11-3.08-2.66-5.21-6.02-7.48-6.12-3.87-.17-7.83,1.71-11.71,2.71,1.23,2.4,2.26,4.41,3.34,6.52ZM476.09,534.55c.34-.48.68-.96,1.02-1.43-2.08-1.58-4.22-4.53-6.24-4.45-4.38.17-8.71,1.88-13.26,3.02,1.58,2.24,2.78,3.93,3.7,5.24,5.12-.82,9.95-1.6,14.78-2.38Z"/>
      <path d="M1234.18,548.09c3.04-2.84,5.45-5.3,8.07-7.5,15.36-12.91,33.05-17.4,52.65-13.73,19.47,3.65,32.13,16.01,36.62,34.56,8.44,34.88,15.22,70.17,22.64,105.29,1.05,4.98-.89,8.75-5.94,9.76-13.01,2.59-26.14,4.63-39.21,6.89-2.89.5-3.5-.94-3.92-3.6-4.3-27.44-8.35-54.93-13.51-82.2-1.4-7.41-5.23-15.01-9.89-21-7.02-9.03-21.3-7.58-28.56,1.98-5.21,6.86-7.47,14.91-7.42,23.41.11,15.95-.13,31.96,1.21,47.82,1.07,12.7,4.26,25.22,6.55,37.81,1.29,7.07,1.07,7.46-5.96,9.03-9.58,2.14-19.15,4.3-28.73,6.42-5.86,1.3-7.69.29-8.69-5.61-2.98-17.55-5.34-35.2-8.73-52.67-4.17-21.52-9.53-42.81-13.63-64.34-5.24-27.59-9.71-55.32-14.58-82.98-.48-2.73.32-4.14,2.87-5.41,10.8-5.38,22.52-6.8,34.2-8.53,4.16-.62,6.7,1.18,7.82,5.16,3.92,13.91,7.91,27.8,11.76,41.73,1.54,5.58,2.79,11.25,4.38,17.72Z"/>
      <path d="M1072.25,669.89c3.02,19.13-2.16,34.8-11.51,49.4-.8,1.25-1.57,2.65-2.69,3.57-18.95,15.47-40.69,22.65-64.93,19.18-13.96-2-26.56-8.86-37.6-17.6-4.07-3.22-6.78-8.61-9.12-13.49-6.88-14.38-14.21-28.6-17.59-44.4-4.37-20.45-9.19-40.81-13.37-61.3-1.87-9.16-.59-10.84,8.68-12.3,8.03-1.27,16.21-1.56,24.33-2.28,1.16-.1,2.36-.01,3.48-.28,10.41-2.47,9.31-1.39,10.74,8.43,3.76,25.74,9.38,51.02,17.78,75.63,3.55,10.38,9.04,19.12,21.63,20.89,11.68,1.65,23.72-4.52,25.6-18.39.86-6.33,1.13-13.11-.2-19.28-5.01-23.21-8.66-46.79-17.4-69.1-1.35-3.44-1.32-7.53-1.32-11.31,0-1.28,1.65-3.3,2.94-3.7,4.57-1.43,9.28-2.47,13.99-3.37,9.46-1.81,18.99-3.29,28.43-5.2,4-.81,6.55.28,7.77,4.11.86,2.68,1.64,5.42,2.17,8.18,4.33,22.56,7.17,45.31,8.14,68.26.36,8.62.06,17.27.06,24.35Z"/>
      <path d="M749.27,356.47c-9.58,3.08-18.72,6.04-27.87,8.95-11.68,3.71-13.72,4.34-23.15-5.4-17.45-18.03-35.19-35.71-56.25-49.88-8.96-6.03-16.07-14.86-23.85-22.6-4-3.97-7.61-8.34-11.43-12.57-.42.45-.61.65-.79.85,3.91,3.51,2.7,8.2,3.19,12.6.22,2,2.12,3.8,3.22,5.71.55.96,1.64,2.1,1.44,2.91-2.17,8.88,2.9,16.43,4.44,24.61,1.15,6.1,3.06,12.05,4.63,18.07,2.99,11.41,5.91,22.84,9.02,34.22.77,2.83,2,5.57,3.36,8.18,1.65,3.17,1.28,5.85-2.17,6.79-13.6,3.7-27.29,7.09-41.31,10.69-3.39-11.57-6.56-21.84-9.39-32.21-3.94-14.44-7.86-28.89-11.38-43.43-6.15-25.38-11.94-50.84-17.98-76.25-2.98-12.52-5.99-25.05-9.36-37.47-1.04-3.82-.14-5.74,3.47-6.6,11.48-2.72,22.94-5.57,34.5-7.9,1.7-.34,4.35,1.38,5.81,2.88,8.69,8.94,17.2,18.05,25.7,27.18,5.21,5.59,10.09,11.51,15.51,16.88,3.75,3.72,8.28,6.64,12.3,10.11,5.28,4.57,10.28,9.44,15.6,13.96,4.08,3.46,8.49,6.54,12.7,9.85,3.07,2.42,6.01,5.01,9.12,7.38,1.67,1.27,3.56,2.24,6.06,2.46.83,1.62,1.67,3.24,2.5,4.86.45-.13.9-.26,1.34-.39-.55-3.48-.66-7.09-1.73-10.4-3.66-11.39-7.98-22.58-11.41-34.03-2.95-9.85-5.06-19.95-7.49-29.96-2.47-10.18-5.08-20.34-7.27-30.58-1.65-7.71-.76-8.72,6.99-10.32,8.64-1.78,17.36-3.23,25.89-5.41,4.8-1.22,7.59.54,9.11,4.51,2.68,6.97,5.4,13.98,7.24,21.2,7.59,29.8,14.79,59.7,22.27,89.52,2.97,11.86,6.14,23.68,9.6,35.4.92,3.13,4.14,5.54,2.77,9.46-.12.33,1.36,1.14,1.98,1.84.69.78,1.95,1.92,1.75,2.48-2.56,7.39.61,14.32,1.44,21.43.02.15-.11.31-.14.42ZM568.14,287.07c.47.12.95.24,1.42.37,1.26-1.49,2.61-2.92,3.76-4.49,11.57-15.83,23.15-31.66,34.64-47.56,3.28-4.54,2.91-5.54-2.37-8.73-.5.38-1.18.67-1.53,1.18-11.86,17.46-23.76,34.9-35.39,52.52-1.08,1.64-.39,4.45-.53,6.71ZM597.85,216.64c-1.62,1.81-3.29,3.42-4.65,5.26-8.99,12.2-17.66,24.64-26.97,36.58-4.27,5.48-3.19,10.16-.16,16.2,1.6-2.53,2.74-4.49,4.02-6.35,9.55-13.82,18.92-27.78,28.83-41.34,2.92-3.99,3.72-6.72-1.07-10.36ZM573.52,303.54c7.54-11.6,15.09-22.93,22.29-34.49,2.1-3.36,1.22-9.1,7.71-8.45.38.04.9-.91,1.3-1.44,4.27-5.73,8.63-11.41,12.71-17.28.72-1.04.88-3.25.25-4.3-1.92-3.22-3.85-2.82-6.38.67-11.21,15.47-22.45,30.92-33.73,46.35-4.11,5.62-9.39,10.89-4.15,18.93ZM724.69,284.59c-16.22,15.26-25.04,35.66-38.57,52.98,1.29.94,2.6,1.88,4.12,2.98,1.54-1.64,3.05-2.95,4.2-4.52,10.12-13.79,20.06-27.7,30.32-41.38,2.72-3.62,2.27-6.54-.07-10.06ZM721,269.91c-4.24,5.59-8.29,10.77-12.16,16.08-4.08,5.61-8.17,11.23-11.92,17.07-3.67,5.72-6.93,11.7-10.35,17.58-1.92,3.3-3.87,6.58-5.64,9.95-.36.68.05,1.76.1,2.65.84-.25,1.93-.25,2.47-.79,1.51-1.51,2.91-3.17,4.16-4.9,10.16-14.15,20.26-28.35,30.42-42.51,3.18-4.42,5.99-8.86,2.92-15.13ZM701.72,196.65c-1.38,2.21-2.36,3.63-3.19,5.14-5.21,9.43-10.26,18.96-15.63,28.31-3.88,6.76-4.08,9.33-.15,16.42,6.19-10.31,11.88-21.04,18.81-30.89,4.58-6.5,2.8-11.91.16-18.97ZM696.01,346.45c.68.02,1.35.03,2.03.05.98-.88,2.07-1.66,2.91-2.65,9.8-11.5,19.61-22.98,29.3-34.57,3.42-4.09.65-7.97-.72-12.4-1.01.9-1.71,1.35-2.17,1.98-10.46,14.16-20.96,28.29-31.24,42.58-.8,1.12-.11,3.31-.11,5.01ZM622.94,243.27c-4.24,5.4-8.39,10.34-12.16,15.56-5.92,8.21-5.81,8.29,2.01,14.86.22.19.57.23.87.33.15-.06.37-.08.45-.19,3.79-5.02,7.59-10.02,11.33-15.08,7.44-10.08,6.39-8.22-2.5-15.48ZM576.04,319.11c.49.08.98.15,1.46.23,1.18-1.53,2.45-3.01,3.53-4.61,6.15-9.07,12.23-18.19,18.4-27.25,3.26-4.78,3.23-7.7-.89-13.27-7.6,11.96-15.28,23.56-22.31,35.55-1.38,2.35-.2,6.19-.2,9.34ZM603.12,290.22c-7.17,10.57-13.88,20.83-21.01,30.78-3.28,4.58-2.38,8.7-.46,13.95,1.37-1.96,2.32-3.27,3.23-4.6,5.88-8.66,11.38-17.6,17.75-25.88,3.66-4.76,3.32-8.82.49-14.25ZM706.89,355.7c.76-.81,1.36-1.35,1.85-1.98,8.67-11.33,17.45-22.57,25.86-34.09,1.25-1.71.72-4.73,1.01-7.15l-1.82-.51c-1.31,1.4-2.71,2.73-3.93,4.22-7.88,9.6-15.49,19.44-23.68,28.76-3.56,4.05-3.59,6.99.72,10.76ZM584.84,349.71c1.33-1.67,2.39-2.89,3.31-4.2,5.81-8.28,11.05-17.05,17.58-24.72,4.4-5.18,4.63-9.53,1.35-15.52-7.34,11.16-14.3,22.04-21.6,32.69-2.52,3.68-3.38,7.07-.64,11.75ZM695.15,296.02c7.25-9.46,14.25-18.71,21.4-27.84,3.18-4.06,1.9-7.79-.02-12.25-1.59,1.79-2.96,3.03-3.96,4.51-5.66,8.41-11.02,17.04-16.95,25.26-2.59,3.59-2.13,6.58-.47,10.32ZM594.16,388.6c.47.05.93.1,1.4.15,1.51-1.91,3.08-3.78,4.52-5.74,5.97-8.16,11.53-16.66,18.01-24.39,3.36-4.01,2.56-6.82-.08-10.96-8.82,11.65-18.44,22.17-24.22,35.33-.67,1.52.21,3.72.37,5.61ZM592.83,210.31c-.58-.2-1.16-.41-1.74-.61-1.22,1.55-2.43,3.1-3.66,4.64-5.29,6.63-10.59,13.25-15.89,19.87-3.22,4.02-6.52,7.98-9.62,12.09-2.2,2.92-2.18,5.98.55,9.62,10.4-14.2,20.53-27.97,30.51-41.84.58-.8-.07-2.49-.15-3.77ZM611.14,322.15c-.95.72-1.59,1.01-1.95,1.5-7.16,9.94-14.58,19.72-21.23,29.99-1.63,2.52-.75,6.68-1.02,10.09,4.59-5.03,7.58-10.38,11.23-15.24,3.77-5.02,8.21-9.54,12.32-14.31,3.1-3.6,2.93-7.47.65-12.02ZM584.65,201.43c-5.95,7.3-10.7,13.04-15.34,18.86-3.51,4.4-7.14,8.74-10.18,13.44-1.21,1.87-.99,4.66-1.41,7.03.69.29,1.37.59,2.06.88,8.85-11.08,17.81-22.08,26.39-33.37.8-1.06-.81-3.95-1.51-6.85ZM658.87,275.24c-5.1,6.87-10.24,13.76-15.34,20.68-4.22,5.73-4.09,6.11,3.32,9.58,5.09-7.43,10.15-15.02,15.43-22.46,2.52-3.54,1.7-5.73-3.4-7.8ZM713.44,242.99l-2.16-.42c-6.45,10.15-13.07,20.2-19.22,30.53-1.38,2.33-1.1,5.64-1.59,8.5.62.16,1.25.31,1.87.47,7.03-10.36,14.25-20.61,20.92-31.2,1.2-1.91.17-5.22.17-7.88ZM616.15,337.64c-.54-.14-1.09-.29-1.63-.43-11.97,8.38-17.97,21.1-24.27,33.54-.76,1.49.16,3.83.36,6.53,4.71-6.84,8.64-12.76,12.8-18.51,3.51-4.85,7.49-9.37,10.83-14.33,1.25-1.85,1.31-4.51,1.91-6.81ZM635.77,297.79c.93-.72,1.4-.96,1.69-1.34,5.71-7.5,11.47-14.96,16.97-22.6.57-.79-.02-3.55-.8-3.94-1.37-.69-4.21-.99-4.87-.18-6.15,7.54-11.96,15.34-18.09,23.36,1.8,1.66,3.33,3.07,5.1,4.7ZM687.82,268.19c.41.08.83.16,1.24.24,6.71-9.64,13.41-19.29,20.15-28.9,2.66-3.79,1.91-7.27-1.12-11.87-6.82,12.14-13.28,23.5-19.53,34.99-.83,1.53-.53,3.68-.75,5.55ZM677.3,228.44c.44.13.87.26,1.31.39.63-.73,1.41-1.38,1.88-2.21,6.5-11.54,13.03-23.08,19.35-34.73.67-1.24.09-3.17.09-6.16-2.5,2.82-4.36,4.33-5.48,6.27-5.71,9.89-11.36,19.82-16.71,29.91-.93,1.76-.33,4.33-.44,6.53ZM621.78,360.78c-6.78,9.2-13.19,17.91-19.61,26.62,5.88.86,10.33.32,13-4.85,1.97-3.82,4.42-7.44,7-10.88,2.53-3.37,2.97-6.51-.39-10.88ZM675.97,215.71c7.01-11.81,14.01-23.63,21.19-35.72-8.07-.29-22.38,22.85-21.19,35.72ZM646.32,263.86c-.56-.75-1.07-2.08-1.69-2.13-1.12-.09-2.78.21-3.38.99-5.35,6.93-10.59,13.94-15.63,21.09-.66.94.03,2.83.09,4.29,1.24-.42,2.97-.45,3.65-1.31,5.36-6.74,10.52-13.64,15.71-20.51.49-.65.76-1.45,1.25-2.42ZM685.01,255.63c.46.19.91.38,1.37.57,6.46-10.19,13.05-20.31,19.27-30.65,1.31-2.18,1.25-5.19,1.83-7.82-.59-.17-1.18-.35-1.77-.52-9.46,11.46-15.61,24.66-20.7,38.42ZM577.36,203.68c-.51-.63-1.03-1.25-1.54-1.88-3.04,1.69-6.57,2.86-9,5.19-3.81,3.64-6.74,8.19-10.31,12.11-2.85,3.13-2.55,5.93-.04,9.41,7.14-8.48,14.02-16.65,20.9-24.82ZM709.08,361.52c.52.48,1.04.95,1.56,1.43,4.66.43,5.86-3.96,7.97-6.88,2.43-3.36,4.51-6.97,6.77-10.45,2.17-3.34,4.66-6.51,6.51-10.02,1.71-3.24,6.29-5.15,5.76-9.48l-1.71-1.01c-8.95,12.14-17.91,24.28-26.86,36.42ZM620.46,282.25c6.27-8.44,12.49-16.81,18.92-25.47-1.33-1.06-2.57-2.04-4.37-3.47-5.62,7.94-10.97,15.53-16.35,23.11-1.96,2.76-1.07,4.56,1.8,5.83ZM662.22,318.37c5.72-9.72,11.38-19.33,17.04-28.94-.55-.4-1.1-.81-1.65-1.21-1.55,1.1-3.57,1.88-4.56,3.36-4.61,6.83-8.96,13.85-13.37,20.82-1.96,3.1-.53,4.82,2.54,5.98ZM671.54,285.34c-2.66-3.26-4.22-1.74-5.7.47-4.8,7.15-9.72,14.24-14.33,21.51-.56.89.43,2.76.7,4.17.6,0,1.2,0,1.81-.01,5.8-8.65,11.6-17.29,17.53-26.14ZM723.31,359.08c8.19-1.25,18.3-17.81,16.07-26.06-7.55,7.5-11,16.98-16.07,26.06ZM666.56,322.92l2.2.66c5.22-8.35,10.48-16.66,15.6-25.07.63-1.03.46-2.54.65-3.83-1.16.57-2.79.83-3.4,1.76-4.97,7.59-9.8,15.27-14.54,23.01-.56.92-.36,2.3-.52,3.47ZM691.8,300.17l-2.34-.89c-5.55,9.07-11.11,18.14-16.66,27.21.21.47.42.94.63,1.41,1.23-.39,3.05-.39,3.6-1.23,4.57-6.9,8.98-13.89,13.23-20.99.95-1.58,1.05-3.66,1.54-5.51ZM685.11,181.02c-7.02,2.5-14.36,17.09-12.08,23.2,4.01-7.7,7.8-14.97,12.08-23.2ZM627.09,374.97c-.44-.16-.88-.31-1.32-.47-1.95,3.11-3.91,6.22-6.63,10.54,4.04-.98,6.64-1.61,9.5-2.31-.6-2.98-1.07-5.37-1.55-7.76ZM744.97,353.53c-.83-3.39-1.46-5.94-2.4-9.75-2.03,4.26-3.46,7.25-5.36,11.24,3.12-.6,5.09-.98,7.76-1.49ZM675.77,181.62c-7.57-.33-8.65,1.53-5.39,8.48,1.76-2.78,3.39-5.33,5.39-8.48ZM559.45,208.84c-7.47,1.57-8.24,2.46-6.96,8.07,2.34-2.71,4.35-5.05,6.96-8.07ZM721.06,252.31c.39-.14.78-.28,1.17-.41-1.49-5.26-2.99-10.52-4.48-15.79-.43.12-.85.24-1.28.36,1.53,5.28,3.06,10.56,4.58,15.84Z"/>
      <path d="M1424.89.01c29.51,4.01,55.41,14.12,70.28,42.69,4.72,9.07,9.65,18.04,14.24,27.18,1.01,2.01.99,4.52,1.46,6.8,1.69,8.22,3.76,16.39,4.87,24.69.41,3.09-1.53,6.5,3.4,7.39.18.03.47,2.88-.12,3.34-6.42,4.93-4.91,12.36-6.15,18.87-2.54,13.32-6.49,26.03-15.88,36.28-4.05,4.41-8.13,8.98-12.95,12.44-3.87,2.78-8.78,4.27-13.38,5.88-28.42,9.95-57.98,15.8-86.83,24.17-6.34,1.84-6.69-.79-8.1-4.8-7.55-21.43-12.65-43.23-14.14-66.1-.81-12.43-5.22-24.63-8.17-36.9-5.99-24.9-12.17-49.76-18.1-74.67-1.73-7.29-1.35-6.93,5.7-8.76,12.05-3.13,23.83-7.38,35.94-10.18,15.68-3.62,31.2-8.6,47.94-8.3ZM1387.48,55.63c.24,2.3,0,4.11.66,5.5,2.79,5.98,4.27,12.09,4.36,18.79.05,3.79,1.91,7.57,3.09,11.32,6.45,20.58,12.93,41.15,19.41,61.73,1.85,5.88,3.55,6.73,9.57,4.81,6.64-2.11,13.52-3.7,19.88-6.46,17.72-7.67,31.32-19.24,33.23-40.01,1.55-16.89-4.17-31.72-14.18-45.11-7.05-9.43-16.45-14.23-28.08-16.11-16.61-2.69-31.72,4.21-47.95,5.52ZM1508.55,96.26c-26.2,29.28-47.41,61.9-69.28,94.4,3.62-.75,7.77-1.36,9.77-3.76,6.9-8.31,13.14-17.17,19.44-25.95,12.98-18.08,25.73-36.32,38.84-54.3,2.49-3.41,3.16-6.35,1.23-10.39ZM1441.2,160.25c-.26-.28-.51-.56-.77-.84-4.6,1.32-9.22,2.56-13.78,4.01-.97.31-1.81,1.3-2.5,2.14-4.66,5.63-9.39,11.2-13.85,16.99-4.88,6.34-9.49,12.9-14.22,19.37,6.99-.59,12.97-1.64,17.31-7.19,7.49-9.56,15.51-18.69,23.25-28.06,1.67-2.02,3.05-4.27,4.56-6.42ZM1454.41,186.56c5.97-.84,10-2.5,12.27-7.25.92-1.93,2.22-3.69,3.44-5.46,12.86-18.56,25.8-37.08,38.55-55.72,1.44-2.11,1.91-4.88,2.83-7.35-.57-.29-1.14-.59-1.71-.88-18.26,25.27-36.53,50.55-55.39,76.65ZM1418.66,10.97c-.32-.54-.64-1.08-.95-1.63-2.19,1.12-4.58,1.98-6.55,3.4-19.81,14.33-35.46,32.95-52.01,50.63-1.53,1.63-2.02,4.22-3,6.37.46.23.92.46,1.38.69,20.38-19.82,40.76-39.64,61.14-59.46ZM1405.2,9.49c-5.94.4-11.16,1.35-15.84,6.81-10.36,12.1-21.83,23.25-32.71,34.91-3.17,3.39-2.96,3.58-1.11,7.63,16.48-16.37,33.05-32.84,49.66-49.35ZM1418.54,194.54c8.78-.4,11.9-1.83,15.77-6.98,7.27-9.68,14.32-19.51,21.45-29.3,1.78-2.45,3.48-4.95,5.9-8.4-1.82.61-2.41.78-2.97,1-7.73,3.03-12.22,9.46-17.08,15.71-7.42,9.53-15.35,18.67-23.07,27.97ZM1471.84,179.18l1.67,1.65c3.51-3.01,7.75-5.48,10.38-9.12,7.7-10.61,15-21.55,21.94-32.67,2.35-3.76,3.17-8.46,4.69-12.73-.54-.26-1.08-.52-1.62-.79-14.17,16.62-24.35,36.03-37.07,53.66ZM1386.9,188.24c5.93-6.02,11.41-12,17.34-17.49,5.3-4.91,5.74-10.24,2.28-17.74-5.92,6.54-11.32,12.7-16.95,18.64-4.42,4.67-6.22,9.68-2.66,16.59ZM1395.49,115.4c-6.7,7.65-13.39,14.54-19.03,22.2-1.56,2.12,0,6.54.12,9.91l1.63.12c5.24-5.51,10.22-11.31,15.82-16.44,4.81-4.41,5.72-8.87,1.47-15.79ZM1389.44,45.61c7.24-1.2,12.93-2.36,17.36-7.05,6.96-7.35,14.12-14.5,21.19-21.74,1.53-1.57,3.05-3.16,4.57-4.74-.28-.54-.56-1.08-.84-1.62-2.43.81-5.44.96-7.18,2.53-10.27,9.19-20.26,18.71-30.33,28.12-1.29,1.21-2.57,2.43-4.77,4.51ZM1462.15,24.85c-2.97-1.59-4.59-6.81-8.66-2.62-6.45,6.65-12.53,13.65-18.94,20.69,4.63,2.69,8.41,3.2,11.97-.84,5.04-5.72,10.24-11.3,15.62-17.22ZM1474.22,35.74c-6.53-7.86-8.75-8.04-13.97-2.27-3.87,4.27-7.49,8.76-11.21,13.15,6.09,5.14,6.27,5.22,11.98.54,4.46-3.66,8.73-7.54,13.2-11.41ZM1384.2,13.92c-.09-.43-.18-.85-.28-1.28-3.33,1.21-7.53,1.53-9.83,3.79-7.67,7.55-14.6,15.86-21.95,23.74-2.43,2.61-2.81,4.98-.44,7.9,10.87-11.43,21.68-22.79,32.49-34.16ZM1359.5,82.33c6.41-5.37,13-10.87,19.57-16.4,3.5-2.94,2.74-6.06.28-9.75-5.85,5.64-11.44,11.02-17.02,16.4-3.51,3.38-4.43,7.16-2.83,9.75ZM1391.88,102.31c-5.9,6.61-11.48,13.13-17.36,19.35-3.07,3.24-2.98,6.18-1.77,8.03,6.06-5.21,12.13-10.58,18.38-15.73,4.01-3.3,3.67-6.83.76-11.65ZM1474.41,70.24c5.85-6.33,11.42-12.34,17.18-18.57-2.64-2.34-4.36-3.87-6.68-5.92-4.23,4.19-8.43,8.16-12.39,12.35-4.73,5-4.65,5.09,1.89,12.15ZM1403.58,141.85c-6.57,6.19-12.9,11.98-19.03,17.99-4.02,3.94-4.09,6.44-1.34,11.11,6.03-6.13,12.18-12.37,18.3-18.64,2.65-2.71,4.72-5.63,2.07-10.45ZM1410.98,40.87c6.44,2.07,9.34-1.1,12.28-4.46,5.69-6.5,11.51-12.89,17.26-19.34.73-.81,1.37-1.7,2.05-2.55-.24-.46-.49-.92-.73-1.38-1.82.77-3.92,1.19-5.41,2.37-3.75,2.99-7.4,6.15-10.77,9.56-4.86,4.92-9.45,10.13-14.69,15.8ZM1370.45,119.37c6.52-7.21,13.05-14.23,19.28-21.5,1-1.16.68-3.45.97-5.22-.7-.34-1.4-.67-2.09-1.01-5.98,6.14-11.96,12.27-17.92,18.43-2.72,2.81-2.89,5.79-.24,9.3ZM1479.48,78.48c6.65-6.12,13.26-12.21,20.52-18.9-2.63-2.36-4.56-4.1-6.25-5.62-1.13,1.79-1.93,3.62-3.22,4.97-3.78,3.95-7.71,7.76-11.68,11.52-2.71,2.58-2.87,4.96.62,8.03ZM1386.78,77.93c-.8.44-1.48.64-1.88,1.08-6.05,6.61-12.21,13.12-17.95,19.99-1.1,1.32-.49,4.06-.75,7.16,6.93-6.29,12.42-11.6,18.27-16.49,3.89-3.25,4.91-6.72,2.32-11.74ZM1390.01,200.9c8.97-11.29,17.68-22.24,26.38-33.2-2.42.51-4.49,1.51-6.02,3.06-6.64,6.71-13.04,13.65-19.68,20.35-2.98,3.01-2.73,5.95-.68,9.79ZM1506.44,77.56c-.55-.48-1.1-.96-1.64-1.43-5.46,4.5-10.95,8.96-16.37,13.51-3.52,2.95-3.74,6.56-1.55,11.18,7.14-7.59,15.69-13.51,19.56-23.26ZM1506.99,85.47c-7.2,11.34-20.8,16.63-21.56,31.29,9.07-7.63,22.48-26.05,21.56-31.29ZM1503.75,70.81c-.73-1.84-1.42-3.58-2.42-6.11-6.6,6.18-12.72,11.69-18.5,17.56-.96.98-.37,3.48-.6,6.69,7.92-6.68,14.47-12.2,21.52-18.14ZM1460.65,55.45c1.89,3.4,4.36,3.99,7.62.36,3.65-4.06,7.61-7.85,11.27-11.9.69-.77.62-2.22.9-3.36-1.34-.33-2.74-1.07-3.99-.86-1.17.2-2.34,1.24-3.23,2.18-4.2,4.43-8.3,8.96-12.57,13.58ZM1357.98,103.17c.43-.11.86-.22,1.28-.33-4.39-20.06-8.55-40.18-15-59.72-.61.16-1.21.31-1.82.47,5.18,19.86,10.35,39.72,15.53,59.58ZM1379.4,158.33c7.61-7.31,14.48-13.7,21.03-20.41,1.09-1.12.75-3.63,1.07-5.5-11.95,7.81-22.06,19.8-22.1,25.91ZM1424.45,42.41c7.4-1.61,23.9-19.38,24.49-26.24-9.86,7.38-17.12,16.06-24.49,26.24ZM1385.6,69.61c-.38-.33-.75-.66-1.13-.98-.46.12-1.08.09-1.36.39-6.55,7.02-13.11,14.03-19.5,21.18-.7.78-.38,2.48-.53,3.75,9.06-7.22,16.57-15.14,22.51-24.34ZM1366.96,151.08c.91,17.41,6.93,33.57,11.44,50.1.57-.14,1.13-.28,1.7-.42-4.38-16.56-8.76-33.12-13.14-49.68ZM1469.97,20.07c-7.12-7.27-28.74-15.01-38.3-14.14,12.37,1.91,22.46,7.29,32.15,13.69,1.21.8,3.28.28,6.15.44ZM1347.72,35.63c5.58-4.97,11.92-10.61,19.05-16.96-7.73.1-18.26,10.91-19.05,16.96ZM1481.23,28.06c-2.69-2.32-5.14-4.42-7.58-6.53-.47.14-.94.28-1.41.42,0,1.68-.7,3.98.14,4.9,2.11,2.33,4.64,5.36,8.86,1.2Z"/>
      <path d="M1141.03,554.95c7.87-2.03,15.51-4,23.47-6.05.9,2.32,1.74,3.94,2.14,5.65,2.35,10.03,4.52,20.1,6.92,30.12.97,4.05.1,6.94-4.09,8.18-5.39,1.59-10.82,3.04-17.21,4.82,2.55,11.42,5.21,22.86,7.65,34.35,3.73,17.55,7.34,35.13,10.91,52.71,1.32,6.52,2.24,13.13,3.64,19.63.74,3.42-.52,5.24-3.63,5.81-12.39,2.27-24.82,4.38-37.22,6.59-4.49.8-6.14-.41-6.74-5.52-1.31-11.04-3.59-22-6.02-32.87-5.16-23.03-10.68-45.98-16.07-68.96-.22-.94-.66-1.82-1.06-2.89-5.58.9-10.97,1.73-16.34,2.67-3.54.62-5.6-.46-6.51-4.21-2.38-9.69-5.12-19.29-7.55-28.96-1.14-4.52.63-6.58,5.3-7.66,5.5-1.27,10.97-2.76,16.3-4.59.98-.34,1.99-2.9,1.73-4.16-1.46-6.99-3.41-13.89-5.01-20.85-1.87-8.08-3.56-16.19-5.55-25.34,13.68-2.79,26.6-5.49,39.57-7.93.94-.18,2.97,1.37,3.25,2.43,3.85,14.94,7.48,29.94,11.2,44.91.19.77.65,1.47.95,2.12Z"/>
      <path d="M705.28,687.13c-5.62.81-11.02,1.46-16.37,2.4-3.85.68-5.88-.6-6.82-4.48-2.19-9.05-4.72-18.01-6.98-27.04-1.55-6.2-.15-8.07,5.94-9.44,5.18-1.16,10.32-2.58,15.33-4.31.93-.32,1.86-2.84,1.59-4.08-2.3-10.38-4.94-20.68-7.35-31.04-.9-3.88-1.68-7.82-2.1-11.77-.13-1.2.92-3.47,1.8-3.68,11.46-2.71,22.99-5.06,34.47-7.66,3.88-.88,5.18-.02,6.17,4.29,3.45,15,7.73,29.81,11.8,45.1,5.18-1.39,10.66-3.02,16.23-4.31,7.69-1.79,7.89-1.54,9.58,6.06,2.12,9.57,4.11,19.17,6.51,28.67,1,3.96-.39,6.24-3.82,7.35-5.49,1.77-11.09,3.18-17.47,4.97,2.32,10.7,4.69,21.36,6.94,32.05,4.07,19.34,8.11,38.69,12.09,58.05,1.14,5.54,2.05,11.12,3.01,16.69.43,2.47.3,4.86-2.8,5.43-12.89,2.37-25.79,4.7-38.7,6.94-3.68.64-5.06-.52-5.79-4.88-3.02-17.85-6.63-35.62-10.53-53.31-3.61-16.39-7.87-32.64-11.85-48.94-.23-.93-.52-1.85-.85-3.04Z"/>
      <path d="M1271.74,140.63c1.61,14.03,3.57,27.61,9.14,40.42,1.64,3.77,4.61,2.58,7.22,1.95,14.88-3.56,29.73-7.25,44.58-10.91,4.36-1.07,8.71-2.19,13.08-3.23,3.12-.74,5.15.29,5.82,3.63,2.04,10.25,4.23,20.48,6.16,30.75.76,4.07-.77,6.72-5.1,8.33-18.27,6.77-36.53,13.47-56.13,15.33-.49.05-1.01.14-1.45.35-12.78,6.05-26.89,6.17-40.38,9.06-4.4.95-10.32-3.55-11.32-8.11-3.89-17.7-7.22-35.54-11.78-53.06-4.72-18.15-10.86-35.93-15.94-53.99-6.18-21.93-11.92-43.98-17.8-66-.51-1.9-.86-3.93-.79-5.88.2-5.64,1.66-6.58,7.16-7.34,4.52-.63,8.88-2.36,13.35-3.44,22.11-5.38,44.22-10.78,66.37-15.99,5.17-1.22,10.51-1.68,15.76-2.59,4.94-.86,8.47.87,10.03,5.7,2.15,6.64,4.17,13.34,5.77,20.13,1.99,8.47-.09,12.17-8.49,14.56-14.87,4.22-29.87,8-44.8,12.02-7.98,2.15-8.02,2.2-7.17,10.26.42,3.97,1.27,7.89,1.55,11.86.33,4.66,2.78,5.45,6.77,4.51,9.22-2.17,18.39-4.63,27.71-6.23,8.81-1.51,17.78-2.27,26.71-2.87,1.59-.11,4.1,1.84,4.87,3.46,2.98,6.27,5.94,12.64,7.94,19.26,2.24,7.45-.29,12.22-8.04,14.73-10.74,3.48-21.74,6.15-32.67,9.02-5.92,1.56-11.91,2.82-18.11,4.26ZM1239.04,171.82c14.9-23.74,29.39-46.82,44.01-70.12-4.6-.4-7.51,1.75-9.76,5.07-10.72,15.8-21.41,31.62-32.14,47.42-3.41,5.02-5.56,10.23-2.11,17.63ZM1270.57,103.73c-5.92-.16-9.53.94-12.08,4.9-3.24,5.02-6.78,9.84-10.08,14.81-5.04,7.6-9.98,15.25-14.96,22.88-2.18,3.34-1.41,6.34.88,9.45,12.02-17.27,23.82-34.21,36.24-52.05ZM1218.75,104.41c.4.15.8.3,1.19.45,13.89-22.93,27.77-45.85,41.96-69.27-2.64,1.07-6.21,1.4-7.75,3.34-4.29,5.38-8.08,11.24-11.45,17.26-7.86,14.05-15.4,28.27-22.92,42.51-.86,1.63-.71,3.8-1.04,5.71ZM1246.38,200.04c.38.04.75.08,1.13.12,6.69-10.45,13.34-20.92,20.09-31.33,3.46-5.33,3.24-12.21-.94-17.66-.67.73-1.55,1.32-1.94,2.15-6.15,13.03-12.38,26.03-18.22,39.19-.94,2.11-.13,5-.13,7.53ZM1304.46,185.46c-5.07-.39-8.15.75-10.17,4.49-6.07,11.24-12.27,22.4-18.37,33.62-.5.91-.61,2.04-.94,3.21q9.88-1.1,13.44-9.25c.53-1.21,1.2-2.37,1.79-3.55,4.66-9.32,9.31-18.64,14.24-28.51ZM1259.65,230.63c11.8-1.04,13.37-11.55,17.99-18.42,4.87-7.23,8.13-15.53,12.34-23.86-7.86,1.89-29.24,31.78-30.34,42.28ZM1276.1,62.95c5.56-.58,9.66-1.2,11.94-6.07,2.6-5.54,5.71-10.84,8.51-16.29,2.3-4.48,4.45-9.02,6.67-13.54l-1.09-1.44c-2.32,1.03-5.58,1.42-6.8,3.2-5.24,7.64-10.01,15.61-14.69,23.62-1.78,3.05-2.84,6.51-4.54,10.52ZM1298.29,129.37c10.09-1.56,23.97-22,21.6-31.14-.29-1.1-1.38-2.58-2.32-2.76-.9-.18-2.42.87-3.08,1.79-6.92,9.75-12.67,20.11-16.2,32.11ZM1290.66,222.18c.5.56,1,1.13,1.5,1.69,2.52-1.5,6.2-2.39,7.37-4.6,6.18-11.7,11.74-23.74,17.51-35.66-.29-.41-.59-.82-.88-1.22-2.19,1.02-5.47,1.44-6.4,3.15-6.63,12.07-12.79,24.4-19.09,36.65ZM1308.36,98.06l-1.09-1.3c-1.85,1.06-4.32,1.67-5.44,3.25-5.16,7.29-10.08,14.76-14.81,22.34-1.94,3.11-3.2,6.66-4.77,10,.46.52.93,1.04,1.39,1.56,3.04-1.78,7.34-2.81,8.89-5.46,5.76-9.84,10.62-20.21,15.82-30.39ZM1261.51,65.84c.6.58,1.19,1.17,1.79,1.75,2.33-1.33,5.68-2.08,6.83-4.09,6.34-11.04,12.14-22.38,18.12-33.62-.35-.46-.7-.92-1.06-1.38-2.46,1.68-5.82,2.82-7.24,5.14-6.45,10.55-12.35,21.43-18.45,32.2ZM1245.06,70.24c.27.34.54.67.81,1.01,3.41-1.46,8.34-1.97,9.95-4.56,6.64-10.62,12.28-21.88,18.28-32.9l-1.88-1.17c-11.26,10.89-18.85,24.52-27.17,37.61ZM1277.99,183.46c-.64-.2-1.29-.4-1.93-.59-7.22,10.69-14.47,21.36-21.63,32.09-2.49,3.73-1.35,7.27.66,11.12,6.37-9.88,12.73-19.04,18.28-28.67,2.4-4.16,3.13-9.27,4.62-13.95ZM1340.68,178.72l-.93-1.32c-2.04.81-5.2,1.06-5.93,2.53-5.7,11.43-10.93,23.08-16.3,34.67.59.5,1.18.99,1.77,1.49,2.72-2.11,6.59-3.66,7.95-6.44,4.93-10.09,9.03-20.59,13.44-30.93ZM1266,135.04c7.72.53,11.42-2.96,14.17-7.85,4.96-8.82,9.85-17.69,14.74-26.55.09-.15-.23-.53-.55-1.22-1.9.88-4.53,1.24-5.6,2.73-7.6,10.6-14.89,21.43-22.76,32.89ZM1250.44,100.43c-7.48,12.05-14.48,23.02-21.07,34.23-1.11,1.89-.42,4.83-.56,7.28.42.07.84.14,1.26.21,8.06-11.95,16.13-23.89,24.1-35.7-1.06-1.72-1.84-2.98-3.73-6.03ZM1250,211.46c.77.27,1.54.55,2.3.82,7.01-11.78,14.09-23.53,20.94-35.4.7-1.21.09-3.18.09-6.07-2.17,1.63-3.48,2.17-4.09,3.15-6.3,10.13-12.62,20.25-18.59,30.57-1.05,1.83-.48,4.59-.66,6.92ZM1264.31,141.6c-.6-.24-1.19-.48-1.79-.73-7.13,12.06-14.52,23.98-21.16,36.3-1.26,2.33.45,6.25.93,10.74,1.47-1.81,1.87-2.14,2.08-2.57,6.52-13.07,13.06-26.12,19.46-39.25.62-1.27.34-2.99.48-4.5ZM1223.54,116.26c.38.07.75.14,1.13.21,1.07-1.62,2.2-3.19,3.18-4.86,4.64-7.89,8.93-16,13.95-23.63,3-4.57,4.08-8.74.99-14.37-6.35,11.75-12.46,23.09-18.59,34.42-.4.73-1.18,1.44-1.18,2.16,0,2.02.32,4.05.51,6.07ZM1234.57,44.3c-11.28.77-25.41,26.16-19.6,35.37,6.5-11.74,12.97-23.4,19.6-35.37ZM1246.54,41.25c-8.71.13-8.6,8.99-12.67,13.47-7.26,7.98-17.3,32.2-16.09,36.61,9.6-16.72,19.04-33.15,28.76-50.08ZM1247.47,88.61c-7.92,7.52-22.05,34.47-20.02,39.26,6.57-9.8,12.79-19.4,19.36-28.74,2.53-3.6,2.75-6.83.66-10.52ZM1304.72,218.59c.45.41.91.83,1.36,1.24,1.75-1.01,4.38-1.58,5.12-3.08,5.8-11.77,11.24-23.71,16.8-35.6-.51-.38-1.02-.75-1.53-1.13-1.37,1.17-3.27,2.06-4.04,3.54-6.03,11.61-11.84,23.34-17.71,35.03ZM1304.87,31.63c-4.27,9.45-8.05,17.82-12.08,26.73,12.83-3.33,18.16-14.6,12.08-26.73ZM1332.23,208.76c9.89-1.14,16.95-18.09,11.46-26.51-3.82,8.85-7.48,17.29-11.46,26.51ZM1322.08,105.49c-2.33,6.54-4.28,12-6.42,17.99,9.08-3.56,10.75-8.05,6.42-17.99ZM1210.61,63.75c3.69-5.87,7.38-11.73,11.06-17.6-.36-.22-.72-.44-1.08-.66-5.19,4.95-9.26,10.59-9.98,18.26ZM1349.32,196.04c-1.52,3.59-2.58,6.11-4.05,9.59,3.15-.87,4.95-1.36,7.32-2.02-1.1-2.55-1.95-4.53-3.27-7.58ZM1212.39,47.6c-7.15,1.63-7.88,2.91-4.74,7.8,1.54-2.54,3.01-4.95,4.74-7.8Z"/>
      <path d="M557.93,362.76c.68,16.87-7.83,28.73-20.67,38.3-8.97,6.69-18.19,12.64-29.2,15.73-27.17,7.63-52.1-4.88-64.81-25.41-10.35-16.72-15.61-35.49-21.23-54.1-4.43-14.64-8.98-29.24-13.33-43.9-3.07-10.35-5.83-20.79-8.87-31.16-1.63-5.56-3.84-10.96-5.27-16.56-2.15-8.36-.67-9.8,7.61-11.16,9.29-1.52,18.45-3.79,27.66-5.78,6.3-1.36,8.69.11,10.02,6.59,1.38,6.68,2.49,13.41,3.87,20.09,6.27,30.26,16.04,59.35,29.32,87.25,3.14,6.6,6.1,13.31,9.65,19.69,1.98,3.56,4.53,7.11,7.65,9.65,5.81,4.73,12.43,3.19,16.79-2.9,8.96-12.5,9.01-26.34,6.5-40.66-5.62-32.08-15.81-62.82-27.09-93.25-1.62-4.36-2.93-8.84-4.41-13.25-.81-2.41-.59-4.05,2.38-4.77,11.14-2.71,22.19-5.82,33.38-8.29,6.01-1.32,9.13.85,11,6.86,6.84,21.9,12.38,44.1,16,66.81,3.9,24.46,8.46,48.82,12.66,73.23.39,2.28.27,4.65.39,6.97ZM490.44,413.13c.44.44.88.88,1.32,1.32,5.26,0,9.37-1.25,12.63-6.47,12.97-20.73,26.04-41.44,40.01-61.5,4.74-6.8,3.48-12.37,1.24-19.54-18.63,29.09-36.92,57.63-55.2,86.18ZM549.45,350.26c-5.41,3.86-38.43,53.95-39.86,59.96,7.91-2.77,14.14-7.39,18.78-14.66,4.89-7.68,10.19-15.28,16.38-21.91,6.53-7,5.74-14.58,4.7-23.38ZM521.69,333.28c5.66-8.52,11.04-17.29,17.1-25.55,4.44-6.06,1.62-11.34-.06-18.56-5.13,8.18-9.4,15.09-13.79,21.93-4.43,6.9-8.08,13.88-3.25,22.18ZM433,235.83c-8.51,7.26-15.76,14.74-21.94,23.5-4.03,5.72-3.36,10.54-.46,16.79,1.43-1.99,2.52-3.56,3.65-5.1,5.08-6.98,9.72-14.37,15.43-20.8,3.73-4.2,5.43-8.07,3.33-14.4ZM475.57,410.74c8.28,4.56,8.79,4.37,12.8-2.33,4.78-7.99,9.71-15.9,14.55-23.86.73-1.21,1.36-2.48,2.03-3.72-.24-.36-.48-.73-.73-1.09-2.77,1.15-6.5,1.53-8.15,3.58-7.09,8.78-13.58,18.04-20.5,27.42ZM528.84,244.89c-.8-.24-1.61-.49-2.41-.73-5.11,6.68-10.23,13.35-15.34,20.04-3.98,5.21-4.3,10.74-1.18,17.43,5.82-8.44,11.74-16.16,16.6-24.51,1.97-3.38,1.62-8.11,2.33-12.23ZM501.5,252.57c6.22-8.28,11.89-16.49,18.29-24.1,3.67-4.37,3.13-8.1.9-12.69-8.86,6.97-13.79,16.45-19.47,25.4-2.47,3.89-2.82,7.25.28,11.38ZM535.6,274.82c-.54-.07-1.07-.14-1.61-.2-5.15,7.93-10.34,15.83-15.44,23.8-3.89,6.08-3.93,8.01-.21,15.9,6.13-10.82,12.13-20.93,17.53-31.35,1.09-2.1-.11-5.39-.26-8.14ZM542.54,309.39c-8.98,13.38-20.07,24.53-19,41.47,2.35-2.12,4.19-4.55,5.76-7.13,4.39-7.2,8.38-14.68,13.12-21.64,2.76-4.05,2.45-7.52.11-12.69ZM451.87,318.01c-7.57,6.56-14.09,13.46-19.47,21.56-2.99,4.5-2.04,7.81,1.29,11.56,5.41-6.76,10.25-13.53,15.87-19.56,3.73-4.01,5.56-7.69,2.31-13.56ZM531.1,257.81c-6.49,9.8-12.82,18.65-18.26,28.02-1.47,2.53-.22,6.63-.22,10,.54.05,1.07.1,1.61.15,5.08-7.28,9.86-14.8,15.35-21.76,3.9-4.94,3.94-9.75,1.52-16.42ZM504.4,265.72c7.03-8.38,12.87-15.59,19-22.55,3.81-4.33,3.18-8.51.83-13.16-.71.34-1.31.42-1.56.77-6.38,9.07-12.87,18.08-18.93,27.37-.9,1.38.29,4.11.65,7.57ZM423.92,325.19c7.45-8.44,14.88-16.39,21.6-24.9,1.32-1.67-.12-5.52-.28-8.37-.7-.14-1.4-.28-2.1-.43-5.96,7.08-11.82,14.24-17.91,21.19-3.23,3.69-3.65,7.46-1.3,12.5ZM440.35,276.1c-1.27,1.86-2.04,3.14-2.96,4.3-5.35,6.74-10.46,13.68-16.2,20.08-3.29,3.67-3.51,6.98-.62,13.06,1.71-2.54,2.75-4.39,4.09-6,4.65-5.61,9.14-11.4,14.2-16.62,3.99-4.12,5.14-8.18,1.5-14.81ZM491.24,381.28c-4.79-3.42-7.76-2.43-10.53,1.99-4.72,7.5-9.92,14.7-15.14,22.36,1.82,1.26,3.68,2.56,6,4.17,6.63-9.61,13.07-18.95,19.67-28.52ZM444.4,373.33c5.72-7.13,11.08-14.09,16.76-20.78,2.85-3.36,2.42-6.09-.72-9.68-5.17,5.68-10.14,11.17-15.14,16.62q-5.72,6.23-.9,13.84ZM417.34,298.82c6.98-8.75,13.84-17.01,20.2-25.64,1.35-1.83.87-5.01,1.24-7.57-.68-.21-1.35-.41-2.03-.62-6.16,7.35-12.12,14.88-18.55,21.98-3.4,3.76-3.02,7.22-.86,11.84ZM427.42,337.15c6.35-6.88,12.23-13.83,18.77-20.09,3.72-3.57,4.45-6.78,1.38-12.5-6.96,8.19-13.4,15.83-19.92,23.4-2.55,2.96-2.63,5.88-.23,9.19ZM413.55,286.16c.99-.93,2.03-1.72,2.85-2.71,5.89-7.17,11.57-14.52,17.67-21.51,3.1-3.55,2.3-6.62.34-10.65-1.56,1.72-2.91,2.97-3.99,4.42-5.47,7.29-10.68,14.77-16.37,21.87-2.35,2.94-2.8,5.34-.5,8.57ZM461.55,401.45c.79-.57,1.46-.84,1.81-1.33,5.46-7.72,11.03-15.38,16.14-23.33.72-1.13-.84-3.72-1.34-5.64l-1.85-.14c-5.32,7.38-10.67,14.74-15.95,22.14-2.03,2.84-1.8,5.54,1.19,8.31ZM464.91,353.89c-5.5,7.73-10.79,15.13-16.03,22.57-1.76,2.51-1.43,4.83,1.2,7.38,1.14-1.38,2.06-2.47,2.96-3.58,4.29-5.29,8.35-10.77,12.92-15.8,3.23-3.54,3.44-6.45-1.05-10.58ZM456.07,331.76c-.69.29-1.3.35-1.54.67-5.8,7.84-11.63,15.65-17.23,23.62-.67.95-.09,2.78-.09,5.41,6.65-7.21,12.06-13.47,17.93-19.28,3.35-3.32,3.67-6.37.94-10.43ZM496.58,240.53c5.34-8.01,10.52-15.79,15.99-24-8.22-.98-10.65,5.14-13.63,9.72-2.6,4.01-6.83,8.32-2.36,14.28ZM472.81,365.9c-8.48,5.5-13.38,13.94-18.67,22.02-.47.71.42,2.32.68,3.51.47.08.94.16,1.42.23,4.67-9.15,14.21-15.05,16.57-25.76ZM406.47,258.17c5.98-6.83,11.88-13.57,18.04-20.61-9.45.06-20.82,13.27-18.04,20.61ZM403.26,248.62c2.98-3.25,5.55-6.06,8.11-8.86-.23-.36-.46-.72-.69-1.08-3.06.93-6.12,1.86-9.52,2.9.74,2.5,1.3,4.37,2.1,7.04ZM491.58,228.58c1.9-2.72,3.63-5.19,5.54-7.92-7.59-.09-8.55,1.27-5.54,7.92Z"/>
      <path d="M823.25,629.66c8.52-5.99,16.07-11.73,24.03-16.81,15.42-9.82,45.38-7.34,57.94,4.46,6.48,6.09,6.71,9.16,1.06,15.99-4.78,5.77-9.56,11.53-14.45,17.2-4.59,5.31-9.93,7.68-17.28,5.58-5.19-1.48-10.79-1.82-16.23-2.01-4.89-.17-7.99,2.86-10.71,6.95-8.55,12.87-8.36,26.75-6.44,41.29,2.59,19.65,9.52,38.02,15.37,56.73,1.43,4.56,2.61,9.2,3.98,14.09-15.2,3.35-29.87,6.59-45.41,10.02-3.17-14.23-5.99-27.62-9.15-40.93-6.31-26.52-12.79-53.01-19.27-79.49-2.34-9.58-4.89-19.11-7.36-28.66-.91-3.53-.02-5.3,3.74-7.03,11.05-5.1,22.75-6,34.54-6.89,3.33-.25,5.01,1.16,5.19,4.47.08,1.44.25,2.88.45,5.07Z"/>
      <path d="M817.38,297.4c9.88-2.71,18.62-5.24,27.43-7.49,8.06-2.05,16.17-3.89,24.31-5.61,2.56-.54,5.41-.95,7.88-.36,1.81.43,4.16,2.32,4.65,4.02,2.81,9.73,5.18,19.59,7.62,29.43,1.47,5.92.87,7.32-4.74,8.78-19.95,5.2-39.92,10.28-59.93,15.25-14.52,3.61-29.06,7.11-43.66,10.38-3.52.79-7.29.54-10.94.59-3.73.06-5.64-1.99-5.29-5.65,1.43-14.86,2.36-29.8,4.64-44.52,3.3-21.26,7.53-42.37,11.55-63.51.96-5.04,2.72-9.92,4.02-14.9,2.67-10.29,5.32-20.58,7.87-30.9.34-1.36.05-2.88.05-5.27-5.06,1.14-9.53,2.03-13.93,3.16-8.53,2.2-17.04,4.48-25.51,6.87-1.71.48-3.46,1.36-4.82,2.5-6.24,5.26-13.52,3.1-15.48-4.84-2.15-8.72-4.16-17.48-6.16-26.23-3.13-13.69-2.85-13.32,11.05-16.2,30.45-6.31,60.77-13.27,91.15-19.95,3.74-.82,7.47-1.73,11.25-2.28,5.2-.75,6.9.81,6.18,6.09-1.79,12.98-3.73,25.95-5.81,38.89-2.77,17.27-5.46,34.57-8.69,51.75-2.46,13.06-5.82,25.95-8.59,38.96-2.1,9.89-3.9,19.85-6.08,31.03ZM860.41,294.04c-.38-.43-.75-.85-1.13-1.28-18.75,8.82-27.17,27.04-39.06,43.91,3.37-.7,5.28-1.25,7.23-1.48,5.16-.61,8.43-3.25,11.2-7.8,6.9-11.33,14.46-22.26,21.76-33.35ZM828.58,205.1c-2.83,2.14-4.82,3.51-6.66,5.07-6.95,5.93-13.33,12.68-20.9,17.66-6.72,4.42-9.06,9.62-7.9,18.03,2.92-1.96,5.55-3.55,7.98-5.4,5.42-4.13,10.29-9.23,16.2-12.43,9.14-4.94,9.74-13.25,11.27-22.94ZM873.73,289.97c-15.62,10.11-21.57,26.69-31.63,41.77,8.44-1.86,14.64-4.54,18.55-11.38,4.28-7.48,8.85-14.8,13.53-22.03,1.92-2.98,1.65-5.42-.45-8.36ZM783,153.5c-.27-.28-.54-.57-.81-.85-2.77,1.05-5.79,1.69-8.27,3.21-12.98,7.94-22.66,19.35-31.64,31.34-.87,1.16.36,3.91.62,5.92,1.96-.46,4.64-.25,5.77-1.47,11.59-12.58,22.93-25.39,34.34-38.13ZM795.11,226.98c1.47-1.12,2.5-1.84,3.47-2.65,8.91-7.42,17.63-15.08,26.79-22.18,5.04-3.91,6.27-8.91,6.83-15.94-3.49,2.38-6.32,3.97-8.76,6.03-7.88,6.61-15.45,13.59-23.46,20.02-4.8,3.86-5.49,8.56-4.86,14.71ZM756.44,189.65c7.28-1.44,13.1-2.5,17.34-7.8,7.06-8.81,14.43-17.36,21.71-25.99,2.32-2.75,4.77-5.4,7.69-8.69-6.1.22-10.74,1.59-14.35,5.78-4.99,5.79-10.12,11.47-15.18,17.2-5.47,6.19-10.93,12.38-17.22,19.5ZM779.01,342.9c.41.55.82,1.09,1.23,1.64,6.34-.81,12.94-.74,17.16-7.28,1.88-2.93,4.21-5.59,6.48-8.25,7.53-8.82,15.13-17.58,23.55-27.35-3.08,1.3-5.58,1.68-7.14,3.1-13.85,12.61-27.54,25.4-41.27,38.14ZM839.62,144.33c-.97.64-1.59.89-2,1.34-12.36,13.46-24.75,26.88-36.95,40.48-1.33,1.49-1.49,4.03-2.19,6.09,2.02-.28,2.97-1.1,3.87-1.97,9.76-9.5,19.11-19.47,29.42-28.33,5.59-4.8,8.28-9.89,7.85-17.6ZM796.85,207.82c2.4-1.96,4.18-3.41,5.97-4.87,8.61-7.01,16.68-14.89,26.02-20.75,7.33-4.6,6.97-10.87,8.39-18.05-16.21,11.32-38.84,35.52-40.37,43.67ZM789.95,263.45c7.8-5.19,14.75-10.71,22.49-14.7,7.83-4.04,11.27-9.74,11.02-18.73-1.61.98-3.04,1.7-4.32,2.64-7.5,5.51-14.59,11.69-22.55,16.42-5.81,3.45-6.55,8.02-6.65,14.38ZM800.85,340.37c10.56-.53,11.09-.98,15.93-7.63,7.91-10.89,16.02-21.63,24.02-32.46.71-.97,1.22-2.08,2.33-4-17.25,12.24-29.67,27.48-42.28,44.09ZM795.12,179.17c.48.57.95,1.14,1.43,1.72,1.77-1.21,3.86-2.15,5.27-3.69,9.05-9.92,17.9-20.03,26.95-29.96,2.5-2.74,5.44-5.08,8.18-7.6-.41-.41-.81-.83-1.22-1.24-19.52,7.57-28.23,26.02-40.6,40.78ZM818.2,141.86c-2.62,1.22-4.97,1.64-6.27,3.04-9.47,10.21-18.79,20.57-28.02,31-2.11,2.38-3.68,5.24-5.89,8.44,5.32-.15,8.78-1.57,11.54-5.23,9.22-12.22,18.65-24.29,28.64-37.25ZM815.11,266.48c-8.87,5.4-16.84,10.13-24.68,15.07-4.17,2.63-6.36,6.56-6.28,12.07,8.8-5.37,17.35-10.47,25.77-15.77,3.63-2.29,5.06-5.91,5.19-11.37ZM786.39,275.93c.63.47,1.26.93,1.89,1.4,8.39-5.36,16.64-10.95,25.22-16,4.31-2.54,5.58-6.06,5.94-11.52-9.69,6.36-18.84,12.05-27.59,18.31-2.43,1.74-3.67,5.16-5.45,7.81ZM773.68,339.15c.53.27,1.06.54,1.6.8,11.01-11.47,22.02-22.94,33.04-34.41-.91,1.34-2.64,2.12-4.14,3.22-2.93,2.14-5.77,4.42-8.6,6.69-5.63,4.52-11.59,8.73-16.71,13.77-2.53,2.49-3.5,6.57-5.18,9.93ZM780.97,308.28c1.59-.86,2.93-1.46,4.14-2.26,8.14-5.44,16.38-10.75,24.27-16.53,1.98-1.45,2.81-4.5,4.16-6.81-.47-.34-.94-.68-1.41-1.03-8.8,5.62-17.51,11.4-26.45,16.78-3.6,2.17-5.28,4.81-4.71,9.85ZM776,322.01c.51.29,1.02.59,1.54.88,10.42-7.86,20.86-15.68,31.21-23.61,1.34-1.03,2.23-2.63,3.33-3.97-1.8-.54-2.76-.34-3.52.17-8.92,6.04-17.98,11.92-26.62,18.35-2.58,1.92-4,5.42-5.95,8.19ZM763.47,156.73c-3.47.76-6.52.5-7.95,1.9-5.67,5.55-10.99,11.49-16.07,17.59-1.03,1.23-.48,3.78-.66,5.72.41,0,.81.02,1.22.02,7.5-8.07,15.01-16.14,23.47-25.23ZM864.16,324.56c10.55-.84,17.9-13.69,13.15-23-4.4,7.71-8.62,15.09-13.15,23ZM735.73,170.39c4.03-3.37,8.09-6.77,12.16-10.17-2.1-.26-3.69.1-5.25.6-1.26.4-2.48.91-3.69,1.44-5.65,2.47-5.78,2.89-3.22,8.14ZM780.07,268.3c.84.3,1.67.6,2.51.9,1.21-3.48,2.41-6.96,3.62-10.44l-2.36-.84c-1.26,3.46-2.51,6.92-3.77,10.38ZM788.84,240.79c-.75-.2-1.49-.41-2.24-.61-1.04,3.59-2.07,7.18-3.11,10.77.84.23,1.69.47,2.53.7.94-3.62,1.87-7.24,2.81-10.86ZM777.28,284.51c.7.32,1.39.64,2.09.96,1.42-3.03,2.84-6.05,4.26-9.08-.78-.36-1.57-.72-2.35-1.08-1.33,3.07-2.66,6.13-4,9.2Z"/>
      <path d="M1148.22,65.6c15.87-2.45,29.01,5.15,40.38,16.51,2.82,2.81,4.7,6.88,6.13,10.7,5.58,14.9,5.31,30.25.61,45.11-2.07,6.55-6.27,13.18-11.29,17.86-8.09,7.54-17.39,13.92-26.75,19.91-4.16,2.66-9.7,3.16-14.62,4.62-6.04,1.79-7.71,4.23-6.34,10.23,2.9,12.79,5.95,25.54,9.04,38.28.28,1.16,1.29,2.14,1.92,3.23.61,1.05,1.85,2.32,1.62,3.18-1.97,7.51,1.77,13.94,3.72,20.68,1.45,5,.63,5.63-4.45,5.48-4.04-.12-8.3.89-12.14,2.28-6.08,2.2-11.94,5.05-17.82,7.77-5.1,2.36-6.27,2.24-7.85-3.28-3.06-10.71-5.49-21.59-8.42-32.33-1.43-5.26-3.68-10.29-5.07-15.56-1.65-6.23-2.86-12.58-4.13-18.91-1.24-6.18-2.43-12.38-3.4-18.6-.64-4.07-.86-8.2-1.29-12.3-.12-1.16-.16-2.35-.46-3.46-6.15-22.22-12.37-44.42-18.48-66.64-1.28-4.64-2.08-9.41-3.28-14.08-1.11-4.33.74-6.72,4.77-7.61,8.92-1.98,17.83-4.04,26.82-5.68,14.38-2.62,28.8-4.97,43.23-7.31,2.11-.34,4.32-.05,7.58-.05ZM1101.58,205.3c2.91-3.06,5.67-5.7,8.13-8.59,10.05-11.77,19.62-23.99,30.11-35.36,15.79-17.13,32.2-33.69,48.35-50.49,4.07-4.24,4.11-6.87.22-11.79-10.38,11.67-20.77,23.34-31.17,35.02-17.71,19.89-35.5,39.71-53.05,59.73-2.57,2.93-6.08,6.28-2.6,11.49ZM1116.5,112.49c3.35,9.59,6.43,18.7,9.79,27.7.4,1.06,2.53,2.35,3.58,2.14,7.98-1.57,15.46-4.51,20.63-11.09,1.52-1.94,2.35-5.32,1.89-7.73-1.14-5.95-5.16-10.28-10.94-11.93-7.94-2.27-16.06-2.4-24.95.91ZM1132.23,178.3c9.74-1.05,15.23-7.9,21.02-14.38,5.52-6.18,11.08-12.33,16.78-18.34,6.38-6.74,12.96-13.3,19.42-19.97,3.08-3.18,2.76-6.93,2.02-11.1-11.08,8.58-57.43,58.44-59.24,63.8ZM1136.79,72.42c-.23-.37-.47-.74-.7-1.12-2.18.65-4.75.78-6.46,2.06-5.45,4.06-10.97,8.16-15.75,12.95-9.75,9.77-18.89,20.16-28.61,29.97-3.44,3.47-4.11,6.31-.35,10.4,17.33-18.13,34.6-36.19,51.86-54.25ZM1138.7,147.33c-.33-.31-.65-.62-.98-.94-2.01,1.09-4.42,1.78-5.95,3.34-11.15,11.32-22.29,22.66-32.96,34.42-1.58,1.74-.7,5.7-.96,8.63.55.18,1.09.36,1.64.54,13.07-15.33,26.14-30.66,39.22-45.99ZM1079.95,113.93c13.7-13.29,27.36-26.54,41.02-39.79-.24-.44-.47-.89-.71-1.33-4.01,1.6-8.83,2.28-11.87,4.97-9.21,8.13-17.51,17.29-26.62,25.55-3.99,3.61-3.75,6.82-1.82,10.6ZM1106.14,110.42c-5.59,5.71-10.7,11.08-15.98,16.27-5.49,5.41-4.37,11.47-2.17,18.69,6.69-8.02,12.71-15.66,19.21-22.85,3.66-4.05,2.58-7.26-1.06-12.11ZM1113.48,104.46c5.3.22,8.88-1.54,11.97-4.84,7.71-8.23,15.54-16.35,23.27-24.56,1.06-1.12,1.85-2.5,2.7-3.68-5.02-3.07-6.89,1.33-9.58,3.21-11.29,7.89-19.48,18.72-28.36,29.86ZM1159.87,124.64c8.52-9.76,16.53-19.03,24.65-28.18,2.81-3.17,2.05-5.48-1.65-8.2-6.11,6.7-12.39,13.12-18.08,20.03-3.42,4.15-8.24,8.17-4.92,16.35ZM1139.41,229.18c-8.16,9.67-15.97,18.65-23.39,27.95-1.37,1.72-1.17,4.7-1.69,7.1l1.57.56c1.16-.87,2.46-1.6,3.46-2.63,6.32-6.56,12.41-13.33,18.89-19.72,3.83-3.77,3.78-7.61,1.17-13.26ZM1132.46,205.67c-.2.01-.68-.1-.82.06-7.64,9.39-15.44,18.67-22.71,28.35-1.4,1.86-.69,5.3-.95,8.01.51.1,1.02.19,1.52.29,6.9-8.05,13.64-16.24,20.75-24.11,3.54-3.92,4.92-7.77,2.21-12.6ZM1095.13,177.42c9.36-8.24,18.79-16.54,28.22-24.85-2.72-1.84-4.55-3.08-7.09-4.8-6.41,6.6-12.89,13.42-19.54,20.06-3.62,3.61-3.26,7.12-1.59,9.59ZM1172.17,78.38c-.09-.65-.18-1.29-.28-1.94-2.25,0-5.52-.97-6.59.16-7.57,7.96-14.68,16.34-21.95,24.59.47.69.95,1.39,1.42,2.08,1.86-.63,4.26-.73,5.5-1.98,7.44-7.49,14.62-15.24,21.89-22.91ZM1104.25,218.35c8.17-5.16,25.05-29.9,23.29-34.23-7.39,7.83-14.8,15.59-22.1,23.45-2.99,3.22-3.76,6.84-1.19,10.78ZM1115.6,135.55c-10.43,5.86-17.07,14.93-23.07,24.54-.7,1.13-.1,3.08-.1,5.51,7.79-7.61,14.46-14.52,21.6-20.92,3.05-2.73,3.7-5.16,1.57-9.13ZM1180.03,84.3c-1.83-3.32-4.01-3.8-6.62-.99-6.95,7.49-13.87,15-20.99,22.7,1.62,1.87,2.87,3.31,4.14,4.77,7.94-8.96,15.58-17.58,23.48-26.48ZM1162.05,72.46c-6.2.61-29.02,22.76-32,30.6,3.33-1.07,6.94-1.12,8.6-2.95,7.87-8.69,15.21-17.86,23.41-27.65ZM1187.83,136.11c-.34-.29-.68-.58-1.02-.87-10.92,10.88-21.85,21.76-32.77,32.64.31.31.62.62.93.92,14.82-7.09,26.39-17.38,32.87-32.69ZM1111.01,253.47c.48.15.96.3,1.45.45,7.99-9.72,16.07-19.37,23.88-29.24,1.04-1.31.72-3.69,1.03-5.58-.53-.18-1.05-.36-1.58-.54-7.74,9.32-15.6,18.54-23.1,28.04-1.33,1.68-1.16,4.55-1.68,6.87ZM1130.44,193.72l-.99-.1c-2.26,3.22-4.39,6.55-6.8,9.65-5.08,6.56-10.38,12.94-15.4,19.54-1.07,1.41-1.31,3.44-1.94,5.18.63.33,1.25.65,1.88.98,7.5-9.85,15.09-19.63,22.4-29.61,1-1.36.6-3.74.85-5.64ZM1089.17,153.19c.42.33.83.67,1.25,1,.5-.38,1.05-.69,1.48-1.14,6.75-7.05,13.4-14.2,20.27-21.14,2.89-2.92,1.52-4.71-1.3-7.28-7.86,9.37-16.69,17.56-21.69,28.55ZM1098.41,79.19c-8.74.62-24.22,15.78-20.92,22.98,7.35-8.07,14.47-15.9,20.92-22.98ZM1143.57,243.58c-6.09,6.68-11.65,12.78-17.59,19.28,7.22-3.19,14.03-6.21,21.14-9.35-1.13-3.16-2.22-6.19-3.56-9.93ZM1082.4,83.12c-4.28,1.01-7.41,1.76-11.04,2.62,1.07,2.56,1.9,4.56,3.15,7.55,2.85-3.67,5.02-6.46,7.9-10.16Z"/>
      <path d="M1012.48,97.72c17.43-3.03,30.98,4.31,42.77,15.87,6.01,5.89,7.81,13.91,8.97,21.81,2.53,17.21,2.3,34.54-9.93,48.22-11.63,13.01-24.87,24.56-43.16,27.98-8.04,1.5-9.53,4.35-7.65,12.43,2.81,12.12,5.63,24.24,8.58,36.33.31,1.28,1.53,2.31,2.26,3.51.56.92,1.62,2.09,1.4,2.84-2.14,7.5,1.65,13.97,3.52,20.72,1.48,5.34,1.09,5.54-4.58,5.46-3.88-.06-7.94,1.08-11.64,2.43-5.92,2.17-11.67,4.84-17.39,7.51-5.96,2.78-6.86,2.72-8.75-3.78-2.83-9.74-5.13-19.63-7.71-29.44-3.11-11.83-6.74-23.54-9.29-35.48-2.26-10.61-3.36-21.48-4.96-32.23-.07-.49-.09-1-.2-1.48-1.01-4.51-1.83-9.07-3.09-13.52-5.6-19.84-11.35-39.64-17-59.47-.73-2.55-1.28-5.17-1.72-7.79-1.23-7.29-1.22-8.02,6.11-9.74,13.59-3.2,27.32-5.84,41.05-8.4,10.75-2.01,21.59-3.54,32.39-5.29,0,.5.02,1,.03,1.5ZM966.85,235.99l1.71.59c.62-.51,1.33-.94,1.85-1.54,9.2-10.72,18.04-21.76,27.62-32.13,18.49-20.02,37.37-39.67,56.12-59.44,4.84-5.1,5.06-6.9,1.01-12.89-.71.74-1.39,1.44-2.05,2.16-13.62,15.01-27.38,29.9-40.81,45.08-14.21,16.06-28.12,32.38-42.14,48.61-.75.87-1.53,1.87-1.85,2.94-.65,2.16-.99,4.41-1.45,6.62ZM983.25,144.3c3.42,9.78,6.55,19.01,9.99,28.13.35.94,2.83,2,3.78,1.63,5.66-2.23,11.63-4.18,16.61-7.54,7.92-5.34,8.14-11.15,1.05-19.16-1.58-1.78-3.95-3.27-6.23-3.93-8.11-2.34-16.28-2.6-25.19.86ZM1058.6,146.25c-10.59,7.18-58.64,59.21-59.28,63.92,9.08-1.25,14.56-7.73,20.26-13.91,6.63-7.19,13.27-14.37,19.99-21.48,5.13-5.43,10.31-10.81,15.61-16.08,3.42-3.4,3.72-7.45,3.42-12.45ZM951.61,158.45c17.37-18.15,34.7-36.25,52.03-54.36-2.8-.41-5.33-.31-7.09.9-4.64,3.2-9.37,6.46-13.31,10.44-10.65,10.75-20.77,22.04-31.42,32.79-3.45,3.48-3.6,6.28-.21,10.22ZM987.57,105.72c-.13-.42-.27-.83-.4-1.25-4.06,1.63-8.92,2.33-12.02,5.05-9.23,8.1-17.56,17.21-26.66,25.48-3.9,3.55-3.78,6.75-1.58,11.02,13.67-13.56,27.16-26.93,40.65-40.31ZM1005.27,179.28l-.98-.91c-1.01.5-2.24.79-3.01,1.54-11.5,11.2-22.94,22.46-34.39,33.71-3.46,3.4-2.61,7.21-1.19,12.12,13.58-15.95,26.58-31.21,39.57-46.46ZM972.89,142.24c-5.47,5.53-10.38,10.63-15.45,15.57-5.68,5.54-5.21,11.82-2.61,19.25,6.49-7.82,12.35-15.42,18.81-22.47,3.81-4.15,3.03-7.44-.75-12.36ZM1051.92,120.55c-.54-.08-1.08-.15-1.62-.23-1.35,1.15-2.86,2.15-4.02,3.46-6.05,6.81-11.75,13.96-18.11,20.47-3.36,3.44-3.03,6.75-1.71,12.49,9.13-10.6,17.53-20.12,25.55-29.95,1.01-1.23-.01-4.12-.09-6.24ZM980.69,135.58c.4.58.8,1.16,1.2,1.74,3.33-1.87,7.26-3.14,9.89-5.72,8.19-8.03,15.92-16.53,23.78-24.9,1.01-1.08,1.76-2.41,2.56-3.53-5.22-2.97-7.09,1.51-9.77,3.39-11.15,7.83-19.27,18.58-27.67,29.03ZM1006.08,260.95c-8.1,9.66-15.98,18.84-23.58,28.25-2.47,3.06-2.11,3.86.81,7.74,7.04-7.41,13.84-14.89,21.01-21.99,4-3.95,4.9-7.99,1.76-14.01ZM961.56,208.69c9.39-8.16,18.84-16.36,28.26-24.54-2.55-1.78-4.2-2.93-6.69-4.67-6.28,6.42-12.67,13.09-19.23,19.59-3.47,3.44-4.06,6.98-2.34,9.62ZM975.04,273.77c.48.04.96.08,1.45.12,7.42-8.7,14.78-17.44,22.28-26.08,3.04-3.5,2-6.84.11-11.13-8.2,10.23-16.18,19.88-23.68,29.88-1.17,1.56-.16,4.76-.16,7.2ZM1009.5,133.6c6.91,1.85,19.34-9.34,30.15-25.6-3.16,0-6.41-.96-7.47.15-7.6,8-14.75,16.42-22.69,25.44ZM1023.45,142.4c7.96-8.98,15.72-17.72,23.42-26.41-2.04-3.3-4.29-3.62-6.86-.82-5.71,6.23-11.18,12.72-17.24,18.6-3.71,3.6-3.28,5.98.68,8.63ZM994.96,215.11c-8.07,8.61-15.55,16.55-23,24.53-3.07,3.29-3.26,6.81.09,12,7.98-11.22,15.48-21.68,22.83-32.26.56-.81.07-2.36.07-4.27ZM1020.27,198.03l2.16,2.11c14.73-7.11,26.1-17.45,32.3-32.77-.44-.44-.88-.87-1.33-1.31-11.04,10.66-22.09,21.31-33.13,31.97ZM982.31,167.33c-10.29,5.61-16.82,14.79-22.94,24.28-.73,1.14-.1,3.16-.1,4.77.56.32,1.12.65,1.67.97,1.01-1.5,1.83-3.2,3.08-4.47,5.46-5.57,10.81-11.26,16.66-16.39,3.24-2.85,3.91-5.4,1.62-9.16ZM996.16,133.42c5.9,1.19,9.39-.41,12.07-4.47,1.82-2.75,4.21-5.13,6.34-7.69,4.52-5.43,9.03-10.87,13.55-16.3-.45-.43-.89-.87-1.34-1.3-11.81,7.82-20.48,19-30.62,29.76ZM977.73,284.9c.55.18,1.09.37,1.64.55,7.99-9.72,16.06-19.37,23.87-29.23,1.02-1.29.64-3.68.91-5.55-7.55,6.93-13.97,14.11-20.29,21.37-1.63,1.87-3.26,3.87-4.32,6.08-.99,2.07-1.23,4.5-1.8,6.78ZM972.06,259.7c.64.32,1.29.64,1.93.96,7.41-9.73,14.92-19.4,22.12-29.28,1.07-1.47.73-3.96,1.21-7.08-4.38,5.78-7.83,10.4-11.37,14.97-4.08,5.26-8.31,10.41-12.28,15.75-.94,1.27-1.1,3.11-1.62,4.69ZM957.22,186.36c3.67-4.39,6.76-8.51,10.31-12.2,3.66-3.81,7.73-7.23,11.67-10.77,2.99-2.69.78-4.51-.75-6.59-8.3,5.57-22.29,24.64-21.22,29.56ZM964.14,110.99c-8.38,1.41-22.33,15.14-20.48,23.03,7.43-8.36,14.51-16.32,20.48-23.03ZM1010.38,275.22c-6.2,6.84-11.67,12.88-17.48,19.29,7.13-3.14,13.93-6.14,20.93-9.22-1.08-3.16-2.09-6.08-3.45-10.07ZM938.19,117.34c1.01,2.74,1.72,4.65,2.88,7.79,2.89-3.65,5.05-6.37,8.08-10.19-4.29.94-7.24,1.59-10.96,2.4Z"/>
      <path d="M218.79,418.92c-3.87-17.9-7.24-34.52-11.16-51.01-1.09-4.58-3.45-9-5.88-13.1-4.56-7.67-15.49-7.74-19.57.24-2.39,4.67-3.56,10.41-3.7,15.71-.49,17.74,2.53,35.1,7.46,52.12.92,3.17.44,4.91-3.16,5.72-6.16,1.4-12.24,3.17-18.3,4.97-3.16.94-4.77-.21-5.45-3.2-1.54-6.81-2.95-13.66-4.62-20.44-5.28-21.36-10.77-42.67-15.94-64.06-3.08-12.76-5.82-25.6-8.39-38.47-.3-1.49,1.06-4.46,2.31-4.91,6.53-2.35,13.24-4.22,19.95-6.02,3.38-.91,4.79,1.55,5.67,4.25,3.28,9.94,6.5,19.9,9.75,29.84.5,1.53,1.01,3.06,2.96,5.68.72-1.29,1.21-2.81,2.2-3.85,12.62-13.18,32.97-16.26,46.72-6.12,4.67,3.45,9.13,8.95,10.78,14.4,6.46,21.3,11.69,42.97,17.54,64.46,1.32,4.87-.5,7.29-5.05,8.32-8.03,1.82-16.07,3.64-24.13,5.47Z"/>
      <path d="M273.8,360.6c2.69,10.33,12.09,16.56,22.49,14.84,10.97-1.82,20.92-5.91,27.32-15.62,3.28-4.98,6.83-5.9,11.9-3.03,2.59,1.47,5.41,2.58,8.24,3.55,4.56,1.56,4.51,4.16,2.87,8.14-7.9,19.07-23.21,27.1-42.59,29.97-20.87,3.09-37.39-4.84-50.18-20.27-6.67-8.04-10.13-18.42-9.6-29.3.48-10.02-.01-20.07,5.23-29.58,5.97-10.82,14.66-17.9,25.57-22.68,22.46-9.84,45.64-2.61,59.22,12.86,6.11,6.96,9.74,15.37,10.74,24.78.54,5.03-1.57,7.85-6.3,9.15-14.57,4-29.1,8.13-43.69,12.05-7.02,1.89-14.14,3.44-21.22,5.15ZM316.09,325.28c-6.19-7.65-15.01-9.76-25.02-6.59-8.93,2.83-16.11,10.48-16.59,18.03,13.79-3.79,27.48-7.55,41.62-11.44Z"/>
      <path d="M916.75,145.91c.35,1.59.62,3.21,1.05,4.77,10.82,39.09,21.75,78.14,32.42,117.27,2.49,9.13,4.14,18.48,6.07,27.76,1.04,5-3.04,11.27-9.59,13.64-7.62,2.75-15.51,4.74-23.27,7.12-2.85.87-5.73,1.72-8.44,2.92-2.65,1.17-4.58.87-5.68-1.88-1.47-3.68-3.17-7.35-4.05-11.18-5.87-25.62-11.19-51.37-17.4-76.9-6.01-24.71-12.92-49.21-19.35-73.82-1.89-7.24-3.42-14.57-5.31-21.81-.85-3.27-.15-4.67,3.4-5.54,11.93-2.91,23.77-6.19,35.61-9.48,4.38-1.22,8.94.22,10.15,4.58,2.05,7.36,3.3,14.95,4.89,22.44-.17.04-.34.07-.51.11ZM919.72,183.16c-1.18,1.65-1.74,2.47-2.34,3.26-7.6,10.06-15.09,20.07-20.05,31.92-2.37,5.66-2.7,10.29.02,16.15,1.84-2.61,3.53-4.81,5-7.15,5.4-8.57,9.87-17.91,16.34-25.56,5.22-6.18,3.76-11.22,1.02-18.63ZM887.09,204.57c.65.2,1.3.4,1.94.61.56-.78,1.17-1.53,1.67-2.36,7.29-12.07,14.41-24.26,21.94-36.19,2.91-4.62,1.19-8.16-.81-12.54-9.42,11.92-16.89,24.2-21.57,38.01-1.37,4.05-2.13,8.3-3.17,12.46ZM908.36,277.26c1.15-1.27,2.14-2.17,2.9-3.24,6.25-8.81,11.96-18.07,18.87-26.32,4.62-5.52,3.52-10.28,1.2-16.56-1.73,2.15-3.24,3.69-4.34,5.47-6.32,10.17-12.43,20.47-18.84,30.58-2.14,3.38-2.35,6.37.23,10.07ZM902.97,262.89c.53.09,1.05.18,1.58.27.47-.41,1.06-.75,1.39-1.25,7.49-11.41,14.99-22.82,22.4-34.27,2.35-3.63,1-7.11-1.29-10.89-8.18,11.64-15.99,23.39-23.06,35.57-1.62,2.78-.75,7.01-1.03,10.58ZM881.37,175.91c.6.09,1.21.17,1.81.26.35-.53.75-1.03,1.06-1.58,7.54-13.42,15.18-26.79,22.45-40.35,1.02-1.9.14-4.82.14-7.27-.53-.06-1.06-.12-1.59-.17-8.72,12.65-17.33,25.4-22.74,39.94-1.05,2.81-.78,6.1-1.12,9.17ZM899.96,247.92c7.96-11.03,15.46-21.74,23.33-32.16,3.33-4.41,3.65-8.57.54-14.48-8.21,13.79-16.13,26.9-23.75,40.18-.89,1.54-.12,4.04-.12,6.46ZM917.08,311.78c4.64.93,7.31.18,9.3-2.98,4.88-7.73,9.85-15.4,14.9-23.02,2.56-3.86,2.32-7.56.13-11.78-8.17,12.69-16.11,25.01-24.33,37.78ZM914.76,302.58c.83.4,1.66.81,2.49,1.21,7.39-11.74,14.87-23.42,22.04-35.29.9-1.5.12-4.01.12-6.05-.59-.05-1.17-.1-1.76-.16-9.78,12.26-19.65,24.48-22.89,40.29ZM935.75,249.69l-1.49-.34c-1.13,1.37-2.36,2.67-3.37,4.13-6.03,8.75-11.85,17.64-18.07,26.25-3.05,4.23-2.64,8.12-.9,11.74,7.72-10.91,15.73-21.83,23.16-33.12,1.39-2.12.5-5.74.67-8.66ZM916.3,170.56c-.68.43-1.17.59-1.42.93-9.3,12.76-17.56,26.11-23.04,41-.58,1.59-.08,3.58-.08,6.66,1.33-1.72,1.9-2.18,2.09-2.76,4.45-13.54,13.52-24.2,22.13-35.1,2.93-3.7,1.65-6.94.32-10.74ZM884.51,190.48c8.12-13.59,16.49-27.29,24.43-41.23,1.11-1.94.15-5.07.15-7.64-.46-.11-.91-.21-1.37-.32-1.14,1.54-2.44,2.99-3.39,4.64-3.79,6.63-7.68,13.22-11.14,20.02-2.93,5.76-5.52,11.72-7.86,17.75-.88,2.26-.63,4.96-.82,6.78ZM900.28,125.41c-7.74,1.22-23.7,29.91-20.93,35.82,6.86-11.74,13.73-23.51,20.93-35.82ZM944.62,288.2c-2.04,3.42-4.11,6.72-6.02,10.12-1.88,3.36-3.59,6.81-5.67,10.78,12.91-2.74,18.03-8.42,11.68-20.89ZM886.92,131.6c-4.91.86-11.31,11.91-10.4,18.17,3.56-6.22,6.94-12.12,10.4-18.17ZM873.85,139.43c1.68-3.15,2.86-5.36,4.15-7.78-5.67.03-5.82.27-4.15,7.78Z"/>
      <path d="M84.33,349.82c-2.98-10.34-5.82-20.17-8.8-30.5,8.94-2.52,17.18-4.84,26.29-7.41,3.3,10.8,6.43,21.04,9.6,31.42,3.54-1.15,7.01-2.17,10.41-3.4,3.19-1.16,4.97-.3,5.82,3.08,1.41,5.64,2.82,11.3,4.7,16.79,1.38,4.03-.19,6.03-3.67,7.21-2.66.9-5.4,1.56-8.82,2.53,1.72,6.61,3.38,12.97,5.03,19.34,3.96,15.28,7.98,30.54,11.76,45.85.33,1.35-.57,4.23-1.44,4.47-8.72,2.42-17.55,4.44-25.95,6.48-6.6-23.59-12.89-46.09-19.27-68.86-3.85.8-7.05,1.81-10.3,1.98-1.46.07-3.91-1.21-4.37-2.45-2.15-5.75-3.79-11.69-5.57-17.58-.84-2.77.18-4.38,3.01-5.18,3.65-1.03,7.23-2.34,11.57-3.77Z"/>
      <path d="M225.19,533.64c18.76-5.41,37.52-10.82,56.27-16.24.23.5.46,1,.69,1.5-24.75,13.37-49.49,26.74-74.3,40.15-2.7-7.98-1.42-13.3,4.61-20.13-6.31,2.27-9.12,8.18-8.06,17.51.31,2.7.69,5.05-2.88,5.57-6.5-15.91,3.03-30.7,20.4-31.87,1.89-.13,3.71-1.25,5.59-1.83,19.92-6.1,39.85-12.19,59.78-18.28.24.63.49,1.25.73,1.88-2.55,1.15-5.02,2.59-7.67,3.42-17.3,5.38-34.64,10.62-51.96,15.93-1.24.38-2.43.94-3.64,1.42l.44.96Z"/>
      <path d="M1355.6,508.78c-.72,6.91-1.41,13.71-6.41,19.44-8.85,10.13-25.23,11.97-32-3.92-6.61-15.52-6.35-29.29,8.6-38.46,7.79-4.78,16.96-3.74,22.73,3.56,4.4,5.57,6.87,12.11,7.09,19.39ZM1316.09,505.45c.6,4.1.94,8.26,1.86,12.29,1.94,8.54,7.55,14.25,14.16,14.88,7.27.7,14.58-4.32,18.07-12.35,4.13-9.5,2.91-18.6-2.58-27.06-2.47-3.81-5.99-6.5-11.05-6.74-10.33-.49-19.75,8.25-20.46,18.98Z"/>
      <path d="M0,685.03c6.05,11.15,11.78,21.74,17.53,32.31,8.81,16.19,17.76,32.31,26.4,48.59,3.21,6.05,6.84,11.39,13.48,14.09-6.69-.34-11.26-3.72-14.41-9.54-11.3-20.89-22.68-41.74-34.03-62.61-1.9-3.5-4.12-6.89-5.57-10.57-1.48-3.76-2.21-7.83-3.4-12.27Z"/>
      <path d="M295.15,655.04c7.12-2.25,14.25-4.51,21.37-6.76.09.27.17.53.26.8-7.09,2.46-14.17,4.92-21.26,7.38-.12-.47-.24-.95-.37-1.42Z"/>
      <path d="M88.51,642.45c8.55-4.78,16.35-3.43,21.19,4.09,4.02,6.25,7.2,13.04,10.78,19.58,1.43,2.61,2.97,5.16,4.38,7.77,2.78,5.14,5.46,10.33,8.28,15.45,2.23,4.06,4.78,7.96,6.83,12.1,1.53,3.09,2.8,6.39,3.6,9.74,1.1,4.57-1.03,8.24-4.35,11.44,2.41-7.32-.65-13.32-3.96-19.37-8.94-16.33-17.78-32.7-26.58-49.11-4.24-7.91-10.62-12.11-20.17-11.7Z"/>
      <path d="M186.33,592.56c-4.17,7.16-2.08,13.07,1.17,19,9.45,17.21,18.7,34.53,28.19,51.72,2.12,3.83,4.89,7.3,7.39,10.97-4.01,1.05-6.79-1.6-8.71-4.94-5.89-10.23-11.42-20.67-17.24-30.93-4.4-7.75-8.89-15.46-13.61-23.02-4.98-7.97-4.28-16.95,2.81-22.79Z"/>
      <path d="M237.37,663.64c-1.4-.51-3.5-.62-4.08-1.61-2.67-4.56-5.67-9.13-7.17-14.12-3.95-13.16-7.14-26.54-10.74-39.81-.59-2.16-1.88-4.12-2.67-6.23-1.95-5.23-3.79-10.49-5.68-15.74.57-.26,1.14-.52,1.71-.79.65.54,1.65.97,1.88,1.65,2.83,8.48,5.76,16.94,8.23,25.53,4.9,17.06,9.71,34.12,18.95,49.49-.14.55-.29,1.09-.43,1.64Z"/>
      <path d="M1337.05,506.58c4.65,6.25,5.34,10.96,1.47,15.49-.49-2.61-.75-4.56-1.23-6.45-.72-2.86-1.1-6.26-5.27-5.97-3.58.24-6.33,1.53-6.59,5.85-.12,2.03-.98,4.02-1.51,6.03-.58-.11-1.16-.22-1.74-.33,0-1.5.12-3.02-.03-4.5-.27-2.71-1.16-5.44-.96-8.1.3-3.76.34-8.21,2.38-10.99,1.94-2.64,6.3-4.89,9.59-4.88,7.32.01,8.78,5.58,3.88,13.85ZM1323.93,504.41c3.08,0,5.94.68,8.18-.21,1.82-.73,2.9-3.33,4.31-5.1-1.71-1.18-3.63-3.55-5.1-3.3-4.04.69-6.95,3.26-7.38,8.61Z"/>
    </g>
  </g>
</svg>