<?xml version="1.0" encoding="UTF-8"?>
<svg id="Layer_2" xmlns="http://www.w3.org/2000/svg" viewBox="0 0 1085.87 437.87">
  <defs>
    <style>
      .cls-1 {
        fill: #3c3c3c;
      }

      .cls-2 {
        fill: #040404;
      }

      .cls-3 {
        fill: #939393;
      }

      .cls-4 {
        fill: #323232;
      }

      .cls-5 {
        fill: #010101;
      }

      .cls-6 {
        fill: #b6b6b6;
      }

      .cls-7 {
        fill: #030303;
      }

      .cls-8 {
        fill: #363636;
      }

      .cls-9 {
        fill: #e4e4e4;
      }

      .cls-10 {
        fill: #f4f4f4;
      }

      .cls-11 {
        fill: #111;
      }

      .cls-12 {
        fill: #8a8a8a;
      }

      .cls-13 {
        fill: #979797;
      }

      .cls-14 {
        fill: #a5a5a5;
      }

      .cls-15 {
        fill: #3b3b3b;
      }

      .cls-16 {
        fill: #4f4f4f;
      }

      .cls-17 {
        fill: #424242;
      }

      .cls-18 {
        fill: #3a3a3a;
      }

      .cls-19 {
        fill: #525252;
      }

      .cls-20 {
        fill: #c4c4c4;
      }

      .cls-21 {
        fill: #c6c6c6;
      }

      .cls-22 {
        fill: #bababa;
      }

      .cls-23 {
        fill: #a0a0a0;
      }

      .cls-24 {
        fill: #464646;
      }

      .cls-25 {
        fill: #020202;
      }

      .cls-26 {
        fill: #565656;
      }

      .cls-27 {
        fill: #bcbcbc;
      }

      .cls-28 {
        fill: #272727;
      }

      .cls-29 {
        fill: #646464;
      }

      .cls-30 {
        fill: #515151;
      }

      .cls-31 {
        fill: #101010;
      }

      .cls-32 {
        fill: #080808;
      }

      .cls-33 {
        fill: #c5c5c5;
      }

      .cls-34 {
        fill: #f7f7f7;
      }

      .cls-35 {
        fill: #4a4a4a;
      }

      .cls-36 {
        fill: #1f1f1f;
      }

      .cls-37 {
        fill: #383838;
      }

      .cls-38 {
        fill: #5e5e5e;
      }

      .cls-39 {
        fill: #2a2a2a;
      }

      .cls-40 {
        fill: #f5f5f5;
      }

      .cls-41 {
        fill: #202020;
      }

      .cls-42 {
        fill: #585858;
      }

      .cls-43 {
        fill: #131313;
      }

      .cls-44 {
        fill: #c2c2c2;
      }

      .cls-45 {
        fill: #232323;
      }

      .cls-46 {
        fill: #cbcbcb;
      }

      .cls-47 {
        fill: #888;
      }

      .cls-48 {
        fill: #4b4b4b;
      }

      .cls-49 {
        fill: #404040;
      }

      .cls-50 {
        fill: #333;
      }

      .cls-51 {
        fill: #535353;
      }

      .cls-52 {
        fill: #1a1a1a;
      }

      .cls-53 {
        fill: #eee;
      }

      .cls-54 {
        fill: #2e2e2e;
      }

      .cls-55 {
        fill: #b2b2b2;
      }

      .cls-56 {
        fill: #0e0e0e;
      }

      .cls-57 {
        fill: #4c4c4c;
      }

      .cls-58 {
        fill: #4d4d4d;
      }

      .cls-59 {
        fill: #686868;
      }
    </style>
  </defs>
  <g id="Layer_1-2" data-name="Layer_1">
    <g id="k8xluE">
      <g>
        <path class="cls-18" d="M711.74,206.56c0,18.83.09,37.66-.08,56.49-.04,4.47,1.28,6.55,5.99,6.13,2.63-.23,5.34-.04,7.96.33.86.12,1.56,1.42,2.33,2.17-.83.67-1.56,1.62-2.51,1.95-1.05.37-2.3.22-3.47.22-13.83,0-27.66-.01-41.49-.03-1.16,0-2.43.18-3.46-.21-.91-.34-1.57-1.36-2.33-2.09.79-.72,1.53-1.99,2.39-2.07,3.31-.32,6.65-.39,9.98-.31,3.22.08,4.48-1.34,4.47-4.48-.04-18-.04-35.99.02-53.99,0-2.93-1.15-4.21-4.15-4.2-19.66.06-39.33.06-58.99,0-3.32-.01-4.35,1.58-4.34,4.61.05,17.83.07,35.66.02,53.49-.01,3.46,1.47,4.79,4.87,4.58,2.82-.18,5.7-.28,8.48.12,1.31.19,2.44,1.61,3.66,2.47-1.18.69-2.34,1.9-3.56,1.97-4.15.25-8.33.1-12.49.1-10.16.01-20.32.03-30.49.03-1.33,0-2.75.22-3.97-.17-1.06-.34-1.9-1.39-2.84-2.13.97-.76,1.86-2.01,2.92-2.17,2.45-.37,4.99-.37,7.48-.23,4,.22,5.66-1.28,5.65-5.5-.11-37.66-.12-75.32.02-112.98.02-4.76-1.56-6.79-6.36-6.34-2.31.22-4.68.17-6.98-.1-.91-.11-1.7-1.17-2.55-1.79.73-.8,1.31-1.93,2.22-2.3,1.18-.49,2.6-.52,3.92-.52,13.99-.03,27.99-.09,41.98.11,1.66.02,3.29,1.49,4.94,2.29-1.57.79-3.11,2.18-4.71,2.27-12.18.63-12.18.55-12.18,12.85,0,13,.12,26-.07,38.99-.07,4.37,1.52,5.81,5.84,5.77,18.66-.18,37.33-.2,55.99-.03,4.37.04,5.83-1.43,5.77-5.77-.2-15.33-.19-30.66-.02-45.99.05-4.26-1.22-6.21-5.7-5.77-2.8.27-5.67.14-8.48-.11-.93-.08-1.77-1.12-2.65-1.73.84-.85,1.55-2.01,2.57-2.48.98-.45,2.29-.22,3.45-.22,13.83-.02,27.66-.03,41.49-.03,1,0,2.18-.27,2.95.16,1,.56,1.67,1.71,2.49,2.6-.9.6-1.75,1.61-2.71,1.71-2.47.26-5,.3-7.49.09-4.31-.35-5.88,1.37-5.84,5.75.17,18.83.07,37.66.07,56.49ZM692.42,203.12s-.01,0-.01,0c-2.95.34-5.89.96-8.84.97-19.7.09-39.41.04-59.11.04-1-2.51-2.84-5-2.88-7.52-.27-15.63-.21-31.27-.1-46.91.05-7.51.21-7.52-7.69-7.5-2.65,0-6.29-.88-7.68.49-1.36,1.34-.51,5.01-.52,7.65-.07,39.09-.12,78.18-.13,117.28,0,1.04.21,2.45.88,3.04,1.77,1.56,13.85.26,16.08-1.48.02-20.99.04-41.98.06-62.97.62-.38,1.24-.76,1.86-1.14,22.37.03,44.74.06,67.11.09h0c.66,2.52,1.88,5.03,1.9,7.55.17,16.66.12,33.33.04,49.99-.01,2.12-.3,4.36-1.03,6.33-.84,2.26-.41,3.09,1.95,3.09,9.62-.02,19.25,0,28.72,0-4.19-.97-8.41-1.96-12.64-2.94h.02c-.02-41.36-.03-82.73-.05-124.09-.54-.78-1.04-2.2-1.63-2.24-5.02-.31-10.06-.37-15.1-.37-.06,0-.12,1.74-.18,2.66,0,16.38.04,32.77-.07,49.15-.02,2.95-.64,5.89-.98,8.83Z"/>
        <path class="cls-7" d="M818.36,230.17c.42.91.84,1.82,1.26,2.73,3.4,9.35,6.82,18.69,10.19,28.05,2.09,5.79,3.42,12.36,9.1,11.04-4.88,0-12.69.07-20.51-.08-1.08-.02-2.8-.85-3.09-1.7-1.77-5.07-3.21-10.26-4.76-15.41-1.69-3.55-3.38-7.11-5.07-10.66-.69-2.99-1.38-5.97-2.07-8.96-4.09-9.32-8.19-18.63-12.22-27.97-.3-.69-.32-1.69-.05-2.39,2.52-6.56,5.13-13.08,7.71-19.62,5.32,10.52,9.36,20.98,13.54,31.39,1.84,4.58,3.96,9.06,5.95,13.58Z"/>
        <path class="cls-50" d="M459.35,264.03c1.88-4.9,3.72-9.83,5.68-14.7.43-1.08,1.31-1.97,1.99-2.95.73.98,2.06,1.95,2.08,2.95.17,6.82.29,13.67-.16,20.47-.09,1.35-2.67,3.61-4.14,3.64-14.99.32-29.98.25-44.97.3-8.99.03-17.99.16-26.98,0-1.48-.03-2.95-1.32-4.42-2.03,1.5-.75,2.95-2.05,4.5-2.17,9.36-.75,9.36-.66,9.36-10.32,0-21.83.03-43.65.02-65.48,0-6.54-.41-6.76-6.63-7.07-2.4-.12-4.74-1.21-7.11-1.86,2.45-.78,4.91-2.23,7.36-2.24,22.49-.1,44.97.14,67.46.07,4.32-.01,6.06,1.45,5.88,5.82-.24,5.65.08,11.33-.18,16.99-.07,1.52-1.37,2.99-2.11,4.48-.69-1.34-1.79-2.61-2.01-4.02-2.1-13.17-8.66-19.02-21.9-19.06-7.48-.02-14.97.25-22.45.39-.68,1.23-1.94,2.44-1.96,3.68-.16,10.09-.13,20.17-.06,30.26.02,3.47,2.07,5.01,5.44,5,3.47-.01,6.95.02,10.42.03,0,.63,0,1.26-.01,1.9-4.71,0-9.42-.02-14.12-.03-.95-2.24-2.69-4.47-2.73-6.72-.17-11.15.14-22.31.19-33.47,0-.9-.59-2.53-1.07-2.59-3.45-.46-6.96-.8-10.43-.71-.76.02-2.12,1.91-2.12,2.95-.02,26.32.18,52.65.1,78.97-.01,3.64,1.2,4.85,4.54,4.66,1.33-.08,2.68-.12,4,.01,4,.4,4.9-1.24,4.82-5.22-.23-11.65.15-23.3.29-34.96.2,1.79.57,3.59.59,5.38.06,9.09.08,18.19,0,27.28-.03,3.69.94,6.54,4.93,7.5h20.99c1.05.02,2.09.06,3.14.09,6.28-.04,12.56-.08,18.84-.13h-.01c.47-6.88.93-13.77,1.4-20.66-.39-.03-.79-.06-1.18-.1-.41,2.55-.82,5.1-1.23,7.65l-5.67,7.23c-.13-.41-.25-.82-.38-1.23ZM467.27,200.39c0-4.12.31-8.28-.17-12.34-.16-1.35-2.27-3.37-3.65-3.52-4.34-.46-8.76-.17-14.09-.17q10.65,5.59,17.92,16.03Z"/>
        <path class="cls-21" d="M314.85,275.15c-11.49,0-22.98.01-34.47-.02-1.66,0-3.45.12-4.92-.47-1.17-.47-2.82-2.1-2.67-2.92.23-1.28,1.65-3.03,2.86-3.3,2.55-.57,5.29-.38,7.95-.38,3,0,4.71-1.16,4.71-4.4-.03-23.82-.03-47.63,0-71.45,0-3.05-1.59-4.09-4.39-4.06-2.5.02-5.08.27-7.46-.29-1.45-.34-2.59-2.03-3.87-3.11,1.32-1.2,2.57-3.32,3.97-3.42,5.8-.41,11.65-.21,17.47-.22,8.33-.01,16.66-.19,24.98.14,1.81.07,4.85,1.79,5.07,3.12.57,3.46-2.7,3.76-5.15,3.65-12.2-.51-10.3,1.49-10.34,10.94-.08,20.82-.03,41.64,0,62.45,0,6.11.5,6.69,6.5,6.62,7.15-.09,14.35.06,21.42-.79,8.07-.96,13.19-7.12,13.88-15.28.2-2.32-.07-4.78.64-6.92.47-1.43,2.29-2.41,3.5-3.6,1.18,1.22,3.03,2.27,3.39,3.7.64,2.52.44,5.28.46,7.93.05,4.83.09,9.66-.01,14.49-.12,5.76-1.78,7.46-7.54,7.51-11.99.09-23.98.03-35.97.03v.05ZM342.21,267.87c-9.43.71-18.85,1.63-28.29,2.07-6.41.3-7.12-.64-7.13-7.16-.03-21.48-.03-42.95-.01-64.43.01-13.06-1.12-12,11.68-12.03,1.41,0,2.82-1.01,4.23-1.55-1.42-.56-2.83-1.59-4.26-1.61-11.82-.14-23.64-.21-35.46-.02-2.65.04-5.29,1.2-7.93,1.84,2.64.47,5.27,1.24,7.92,1.34,6.41.25,6.69.37,6.69,6.89.01,21.81,0,43.62,0,65.43,0,10.8,0,10.74-10.74,11.47-1.35.09-2.63,1.21-3.94,1.86,1.3.48,2.6,1.35,3.9,1.37,9.65.11,19.31.07,28.96.05,14.32-.04,28.64,0,42.95-.29,1.8-.04,5.03-1.84,5.11-2.99.5-7.96.37-15.96.31-23.95,0-.73-.98-1.46-1.5-2.19-.53.73-1.39,1.4-1.55,2.2-.77,3.91-1.35,7.86-2,11.79-2.99,3.31-5.97,6.61-8.96,9.92Z"/>
        <path class="cls-30" d="M5.37,232.3c-1.42-4.21-3.37-8.33-4.17-12.65-6.34-34.3,12.84-67.76,45.59-79.73,17.78-6.5,34.34-3.91,49.73,6.97,1.61,1.14,3.41,2.08,5.23,2.84,4.02,1.69,7.01.48,9.22-3.33.79-1.36,2.32-2.29,3.51-3.41.61,1.62,1.7,3.23,1.74,4.87.17,7.83.04,15.66.03,23.49,0,2.33.3,4.7-.03,6.98-.26,1.77-1.27,3.43-1.95,5.14-.98-1.5-2.6-2.91-2.83-4.52-1.29-8.7-5.05-16.14-10.79-22.67-13.15-14.94-37.43-19.59-53.24-10.2-1.64.71-3.27,1.43-4.91,2.14,1.86-2.31,3.72-4.61,4.78-5.93-18.5,3.85-40.47,26.32-43.83,51.86-2.85,8.62-2.35,17.34-.72,26.09.97,3.53,1.94,7.06,2.91,10.59-.09.49-.18.97-.27,1.46ZM97.36,150.26c9.01,8.89,14.41,17.99,16.79,28.82v-33.05c-3.53,6.83-8.99,7.23-16.79,4.23Z"/>
        <path class="cls-48" d="M1022.51,183.96c2.93,3.55,6.03,6.98,8.76,10.67,10.58,14.31,21.03,28.71,31.6,43.03.78,1.06,2.11,1.73,3.18,2.58.27-1.24.77-2.48.78-3.72.03-13.48,0-26.96-.07-40.44-.04-7.59-1.11-8.57-8.53-9.19-1.71-.14-3.33-1.34-4.99-2.05,1.77-.85,3.51-2.37,5.3-2.44,7.48-.28,14.98-.26,22.46,0,1.65.06,3.25,1.53,4.88,2.35-1.63.73-3.22,1.98-4.89,2.09-8.01.53-9.35,1.79-9.36,10.07-.03,22.97-.03,45.93-.05,68.9,0,1.5.11,3.02-.11,4.49-.45,3.01-2.21,3.84-4.43,1.73-2.12-2.03-3.78-4.55-5.64-6.85-.67-1.66-1.34-3.32-2.02-4.99,2.32,2.58,4.61,5.18,6.98,7.72.51.55,1.31.83,1.98,1.24.34-.7.93-1.39.97-2.11.14-2.49.21-5,.07-7.49-.36-6.37,2.48-13.86-5.91-17.54-.13-.06-.17-.28-.27-.41-13.65-18.68-27.3-37.37-40.94-56.05.08-.53.16-1.06.25-1.58ZM1059.29,184.35c2.4,1.56,5.52,3.64,8.71,5.61.63.39,1.79.73,2.25.42,3.14-2.1,6.17-4.37,8.45-6.03h-19.41Z"/>
        <path class="cls-22" d="M555.42,34.17c4.39,4.58,9.85,8.54,12.99,13.87,10.51,17.82,10.55,37.44,7.7,57.21-5.05,35.08-19.34,66.86-35.21,98.09-1.44,2.84-2.3,6.27-2.37,9.45-.54,22.97-.71,45.96-1.18,68.93-.35,17.3-.89,34.6-1.51,51.89-.11,3.13,1.22,4.39,3.93,5.4,3.69,1.37,7.21,3.22,10.79,4.87-.04.43-.08.85-.12,1.28-4.76-1.64-9.51-3.28-14.27-4.91-.54-1.88-1.44-3.74-1.55-5.64-.25-4.13-.09-8.28-.1-12.42,0-.95.02-1.89.03-2.84.19-2.47.49-4.95.55-7.42.85-35.56,1.66-71.12,2.48-106.69,7.95-17.36,15.9-34.72,23.85-52.07,2.66-8.72,5.32-17.43,7.99-26.15,1.72-8.95,3.43-17.9,5.15-26.84,0,0-.04.08-.04.08-.01-9.38-.03-18.75-.04-28.13,0,0,.02.04.02.04l-5.07-17.89c-3.19-7.13-7.32-13.55-13.81-18.17-.07-.64-.13-1.28-.2-1.91Z"/>
        <path class="cls-19" d="M500.34,360.89c1.37-2.82,2.27-6.03,4.23-8.35,2.85-3.37,3-6.56,1.89-10.59-4.95-18.1-5.28-36.52-2.85-55,3.13-23.85,10.99-46.21,21.72-67.66,1.14-2.27,1.79-5.07,1.74-7.61-1.22-57.12-2.57-114.24-3.92-171.37-.14-5.91-.41-5.98-8.64-3.05-.08-.44-.17-.89-.25-1.33.87-.48,1.7-1.06,2.62-1.42,6.3-2.5,7.56-1.59,7.77,5.11.23,7.48.63,14.95.96,22.42.05,10.72.09,21.44.14,32.15,0,2.59.01,5.19.02,7.78.31,6.41.62,12.82.93,19.22l-.02,1.82c.35,16.01.7,32.02,1.05,48.03.23,5.7.46,11.39.69,17.09.05,1.99.1,3.98.15,5.97.05,5.7.11,11.39.16,17.09-1.11,4.32-2.22,8.64-3.33,12.96-.86,1.42-1.84,2.78-2.56,4.26-11.72,24.12-18.03,49.63-19.22,76.38-.17,3.76.55,7.56.86,11.34.73,6.9.63,14.03,2.42,20.64,1.7,6.25-.05,13.67,5.61,18.73.09.08.03.32.04.49-.34.03-.69.06-1.03.09-1.46-2.28-2.83-2.07-3.89.28-1.76,3.89-3.42,7.84-5.12,11.76-.73,2.05-1.45,4.1-2.18,6.15l-1.8-2.01c.62-3.79,1.23-7.59,1.85-11.38Z"/>
        <path class="cls-24" d="M1022.51,183.96c-.08.53-.16,1.06-.24,1.58-5.41-.4-10.81-.88-16.23-1.14-1.17-.06-2.38.67-3.56,1.04.74,1.41,1.23,3.07,2.29,4.16,1.1,1.13,3.22,1.37,4.12,2.58,5.95,7.93,11.69,16.02,17.5,24.06-.62-.06-1.24-.12-1.87-.18-5.06-6.82-10.1-13.65-15.22-20.42-.54-.72-1.54-1.08-2.33-1.61-.42.97-1.2,1.94-1.2,2.9-.05,21.67-.1,43.33.08,65,.04,5.14,2.55,6.76,8.19,7.41,2.25.26,4.36,1.73,6.53,2.65-2.23.65-4.44,1.79-6.68,1.87-7.32.25-14.67.24-21.99.01-1.62-.05-3.2-1.43-4.79-2.2,1.47-.78,2.88-2.1,4.42-2.26,9.01-.95,9.85-1.74,9.85-10.67,0-21.83-.14-43.67.08-65.5.05-4.74-1.29-6.9-6.16-6.36-1.48.16-3.06.25-4.48-.09-1.27-.31-2.38-1.26-3.57-1.92,1.24-.83,2.45-1.72,3.73-2.47.38-.22.98-.08,1.48-.07,8.33.03,16.67-.01,25,.18,1.7.04,3.37.95,5.06,1.47ZM1004.3,194.51c-.57,0-1.14,0-1.7,0,0,1.74,0,3.49,0,5.23,0,20.62.03,41.25-.04,61.87-.02,6.87-2.47,9.28-9.25,9.6-.84.04-1.68.19-2.52.28.02.1.04.2.06.3h25.16c-1.32-.53-2.66-.5-3.96-.69-5.23-.76-7.72-4-7.73-10.39-.04-22.07-.02-44.14-.02-66.2Z"/>
        <path class="cls-58" d="M5.37,232.3c.09-.49.18-.97.27-1.46,1.93,3.84,3.59,7.85,5.84,11.5,7.93,12.86,17.96,23.35,32.94,27.96,2.26.93,4.5,1.9,6.81,2.69.17.06.79-1.24,1.21-1.91,2.26.41,4.52.88,6.79,1.22,13.29,2.01,25.15-1.03,35.27-10.1,9.52-8.06,15-18.33,16.88-30.61.27-1.79.74-3.54,1.12-5.32,1.04,1.77,2.94,3.52,2.98,5.32.25,11.49.14,22.98.02,34.47-.01,1.34-.84,2.67-1.29,4.01-.92-.99-2.11-1.84-2.7-2.99-3.23-6.23-5.75-6.96-11.16-3.03-10.88,7.26-21.95,13.54-35.86,12.68-25.76-1.58-43.72-14.76-56.07-36.63-1.36-2.41-2.05-5.19-3.05-7.8ZM94.93,264.24c4.15-1.5,7.69-4.02,10.75-3.53,3.11.49,5.76,3.95,8.48,6.02v-36.37c-2.38,13.37-8.59,24.55-19.23,33.88Z"/>
        <path class="cls-59" d="M423.46,271.16c-3.99-.96-4.96-3.81-4.93-7.5.07-9.09.06-18.19,0-27.28-.01-1.8-.38-3.59-.59-5.39.8-.97,1.61-1.94,2.41-2.92,4.71,0,9.42.02,14.12.03,2.38,1.66,4.76,3.32,7.14,4.98.78,2.9,1.56,5.8,2.34,8.7.19-.05.39-.09.58-.14v-28.82c-.17-.02-.34-.03-.51-.05-.95,3.06-1.9,6.13-2.85,9.19-2.23,1.41-4.46,2.82-6.68,4.23-3.47-.01-6.95-.04-10.42-.03-3.38.01-5.42-1.53-5.44-5-.07-10.09-.1-20.18.06-30.26.02-1.24,1.28-2.45,1.96-3.68-.03,10.65.03,21.3-.14,31.95-.06,4.04,1.49,5.94,5.58,5.61,1.99-.16,4-.14,5.97-.4,6.41-.84,7.62-2.29,8.9-8.72.44-2.2,1.93-4.18,2.95-6.26.84,2.24,2.32,4.45,2.41,6.72.31,7.81.26,15.64.04,23.46-.05,1.71-1.34,3.38-2.06,5.07-1.11-1.57-2.88-3.01-3.21-4.73-1.71-8.77-9.15-13.19-17.99-10.1-1.13.4-2.39,2.39-2.41,3.66-.2,10.48-.26,20.97.05,31.45.04,1.39,2.38,3.84,3.72,3.89,7.64.27,15.35.45,22.92-.35,4.1-.44,7.98-2.89,11.96-4.44.13.41.25.82.38,1.23-2.43,1.63-4.87,3.26-7.3,4.89-1.61.37-3.23.74-4.84,1.11-1.05-.04-2.09-.07-3.14-.11-7,0-13.99,0-20.99.01Z"/>
        <path class="cls-51" d="M818.36,230.17c-1.99-4.52-4.11-9-5.95-13.58-4.18-10.41-8.23-20.87-13.54-31.39-2.58,6.53-5.2,13.06-7.71,19.62-.27.7-.25,1.7.05,2.39,4.03,9.34,8.13,18.65,12.22,27.97.55,4.6-1.69,6.41-6.06,5.98-6.6-.65-13.2-1.4-19.8-1.99-.68-.06-1.44.64-2.16.98,2.48-6.83,4.79-13.73,7.46-20.48,4.65-11.75,9.48-23.43,14.34-35.1.44-1.05,1.67-1.76,2.53-2.63.74.83,1.8,1.53,2.18,2.5,5.56,14.08,11.05,28.19,16.46,42.33.38.99,0,2.26-.02,3.4ZM792.32,211.12c-.5-.04-.99-.09-1.49-.13-3.34,8.53-6.76,17.03-9.84,25.65-.24.68,1.82,3.09,2.91,3.17,4.95.34,9.95.32,14.9-.04,1.03-.07,2.95-2.48,2.7-3.22-2.86-8.54-6.06-16.96-9.17-25.42Z"/>
        <path class="cls-17" d="M165.28,261.25c-10.78-11.03-14.51-24.56-12.65-39.42,2.01-16.1,9.82-28.9,24.67-36.47,23.37-11.92,52.34-.62,61.56,23.86.46,1.22.51,2.58.75,3.88-.41.02-.82.04-1.22.06-.58-1.19-1.26-2.34-1.72-3.57-4.25-11.34-12.03-19.25-23.22-23.78-1.63-.66-3.41-.96-5.93-1.64,2.15,2.27,3.49,3.68,4.82,5.09-4.76-1.64-9.41-3.97-14.3-4.69-3.71-.54-7.72.97-11.59,1.57-1.73-.1-3.68-.77-5.15-.2-16.81,6.52-29.22,26.3-27.55,44.44,1.05,11.44,4.54,22.09,12.88,30.58-.44.1-.89.2-1.33.29Z"/>
        <path class="cls-26" d="M892.21,239c3.65-9.78,7.21-19.58,10.97-29.32,2.99-7.74,6.13-15.44,9.4-23.07.71-1.67,2.26-2.97,3.43-4.44,1.03,1.38,2.41,2.62,3.03,4.16,5.13,12.8,10.15,25.64,15.14,38.49.65,1.68.97,3.49,1.45,5.25-.47.09-.95.17-1.42.26-2.52-6.48-5.02-12.96-7.55-19.43-3.34-8.53-6.71-17.05-10.07-25.57-.47.02-.94.03-1.4.05-2.61,6.59-5.26,13.15-7.76,19.78-.27.72.2,1.81.53,2.64,2.47,6.13,4.99,12.24,7.49,18.35l-3.02-4.99c-.77-2.17-1.42-4.38-2.35-6.48-.47-1.06-1.43-1.91-2.17-2.86-.74,1.01-1.72,1.93-2.18,3.05-2.52,6.05-4.92,12.14-7.35,18.22-.95,1.71-1.91,3.41-2.86,5.12-.94.34-1.89.69-2.83,1.03-.15-.09-.3-.18-.45-.26Z"/>
        <path class="cls-44" d="M94.5,262.2c-10.12,9.07-21.98,12.11-35.27,10.1-2.27-.34-4.53-.81-6.79-1.22-1.95-.7-3.9-1.41-5.85-2.11l-6.01-4.88c-3.33-5.71-7.96-11.04-9.77-17.21-9.36-31.94-10.54-63.55,6.68-93.71,1.67-1.65,3.34-3.3,5-4.95,1.64-.71,3.27-1.43,4.91-2.14-2.8,2.8-6.51,5.15-8.22,8.51-4.01,7.92-8.77,16.06-10.12,24.6-2.17,13.67-2.62,27.76-2.31,41.64.24,11.08,3.05,22.07,8.38,32.03,7.52,14.06,18.74,19.01,35.3,18.09,9.07-.5,16.35-5.02,24.07-8.76Z"/>
        <path class="cls-49" d="M934.19,230.33c.47-.09.95-.17,1.42-.26,3.94,9.67,7.87,19.34,11.81,29.02.75,1.84,1.71,3.63,2.21,5.54.98,3.78,3.46,5.01,7.06,4.71.49-.04,1.07-.15,1.48.05,1.35.65,2.64,1.43,3.96,2.15-1.24.78-2.46,1.59-3.73,2.33-.25.15-.65.04-.99.04-10.8.01-21.61.12-32.41-.07-1.61-.03-3.2-1.46-4.8-2.24,1.51-.74,2.96-1.94,4.53-2.14,5.84-.71,5.99-.85,3.86-6.29-1.15-2.93-2.15-5.92-3.22-8.88.05-1.08.1-2.17.15-3.25,1.75,3.94,3.53,7.86,5.25,11.81,3.86,8.87,3.85,8.78,13.96,8.37,3.97-.16,4.87-1.32,3.29-5.2-4.8-11.82-9.26-23.79-13.85-35.7Z"/>
        <path class="cls-38" d="M500.34,360.89c-.62,3.79-1.23,7.59-1.85,11.38,0,5.41,0,10.81,0,16.22.24,0,.47-.01.71-.02.36-4.73.73-9.46,1.09-14.19.73-2.05,1.45-4.1,2.18-6.15-.17,6.12-.7,12.26-.43,18.36.65,14.61,6.19,27.4,15.39,38.66,0,1.67-.02,3.35-.03,5.02-18.04-16.1-26.12-48.92-17.07-69.29Z"/>
        <path class="cls-16" d="M810.56,254.8c1.55,5.15,2.99,10.34,4.76,15.41.3.85,2.01,1.68,3.09,1.7,7.81.14,15.63.08,20.51.08-5.68,1.32-7.01-5.25-9.1-11.04-3.37-9.36-6.79-18.7-10.19-28.05,2.78,5.92,5.67,11.8,8.3,17.79,1.8,4.1,3.46,8.3,4.77,12.58,1.31,4.27,3.63,6.35,8.31,6.08,1.57-.09,3.24,1.45,4.86,2.24-1.55.81-3.09,2.29-4.65,2.32-10.97.21-21.95.2-32.92.03-1.52-.02-3.03-1.26-4.54-1.93,1.35-.91,2.61-2.4,4.07-2.63,6.01-.97,6.35-1.46,3.93-7.14-.64-1.5-.95-3.13-1.42-4.7.08-.91.16-1.83.23-2.74Z"/>
        <path class="cls-42" d="M925.53,251.04c-.05,1.08-.1,2.17-.15,3.25-2.02-8.79-7.88-9.8-16.12-10.22-11.11-.56-18.24,1.95-20.19,13.65-.13.8-.61,1.54-.9,2.31-2.98,7.78-2.96,7.69,5.42,9.24,1.27.23,2.3,1.77,3.44,2.71-1.18.68-2.35,1.93-3.55,1.96-6.97.19-13.96.2-20.93,0-1.18-.03-2.32-1.37-3.48-2.1,1.07-.87,2.11-2.43,3.23-2.49,6.15-.35,8.89-4.14,10.91-9.36,2.75-7.1,5.98-14.01,9-21,.15.08.3.17.45.26-1.61,4.7-3.21,9.41-4.82,14.12,1.45-.68,1.89-1.71,2.29-2.76,2.71-6.96,3.4-7.42,11.02-7.45,6.48-.03,12.97-.1,19.45-.15,1.64,2.68,3.28,5.35,4.92,8.03ZM872.89,272.48h20.89c-5.55-1.19-10.37-2.63-9.37-8.71-3.66,2.77-7.71,5.83-11.52,8.71Z"/>
        <path class="cls-35" d="M555.42,34.17c.07.64.13,1.28.2,1.91-3.44-1.61-6.88-3.23-10.32-4.84-4.41-.85-5.92-3.84-5.9-7.98.02-4,.12-8,.02-11.99-.15-5.81-2.18-8.03-7.16-8.12-5.26-.1-7.5,2.13-7.75,8.11-.17,3.99-.11,8,.05,11.99.18,4.4-1.37,7.18-5.87,8.54-2.96.89-5.6,2.83-8.38,4.29-1.03.32-2.06.63-3.09.95.77-.95,1.53-1.89,2.3-2.84,2.63-1.41,5.1-3.38,7.91-4.12,4.58-1.2,5.57-3.96,5.25-8.13-.27-3.47-.22-6.98-.11-10.47.2-6.5,4.76-11.59,10.1-11.48,5.18.11,9.49,5.08,9.66,11.35.11,3.99.07,7.98-.09,11.97-.13,3.06.96,4.89,3.95,6.06,3.22,1.26,6.18,3.17,9.25,4.79Z"/>
        <path class="cls-30" d="M810.56,254.8c-.08.91-.16,1.83-.23,2.74-1.4-3-2.97-5.94-4.14-9.03-1.1-2.91-2.92-4.18-6.01-4.12-5.99.1-12.01-.32-17.95.22-2.1.19-4.75,2.16-5.82,4.06-2.16,3.87-3.41,8.25-5.03,12.42-3.54,5.87-2.53,8.05,4.05,8.75.82.09,1.75-.04,2.45.3.78.37,1.35,1.16,2.02,1.77-.72.56-1.44,1.6-2.17,1.61-7.29.15-14.58.2-21.87.09-.83-.01-1.65-1.22-2.48-1.87.7-.6,1.31-1.4,2.11-1.75,1.63-.71,3.36-1.17,5.06-1.74,2.43-3.56,5.15-6.96,7.2-10.73,2.19-4.03,3.73-8.41,5.55-12.64.19.93.38,1.85.55,2.66,2.12-1.48,4.02-3.92,5.97-3.97,8.55-.19,17.12.32,25.68.57,1.69,3.55,3.38,7.11,5.07,10.66ZM777.24,271.98c-8.42-1.68-8.87-2.09-9.54-7.55-3.3,2.52-6.94,5.3-9.89,7.55h19.44Z"/>
        <path class="cls-29" d="M165.28,261.25c.44-.1.89-.2,1.33-.29,4.6,3.1,9.19,6.19,13.79,9.29,6.92,4.36,14.59,2.88,22.07,2.87,4-.98,8-1.96,12-2.94,8.57-3.92,14.89-10.3,19.84-18.17.75-.27,1.51-.54,2.26-.81-6.26,16.04-27.79,27.53-45.38,24.12-10.09-1.96-19.51-5.24-25.91-14.05Z"/>
        <path class="cls-59" d="M498.51,54.17c-1,3.65-1.99,7.31-3,10.96-4.8,17.41-1.44,33.86,5.86,49.85.59,1.3,1.03,2.66,1.02,4.28-5.38-3.7-6.76-10-9.9-15.12-.66-3.33-1.31-6.66-1.97-9.99.63-.98,1.74-1.91,1.83-2.93.74-8.72,1.3-17.45,1.91-26.18,1.42-3.63,2.83-7.25,4.25-10.88Z"/>
        <path class="cls-46" d="M490.52,94.16c.66,3.33,1.31,6.66,1.97,9.99-4.82-10.21-6.37-21.07-4.53-32.04,1.22-7.27,3.76-14.42,6.55-21.29,2.91-7.18,7.9-12.97,14.99-16.62-.77.95-1.53,1.89-2.3,2.84-7.48,6.44-12.67,14.3-14.82,24.02-.66,1.84-1.87,3.67-1.9,5.52-.16,9.19,0,18.39.04,27.59Z"/>
        <path class="cls-6" d="M100.35,264.05c5.42-3.93,7.94-3.2,11.16,3.03.6,1.15,1.79,2,2.7,2.99.45-1.34,1.27-2.67,1.29-4.01.12-11.49.23-22.99-.02-34.47-.04-1.79-1.94-3.54-2.98-5.32,3.58-2.02,4.72.57,4.76,3.12.19,12.75.18,25.5-.05,38.25-.02,1.4-1.6,3.19-2.94,3.94-.57.32-3.19-1.34-3.49-2.47-1.58-5.93-5.58-6.22-10.42-5.06Z"/>
        <path class="cls-55" d="M1024.52,216.06c.62.06,1.24.12,1.87.18,11,14.65,21.99,29.3,32.99,43.95.67,1.66,1.34,3.32,2.02,4.99-3.75-4.61-7.62-9.13-11.23-13.85-8.25-10.79-16.38-21.68-24.52-32.56-.57-.76-.76-1.8-1.13-2.7Z"/>
        <path class="cls-33" d="M760.55,268.24c-1.69.56-3.43,1.03-5.06,1.74-.81.35-1.42,1.15-2.11,1.75.82.65,1.64,1.86,2.48,1.87,7.29.12,14.58.07,21.87-.09.74-.02,1.45-1.05,2.17-1.61-.66-.61-1.24-1.4-2.02-1.77-.7-.34-1.62-.21-2.45-.3-6.58-.7-7.59-2.88-4.05-8.75-.84,4.95.83,7.46,6.26,7.25,1.18-.05,2.44,2.02,3.66,3.11-1.17,1.17-2.3,3.3-3.52,3.35-7.6.31-15.23.3-22.84,0-1.36-.05-2.64-2-3.96-3.07,1.36-1.18,2.56-2.84,4.14-3.41,1.6-.58,3.59-.09,5.41-.07Z"/>
        <path class="cls-39" d="M492.38,61.05c2.16-9.72,7.34-17.58,14.82-24.02,1.03-.32,2.06-.63,3.09-.95.39.39.78.78,1.17,1.17-3.3,3.76-6.6,7.52-9.9,11.28l-3.06,5.64c-1.42,3.63-2.83,7.25-4.25,10.88-.63-1.33-1.25-2.67-1.88-4Z"/>
        <path class="cls-9" d="M535.51,378.44c-.34,10.12-.6,20.25-1.11,30.36-.07,1.4-1.36,2.74-2.09,4.11-.65-1.33-1.79-2.62-1.87-3.98-.45-7.62-.65-15.25-.93-22.88.31.36.62.73.94,1.09,0,3.81-.11,7.63.08,11.43.05,1.1.97,2.15,1.49,3.22.51-.95,1.42-1.87,1.48-2.85.41-6.6.64-13.2.92-19.81.36-.23.73-.47,1.09-.7Z"/>
        <path class="cls-27" d="M550.44,345.15c.04-.42.08-.85.12-1.28,12.24,5.81,15.65,19.29,7.14,28.82-1.35,1.51-3.5,2.29-5.29,3.41-.02-.37-.03-.73-.05-1.1,10.6-5.82,9.12-21.41.82-27.01-1.07-.72-1.84-1.89-2.75-2.84Z"/>
        <path class="cls-1" d="M805.49,244.14c-8.56-.25-17.13-.76-25.68-.57-1.95.04-3.85,2.49-5.97,3.97-.17-.8-.36-1.73-.55-2.66.7-1.57,1.4-3.15,2.1-4.72.72-.35,1.47-1.05,2.16-.98,6.61.59,13.2,1.34,19.8,1.99,4.38.43,6.61-1.38,6.06-5.98.69,2.99,1.38,5.97,2.07,8.96Z"/>
        <path class="cls-13" d="M552.36,375c.02.37.03.73.05,1.1-5.63.78-11.27,1.56-16.9,2.34-.36.23-.73.47-1.09.7-.77,3.65-1.54,7.31-2.39,11.33-.63-1.33-1.1-2.33-1.58-3.33-.31-.36-.63-.73-.94-1.09-.03-3.3-.06-6.59-.09-9.89.01-.68.02-1.36.03-2.05,7.51,3.66,15.18,2.88,22.9.88Z"/>
        <path class="cls-1" d="M236.57,251.19c-.75.27-1.51.54-2.26.81,1.41-3.67,2.99-7.29,4.21-11.02,3.02-9.26,1.75-18.55-.13-27.82.41-.02.82-.04,1.22-.06,4.98,13.17,3.31,25.82-3.04,38.09Z"/>
        <path class="cls-12" d="M517.41,430.18c0-1.67.02-3.35.03-5.02,4.05,4.24,8.11,8.47,12.16,12.71-4.97-1.16-9.09-3.61-12.19-7.69Z"/>
        <path class="cls-27" d="M529.46,374.12c-.01.68-.02,1.36-.03,2.05-6.8-3.97-12.77-8.83-16.53-15.94-.67-1.27-.96-2.75-1.42-4.13.34-.03.69-.06,1.03-.09,3.6,7.95,9.52,13.74,16.95,18.11Z"/>
        <path class="cls-18" d="M501.57,48.53c3.3-3.76,6.6-7.52,9.9-11.28.93-.44,1.85-.88,2.78-1.31.08.44.17.89.25,1.33-4.31,3.75-8.62,7.51-12.93,11.26Z"/>
        <path class="cls-25" d="M624.33,205.06c-.62.38-1.24.76-1.85,1.14-.36,1.76-1.02,3.52-1.03,5.28-.07,17.46-.07,34.92,0,52.38,0,1.77.62,3.54.96,5.31-2.23,1.75-14.3,3.04-16.08,1.48-.68-.59-.88-2-.88-3.04,0-39.09.06-78.18.13-117.28,0-2.65-.85-6.32.52-7.65,1.39-1.36,5.03-.48,7.68-.49,7.9-.02,7.74,0,7.69,7.5-.11,15.64-.17,31.28.1,46.91.04,2.52,1.87,5.02,2.88,7.52-.04.31-.08.61-.13.92Z"/>
        <path class="cls-5" d="M693.46,145.13c.06-.93.12-2.66.18-2.66,5.03,0,10.07.07,15.1.37.59.04,1.09,1.46,1.63,2.24-.3,2.12-.86,4.24-.86,6.35-.05,37.13-.05,74.27,0,111.4,0,2.11.59,4.23.91,6.34,0,0-.02,0-.02,0-3.92.65-7.82,1.38-11.75,1.92-3.36.45-4.45-.86-4.4-4.52.27-18.6.25-37.21.05-55.81-.02-1.88-1.86-3.73-2.85-5.6,0,0,0,0,0,0,.32-.67.64-1.35.96-2.02,0,0,.01,0,.01,0,.67-1.78,1.91-3.56,1.92-5.34.15-16.11.11-32.21.04-48.32,0-1.44-.6-2.88-.92-4.32Z"/>
        <path class="cls-28" d="M710.41,269.17c-.32-2.11-.9-4.22-.91-6.34-.06-37.13-.06-74.27,0-111.4,0-2.12.56-4.24.86-6.35.02,41.36.03,82.73.05,124.09Z"/>
        <path class="cls-28" d="M691.44,205.15c.99,1.87,2.83,3.72,2.85,5.6.19,18.6.22,37.21-.05,55.81-.05,3.66,1.03,4.98,4.4,4.52,3.93-.53,7.84-1.27,11.75-1.92,4.23.98,8.45,1.97,12.64,2.94-9.47,0-19.09,0-28.72,0-2.37,0-2.79-.83-1.95-3.09.73-1.97,1.02-4.21,1.03-6.33.08-16.66.13-33.33-.04-49.99-.03-2.52-1.24-5.04-1.9-7.55Z"/>
        <path class="cls-28" d="M692.41,203.12c-.32.67-.64,1.35-.96,2.02-22.37-.03-44.74-.06-67.11-.09.05-.31.09-.61.13-.92,19.7,0,39.41.04,59.11-.04,2.95-.01,5.89-.63,8.84-.97Z"/>
        <path class="cls-28" d="M622.42,269.18c-.33-1.77-.95-3.54-.96-5.31-.08-17.46-.08-34.92,0-52.38,0-1.76.67-3.52,1.03-5.28-.02,20.99-.04,41.98-.06,62.97Z"/>
        <path class="cls-28" d="M693.46,145.13c.32,1.44.92,2.88.92,4.32.07,16.11.11,32.22-.04,48.32-.02,1.79-1.25,3.56-1.92,5.34.34-2.94.96-5.89.98-8.83.1-16.38.06-32.77.07-49.15Z"/>
        <path class="cls-7" d="M420.36,228.08c-.8.97-1.61,1.94-2.41,2.92-.14,11.65-.52,23.31-.29,34.96.08,3.98-.82,5.63-4.82,5.22-1.32-.13-2.67-.09-4-.01-3.34.19-4.55-1.01-4.54-4.66.08-26.32-.12-52.65-.1-78.97,0-1.03,1.36-2.93,2.12-2.95,3.48-.09,6.98.25,10.43.71.48.06,1.07,1.69,1.07,2.59-.05,11.16-.36,22.31-.19,33.47.03,2.25,1.77,4.48,2.73,6.72Z"/>
        <path class="cls-56" d="M467.27,200.39q-7.27-10.44-17.92-16.03c5.33,0,9.75-.29,14.09.17,1.38.15,3.49,2.17,3.65,3.52.49,4.06.17,8.22.17,12.34Z"/>
        <path class="cls-2" d="M452.43,270.14c2.43-1.63,4.86-3.26,7.3-4.89,1.89-2.41,3.78-4.82,5.67-7.22.34,4.37.68,8.74,1.02,13.11,0,0,.01-.01.01-.01-4.67-.33-9.33-.66-14-.99Z"/>
        <path class="cls-7" d="M434.49,226.21c2.23-1.41,4.46-2.82,6.69-4.22.15,3.7.29,7.4.44,11.11-2.38-1.66-4.76-3.32-7.14-4.98,0-.63,0-1.26.01-1.9Z"/>
        <path class="cls-41" d="M466.42,271.14c-.34-4.37-.68-8.74-1.02-13.11.41-2.55.82-5.1,1.23-7.66.39.03.79.06,1.18.1-.47,6.89-.93,13.78-1.4,20.67Z"/>
        <path class="cls-41" d="M452.43,270.14c4.67.33,9.33.66,14,.99-6.28.04-12.56.08-18.84.13,1.62-.37,3.23-.74,4.84-1.11Z"/>
        <path class="cls-41" d="M423.46,271.16c7,0,13.99,0,20.99-.01-7,0-13.99,0-20.99.01Z"/>
        <path class="cls-15" d="M351.17,257.95c.65-3.93,1.23-7.88,2-11.79.16-.8,1.01-1.47,1.55-2.2.52.73,1.49,1.46,1.5,2.19.06,7.99.18,15.99-.31,23.95-.07,1.14-3.3,2.95-5.11,2.99-14.31.3-28.63.25-42.95.29-9.65.02-19.31.07-28.96-.05-1.31-.02-2.6-.89-3.9-1.37,1.31-.64,2.59-1.77,3.94-1.86,10.74-.73,10.74-.67,10.74-11.47,0-21.81,0-43.62,0-65.43,0-6.52-.28-6.65-6.69-6.89-2.65-.1-5.28-.87-7.92-1.34,2.64-.64,5.28-1.8,7.93-1.84,11.82-.19,23.64-.12,35.46.02,1.43.02,2.84,1.05,4.26,1.61-1.41.54-2.82,1.55-4.23,1.55-12.8.03-11.67-1.03-11.68,12.03-.02,21.48-.02,42.95.01,64.43,0,6.52.72,7.46,7.13,7.16,9.44-.44,18.86-1.35,28.29-2.07.13.17.26.33.39.5-1.01.9-2.02,1.81-3.03,2.71,1.21.32,2.42.86,3.65.91,2.63.11,5.36.34,7.89-.2,1.35-.29,3.25-2.02,3.37-3.25.42-4.18.16-8.43.16-12.65-.36-.07-.71-.13-1.07-.2-.62.88-1.25,1.75-1.87,2.63-.17-.12-.35-.24-.52-.37ZM305.44,227.14c0-11.49,0-22.98,0-34.48,0-8.31,0-8.16-8.11-8.36-4.37-.11-8.12-.34-5.88,5.95.47,1.33.08,2.97.08,4.47,0,23.65.17,47.3-.08,70.95-.06,5.77,3.19,5.5,7.07,5.53,3.97.04,7.17.09,7.02-5.6-.33-12.82-.1-25.65-.1-38.47Z"/>
        <path class="cls-15" d="M342.21,267.87c2.99-3.31,5.97-6.61,8.96-9.92.17.12.35.24.52.37-1.4,4.83-4.26,8.34-9.1,10.05-.13-.17-.26-.33-.39-.5Z"/>
        <path class="cls-25" d="M42.5,148.22c-1.67,1.65-3.34,3.3-5,4.95-2.61,3.72-6.14,7.1-7.69,11.22-9.87,26.24-9.55,52.95-2.01,79.63,2.19,7.75,5.3,15.45,12.8,20.07l6.01,4.88-2.17,1.33c-14.98-4.61-25.01-15.1-32.94-27.96-2.25-3.65-3.91-7.66-5.84-11.5-.97-3.53-1.94-7.06-2.91-10.59.24-8.7.48-17.39.72-26.09,3.35-25.55,25.33-48.01,43.83-51.86-1.06,1.31-2.92,3.62-4.78,5.93Z"/>
        <path class="cls-56" d="M97.36,150.26c7.8,3,13.26,2.6,16.79-4.23v33.05c-2.38-10.83-7.78-19.93-16.79-28.82Z"/>
        <path class="cls-54" d="M3.45,194.15c-.24,8.7-.48,17.39-.72,26.09-1.63-8.75-2.14-17.47.72-26.09Z"/>
        <path class="cls-7" d="M1059.38,260.19c-11-14.65-21.99-29.3-32.99-43.95-5.81-8.04-11.55-16.13-17.5-24.06-.9-1.21-3.02-1.45-4.12-2.58-1.07-1.09-1.55-2.75-2.29-4.16,1.19-.37,2.4-1.09,3.56-1.04,5.41.26,10.82.74,16.23,1.14,13.65,18.68,27.3,37.37,40.94,56.05.1.13.14.36.27.41,8.39,3.68,5.55,11.17,5.91,17.54.14,2.49.06,5-.07,7.49-.04.72-.63,1.41-.97,2.11-.67-.41-1.46-.69-1.98-1.24-2.37-2.53-4.66-5.14-6.98-7.72Z"/>
        <path class="cls-52" d="M1059.29,184.35h19.41c-2.29,1.66-5.31,3.93-8.45,6.03-.46.31-1.63-.04-2.25-.42-3.19-1.97-6.31-4.05-8.71-5.61Z"/>
        <path class="cls-28" d="M529.46,374.12c-7.43-4.37-13.35-10.15-16.95-18.11-.01-.17.05-.41-.04-.49-5.66-5.06-3.91-12.48-5.61-18.73-1.79-6.61-1.69-13.74-2.42-20.64.63.03,1.27.05,1.9.08.33,1.7.66,3.41.99,5.12,1.17,7.46,2.3,14.93,3.62,22.36.11.63,1.53,1.04,2.34,1.55.33.37.99.8.93,1.09-1.9,8.82,3.36,13.97,9.47,18.71.92.7,1.83,1.4,2.75,2.1.37.63.75,1.26,1.12,1.88,2.59,1.07,5.19,2.14,7.78,3.21,7.05,1.58,13.8,1.71,19.34-4.01,5.5-7.17,2.27-16.5-7.28-21.05-3.99-1.34-7.98-2.69-11.96-4.03-1.73.08-3.46.15-5.18.23l-6.76-.15c-.57-.65-1.15-1.3-1.72-1.95,9.71-.53,9.81-.63,9.73-10.34-.04-5.26-.08-10.51-.13-15.77.05-2.04.1-4.07.15-6.11.62,2.32,1.24,4.63,1.86,6.95l.12,6.21c-.04,4.27-.36,8.57,0,12.81.15,1.8,1.73,3.48,2.66,5.21,4.76,1.64,9.51,3.28,14.27,4.91.91.96,1.68,2.12,2.75,2.84,8.29,5.6,9.78,21.19-.82,27.01-7.72,2-15.4,2.78-22.9-.88Z"/>
        <path class="cls-8" d="M561.43,153.15c-7.95,17.36-15.9,34.72-23.85,52.07-.33,0-.65,0-.98,0,.54-2.64,1.52-5.29,1.48-7.92-.04-2.67-1.65-5.33-1.62-7.99.2-21.72.62-43.44.97-65.15.32-7.35.64-14.69.96-22.04.03-6.98.07-13.95.1-20.93.34,0,.69,0,1.03,0-.53,27.07-1.06,54.14-1.6,81.21-.19,9.47-.42,18.93-.53,28.4-.01,1.03.67,2.06,1.04,3.09.82-.69,1.97-1.23,2.39-2.11,1.34-2.81,2.41-5.75,3.59-8.64h0c1.03-1.7,2.27-3.29,3.05-5.09,4.05-9.27,7.99-18.6,11.97-27.9.66,1,1.33,2.01,1.99,3.01Z"/>
        <path class="cls-45" d="M539.53,81.17c-.34,0-.69,0-1.03,0-.02-2.46.03-4.92-.08-7.38-.27-6.18-.6-12.36-.91-18.54-.02-7.7-.04-15.4-.06-23.1.51,5.22,1.02,10.45,1.54,15.67.42-2.74.66-5.53.36-8.26-.51-4.7.94-7.72,5.96-8.33,3.44,1.61,6.88,3.23,10.32,4.84,6.49,4.62,10.62,11.04,13.81,18.17,1.69,5.96,3.38,11.92,5.07,17.89,0,0-.02-.04-.02-.04.01,9.38.03,18.75.04,28.13,0,0,.04-.08.04-.08-.71,2-1.42,4-2.13,5.99,0,0,0,0,0,0,0-9.9.18-19.8-.11-29.69-.08-2.77-1.54-5.49-2.37-8.23-.21-.97-.37-1.94-.63-2.9-3.49-12.89-8.96-24.41-21.92-30.43-5.58-2.59-6.63-1.81-6.8,4.37-.36,13.97-.73,27.94-1.09,41.9Z"/>
        <path class="cls-45" d="M561.43,153.15c-.66-1-1.33-2.01-1.99-3.01.08-.82.06-1.67.26-2.46,3.41-13.22,6.85-26.43,10.28-39.64l2.47-1.88h0c-1.01,6.94-2.01,13.89-3.02,20.84-2.66,8.72-5.32,17.43-7.99,26.15Z"/>
        <path class="cls-57" d="M536.6,205.22c.33,0,.65,0,.98,0-.82,35.56-1.63,71.13-2.48,106.69-.06,2.48-.36,4.95-.55,7.42-.08-12.77-.16-25.53-.24-38.3.05-7.63.09-15.26.14-22.89.32-9.67.64-19.34.96-29.02,0,0,0,.01,0,.01.3-7.04.6-14.08.91-21.12l.28-2.81Z"/>
        <path class="cls-8" d="M534.32,281.03c.08,12.77.16,25.53.24,38.3,0,.95-.02,1.9-.02,2.84-.34.01-.68.03-1.02.04-.04-2.07-.08-4.14-.12-6.21.01-3.13-.04-6.26.06-9.38.26-8.53.58-17.06.87-25.59Z"/>
        <path class="cls-8" d="M569.42,127c1.01-6.95,2.01-13.9,3.02-20.85.71-2,1.42-4,2.13-5.99-1.72,8.95-3.43,17.9-5.15,26.84Z"/>
        <path class="cls-8" d="M574.52,100.24c-.01-9.38-.03-18.75-.04-28.13.01,9.38.03,18.75.04,28.13Z"/>
        <path class="cls-8" d="M574.49,72.14c-1.69-5.96-3.38-11.92-5.07-17.89,1.69,5.96,3.38,11.92,5.07,17.89Z"/>
        <path class="cls-57" d="M533.51,322.21c.34-.01.68-.03,1.02-.04,0,4.14-.15,8.29.1,12.42.11,1.9,1.01,3.76,1.55,5.64-.93-1.73-2.51-3.41-2.66-5.21-.36-4.24-.05-8.54,0-12.81Z"/>
        <path class="cls-25" d="M534.32,281.03c-.3,8.53-.62,17.06-.87,25.59-.09,3.13-.04,6.26-.06,9.38-.62-2.32-1.24-4.63-1.86-6.95-.32-7.35-.64-14.7-.97-22.06-.05-8.28-.09-16.57-.14-24.85,0-10.09-.19-20.19.09-30.27.11-4.12-1.21-6.61-5.14-7.7,1.11-4.32,2.22-8.64,3.33-12.96-.05-5.7-.11-11.39-.16-17.09-.05-1.99-.1-3.98-.15-5.97-.01-5.65-.03-11.31-.04-16.96.02-14.41.09-28.82-.03-43.23-.01-1.65-1.08-3.29-1.66-4.93,0-.61.02-1.21.02-1.82-.31-6.41-.62-12.82-.93-19.22,0-2.59-.01-5.19-.02-7.78.24-1.78.68-3.55.69-5.33.06-8.89,0-17.77-.01-26.66.68-1.35,1.35-2.71,2.03-4.06,4.98,2.82,5.77,2.57,9.06-2.89.31,6.18.65,12.36.91,18.54.11,2.46.06,4.92.08,7.38-.03,6.98-.07,13.95-.1,20.93-.32,7.35-.64,14.69-.96,22.04-.35,21.72-.77,43.43-.97,65.15-.02,2.66,1.58,5.32,1.62,7.99.04,2.63-.95,5.28-1.48,7.92-.09.94-.19,1.87-.28,2.81-.3,7.04-.6,14.08-.91,21.12,0,0,0-.01,0-.01-.32,9.67-.64,19.34-.96,29.02-.05,7.63-.09,15.26-.14,22.89Z"/>
        <path class="cls-32" d="M528.44,58.15c-.68,1.35-1.35,2.71-2.03,4.06-.27-.05-.55-.11-.82-.16-.33-7.47-.73-14.94-.96-22.42-.2-6.71-1.47-7.62-7.77-5.11-.92.36-1.75.94-2.62,1.42-.93.44-1.85.87-2.78,1.31-.39-.39-.78-.78-1.17-1.17,2.78-1.47,5.42-3.4,8.38-4.29,4.5-1.36,6.05-4.14,5.87-8.54-.16-3.99-.22-8-.05-11.99.25-5.98,2.49-8.2,7.75-8.11,4.97.09,7,2.31,7.16,8.12.1,3.99,0,7.99-.02,11.99-.02,4.13,1.49,7.13,5.9,7.98-5.02.61-6.48,3.64-5.96,8.33.3,2.73.05,5.53-.36,8.26-.51-5.22-1.02-10.45-1.54-15.67-.35-1.09-1.35-2.67-.95-3.2,3.29-4.42,2.29-9.29,1.2-13.85-.45-1.88-3.41-4.71-4.74-4.47-2.26.41-5.13,2.54-5.94,4.65-1.07,2.76-1.2,6.46-.29,9.28,1.3,4.01.73,7.37.24,11.42-.87,7.22.85,14.76,1.49,22.16Z"/>
        <path class="cls-18" d="M525.36,224.16c3.93,1.09,5.26,3.58,5.14,7.7-.28,10.08-.09,20.18-.09,30.27-.31-2.61-.83-5.22-.88-7.83-.15-7.97-.03-15.95-.24-23.92-.03-1.22-1.26-2.41-1.94-3.62-.91.56-2.36.92-2.64,1.71-4.22,11.84-8.3,23.73-12.4,35.61-.88,2.48-2.14,4.9-2.57,7.46-2.51,14.78-5.18,29.56-3.41,44.68-.63-.03-1.27-.05-1.9-.08-.31-3.78-1.03-7.58-.86-11.34,1.19-26.76,7.5-52.26,19.22-76.38.72-1.49,1.7-2.85,2.56-4.26Z"/>
        <path class="cls-39" d="M526.65,123.02c.58,1.64,1.65,3.28,1.66,4.93.12,14.41.05,28.82.03,43.23-.22-.04-.43-.08-.65-.13-.35-16.01-.7-32.02-1.05-48.03Z"/>
        <path class="cls-39" d="M525.59,62.05c.27.06.55.11.82.16.01,8.89.07,17.77.01,26.66-.01,1.78-.45,3.56-.69,5.33-.05-10.72-.09-21.44-.14-32.15Z"/>
        <path class="cls-39" d="M525.75,101.98c.31,6.41.62,12.82.93,19.22-.31-6.41-.62-12.82-.93-19.22Z"/>
        <path class="cls-39" d="M500.29,374.28c-.36,4.73-.73,9.46-1.09,14.19-.24,0-.47.01-.71.02,0-5.41,0-10.81,0-16.22.6.67,1.2,1.34,1.8,2.01Z"/>
        <path class="cls-39" d="M528.53,194.11c.05,5.7.1,11.39.16,17.09-.05-5.7-.1-11.39-.16-17.09Z"/>
        <path class="cls-18" d="M527.7,171.05c.22.05.43.1.65.13.01,5.65.02,11.31.04,16.96-.23-5.7-.46-11.39-.69-17.09Z"/>
        <path class="cls-41" d="M1004.3,194.51c0,22.07-.03,44.14.02,66.2.01,6.38,2.5,9.63,7.73,10.39,1.3.19,2.63.15,3.96.69h-25.16c-.02-.1-.04-.2-.06-.3.84-.1,1.68-.24,2.52-.28,6.78-.32,9.23-2.73,9.25-9.6.06-20.62.03-41.25.04-61.87,0-1.74,0-3.49,0-5.23.57,0,1.14,0,1.7,0Z"/>
        <path class="cls-31" d="M94.93,264.24c10.64-9.33,16.85-20.51,19.23-33.88v36.37c-2.73-2.07-5.37-5.52-8.48-6.02-3.06-.49-6.6,2.03-10.75,3.53Z"/>
        <path class="cls-54" d="M44.43,270.3l2.17-1.33c1.95.7,3.9,1.41,5.85,2.11-.41.67-1.04,1.97-1.21,1.91-2.31-.79-4.55-1.76-6.81-2.69Z"/>
        <path class="cls-11" d="M441.62,233.09c-.15-3.7-.29-7.4-.44-11.11.95-3.06,1.9-6.13,2.85-9.19.17.02.34.03.51.05v28.82c-.19.05-.39.09-.58.14-.78-2.9-1.56-5.8-2.34-8.7Z"/>
        <path class="cls-10" d="M792.32,211.12c3.11,8.46,6.31,16.88,9.17,25.42.25.74-1.67,3.15-2.7,3.22-4.95.36-9.95.38-14.9.04-1.09-.07-3.15-2.49-2.91-3.17,3.08-8.62,6.51-17.12,9.84-25.65.5.04.99.09,1.49.13Z"/>
        <path class="cls-7" d="M238.38,213.16c1.88,9.27,3.14,18.56.13,27.82-1.22,3.73-2.79,7.35-4.21,11.02-4.95,7.87-11.27,14.25-19.84,18.17-1.34-.66-2.69-1.33-4.03-1.99,1.03-1,2.07-2,3.1-3,2.4-3.47,5.73-6.63,7.01-10.48,3.64-10.94,5.15-22.43,3.81-33.87-1.05-8.91-1.44-18.33-7.68-25.83-1.45-1.92-2.9-3.83-4.34-5.75-1.34-1.41-2.67-2.82-4.82-5.09,2.52.68,4.3.98,5.93,1.64,11.19,4.54,18.97,12.44,23.22,23.78.46,1.23,1.14,2.38,1.72,3.57Z"/>
        <path class="cls-7" d="M180.39,270.24c-4.6-3.1-9.19-6.19-13.79-9.29-8.34-8.49-11.83-19.14-12.88-30.58-1.67-18.14,10.74-37.92,27.55-44.44,1.47-.57,3.42.1,5.15.2-.77.61-1.54,1.22-2.31,1.83-2.64,2.63-6.25,4.81-7.71,7.98-2.66,5.76-4.05,12.1-5.97,18.2,0,9.01-.02,18.03-.02,27.04,1.34,4.65,2.68,9.31,4.02,13.96.66,1.37,1.31,2.74,1.97,4.11,1.73,2.6,3.18,5.47,5.27,7.74,2.32,2.52,1.53,3.1-1.28,3.24Z"/>
        <path class="cls-3" d="M184.12,187.97c.77-.61,1.54-1.22,2.31-1.83,3.88-.6,7.89-2.11,11.59-1.57,4.89.72,9.55,3.05,14.3,4.69,1.45,1.92,2.9,3.83,4.34,5.75-.09.39-.17.78-.26,1.18-.74-.65-1.58-1.22-2.21-1.97-7.24-8.67-18.84-10.69-28.71-4.97-.43-.1-.85-.19-1.28-.29-.02-.33-.05-.66-.1-.98Z"/>
        <path class="cls-7" d="M925.53,251.04c-1.64-2.68-3.28-5.35-4.93-8.03-.42-.63-.83-1.27-1.24-1.9-.02-.36-.04-.72-.05-1.07-1.29-4.63-2.58-9.26-3.88-13.88-2.5-6.11-5.03-12.22-7.49-18.35-.34-.83-.8-1.93-.53-2.64,2.5-6.63,5.15-13.19,7.76-19.78.47-.02.94-.03,1.4-.05,3.36,8.52,6.73,17.04,10.07,25.57,2.54,6.47,5.04,12.95,7.55,19.43,4.59,11.91,9.04,23.88,13.85,35.7,1.57,3.88.68,5.04-3.29,5.2-10.11.41-10.1.49-13.96-8.37-1.72-3.95-3.5-7.88-5.25-11.81Z"/>
        <path class="cls-40" d="M898.36,233.11c2.44-6.08,4.83-12.18,7.35-18.22.47-1.13,1.44-2.04,2.18-3.05.74.95,1.7,1.8,2.17,2.86.93,2.1,1.58,4.31,2.35,6.48,1.35,4.25,2.61,8.53,4.09,12.73,1.2,3.43.19,5.11-3.46,5.14-2.99.03-6.01-.23-8.95.13-4.9.6-6.78-1.25-5.73-6.07Z"/>
        <path class="cls-49" d="M919.36,241.12c.41.63.83,1.27,1.24,1.9-6.48.05-12.97.13-19.45.15-7.62.03-8.31.48-11.02,7.45-.4,1.04-.84,2.07-2.29,2.76,1.61-4.71,3.21-9.41,4.82-14.12.95-.34,1.89-.69,2.84-1.03.02.5.04,1,.06,1.49,1.85.48,3.69,1.33,5.55,1.38,6.08.16,12.17.03,18.26.01Z"/>
        <path class="cls-14" d="M895.55,239.72c-.02-.5-.04-1-.06-1.49.95-1.71,1.91-3.41,2.86-5.12-1.05,4.82.83,6.67,5.73,6.07,2.95-.36,5.97-.11,8.95-.13,3.65-.03,4.67-1.71,3.46-5.14-1.48-4.2-2.74-8.49-4.09-12.73,1.01,1.66,2.01,3.33,3.02,4.99,1.29,4.63,2.58,9.26,3.88,13.88-7.92-.11-15.83-.21-23.75-.32Z"/>
        <path class="cls-54" d="M40.58,264.09c-7.5-4.62-10.61-12.32-12.8-20.07-7.54-26.68-7.85-53.39,2.01-79.63,1.55-4.12,5.08-7.5,7.69-11.22-17.22,30.16-16.04,61.77-6.68,93.71,1.81,6.16,6.44,11.49,9.77,17.21Z"/>
        <path class="cls-37" d="M872.89,272.48c3.81-2.88,7.86-5.94,11.52-8.71-1,6.08,3.82,7.52,9.37,8.71h-20.89Z"/>
        <path class="cls-36" d="M777.24,271.98h-19.44c2.96-2.26,6.59-5.03,9.89-7.55.68,5.46,1.12,5.88,9.54,7.55Z"/>
        <path class="cls-4" d="M180.39,270.24c2.81-.15,3.6-.72,1.28-3.24-2.09-2.27-3.54-5.14-5.27-7.74,1.08,1.23,2.18,2.45,3.24,3.7,3.85,4.52,8.37,8.11,14.46,8.72,3.07.31,6.23-.22,9.35-.37-.33.6-.66,1.2-.99,1.8-7.48,0-15.16,1.49-22.07-2.87Z"/>
        <path class="cls-39" d="M202.47,273.11c.33-.6.66-1.2.99-1.8,2.35-1.18,4.7-2.35,7.04-3.53l-.06.4c1.34.66,2.69,1.33,4.03,1.99-4,.98-8,1.96-12,2.94Z"/>
        <path class="cls-35" d="M492.38,61.05c.63,1.33,1.25,2.67,1.88,4-.61,8.73-1.17,17.46-1.91,26.18-.09,1.02-1.19,1.96-1.83,2.93-.04-9.2-.19-18.4-.04-27.59.03-1.85,1.23-3.68,1.9-5.52Z"/>
        <path class="cls-27" d="M530.45,387.15c.47,1,.95,2,1.58,3.33.85-4.02,1.62-7.68,2.39-11.33-.29,6.6-.52,13.21-.92,19.81-.06.98-.96,1.9-1.48,2.85-.52-1.07-1.44-2.13-1.49-3.22-.19-3.8-.08-7.62-.08-11.43Z"/>
        <path class="cls-5" d="M305.44,227.14c0,12.82-.23,25.65.1,38.47.15,5.69-3.06,5.64-7.02,5.6-3.88-.04-7.13.24-7.07-5.53.25-23.65.09-47.3.08-70.95,0-1.5.39-3.14-.08-4.47-2.24-6.3,1.51-6.06,5.88-5.95,8.12.2,8.11.05,8.11,8.36,0,11.49,0,22.98,0,34.48Z"/>
        <path class="cls-43" d="M342.59,268.37c4.84-1.71,7.7-5.23,9.1-10.05.63-.87,1.25-1.75,1.87-2.63.36.07.71.13,1.07.2,0,4.22.26,8.47-.16,12.65-.12,1.23-2.03,2.96-3.37,3.25-2.53.55-5.25.32-7.89.2-1.23-.05-2.43-.59-3.65-.91,1.01-.9,2.02-1.81,3.03-2.71Z"/>
        <path class="cls-57" d="M512.32,264.09c4.11-11.88,8.18-23.77,12.4-35.61.28-.78,1.73-1.15,2.64-1.71.68,1.2,1.91,2.39,1.94,3.62.21,7.97.09,15.95.24,23.92.05,2.62.57,5.22.88,7.83.05,8.28.09,16.57.14,24.86.27,9.39.55,18.78.82,28.16.04,5.26.08,10.51.13,15.77.08,9.71-.02,9.82-9.73,10.34-2.83,1.33-5.66,2.65-8.49,3.98-.81-.51-2.23-.91-2.34-1.55-1.32-7.43-2.44-14.9-3.62-22.36.09-.84.18-1.68.27-2.53,1.09,6.39,2.06,12.81,3.31,19.16,1.06,5.37,2.12,5.77,6.97,3.61,1.66-.74,3.43-1.69,5.16-1.71,5.78-.06,7-2.97,6.85-8.29-.93-32.61-1.55-65.23-2.3-97.85-.03-1.22-.34-2.44-.53-3.66-2.15,1.85-3.27,3.95-4.1,6.16-3.5,9.32-6.92,18.68-10.36,28.02l-.29-.17Z"/>
        <path class="cls-47" d="M554.69,368.23c-5.54,5.72-12.29,5.58-19.34,4.01-.87-1.56-2.58-3.19-2.47-4.67.61-8.16,1.66-16.28,2.56-24.41,3.99,1.34,7.98,2.69,11.96,4.03.04.32.05.64.04.97-2.17-.8-4.31-1.68-6.51-2.37-4.83-1.53-5.46-1.07-5.57,4.06-.12,5.47-.02,10.94-.28,16.4-.15,3.11,1.12,4.45,4.05,5.11,5.92,1.33,10.68-1.02,15.26-4.26.1.38.2.76.29,1.14Z"/>
        <path class="cls-19" d="M535.44,343.15c-.9,8.13-1.95,16.26-2.56,24.41-.11,1.49,1.6,3.11,2.47,4.67-2.59-1.07-5.19-2.14-7.78-3.21,3.48.03,3.99-2.3,3.86-5-.35-6.89-.77-13.77-1.17-20.65,1.73-.08,3.46-.15,5.18-.23Z"/>
        <path class="cls-57" d="M507.59,318.82c-.09.84-.18,1.68-.27,2.53-.33-1.7-.66-3.41-.99-5.11-1.77-15.11.9-29.9,3.41-44.68.43-2.56,1.69-4.98,2.57-7.46,0,0,.29.17.29.17-.17,1.63-.28,3.27-.53,4.89-1.42,9.12-3.3,18.19-4.18,27.36-.71,7.37-.24,14.86-.3,22.3Z"/>
        <path class="cls-47" d="M530.26,343.38c.39,6.88.81,13.77,1.17,20.65.14,2.7-.37,5.03-3.86,5-.37-.63-.75-1.26-1.12-1.88,1.04-1.35,2.88-2.64,2.99-4.06.36-4.77,0-9.59.11-14.39.09-4.04-1.71-4.91-5.28-3.75-1.87.61-3.86.87-5.8,1.28,1.68-1,3.35-2,5.03-3.01l6.76.15Z"/>
        <path class="cls-57" d="M523.49,343.23c-1.68,1-3.35,2-5.03,3.01-3.83,1.96-4.27,4.71-1.94,8.15,2.41,3.55,4.78,7.12,7.17,10.67-6.11-4.74-11.37-9.89-9.47-18.71.06-.28-.6-.72-.93-1.09,2.83-1.32,5.66-2.65,8.49-3.98.58.65,1.15,1.3,1.72,1.95Z"/>
        <path class="cls-19" d="M547.44,348.15c.01-.32,0-.65-.04-.97,9.55,4.55,12.78,13.88,7.28,21.05-.1-.38-.19-.76-.29-1.14,3.07-7.87,1.59-11.9-6.95-18.94Z"/>
        <path class="cls-18" d="M531.38,315.16c-.27-9.39-.55-18.78-.82-28.16.32,7.35.64,14.7.97,22.06-.05,2.04-.1,4.07-.15,6.11Z"/>
        <path class="cls-23" d="M569.97,108.04c-3.43,13.21-6.87,26.42-10.28,39.64-.2.79-.18,1.64-.26,2.46-3.98,9.31-7.92,18.63-11.97,27.9-.78,1.79-2.02,3.39-3.05,5.08.26-1.28.35-2.64.81-3.84,5.72-15.05,12.03-29.91,17.11-45.17,7.18-21.56,10.06-43.76,5.96-66.39-2.34-12.93-8.17-23.9-20.1-30.63-4.5-2.53-5.49-1.89-5.64,3.22-.67,22.62-1.43,45.23-1.94,67.85-.52,22.79-.77,45.58-1.19,68.38-.08,4.37-.4,8.73-.67,14.42,2.45-3.39,4.05-5.61,5.65-7.82-1.18,2.89-2.25,5.83-3.59,8.64-.42.88-1.57,1.42-2.39,2.11-.36-1.03-1.05-2.07-1.04-3.09.11-9.47.35-18.94.53-28.4.53-27.07,1.06-54.14,1.6-81.21.36-13.97.72-27.94,1.09-41.9.16-6.18,1.22-6.96,6.8-4.37,12.96,6.02,18.42,17.54,21.92,30.43.26.95.42,1.93.63,2.9,2.76,13.27,2.19,26.54.01,39.81Z"/>
        <path class="cls-45" d="M537.43,124.15c.32-7.35.64-14.69.96-22.04-.32,7.35-.64,14.69-.96,22.04Z"/>
        <path class="cls-39" d="M528.44,58.15c-.64-7.4-2.36-14.94-1.49-22.16.49-4.05,1.06-7.41-.24-11.42-.92-2.82-.78-6.52.29-9.28.82-2.1,3.68-4.23,5.94-4.65,1.33-.24,4.29,2.59,4.74,4.47,1.1,4.57,2.09,9.43-1.2,13.85-.4.54.6,2.11.95,3.2.02,7.7.04,15.4.06,23.1-3.29,5.46-4.08,5.71-9.06,2.89ZM535.54,44.87c.21,0,.42,0,.62,0,0-2.65.42-5.4-.15-7.91-.37-1.63-2.19-2.94-3.37-4.39-1.28,1.38-3.6,2.73-3.65,4.16-.23,5.78.09,11.6.58,17.37.11,1.23,1.82,2.31,2.79,3.46,1.06-1.25,2.81-2.39,3.03-3.77.47-2.9.14-5.94.14-8.92ZM528.31,20.26c.49,2.99-.99,7.07,4.18,6.91,4.83-.14,3.95-3.91,4.17-6.92.05-.66.27-1.48-.02-1.96-1.24-2.04-2.43-5.42-4.04-5.67-3.63-.55-4.13,2.87-4.28,5.81-.03.66,0,1.32,0,1.83Z"/>
        <path class="cls-8" d="M569.97,108.04c2.18-13.27,2.75-26.54-.01-39.81.83,2.74,2.29,5.47,2.37,8.23.29,9.89.11,19.79.11,29.69-.82.63-1.65,1.25-2.47,1.88Z"/>
        <path class="cls-8" d="M534.46,258.15c.32-9.67.64-19.34.96-29.02-.32,9.67-.64,19.34-.96,29.02Z"/>
        <path class="cls-8" d="M535.41,229.14c.3-7.04.61-14.08.91-21.12-.3,7.04-.61,14.08-.91,21.12Z"/>
        <path class="cls-19" d="M213.53,265.18c2.01-4.46,4.65-8.75,5.92-13.41,5.14-18.8,5.01-37.44-3.04-55.58.09-.39.17-.78.26-1.18,6.24,7.5,6.63,16.92,7.68,25.83,1.34,11.43-.17,22.93-3.81,33.87-1.28,3.84-4.61,7.01-7.01,10.48Z"/>
        <path class="cls-20" d="M185.5,189.24c-9.41,8.72-11.77,20.12-12.14,32.22-.35,11.34-.34,22.66,3.83,33.49,2.58,6.72,6.65,12.28,13.99,13.66,4.37.82,9.07-.06,13.62-.26,1.9-.08,3.79-.38,5.69-.58-2.35,1.18-4.7,2.35-7.04,3.53-3.12.15-6.28.68-9.35.37-6.09-.62-10.61-4.2-14.46-8.72-1.06-1.25-2.16-2.47-3.24-3.7-.66-1.37-1.31-2.74-1.97-4.11-.1-1.31-.19-2.62-.29-3.92-.8-11.17-2.43-22.36-2.18-33.51.24-10.85,3-21.39,12.25-28.77.43.1.85.19,1.28.29Z"/>
        <path class="cls-17" d="M184.22,188.95c-9.25,7.38-12.01,17.92-12.25,28.77-.25,11.15,1.38,22.34,2.18,33.51.09,1.31.19,2.62.29,3.92-1.34-4.65-2.68-9.31-4.02-13.96,0-9.01.02-18.03.02-27.04,1.92-6.1,3.31-12.44,5.97-18.2,1.47-3.17,5.07-5.35,7.71-7.98.05.33.08.65.1.98Z"/>
        <path class="cls-4" d="M170.44,214.15c0,9.01-.02,18.03-.02,27.04,0-9.01.02-18.03.02-27.04Z"/>
        <path class="cls-26" d="M895.55,239.72c7.92.11,15.83.21,23.75.32.02.36.04.72.05,1.07-6.09.02-12.18.15-18.26-.01-1.86-.05-3.7-.9-5.55-1.38Z"/>
        <path class="cls-34" d="M535.54,44.87c0,2.98.33,6.01-.14,8.92-.22,1.38-1.97,2.52-3.03,3.77-.97-1.15-2.69-2.24-2.79-3.46-.5-5.77-.81-11.59-.58-17.37.06-1.43,2.38-2.78,3.65-4.16,1.17,1.45,3,2.75,3.37,4.39.57,2.52.15,5.27.15,7.91-.21,0-.42,0-.62,0Z"/>
        <path class="cls-53" d="M528.31,20.26c0-.51-.03-1.17,0-1.83.16-2.94.65-6.36,4.28-5.81,1.61.24,2.79,3.63,4.04,5.67.29.48.07,1.3.02,1.96-.21,3.01.66,6.78-4.17,6.92-5.17.15-3.69-3.92-4.18-6.91Z"/>
      </g>
    </g>
  </g>
</svg>