<?xml version="1.0" encoding="UTF-8"?>
<svg id="Layer_2" xmlns="http://www.w3.org/2000/svg" viewBox="0 0 783.69 179.52">
  <defs>
    <style>
      .cls-1 {
        fill: #231f20;
      }
    </style>
  </defs>
  <g id="Layer_1-2" data-name="Layer_1">
    <g>
      <path class="cls-1" d="M679.95,158.43c-2,.64-6.24,3.18-7.75,4.1-8.2,5.03-16.5,8.92-26,9.58-5.93.41-11.64.62-17.34-1.23-3.71-1.2-5.33-5.48-5.61-9.4-.17-2.37,1.08-7.6.86-10.67-3.29,1.53-6.27,2.8-9.15,4.26-12.05,6.15-24.29,9.97-37.18,14.15-6.17,2-11.02,3.5-17.58,3.21-8.58-.38-8.96-4.19-6.59-10.21,1.36-3.46,2.79-5.48,5.19-9.61-2.02.74-3.07,1.13-4.11,1.52-5.82,2.13-9.76,4.1-15.57,6.43-5.8,2.34-18.94,8.83-25.83,11.23-2.59.9-5.63.91-8.42.74-3.9-.23-4.23-3.43-3.68-7.34.39-2.8,3.22-8.59,4.52-11.12,2.49-4.84,9.24-13.67,5.19-14.57-4.05-.89-5.75.06-8.32,1.07-12.73,5.01-29.61,17.85-38.64,28.46-2.37,2.78-3.43,2.88-7.34,1.43,2.12-3.23,9.43-12.12,11.52-15.29-.18-.24,2.55-2.43-.54-.71-3.09,1.72-3.66,1.65-5.44,2.58-14.19,7.37-28.98,13.23-44.66,16.48-4.15.86-8.74.8-12.92.04-2.08-.38-4.5-1.31-5.77-3.06-2.9-3.99.77-12.99,9.17-22.07-.01.68-.08,1.71-.35,2.94-1.13,5.08-4.22,6.1-5.52,10.93-.41,1.51-1.12,4.13.24,6.23,1.01,1.58,2.74,2.17,4.38,2.74,2.53.87,4.72.91,6.45.69,1.79-.23,3.62-.37,5.34-.85,8.38-2.37,16.73-4.84,25.08-7.3.86-.25,1.7-.63,2.49-1.05,9.01-4.79,18.01-9.61,27.03-14.39,3.45-1.82,5.83-4.53,7.65-7.98,1.61-3.03,3.65-5.85,5.65-8.66,1.25-1.76,1.37-1.67,5.26-2.55-1.92,3.53-3.61,6.65-5.3,9.77,16.13-7.09,39.39-27.28,38.93-26.93-.16.12,4.21-3.44,1.9-.49-1.66,2.13-9.5,10.34-12.22,12.95-4.33,4.18-11,8.45-15.01,11.16-4.22,2.85-8.72,5.31-13.09,7.93-1.12.67-5.14,1.04-3.38,1.96,1.75.92,5.48-1.39,8.05-2.45,4.43-1.83,8.81-3.8,13.35-5.32,2.06-.69,4.46-.68,6.68-.57,3.48.17,4.46,1.74,3.5,5.11-.24.86-.73,1.64-1.05,2.48-1.85,4.75-4.71,9.69-6.93,14.28-.49,1-1.85,3.83-1.98,4.86-.46,3.62-.16,7.11,3.44,6.51,4.8-.79,4.41-2.33,17.25-7.51,12.81-5.17,33.18-14.06,33.18-14.06,0,0,4.36-3.11,6.58-4.61,1.13-.77,1.31-2.12,3.62-1.98,2.31.14-1.13,4.19-2.23,5.77-3.52,5.06-10.13,14.19-10.13,14.19,0,0-2.07,2.55-.64,5.38,1.62,3.2,6.44,2.14,9.83,1.32,13.19-3.18,24.75-5.85,37.59-10.86,6.71-2.62,12.82-6.59,19.12-10.08,3.51-1.95,6.5-7.36,9.18-10.72,2.75-3.45,4.95-6.41,6.47-8.51,13.69-13.62,27.38-27.25,41.07-40.87-14.51,16.84-29.03,33.68-43.54,50.52.15.19.29.37.44.56.71-.31,1.48-.54,2.12-.95,6.81-4.41,13.36-9.14,19.48-14.5,11.91-10.44,23.21-21.38,31.51-35.03,2.97-4.88,10.26-16.26,6.08-16.42-4.18-.16-9.56,8.24-13.29,12.97-.83,1.06-1.76,2.03-2.63,3.07-10.12,12.04-21.8,21.46-40.28,39.9-.46.46-.83.83-.94.94,27.76-32.79,48.5-56.23,51.91-59.05,1.18-.98,3.77-2.15,6.53-2.88,2.82-.75,4.18,3.62,4.18,3.62,0,0-.53.39-.71,3.03-.18,2.64-5.85,14.47-7.72,16.78-1.86,2.31-10.56,13.79-10.56,13.79,0,0-8.39,8.58-12.68,12.78-10.13,9.9-20.91,19.02-33.15,26.25-4.96,2.93-8.26,10.24-8.41,15.65-.14,5.19,1.42,9.56,6.43,11.01,4.66,1.35,9.23.5,13.85-.17,9.63-1.4,20.21-10.43,29.17-13.84,1.78-.68,3.64-1.74,4.87-3.15,2.3-2.61,5.25-3.94,8.27-5.28,8.52-3.78,17.1-7.38,26.38-8.92,5.13-.85,10.2-1.09,14.99,1.33,2.28,1.15,3.93.5,5.65-1.11,2.19-2.05,3.64-4.23,5.67-6.41,2.63-2.83,4.98-5.3,7.21-8.46,1.81-2.56,5.27-7.12,7.02-9.73,5.5-8.23,10.11-14.83,15.62-23.06,1.92-2.87,3.58-5.91,5.38-8.86.54-.89.95-2,1.74-2.58.73-.53,2.11-.91,2.78-.56.62.32,1.13,1.84.91,2.6-.54,1.84-1.3,3.71-2.38,5.29-8.03,11.8-16.03,23.63-24.31,35.25-3.65,5.11-7.53,10.19-12.02,14.54-7.55,7.31-10.98,12.14-14.1,21.78-1.06,3.26-1.22,7.7,2.43,9.28,3.23,1.39,6.64,1.85,10.15,1.19,7.53-1.42,15.05-2.86,22.58-4.25,1.37-.25,2.78-.28,4.17-.41.09.34.18.67.28,1.01-.67.32-1.3.8-2.01.94-8.68,1.75-17.37,3.47-26.07,5.16-4.29.83-8.81.75-12.3-1.76-4.57-3.28-4.16-4.56-3.67-11.28.1-1.34-.04-1.59.52-3.15-2.29-.44-3.83.88-5.3,1.94-6.81,4.9-14.43,9.98-22.45,12.09-3.86,1.01-7.99,1.33-12,1.4-4.74.08-6.47-1.82-6.89-6.48-.11-1.17-.18-4.25-.31-5.85M730.77,143.92c-.32-2.92-6.1-2.76-9.46-2.53-11.12.76-26.24,7.07-31.19,9.45-4.95,2.38-4.52,11.21-4.52,11.21,0,0,.36,5.75,4.55,4.87,10.8-2.29,2.4-.22,3.53-.57,5.13-1.61,15.35-4.97,15.35-4.97l1.97-1.08,8.15-4.73,8.3-5.35s3.65-3.36,3.33-6.28"/>
      <path class="cls-1" d="M399.12,162.32c-.01.89-1.57,1.07-2.21,1.32-7.11,2.83-14.22,5.66-21.35,8.43-1.11.43-2.31.64-3.49.84-6.23,1.07-8.43-.26-10.47-6.26-.19-.56-.38-1.11-.67-1.96-1.06.23-2.05.36-2.99.65-4.59,1.42-9.13,3.03-13.76,4.26-2.72.72-5.6,1.1-8.42,1.2-4.2.15-4.32-.11-5.64-4.2-.13-.41-.33-.8-.63-1.51-6.44,1.46-12.84,2.9-19.25,4.35-4.39.99-8.76,2.12-13.18,2.94-2.49.46-5.08.63-7.61.53-4.26-.17-6.31-2.93-5.11-7.02.88-3.01,2.3-5.86,3.51-8.77.4-.96.94-1.86,1.9-3.74-2.53.97-4.31,1.52-5.97,2.32-11.64,5.61-23.35,11.05-35.71,14.9-4.28,1.33-8.29,2.56-11.31,2.79-3.02.23-5.22,1.28-8.58-.65-3.37-1.93,9.34-13.5,11.65-17.86,2.3-4.36-2.78-2.78-3.7-2.3-6.79,3.55-13.46,7.32-20.37,10.61-3.2,1.52-6.79,2.33-10.29,3.06-1.61.33-3.43-.32-5.15-.52-.04-.33-.09-.65-.13-.98,1-.41,1.61-1.3,3.01-1.18,1.4.12,12.96-3.67,19.18-6.27,6.11-2.56,16.81-10.25,16.81-10.25,0,0,6.31-6.1,11.8-5.78,5.48.32-3.09,9.02-6.36,13.76-3.24,4.69-12.32,12.75-9.52,14.57,2.8,1.83,7.13.62,11.11-1.02,12.33-5.08,25.02-9.16,36.72-15.9,7.3-4.21,13.49-9.07,19.11-15.3,11.96-13.25,24.21-26.27,36.91-38.81,9.61-9.48,20.08-18.1,30.24-27.03,2.9-2.55,9.99-4.19,10.75-2.02.76,2.18-.8,3.79-1.72,5.36-2.21,3.74-4.36,7.63-7.21,10.86-9.64,10.92-19.13,21.98-30.1,31.66-11.31,9.97-23.2,19.1-36.42,26.42-8.56,4.73-12.41,12.8-14.97,21.6-1.14,3.91.34,5.32,4.57,4.58,7.68-1.35,15.32-3.02,22.94-4.67,2.63-.57,5.26-1.33,7.75-2.36,1.87-.78,3.69-1.91,5.19-3.26,2.34-2.1,4.41-4.5,6.57-6.81,5.83-6.25,13.13-9.33,21.55-9.99,3.74-.29,7.49-.7,11.23-.67,2.65.02,5.4.36,7.91,1.17,2.13.69.88.51.88.51,0,0,6.51-5.83,8-7.72,2.97-3.77,6.01-7.49,9.03-11.22.38-.47,1.16-1.36,1.16-1.36,0,0,5.41-8.45,9.4-11.94,3.99-3.49,10.42-11.34,10.42-11.34,0,0,1.6-1.71,2.28-2.7,2.12-3.1,4.19-6.24,6.28-9.36.92-1.37,1.69-3.05,3.83-2.11,1.48.65,1.54,2.1-.19,4.65-1.85,2.73-3.87,5.35-6.02,7.86-7.81,9.13-15.75,18.15-23.54,27.31-9.44,11.1-18.78,22.29-28.15,33.46-1.05,1.26-2.05,2.59-2.88,4-.95,1.62-1.37,3.42-.05,5.06,1.28,1.6,3.1,1.86,4.93,1.27,6.84-2.2,13.68-4.43,20.47-6.78,1.82-.63,6.05-1.59,6.04-.7M374.7,73.22c-.27-1.81-62.68,55.19-66.83,64.54,1.01-.47,1.82-.8,2.58-1.22,9.91-5.43,19.11-11.89,27.32-19.66,6.43-6.08,12.69-12.34,18.89-18.65,6-6.1,11.77-12.43,15.8-20.09.73-1.38,2.51-3.11,2.25-4.92M376.19,148.45c.98-1.92-2.14-2.85-5.46-3.04-4.61-.25-9.32-.17-13.87.53-8.09,1.24-15.22,4.51-20.12,11.57-1.11,1.6-2.78,3.35-3.19,5-.41,1.65.53,4.13,2.88,5.04,2.35.91,19.24-2.68,22.55-5.23,1.99-1.54,8.24-5.44,9.38-6.5,1.13-1.06,6.85-5.45,7.83-7.37"/>
      <path class="cls-1" d="M314.67,8.51c-.63.37-91.82,123.31-102.91,132.89-3.27,2.82-3.62,3.47-10.13,8.88,0,0,0,0,0,0-5.92,4.27-38.55,23.44-46.93,25.73-3.51.96-6.8,1.03-10.18-.01-4.61-1.43-6.62-4.43-5.86-9.24.42-2.64,1.37-5.22,2.23-7.77,2.04-6.08,4.22-12.12,6.22-18.21.43-1.33.6-2.76.26-4.11-.65-2.63-2.59-3.14-4.63-1.31-1.34,1.2-2.54,2.56-3.75,3.9-6.37,7.08-13.28,13.51-21.61,18.26-8.15,4.64-16.59,8.47-26.1,9.31-3.84.34-6.25-.62-7.37-3.72-2.16-5.98-.55-23.27-.4-24.19.16-.91,3.55-12.78,7.67-21.49,5.21-11,9.96-22.3,17.32-32.08,18.07-24.04,38.24-49.79,56.51-73.68,1.72-2.25,2.11-2.19,4.03-4.29,1.63-1.78,3.15-3.68,4.67-5.48.06-.07.05-.18-.01-.25-2.08-2.23-3.67-2.09-5.2-.19-.85,1.05-1.67,2.13-2.53,3.18-9.04,11.03-18.25,21.92-27.08,33.12-6.33,8.03-12.06,16.51-18.2,24.69-11.57,15.4-22.41,31.28-31.36,48.38-.97,1.86-2.33,3.7-2.66,5.68-2.57,6.58-5.6,12.64-7.03,18.92-1.43,6.28-3.75,18.13-1.2,27.36.95,3.43,3.12,7.87,6.83,8.24,4,.4,8.34-.51,12.01-1.59,14.25-4.17,27.66-8.25,37.53-20.07,1.64-1.97,3.55-5.27,6.81-6.77.14-.07.3.09.25.24-1.42,4-2.58,7.09-3.61,10.21-1.45,4.42-3.17,8.79-4.11,13.31-1.13,5.46,1.29,9.45,6.5,11.38,4.1,1.52,8.34,2.29,12.82,1.41,6.39-1.25,12.46-3.27,18.21-6.36,14.26-7.65,27.56-16.16,40.41-26.19,5.93-4.63,30.16-34.46,52.48-65.22,10.52-14.5,20.92-29.11,32.09-43.11,10.29-12.91,22.69-27.61,20.56-29.85-.5-.52-1.66-.24-2.57.09"/>
      <path class="cls-1" d="M582.42,124.3c1.02,2.57-2.85,2.61-4.34.7-.34-.44-.45-1.62-.15-1.9,1.78-1.68,3.47-1.37,4.49,1.2"/>
      <path class="cls-1" d="M317.4,8.73l-2.73-.22,2.73.22Z"/>
      <polygon class="cls-1" points="221.2 136.27 317.4 8.73 314.67 8.51 221.2 136.27"/>
      <path class="cls-1" d="M407.57,148.88s22.09-23.38,32.2-22.91c10.11.47,9.75,2.35,9.75,2.35,0,0,6.7,8.89-4.12,11.97-10.29,2.93-4.46-3.63-1.4-3.86,3.06-.24,5.67-7.48-5.52-6.23-11.19,1.25-32.31,24.56-32.31,24.56"/>
      <path class="cls-1" d="M517.16,83.62c-25.07,39.04-31.17,48.54-31.17,48.54l5.25-2.55s17.45-27.66,28.89-43.17c11.44-15.51,14.73-10.34,14.1,2.19-.63,12.53-10.76,22.99-10.76,22.99,0,0-5.44,8.19,3.29.82,3.46-2.92,10.36-14.17,11.34-24.27,1.49-15.4-5.81-28.13-20.94-4.56"/>
      <path class="cls-1" d="M526.76,112.45c2.66-4.23-1.12-4.41-3.29-.82-2.16,3.59-22.89,24.43-37.52,27.75-14.64,3.33,5.28.57,5.28.57,0,0,32.87-23.27,35.53-27.5"/>
      <path class="cls-1" d="M266.33,126.55c0,1.82-1.58,3.29-3.52,3.29s-3.52-1.47-3.52-3.29,1.58-3.29,3.52-3.29,3.52,1.47,3.52,3.29"/>
    </g>
    <g>
      <path d="M32.29,175.39L0,31.51h27.95l20.39,98.83,24.72-98.83h32.47l23.71,100.5,20.76-100.5h27.49l-32.84,143.88h-28.97l-26.94-107.57-26.84,107.57h-29.61Z"/>
      <path d="M180.61,57.02v-25.52h27.58v25.52h-27.58ZM180.61,175.39v-104.23h27.58v104.23h-27.58Z"/>
      <path d="M221.38,175.39V31.51h27.58v143.88h-27.58Z"/>
      <path d="M357.74,175.39h-25.62v-15.31c-4.25,5.96-9.27,10.39-15.07,13.3-5.79,2.91-11.63,4.37-17.52,4.37-11.97,0-22.23-4.82-30.77-14.48-8.54-9.65-12.81-23.11-12.81-40.39s4.15-31.09,12.46-40.29c8.31-9.19,18.81-13.79,31.5-13.79,11.65,0,21.72,4.84,30.23,14.53V31.51h27.58v143.88ZM284.13,121.01c0,11.12,1.54,19.17,4.61,24.14,4.45,7.2,10.66,10.8,18.65,10.8,6.35,0,11.74-2.7,16.19-8.1,4.45-5.4,6.67-13.46,6.67-24.19,0-11.97-2.16-20.59-6.48-25.86-4.32-5.27-9.85-7.9-16.59-7.9s-12.02,2.6-16.44,7.8c-4.42,5.2-6.62,12.97-6.62,23.31Z"/>
      <path d="M459.74,101.97l-27.19,4.91c-.92-5.43-2.99-9.52-6.23-12.27-3.24-2.75-7.44-4.12-12.61-4.12-6.87,0-12.35,2.37-16.44,7.12-4.09,4.74-6.13,12.68-6.13,23.8,0,12.37,2.08,21.1,6.23,26.2,4.15,5.1,9.73,7.66,16.73,7.66,5.23,0,9.52-1.49,12.86-4.47,3.34-2.98,5.69-8.1,7.07-15.36l27.09,4.61c-2.81,12.43-8.21,21.82-16.19,28.17-7.98,6.35-18.68,9.52-32.09,9.52-15.25,0-27.4-4.81-36.46-14.43-9.06-9.62-13.59-22.93-13.59-39.94s4.55-30.6,13.64-40.19c9.09-9.58,21.4-14.38,36.9-14.38,12.69,0,22.79,2.73,30.28,8.2,7.49,5.46,12.87,13.79,16.14,24.98Z"/>
      <path d="M493.05,31.51v52.9c8.9-10.4,19.53-15.6,31.9-15.6,6.35,0,12.07,1.18,17.18,3.53s8.95,5.37,11.53,9.03c2.58,3.67,4.35,7.72,5.3,12.17.95,4.45,1.42,11.35,1.42,20.71v61.14h-27.58v-55.06c0-10.93-.52-17.86-1.57-20.81-1.05-2.94-2.9-5.28-5.54-7.02-2.65-1.73-5.97-2.6-9.96-2.6-4.58,0-8.67,1.11-12.27,3.34-3.6,2.23-6.23,5.58-7.9,10.06-1.67,4.48-2.5,11.11-2.5,19.87v52.21h-27.58V31.51h27.58Z"/>
      <path d="M571.27,57.02v-25.52h27.58v25.52h-27.58ZM571.27,175.39v-104.23h27.58v104.23h-27.58Z"/>
      <path d="M612.04,175.39V31.51h27.58v143.88h-27.58Z"/>
      <path d="M748.4,175.39h-25.62v-15.31c-4.25,5.96-9.27,10.39-15.07,13.3-5.79,2.91-11.63,4.37-17.52,4.37-11.97,0-22.23-4.82-30.77-14.48-8.54-9.65-12.81-23.11-12.81-40.39s4.15-31.09,12.46-40.29c8.31-9.19,18.81-13.79,31.5-13.79,11.65,0,21.72,4.84,30.23,14.53V31.51h27.58v143.88ZM674.79,121.01c0,11.12,1.54,19.17,4.61,24.14,4.45,7.2,10.66,10.8,18.65,10.8,6.35,0,11.74-2.7,16.19-8.1,4.45-5.4,6.67-13.46,6.67-24.19,0-11.97-2.16-20.59-6.48-25.86-4.32-5.27-9.85-7.9-16.59-7.9s-12.02,2.6-16.44,7.8c-4.42,5.2-6.62,12.97-6.62,23.31Z"/>
    </g>
  </g>
</svg>