<svg id="beed17b4-a825-47d7-b086-a29855b5d567" data-name="Layer 1" xmlns="http://www.w3.org/2000/svg" width="156.06px" height="78.18px" viewBox="0 0 156.06 78.18"><defs></defs><g id="ad1b0286-ea0c-4fba-a5f0-5ebe2a281641" data-name="logos"><g id="ee2c0448-9867-4e4d-b4b7-8aec3c396a0b" data-name="dark logos"><rect class="a2465b38-cf3e-4343-87cc-27b6c84d1610" width="7.27" height="62.3"/><polygon class="a2465b38-cf3e-4343-87cc-27b6c84d1610" points="72.49 0 65.22 0 65.22 15.89 55.46 15.89 55.46 22.58 65.22 22.58 65.22 62.3 72.49 62.3 72.49 22.58 82.67 22.58 82.67 15.89 72.49 15.89 72.49 0"/><path class="a2465b38-cf3e-4343-87cc-27b6c84d1610" d="M95,20.74V15.89H87.72V62.3H95v-27c0-8.14,4-12.5,12.3-13.3l.52-.05V14.78h-.6C101.39,15.11,97.53,17,95,20.74Z"/><polygon class="a2465b38-cf3e-4343-87cc-27b6c84d1610" points="148.27 15.89 133.36 51.03 119.42 15.89 111.47 15.89 129.24 60.23 121.63 78.19 129.42 78.19 156.06 15.89 148.27 15.89"/><path class="ad1aad6c-7d59-4761-9b4a-42c1b80b7cc8" d="M41.11,42.48a2.28,2.28,0,1,0,2.28,2.28h0A2.28,2.28,0,0,0,41.11,42.48Z"/><path class="a2465b38-cf3e-4343-87cc-27b6c84d1610" d="M34.23,14.81h-.15C21.23,14.81,14.15,23,14.15,38V62.33h7.27V38c0-10.59,4.29-16.08,12.74-16.36h0C42.6,21.9,46.89,27.39,46.89,38V62.3h7.27V38C54.16,23,47.08,14.81,34.23,14.81Z"/></g></g></svg>