<svg id="fcfa6bf1-953c-4fa6-8491-10a2eafed2fb" data-name="Layer 1" xmlns="http://www.w3.org/2000/svg" width="250px" height="58.1px" viewBox="0 0 250 58.1"><g id="a92ebd9e-cf82-4022-9943-a0a08f1176e7" data-name="oYbQph.tif"><path d="M250,34c-.34.7-.64,1.44-1,2.1a4.7,4.7,0,0,1-2.61,1.9,9.71,9.71,0,0,1-3,.56,7.71,7.71,0,0,1-5-1.71c-.53-.43-1-.91-1.47-1.33l1.89-1.89c.41.35.89.81,1.41,1.2a5.2,5.2,0,0,0,4,1,4.3,4.3,0,0,0,2.26-.93,2.52,2.52,0,0,0-.65-4.2,12,12,0,0,0-3.24-1,8.88,8.88,0,0,1-3.72-1.59,3.85,3.85,0,0,1-1.51-2.84,5.27,5.27,0,0,1,.39-2.77,4.8,4.8,0,0,1,3.34-2.59,8.22,8.22,0,0,1,5.77.51,7.6,7.6,0,0,1,2.56,2l-2,1.83a6.44,6.44,0,0,0-3-1.79,4.19,4.19,0,0,0-3.65.56,2.09,2.09,0,0,0-.25,2.88,4,4,0,0,0,2.44,1.18,14.83,14.83,0,0,1,4.3,1.39,4.94,4.94,0,0,1,2.7,3.54s0,0,.07.05Z"/><path d="M86.55,0V58.09h-.94V0Z"/><path d="M18.52,39.6V18.37a10.64,10.64,0,0,1,9.37,5.31,10.75,10.75,0,0,1,18.58,0,10.59,10.59,0,0,1,7.13-5.17,10.77,10.77,0,0,1,9.79,3,10.07,10.07,0,0,1,2.85,5.66,16.46,16.46,0,0,1,.18,2.21c0,3.23,0,6.45,0,9.67v.53H55.74V21.12a7.16,7.16,0,0,0-3,.58,7.76,7.76,0,0,0-3.87,3.43,8.44,8.44,0,0,0-1.07,4.38c0,3.19,0,6.38,0,9.57v.53H37.12V21a26.83,26.83,0,0,0-2.81.7,7.4,7.4,0,0,0-3.87,3.21,6.76,6.76,0,0,0-1.13,3.5c0,3.59-.07,7.18-.1,10.78v.45Zm26.57-2.71v-.55c0-2.47,0-4.94,0-7.41a7.69,7.69,0,0,0-.23-1.78A7.77,7.77,0,0,0,42.24,23a6.23,6.23,0,0,0-2.38-1.34V36.89Zm18.6,0c0-.11,0-.2,0-.29,0-2.53,0-5.06,0-7.59a8.2,8.2,0,0,0-.24-1.78A7.58,7.58,0,0,0,61,23.13a6.67,6.67,0,0,0-2.55-1.52V36.88ZM21.34,21.6V36.87h5.14c0-2.56,0-5.09,0-7.62a7.92,7.92,0,0,0-5.15-7.65Z"/><path d="M173.29,38.2H170.5V28l-.1,0c-.34.45-.7.89-1,1.35l-3.71,5-2.59,3.47c-.22.3-.4.32-.64,0-1.25-1.69-2.52-3.36-3.78-5.05L155,27.79v10.4h-2.71c0-.15,0-.3,0-.45,0-5.75,0-11.51,0-17.27a1.8,1.8,0,0,1,.19-.55,2.47,2.47,0,0,1,.48.35q3.34,4.45,6.67,8.92c1,1.4,2.07,2.82,3.13,4.28l1.55-2.1L169,25c1.21-1.62,2.42-3.25,3.64-4.87.07-.1.25-.22.34-.2a.56.56,0,0,1,.29.31.66.66,0,0,1,0,.32V37.89C173.3,38,173.29,38.07,173.29,38.2Z"/><path d="M15.93,18.67v2.89a7.87,7.87,0,0,0-5,5.67,8.85,8.85,0,0,0-.19,1.7c0,3.38,0,6.76,0,10.14v.53H0V18.39a10.47,10.47,0,0,1,9.29,5.33,11.56,11.56,0,0,1,2.84-3.22A9.94,9.94,0,0,1,15.93,18.67ZM2.74,21.59V36.87H7.87c0-2.62,0-5.2,0-7.78A7.67,7.67,0,0,0,6.81,25,7.88,7.88,0,0,0,2.74,21.59Z"/><path d="M137,38.79a9.72,9.72,0,1,1,9.71-9.28A9.7,9.7,0,0,1,137,38.79Zm-.05-2.73a7,7,0,1,0-7-7.18A7,7,0,0,0,136.94,36.06Z"/><path d="M183.26,31.74V38.2h-2.69V19.92h8.61a5.9,5.9,0,0,1,4.1,1.5,5.62,5.62,0,0,1,1.93,3.87,5.67,5.67,0,0,1-1.9,4.91,5.09,5.09,0,0,1-3.39,1.46c-2.09.05-4.19.06-6.28.09C183.54,31.75,183.43,31.74,183.26,31.74Zm0-2.81h.54c1.77,0,3.54,0,5.31,0a3.18,3.18,0,0,0,2.59-1.09,3,3,0,0,0,.67-2.8,3.23,3.23,0,0,0-3.29-2.42c-1.76,0-3.53,0-5.3,0h-.52Z"/><path d="M215.94,38.22c-1,0-2,0-2.91,0a.52.52,0,0,1-.37-.26q-1.09-2-2.14-4.08a.56.56,0,0,0-.57-.35h-8a.56.56,0,0,0-.57.36q-1.05,2.05-2.13,4.08a.51.51,0,0,1-.33.25c-.95,0-1.9,0-2.93,0l1.15-2.2c.39-.73.79-1.45,1.17-2.19l2.33-4.44q1.86-3.54,3.74-7.08c.4-.75.8-1.49,1.21-2.23.08-.13.24-.34.33-.32a.68.68,0,0,1,.38.33c1,1.77,1.88,3.56,2.82,5.33,1.2,2.28,2.42,4.56,3.62,6.84.9,1.69,1.78,3.39,2.68,5.09C215.58,37.62,215.74,37.87,215.94,38.22Zm-12.87-7.44h5.79L206,25.29Z"/><path d="M120.75,24.87a7.09,7.09,0,0,0-6-2.78,6.61,6.61,0,0,0-4.51,2.05,6.89,6.89,0,0,0-.06,9.8,6.65,6.65,0,0,0,5.42,2.11,6.93,6.93,0,0,0,5.17-2.78c.63.63,1.22,1.2,1.78,1.81a.41.41,0,0,1,0,.41,9.74,9.74,0,0,1-16.86-4.38,9.43,9.43,0,0,1,.55-5.79,9.74,9.74,0,0,1,15.08-3.82,14.69,14.69,0,0,1,1.23,1.14.49.49,0,0,1,0,.42C122,23.66,121.37,24.24,120.75,24.87Z"/><path d="M231.63,22.36l-2,1.85a6.7,6.7,0,0,0-3-1.78,4.56,4.56,0,0,0-3.52.43,2.11,2.11,0,0,0-.47,2.93A3.3,3.3,0,0,0,224.77,27a17.31,17.31,0,0,1,4.54,1.4,5,5,0,0,1,2.89,3.75,4.91,4.91,0,0,1-1,4,6.88,6.88,0,0,1-5,2.36,7.89,7.89,0,0,1-4-.72,12.94,12.94,0,0,1-2-1.27c-.42-.3-.79-.67-1.15-1,.74-.73,1.36-1.36,1.91-1.91a19.2,19.2,0,0,0,2.1,1.58,4.94,4.94,0,0,0,3.34.6,5.26,5.26,0,0,0,2.15-.84,2.48,2.48,0,0,0-.13-4.08,7.86,7.86,0,0,0-2.78-1,11.3,11.3,0,0,1-4.12-1.46A4.09,4.09,0,0,1,219.53,25a5.28,5.28,0,0,1,.47-2.66,4.46,4.46,0,0,1,2.57-2.26,8.17,8.17,0,0,1,6.43.26A9,9,0,0,1,231.63,22.36Z"/><path d="M139.3,24.93l1.79,1.8-6.44,6.43-1.79-1.8Z"/></g></svg>