<?xml version="1.0" encoding="UTF-8"?>
<svg id="Layer_2" xmlns="http://www.w3.org/2000/svg" viewBox="0 0 145.22 33.74">
  <g id="Layer_1-2" data-name="Layer_1">
    <g>
      <path d="M145.2,19.75c-.2.41-.37.84-.58,1.22-.36.54-.9.93-1.52,1.1-.56.2-1.15.31-1.74.33-1.05.02-2.08-.33-2.9-.99-.31-.25-.58-.53-.85-.77l1.1-1.1c.24.2.52.47.82.7.33.25.7.43,1.1.53.4.1.81.12,1.22.05.48-.05.94-.24,1.31-.54.18-.16.33-.37.41-.6.08-.23.11-.48.07-.72-.04-.24-.14-.47-.29-.67-.15-.2-.35-.35-.57-.45-.6-.28-1.23-.48-1.88-.58-.78-.14-1.52-.45-2.16-.92-.26-.2-.47-.44-.62-.73-.15-.28-.24-.6-.26-.92-.07-.55,0-1.1.23-1.61.19-.38.46-.72.79-.98.34-.26.73-.44,1.15-.53,1.12-.31,2.31-.21,3.35.3.57.28,1.08.67,1.49,1.16l-1.16,1.06c-.47-.5-1.08-.86-1.74-1.04-.35-.11-.73-.14-1.1-.08-.37.06-.72.2-1.02.41-.23.21-.38.5-.41.81-.03.31.07.62.26.87.38.39.88.63,1.42.69.87.14,1.71.41,2.5.81.4.2.76.48,1.03.84.27.36.46.77.54,1.21l.04.03-.02,1.13Z"/>
      <path d="M50.27,0v33.74h-.55V0h.55Z"/>
      <path d="M10.76,23v-12.33c1.1-.02,2.18.26,3.14.8.96.54,1.75,1.33,2.3,2.28.55-.94,1.34-1.73,2.28-2.27s2.02-.83,3.11-.83,2.17.29,3.11.83,1.73,1.33,2.28,2.27c.43-.77,1.03-1.43,1.74-1.95s1.53-.88,2.4-1.05c1.02-.2,2.07-.15,3.06.15.99.3,1.89.85,2.62,1.59.89.89,1.47,2.04,1.66,3.29.06.42.1.85.1,1.28v5.92h-6.2v-10.72c-.6-.01-1.19.1-1.74.34-.95.39-1.75,1.09-2.25,1.99-.43.78-.65,1.66-.62,2.54v5.87h-6.2v-10.81c-.55.11-1.1.24-1.63.41-.94.34-1.74,1-2.25,1.86-.4.6-.63,1.31-.66,2.03,0,2.09-.04,4.17-.06,6.26v.26l-6.21-.02ZM26.19,21.43v-4.62c0-.35-.05-.7-.13-1.03-.23-.95-.77-1.79-1.52-2.41-.4-.36-.87-.62-1.38-.78v8.85h3.04ZM36.99,21.43v-4.58c0-.35-.06-.7-.14-1.03-.21-.93-.7-1.76-1.42-2.38-.42-.4-.93-.7-1.48-.88v8.87h3.04ZM12.39,12.55v8.87h2.99v-4.43c.03-.96-.25-1.9-.78-2.7-.54-.8-1.31-1.41-2.21-1.74h0Z"/>
      <path d="M100.65,22.19h-1.62v-5.92h-.06c-.2.26-.41.52-.58.78l-2.15,2.9-1.5,2.02c-.13.17-.23.19-.37,0-.73-.98-1.46-1.95-2.2-2.93l-2.14-2.89v6.04h-1.57v-10.29c.02-.11.06-.22.11-.32.1.06.19.12.28.2,1.29,1.72,2.58,3.45,3.87,5.18.58.81,1.2,1.64,1.82,2.49l.9-1.22,2.72-3.7c.7-.94,1.41-1.89,2.11-2.83.04-.06.14-.13.2-.12.08.04.14.1.17.18.01.06.01.12,0,.19v10.07c.02.06.01.1.01.18Z"/>
      <path d="M9.25,10.84v1.68c-.72.26-1.37.7-1.87,1.27-.51.58-.86,1.27-1.03,2.02-.07.32-.11.66-.11.99v6.2H0v-12.32c1.09-.02,2.17.26,3.12.81.95.54,1.73,1.34,2.27,2.29.43-.72.99-1.36,1.65-1.87.65-.51,1.4-.87,2.21-1.06ZM1.59,12.54v8.87h2.98v-4.52c.02-.83-.19-1.66-.62-2.38-.54-.91-1.37-1.61-2.36-1.98Z"/>
      <path d="M79.57,22.53c-1.13,0-2.23-.34-3.16-.97-.93-.63-1.66-1.53-2.08-2.57-.42-1.05-.52-2.19-.28-3.3.24-1.1.8-2.11,1.62-2.89.82-.78,1.84-1.3,2.96-1.48,1.11-.19,2.25-.04,3.28.43,1.03.47,1.89,1.23,2.48,2.19.59.96.88,2.08.83,3.2-.06,1.45-.68,2.82-1.74,3.83-1.05,1-2.45,1.56-3.9,1.56ZM79.54,20.94c.8,0,1.58-.24,2.25-.68.67-.44,1.19-1.07,1.5-1.81.31-.74.4-1.55.25-2.33-.15-.79-.53-1.51-1.08-2.08-.56-.57-1.27-.97-2.05-1.14-.78-.17-1.6-.1-2.34.19-.74.29-1.39.8-1.85,1.45-.46.65-.71,1.43-.74,2.23-.01.54.08,1.08.28,1.59.2.51.49.97.87,1.35.38.39.83.7,1.33.91.5.21,1.04.32,1.58.32h0Z"/>
      <path d="M106.44,18.43v3.75h-1.56v-10.62h5c.88-.02,1.73.29,2.38.87.33.28.59.63.79,1.01.19.39.31.81.34,1.24.06.53,0,1.07-.2,1.56-.19.5-.5.94-.9,1.29-.53.52-1.23.82-1.97.85-1.21.03-2.43.03-3.65.05-.06,0-.12,0-.22,0ZM106.44,16.8h3.4c.28.02.56-.03.83-.14s.49-.28.68-.49c.2-.22.33-.48.4-.76.07-.28.06-.58-.01-.86-.11-.42-.36-.79-.71-1.04-.35-.26-.77-.38-1.21-.36h-3.38v3.66Z"/>
      <path d="M125.42,22.2h-1.69s-.09-.02-.12-.05c-.04-.03-.07-.06-.09-.1-.42-.77-.84-1.56-1.24-2.37-.03-.07-.07-.12-.13-.16-.06-.04-.13-.05-.2-.05h-4.65c-.07,0-.14.01-.2.05-.06.04-.11.09-.13.16-.41.79-.82,1.58-1.24,2.37-.02.04-.05.07-.08.09-.03.03-.07.04-.11.05h-1.7l.67-1.28c.23-.42.46-.84.68-1.27l1.35-2.58c.72-1.37,1.44-2.74,2.17-4.11.23-.44.46-.87.7-1.3.05-.08.14-.2.19-.19.1.03.17.1.22.19.58,1.03,1.09,2.07,1.64,3.1.7,1.32,1.41,2.65,2.1,3.97.52.98,1.03,1.97,1.56,2.96.09.16.19.3.3.51ZM117.94,17.88h3.36l-1.66-3.19-1.7,3.19Z"/>
      <path d="M70.13,14.44c-.41-.53-.94-.96-1.54-1.24s-1.27-.41-1.94-.38c-.99.04-1.93.47-2.62,1.19-.38.37-.68.81-.89,1.3-.21.49-.32,1.01-.32,1.54,0,.53.1,1.05.3,1.54.2.49.5.93.87,1.31.4.43.89.76,1.43.98.55.21,1.13.3,1.71.25.59-.03,1.16-.19,1.68-.47.52-.28.97-.67,1.32-1.14.37.37.71.7,1.03,1.05.02.04.03.08.03.12s-.01.08-.03.12c-.69.79-1.59,1.37-2.59,1.68-1,.31-2.07.33-3.09.07-1.02-.26-1.94-.81-2.67-1.56-.73-.76-1.23-1.7-1.45-2.73-.25-1.13-.14-2.3.32-3.36.34-.81.86-1.53,1.53-2.1.66-.57,1.45-.98,2.3-1.2.85-.22,1.74-.23,2.59-.04.86.19,1.66.57,2.34,1.12.25.21.49.43.71.66.02.04.03.08.03.12s0,.08-.03.12c-.32.35-.69.69-1.05,1.05Z"/>
      <path d="M134.53,12.99l-1.16,1.07c-.48-.49-1.08-.85-1.74-1.03-.34-.1-.7-.12-1.05-.08s-.69.16-1,.33c-.26.19-.43.48-.49.79-.05.32.03.64.21.91.31.38.75.64,1.24.7.91.15,1.8.42,2.64.81.44.2.82.5,1.11.88.29.38.49.83.57,1.3.08.41.07.82-.03,1.23-.1.4-.29.78-.55,1.1-.36.42-.81.75-1.31.99-.5.24-1.04.37-1.6.38-.8.07-1.6-.08-2.32-.42-.41-.21-.8-.46-1.16-.74-.24-.17-.46-.39-.67-.58.43-.42.79-.79,1.11-1.11.39.33.79.64,1.22.92.59.34,1.27.47,1.94.35.45-.07.87-.23,1.25-.49.19-.14.34-.32.44-.53.1-.21.15-.44.14-.67,0-.23-.07-.46-.19-.66-.11-.2-.28-.37-.47-.5-.5-.29-1.04-.49-1.62-.58-.85-.12-1.66-.41-2.39-.85-.35-.21-.63-.5-.83-.84-.2-.35-.31-.74-.32-1.14-.04-.53.05-1.06.27-1.54.15-.31.36-.58.61-.81.26-.23.55-.4.88-.51.6-.23,1.24-.33,1.88-.31.64.03,1.27.18,1.85.46.58.29,1.1.69,1.53,1.17Z"/>
      <path d="M80.9,14.48l1.04,1.05-3.74,3.73-1.04-1.05,3.74-3.73Z"/>
    </g>
  </g>
</svg>