<?xml version="1.0" encoding="UTF-8"?>
<svg id="Layer_2" xmlns="http://www.w3.org/2000/svg" viewBox="0 0 333.97 40.93">
  <defs>
    <style>
      .cls-1 {
        fill: #f5f5f5;
      }
    </style>
  </defs>
  <g id="Layer_1-2" data-name="Layer_1">
    <g>
      <path d="M129.01,40.8c-8.72-2.19-12.78-15.2-6.41-23.37,1.72-2.21,3.88-3.82,6.73-4.21,3.91-.53,6.69,1.12,8.74,5.2.03-.53.05-.85.06-1.17,0-4.76-.04-9.51.03-14.27.01-1.05-.32-1.29-1.27-1.19-.75.08-1.52.02-2.28.01-.49,0-1.04.16-1.03-.71.01-.94.65-.62,1.08-.63,2.27-.09,4.55-.14,6.82-.22.24,0,.48-.15.72-.23.56,0,1.12,0,1.68,0,0,12.4.01,24.8-.02,37.19,0,.99.21,1.36,1.22,1.22.67-.09,1.36-.02,1.96-.02-.33-1.28-.87-2.54-.96-3.83-.23-3.54,1.52-6.1,4.98-7.68,2.67-1.21,5.53-1.46,8.39-1.74,1.97-.19,1.64.2,1.66-1.73.02-1.8.02-3.6,0-5.4-.02-2.56-.8-3.5-3.33-3.45-1.51.03-3.06.46-4.49,1-1.27.48-1.29,1.14-.42,2.21.98,1.21,1.06,2.39.25,3.62-.67,1.01-1.87,1.47-3.03,1.16-1.27-.34-2.11-1.51-2.18-2.96-.1-2.13,1.16-3.42,2.76-4.44,2.84-1.83,6.04-2.18,9.33-1.99,1.11.06,2.23.22,3.3.5,2.49.66,3.57,2.12,3.57,4.69,0,5.36,0,10.72,0,16.08,0,.68,0,1.37.12,2.03.37,1.91,1.57,2.31,3.1,1.11.22-.17.7-.38.74-.32.23.3.37.67.53,1.02,0,0,.02-.03.02-.03-1.33.85-2.67,1.7-4,2.54h-2.64c-2.54-.86-3.35-2.93-3.67-5.64-1.4,3.14-3.56,4.97-6.65,5.64h-3.36c-1.45-.67-2.84-1.25-4.58-1.01-2.44.33-4.93.24-7.39.42-.67.05-.73-.17-.72-.69.02-1.22,0-2.43,0-3.65-1.5,2.48-3.5,4.2-6.28,4.94h-3.12ZM138.13,26.43c-.06-.89-.09-2.21-.27-3.51-.35-2.55-.89-5.07-2.95-6.88-1.64-1.44-3.63-1.9-5.7-1.27-1.91.59-2.49,2.35-2.6,4.09-.24,3.9-.39,7.81-.36,11.71.02,2.09.35,4.21.84,6.24.46,1.9,1.71,2.61,3.65,2.59,2.9-.04,4.76-1.59,5.91-4.12,1.21-2.68,1.4-5.54,1.46-8.85ZM161.13,28.7c0-.48-.03-.96,0-1.44.05-.61-.15-.96-.79-.81-1.97.45-4.01.72-5.85,1.47-.96.4-1.84,1.56-2.27,2.58-.82,1.95-.52,4.01.36,5.93.69,1.49,2.05,2.09,3.68,1.76,1.47-.3,2.45-1.27,3.22-2.48,1.37-2.14,1.69-4.53,1.65-7Z"/>
      <path d="M14.53,0c-.99,4.02-1.97,8.05-2.98,12.07-1.9,7.54-3.83,15.08-5.72,22.62-.18.73-.33,1.49-.35,2.24-.05,1.67,1.09,2.31,2.53,1.43.5-.31,1-.71,1.33-1.18.94-1.34,1.83-2.71,2.64-4.12.23-.4.19-1.01.13-1.5-.95-7.65,5.03-15.1,10.91-17.59,3.41-1.44,7.63-1.53,10.15,3.14.1-.28.19-.46.24-.66q.63-2.3,2.96-2.3h2.7c-1.51,5.78-3.01,11.45-4.47,17.12-.42,1.62-.81,3.26-1.04,4.91-.08.58.18,1.62.54,1.75.52.19,1.49-.05,1.88-.47,1.18-1.28,2.19-2.72,3.24-4.12.26-.35.35-.78.96-.4.55.34.41.6.18,1.04-1.61,2.96-3.56,5.56-6.86,6.8h-2.64c-2.17-.75-2.68-2.54-2.74-4.87-1.73,2.65-3.91,4.14-6.62,4.87h-3.12c-2.91-1.02-4.65-3.14-5.66-6.2-1.54,3.03-3.58,5.3-6.82,6.2h-2.88c-1.27-.54-2.3-1.35-2.88-2.64,0-.96,0-1.92,0-2.88.06-.04.16-.08.18-.13,1.36-5.45,2.71-10.91,4.08-16.36,1.34-5.34,2.7-10.67,4.08-16,.21-.81.02-1.04-.81-1-1.43.06-2.86.02-4.31.02-.09-1.1.37-1.44,1.38-1.38,1.4.08,2.8.08,4.2,0,1.23-.07,2.46-.28,3.69-.42.64,0,1.28,0,1.92,0ZM31.8,20.77c.08-4.49-2.44-6.83-5.99-6.11-2.14.43-3.44,1.93-4.04,3.87-1.32,4.25-2.51,8.55-3.64,12.85-.5,1.93-.75,3.93-.03,5.9.55,1.5,1.51,2.18,3.08,2.12,2.1-.09,3.58-1.31,4.76-2.87,3.64-4.83,5.04-10.49,5.86-15.75Z"/>
      <path d="M218.77,40.8c-.54-.21-1.08-.42-1.62-.61-9.05-3.15-12.01-15.19-5.53-22.59,3.24-3.7,7.32-5.24,12.14-4.13,5.05,1.17,8.12,4.64,9.6,9.43,2.31,7.43-2.07,15.61-9.21,17.53-.44.12-.87.25-1.3.38h-4.08ZM214.62,26.99c.06,0,.13,0,.19,0,0,1.2-.1,2.4.02,3.59.19,1.78.4,3.57.85,5.29.44,1.67,1.61,2.8,3.34,3.28,4.1,1.13,7.35-.79,7.83-5,.4-3.59.39-7.25.36-10.87-.01-1.73-.36-3.49-.8-5.17-.42-1.62-1.51-2.82-3.2-3.26-3.91-1-7.28.19-8,4.87-.37,2.4-.41,4.84-.59,7.27Z"/>
      <path d="M75.73,40.8c-2.14-.73-4.26-1.48-5.96-3.08-3.95-3.75-5.68-8.3-4.52-13.64,1.1-5.08,4.06-8.82,9.18-10.43,6.2-1.95,12.68,1.48,15.32,7.99,3.11,7.66-1.1,16.7-8.75,18.78-.4.11-.8.25-1.2.38h-4.08ZM71.47,26.39c.16,2.78.19,4.99.45,7.16.27,2.27.96,4.41,3.36,5.4,3.89,1.61,7.76-.29,8.31-4.43.48-3.66.43-7.39.49-11.1.02-1.42-.18-2.87-.48-4.27-.67-3.13-2.65-4.66-5.77-4.64-3.14.02-5.13,1.54-5.66,4.72-.43,2.54-.51,5.15-.69,7.15Z"/>
      <path d="M272.77,40.8c-.77-.28-1.55-.53-2.31-.83-7.26-2.89-10.44-11.87-6.73-19.08,1.84-3.57,4.52-6.32,8.5-7.41,5.94-1.63,11.75,2.07,13.24,8.3q.79,3.3-2.49,3.3c-4.36,0-8.72.02-13.07-.02-.85,0-1.07.24-1.04,1.06.11,2.63-.1,5.3.26,7.89.59,4.33,3.41,6.13,7.72,5.24,3.95-.82,6.36-3.42,7.91-6.98.18-.42.16-1.08.99-.76.89.34.3.87.17,1.24-1.33,3.71-3.49,6.62-7.52,7.68-.44.12-.88.24-1.31.36h-4.32ZM274.3,23.72c1.52,0,3.04-.02,4.55.01.59.01.89-.11.84-.78-.09-1.43-.05-2.88-.21-4.3-.28-2.53-1.7-3.87-4.19-4.1-2.93-.28-5.25.87-5.84,3.24-.43,1.72-.42,3.54-.54,5.33-.01.19.45.58.7.59,1.56.06,3.12.03,4.67.03Z"/>
      <path d="M333.97,13.68c-1.56,2.35-3.13,4.69-4.67,7.05-1.48,2.27-2.96,4.55-4.38,6.86-.31.51-.52,1.17-.52,1.76-.05,3.12-.07,6.24,0,9.36.02.95-.25,1.26-1.17,1.15-.74-.08-1.54.26-1.49-1.11.11-3.16.07-6.32,0-9.48-.01-.67-.24-1.42-.59-1.98-2.69-4.29-5.45-8.55-8.18-12.81-.21-.32-.39-.66-.59-.99.13-.08.18-.14.25-.15,1.74-.35,2.78.33,3.69,1.91,2.11,3.65,4.46,7.16,6.81,10.88.46-.71.84-1.31,1.22-1.9,2.03-3.2,4.11-6.38,6.08-9.61.59-.96,1.2-1.5,2.36-1.31.37.06.78-.06,1.17-.1v.48Z"/>
      <path class="cls-1" d="M.13,38.16c.58,1.29,1.61,2.1,2.88,2.64h-.24c-.88,0-2.1.34-2.54-.1-.44-.44-.1-1.66-.1-2.54Z"/>
      <path d="M242.25,20.18c1.16-1.58,2.19-3.28,3.51-4.73,2.85-3.13,8.44-2.72,10.93-1.22,1.72,1.03,2.48,2.69,2.64,4.6.16,1.91.19,3.83.2,5.74.03,4.2.06,8.4-.03,12.59-.02,1.12.33,1.37,1.33,1.25.63-.07,1.28,0,1.92-.02.5-.02.81.02.82.68,0,.66-.24.78-.84.78-3.96-.02-7.92-.02-11.88,0-.55,0-.86-.05-.86-.75,0-.77.42-.69.91-.7.91,0,2.24.31,2.64-.16.49-.57.24-1.8.23-2.74-.04-5.47-.08-10.95-.18-16.42-.03-1.46-.32-2.95-1.84-3.64-1.66-.74-3.24-.3-4.6.79-2.94,2.37-4.45,5.54-4.58,9.25-.15,4.03-.02,8.08-.05,12.11,0,.71.23.87.88.83.84-.05,1.68.02,2.52-.02.59-.03.85.1.84.77,0,.65-.31.69-.81.69-4.12-.01-8.24-.02-12.35,0-.62,0-.71-.21-.72-.76-.02-.62.23-.77.77-.7.08.01.16,0,.24,0,.94-.04,2.27.27,2.73-.22.49-.52.16-1.81.16-2.76,0-6.28-.01-12.56.02-18.83,0-.84-.2-1.12-1.05-1.04-.83.08-1.68.01-2.52.02-.53,0-1.01.09-1-.75,0-.82.51-.63.95-.65,2.83-.14,5.66-.25,8.49-.43.68-.04.59.31.59.71,0,1.96,0,3.91,0,5.74Z"/>
      <path d="M171.39,38.28c1.43-2.11,2.88-4.21,4.29-6.33,3.41-5.12,6.8-10.24,10.19-15.37.19-.28.35-.59.57-.94-2.14,0-4.18-.15-6.19.04-2.36.22-3.91,1.68-4.68,3.91-.4,1.17-.72,2.36-1.04,3.56-.15.57-.41,1.02-1.03.77-.24-.09-.45-.6-.44-.91.03-2.64.15-5.27.17-7.91,0-.81.31-.96,1.05-.96,5.72.03,11.44.01,17.15.03.48,0,.95.14,1.43.22-.14.6-.15,1.28-.46,1.78-1.27,2.07-2.64,4.09-3.97,6.13-3.47,5.3-6.95,10.61-10.68,16.29,2.96-.21,5.65-.23,8.28-.65,2.21-.35,3.58-2.03,4.37-4.06.5-1.29.86-2.66,1.14-4.02.14-.65.46-.84.96-.68.23.08.48.53.47.8-.06,2.91-.18,5.83-.24,8.74-.02.81-.2,1.13-1.15,1.13-6.12-.06-12.24-.03-18.35-.03q-1.67,0-1.83-1.59s-.03.03-.03.03Z"/>
      <path d="M308.77,35.95v-1.23c0-6.76.02-13.52-.03-20.27,0-.99.31-1.16,1.2-1.16.93,0,1.3.13,1.29,1.21-.05,7.96-.02,15.91-.04,23.87,0,.49-.25,1.41-.31,1.4-.95-.1-2.04.56-2.8-.62-1.87-2.92-3.82-5.8-5.73-8.7-2.86-4.35-5.72-8.7-8.71-13.25v1.44c0,6.72-.02,13.44.03,20.15,0,.96-.3,1.15-1.14,1.06-.67-.07-1.33.24-1.32-1,.07-8.16.06-16.31.01-24.47,0-.97.34-1.04,1.15-1.09,1.18-.07,1.84.33,2.48,1.34,4.5,7.07,9.08,14.08,13.64,21.11.03.05.1.08.27.22Z"/>
      <path d="M204.97,26.14c0,3.76.02,7.52-.02,11.28,0,.76.16,1.07.97.99.83-.07,1.68.02,2.52-.03.57-.03.75.14.75.73,0,.57-.15.74-.74.74-4.16-.03-8.32-.03-12.48,0-.64,0-.82-.28-.66-.78.08-.27.41-.47.65-.67.07-.06.23,0,.35,0,.95-.04,2.19.26,2.76-.23.46-.39.13-1.73.13-2.65,0-6.24-.02-12.48.02-18.72,0-.95-.15-1.38-1.21-1.26-.87.1-1.76.07-2.63-.01-.24-.02-.59-.42-.61-.67-.02-.22.36-.65.58-.67,3.03-.19,6.06-.33,9.09-.42.17,0,.5.56.51.86.03,3.84.02,7.68.02,11.52Z"/>
      <path d="M198.57,5.42c0-1.92,1.51-3.47,3.37-3.45,1.87.01,3.41,1.58,3.39,3.47-.02,1.88-1.61,3.44-3.46,3.4-1.82-.04-3.29-1.57-3.3-3.42Z"/>
      <path d="M44.25,20.05c0-5.68-.03-11.36.02-17.04,0-1.02-.29-1.32-1.27-1.23-.83.08-1.68.03-2.52,0-.5-.01-1.16.26-1.14-.72.03-.93.67-.62,1.1-.62,6.64-.02,13.28-.01,19.91-.01,2.28,0,4.56.02,6.84-.01.65-.01.87.14.91.84.16,3.07.43,6.13.6,9.2.02.34-.21.91-.46,1.01-.79.3-.72-.47-.87-.91-.49-1.47-.85-2.99-1.45-4.42-1.16-2.74-3.4-4.08-6.29-4.23-2.63-.14-5.27-.07-7.91-.14-.72-.02-.85.27-.85.91.02,5.16.01,10.32,0,15.48,0,.46-.05.87.64.83,1.95-.11,3.92-.05,5.85-.3,2.09-.27,2.98-1.32,3.25-3.39.11-.83.11-1.68.25-2.5.05-.29.38-.52.59-.78.21.24.59.48.59.73.04,4.84.03,9.68,0,14.52,0,.23-.34.45-.52.68-.23-.24-.61-.45-.66-.72-.17-1.02-.16-2.08-.35-3.09-.38-2.02-1.6-3.21-3.74-3.48-1.74-.22-3.5-.22-5.26-.24-.21,0-.62.42-.62.65-.04,5.56-.03,11.12,0,16.68,0,.22.42.6.66.62,1.28.06,2.56.05,3.84.02.55-.01.78.11.78.72,0,.57-.17.75-.75.74-5.12-.02-10.24-.02-15.36,0-.6,0-.72-.21-.73-.76-.02-.63.27-.72.79-.7.96.03,1.93-.06,2.88.03.98.09,1.27-.18,1.26-1.21-.06-5.72-.03-11.44-.03-17.16Z"/>
      <path d="M99.29,20.49c1-1.52,1.83-3.03,2.88-4.35,2.95-3.71,8.27-3.57,11.29-2.08,2.42,1.2,3.05,3.49,3.09,5.95.08,5.4.07,10.79.1,16.19,0,2.2,0,2.2,2.25,2.2.36,0,.75-.09,1.07.03.26.09.54.4.62.67.16.5-.03.77-.66.76-4.04-.03-8.08-.03-12.12,0-.65,0-.8-.29-.65-.78.08-.27.39-.48.64-.67.1-.08.31-.01.47-.01q2.55,0,2.55-2.62c-.01-5.36-.02-10.72-.05-16.08,0-.55-.1-1.11-.2-1.66-.5-2.57-2.52-3.72-4.9-2.59-1.12.53-2.18,1.37-2.99,2.31-1.97,2.31-3.01,5.04-2.99,8.13.02,3.84.03,7.68-.01,11.52,0,.76.15,1.07.97.99.83-.08,1.68.03,2.52-.03.68-.05.76.34.63.79-.08.26-.42.63-.64.63-4.16.04-8.32.04-12.48,0-.22,0-.55-.4-.63-.67-.16-.52.08-.84.69-.75.08.01.16,0,.24,0,.95-.04,2.29.27,2.74-.22.48-.52.14-1.82.14-2.78,0-6.2-.02-12.4.02-18.6,0-.95-.15-1.39-1.21-1.26-.87.1-1.76.07-2.63-.01-.24-.02-.59-.42-.61-.67-.02-.22.35-.65.57-.67,2.95-.18,5.9-.32,8.85-.42.14,0,.43.44.43.68.04,1.99.02,3.99.02,6.04Z"/>
    </g>
  </g>
</svg>