<?xml version="1.0" encoding="UTF-8"?>
<svg id="Layer_2" xmlns="http://www.w3.org/2000/svg" viewBox="0 0 721.31 115.89">
  <defs>
    <style>
      .cls-1 {
        isolation: isolate;
      }

      .cls-2 {
        fill: #214160;
      }
    </style>
  </defs>
  <g id="Layer_1-2" data-name="Layer_1">
    <path id="logoMark" class="cls-2" d="M57.6,1.01c-9.79.01-19.42,2.49-28,7.2l21.2,21.2,18.1,18c-6-6.7-7.7-9.2-11.3-13.7,4.7,1.3,7.8-.2,10.3,2,9.9,8.6,25.1,23,34.3,32.2,2.2,2.2,2.4,5.5.5,7.4l-4.6,4.5-4.6,4.6c-1.9,1.9-5.2,1.6-7.4-.5-9.2-9.2-23.6-24.3-32.2-34.3-3.2-3.6,1.8-9.1-6.3-17.2L25.9,10.51c-7.36,4.89-13.52,11.39-18,19l4.4,4.4,18.1,18.1c-5.9-6.7-7.6-9.3-11.2-13.8,4.7,1.3,7.8-.2,10.4,2,9.9,8.6,25.1,23,34.3,32.2,2.2,2.2,2.4,5.5.5,7.4l-4.5,4.5-4.6,4.6c-1.9,1.9-5.2,1.6-7.4-.5-9.2-9.2-23.6-24.3-32.2-34.3-3.2-3.7,1.8-9.1-6.3-17.2l-3.6-3.6c-13.88,28.52-2.01,62.89,26.51,76.77,28.52,13.88,62.89,2.01,76.77-26.51,13.88-28.52,2.01-62.89-26.51-76.77-7.78-3.79-16.32-5.77-24.97-5.79Z"/>
    <g id="type">
      <path id="type_PathItem_" class="cls-2" d="M181,7.91c7.96-.23,15.53,3.43,20.3,9.8l6-4.4C201.27,4.71,191.31-.29,180.8.01c-19,0-34.6,14.1-34.6,34.9s15.6,34.9,34.6,34.9c10.51.31,20.47-4.69,26.5-13.3l-6-4.4c-4.77,6.32-12.28,9.96-20.2,9.8-14.6,0-26.5-10.6-26.5-26.9s11.9-27.1,26.4-27.1Z"/>
      <path id="type_CompoundPathItem_" class="cls-2" d="M276,23.01c0-12.9-8.8-22.1-23.1-22.1h-21.9v67.8h8.2v-24h14.4l15.9,24.1h9l-16.9-25.3c9-2.9,14.4-10.3,14.4-20.5ZM251.9,37.51h-12.6V8.61h12.7c9.6,0,15.7,4.9,15.7,14.4s-6.2,14.5-15.8,14.5h0Z"/>
      <polygon id="type_PathItem_2" class="cls-2" points="310.4 38.51 334.3 38.51 334.3 31.01 310.4 31.01 310.4 8.61 338.6 8.61 338.6 1.01 302.1 1.01 302.1 68.81 339.4 68.81 339.4 61.21 310.4 61.21 310.4 38.51"/>
      <polygon id="type_PathItem_3" class="cls-2" points="426 54.31 408.9 1.01 402.3 1.01 385.2 54.31 369.4 1.01 360.7 1.01 381.4 68.81 387.9 68.81 405.5 15.21 423.2 68.81 429.8 68.81 450.4 1.01 441.7 1.01 426 54.31"/>
      <path id="type_PathItem_4" class="cls-2" d="M502.7,61.81c-14.6,0-26.5-10.6-26.5-26.9s11.8-26.9,26.4-26.9c7.93-.23,15.47,3.43,20.2,9.8l6-4.4c-5.99-8.6-15.92-13.6-26.4-13.3-19,0-34.6,14.1-34.6,34.9s15.6,34.9,34.6,34.9c10.51.31,20.47-4.69,26.5-13.3l-6-4.4c-4.82,6.23-12.32,9.79-20.2,9.6Z"/>
      <rect id="type_PathItem_5" class="cls-2" x="552.6" y="1.01" width="8.2" height="67.8"/>
      <path id="type_CompoundPathItem_2" class="cls-2" d="M609.5,1.01l-26.9,67.8h8.9l6.1-15.7h32.1l6.1,15.7h8.9L617.8,1.01h-8.3ZM600.5,45.51l13.1-33.9,13.1,33.9h-26.2Z"/>
      <polygon id="type_PathItem_6" class="cls-2" points="674.7 61.21 674.7 1.01 666.5 1.01 666.5 68.81 704.4 68.81 704.4 61.21 674.7 61.21"/>
      <path id="type_CompoundPathItem_3" class="cls-2" d="M170.4,90.51h-8.5v25h4v-8.4h4.5c5.4,0,8.8-3.4,8.8-8.3s-3.4-8.3-8.8-8.3ZM170,103.51h-4.1v-9.2h4.1c3.1,0,5.1,1.5,5.1,4.6s-2,4.6-5.1,4.6Z"/>
      <path id="type_CompoundPathItem_4" class="cls-2" d="M239.5,90.51l-9.7,25h4.3l1.9-5.1h11.2l1.9,5.1h4.3l-9.8-25h-4.1ZM237.4,106.71l4.2-11.2,4.2,11.2h-8.4Z"/>
      <path id="type_CompoundPathItem_5" class="cls-2" d="M325.7,98.71c0-5-3.4-8.3-8.7-8.3h-8.4v25h4v-8.5h4.5l5.5,8.5h4.3l-6-9.2c3.07-1.17,5.02-4.22,4.8-7.5ZM316.6,103.31h-4v-9.2h4c3.1,0,5.1,1.5,5.1,4.6s-2.1,4.7-5.1,4.6Z"/>
      <polygon id="type_PathItem_7" class="cls-2" points="380 90.41 380 94.11 386.3 94.11 386.3 115.41 390.3 115.41 390.3 94.11 396.6 94.11 396.6 90.41 380 90.41"/>
      <polygon id="type_PathItem_8" class="cls-2" points="469 108.81 468.9 108.81 456.2 90.41 452.2 90.41 452.2 115.41 456.2 115.41 456.2 97.01 456.4 97.01 469 115.41 473 115.41 473 90.41 469 90.41 469 108.81"/>
      <polygon id="type_PathItem_9" class="cls-2" points="533.6 104.61 541.9 104.61 541.9 101.01 533.6 101.01 533.6 94.11 543.4 94.11 543.4 90.41 529.6 90.41 529.6 115.41 543.7 115.41 543.7 111.71 533.6 111.71 533.6 104.61"/>
      <path id="type_CompoundPathItem_6" class="cls-2" d="M616.8,98.71c0-5-3.4-8.3-8.7-8.3h-8.4v25h4v-8.5h4.6l5.5,8.5h4.3l-6-9.2c3.05-1.19,4.96-4.24,4.7-7.5ZM607.7,103.31h-4v-9.2h4c3.1,0,5.1,1.5,5.1,4.6s-2,4.7-5.1,4.6Z"/>
      <path id="type_PathItem_10" class="cls-2" d="M682.1,101.11l-1.7-.7c-2.8-1.1-3.7-2.3-3.7-3.8,0-1.9,1.6-3,3.7-3,2.11-.01,3.99,1.31,4.7,3.3l3-1.6c-1.24-3.21-4.36-5.29-7.8-5.2-4.1,0-7.5,2.5-7.5,6.6,0,3.5,2.5,5.5,6.1,6.9l1.6.6c2.7,1.1,4.2,2,4.2,4.2,0,2.5-2,3.7-4.3,3.7-2.48.05-4.67-1.6-5.3-4l-3.2,1.5c.9,3.6,4.3,6.2,8.6,6.2s8.3-2.5,8.3-7.3c-.1-3.7-2.4-5.7-6.7-7.4Z"/>
    </g>
    <g class="cls-1">
      <path class="cls-2" d="M721.31,8.6c0,4.65-3.65,8.3-8.4,8.3s-8.45-3.65-8.45-8.3,3.75-8.2,8.45-8.2,8.4,3.65,8.4,8.2ZM706.55,8.6c0,3.65,2.7,6.55,6.4,6.55s6.25-2.9,6.25-6.5-2.65-6.6-6.3-6.6-6.35,2.95-6.35,6.55ZM711.6,12.9h-1.9V4.7c.75-.15,1.8-.25,3.15-.25,1.55,0,2.25.25,2.85.6.45.35.8,1,.8,1.8,0,.9-.7,1.6-1.7,1.9v.1c.8.3,1.25.9,1.5,2,.25,1.25.4,1.75.6,2.05h-2.05c-.25-.3-.4-1.05-.65-2-.15-.9-.65-1.3-1.7-1.3h-.9v3.3ZM711.65,8.25h.9c1.05,0,1.9-.35,1.9-1.2,0-.75-.55-1.25-1.75-1.25-.5,0-.85.05-1.05.1v2.35Z"/>
    </g>
  </g>
</svg>