<?xml version="1.0" encoding="UTF-8"?>
<svg id="Layer_2" xmlns="http://www.w3.org/2000/svg" viewBox="0 0 809.7 456.62">
  <defs>
    <style>
      .cls-1 {
        fill: #5bb1dc;
      }

      .cls-2 {
        fill: #04a6df;
      }

      .cls-3 {
        fill: #d6d6d6;
      }

      .cls-4 {
        fill: #3d5dbf;
      }

      .cls-5 {
        fill: #030303;
      }

      .cls-6 {
        fill: #5a9dd8;
      }

      .cls-7 {
        fill: #e6eaf6;
      }

      .cls-8 {
        fill: #788dd3;
      }

      .cls-9 {
        fill: #4e69c4;
      }

      .cls-10 {
        fill: #0f8ccc;
      }

      .cls-11 {
        fill: #4dbee5;
      }

      .cls-12 {
        fill: #6a96d6;
      }

      .cls-13 {
        fill: #6e84ce;
      }

      .cls-14 {
        fill: #59b0dc;
      }

      .cls-15 {
        fill: #0d8ccb;
      }

      .cls-16 {
        fill: #04a5df;
      }

      .cls-17 {
        fill: #57b3de;
      }

      .cls-18 {
        fill: #3959bd;
      }

      .cls-19 {
        fill: #148fcd;
      }

      .cls-20 {
        fill: #3857bc;
      }

      .cls-21 {
        fill: #141414;
      }

      .cls-22 {
        fill: #6795d5;
      }

      .cls-23 {
        fill: #060606;
      }

      .cls-24 {
        fill: #6397d6;
      }

      .cls-25 {
        fill: #5b94d6;
      }

      .cls-26 {
        fill: #58a0d9;
      }

      .cls-27 {
        fill: #59b1dd;
      }

      .cls-28 {
        fill: #4563c1;
      }

      .cls-29 {
        fill: #11aae1;
      }

      .cls-30 {
        fill: #8ad5ee;
      }

      .cls-31 {
        fill: #0e70c7;
      }

      .cls-32 {
        fill: silver;
      }

      .cls-33 {
        fill: #03a5df;
      }

      .cls-34 {
        fill: #3bb8e6;
      }

      .cls-35 {
        fill: #778fd3;
      }

      .cls-36 {
        fill: #05a6df;
      }

      .cls-37 {
        fill: #56aedd;
      }

      .cls-38 {
        fill: #63b4e4;
      }

      .cls-39 {
        fill: #3958bd;
      }

      .cls-40 {
        fill: #f5f5f5;
      }

      .cls-41 {
        fill: #4260c0;
      }

      .cls-42 {
        fill: #6992d5;
      }

      .cls-43 {
        fill: #58bce5;
      }

      .cls-44 {
        fill: #0ba7e0;
      }

      .cls-45 {
        fill: #3857bd;
      }

      .cls-46 {
        fill: #0e8ccb;
      }

      .cls-47 {
        fill: #0a0a0a;
      }

      .cls-48 {
        fill: #ec2929;
      }

      .cls-49 {
        fill: #0a6ec6;
      }

      .cls-50 {
        fill: #7188d0;
      }

      .cls-51 {
        fill: #4bbde7;
      }

      .cls-52 {
        fill: #4ec0e8;
      }

      .cls-53 {
        fill: #6780cd;
      }

      .cls-54 {
        fill: #51bee8;
      }

      .cls-55 {
        fill: #0c6fc7;
      }

      .cls-56 {
        fill: #0b6ec6;
      }

      .cls-57 {
        fill: #06a6df;
      }

      .cls-58 {
        fill: #57b7e2;
      }

      .cls-59 {
        fill: #2c96d1;
      }
    </style>
  </defs>
  <g id="Layer_1-2" data-name="Layer_1">
    <g>
      <path class="cls-5" d="M494.84,406.81c-7.47-20.98-1.98-42.64-3.31-63.95-.23-3.63,2.57-5.05,6.06-5.93,23.17-5.83,46.03,6,50.38,26.29,4.59,21.41-8.34,36.71-34.24,40.75-1.14.18-2.05,1.86-3.07,2.84h-15.81ZM500.83,370.51c6.14,7.04-8.99,23.3,11.64,23.17,14.71-.09,24.11-9.29,24.05-23.25-.06-14.18-9.23-23.13-24.11-23.16-20.55-.04-5.44,16.18-11.58,23.24Z"/>
      <path class="cls-23" d="M409.45,406.81c-25.59-15.55-17.55-40.92-18.42-63.62-.13-3.3,1.77-6.16,5.71-6.11,3.98.05,5.49,3.05,5.59,6.31.31,10.53.19,21.07.35,31.61.16,10.7,3.78,19.08,16.1,18.9,11.42-.17,15.03-8.42,15.45-18.22.46-10.52.16-21.07.26-31.61.03-3.32.74-6.54,4.73-6.97,5.3-.57,5.93,3.46,5.9,7.21-.09,13.16.07,26.36-.83,39.48-1.04,15.34-13.72,18.84-25.37,23.03h-9.49Z"/>
      <path class="cls-23" d="M229.17,406.81c-.46-.88-.7-2.02-1.41-2.58-5.31-4.18-17.84-4.64-13.99-13.51,4.35-10.04,10.74,2.42,16.74,2.73,6.69.35,14.87,3.66,17.75-4.9,3.27-9.73-6.1-10.69-12.16-12.68-6.02-1.98-12.28-3.31-16.86-7.97-5.25-5.35-6.66-11.7-3.78-18.84,3.32-8.23,9.62-12.02,18.22-12.69,8.74-.68,16.79.94,23.09,7.37,1.03,1.05,1.04,4.25.21,5.74-1.33,2.39-3.79,2.92-6.75,1.71-7.98-3.27-19.5-10.45-23.06.81-4.24,13.37,11.6,11.11,19.11,14.71,8.8,4.21,15.56,9.44,14.37,20.06-1.12,9.98-6.76,16.27-17.31,17.03-2.23.16-4.08.5-4.67,3.01h-9.49Z"/>
      <path class="cls-23" d="M773.16,406.81c-2.33-4.9-8.11-4.02-11.62-6.96-3.09-2.59-8.52-4.55-5.97-9.6,2.53-5.02,6.85-2.95,10.67-.38,4.44,2.98,9.32,4.72,14.85,4.47,5.16-.23,9.64-1.59,10.67-7.23.93-5.09-2.63-7.57-6.94-9.06-4.96-1.72-9.96-3.31-14.89-5.12-8.9-3.26-13.81-9.21-12.84-19.18.87-9.01,6.03-14.52,14.43-16.53,10.17-2.44,19.84-1.11,27.92,6.36,1.86,1.72,1.9,3.96.39,5.55-1.27,1.34-3.6,2.81-5.13,2.51-3.01-.58-5.68-2.71-8.68-3.56-6.67-1.89-14.51-4.2-17.17,4.89-2.25,7.7,5.23,9.19,10.55,10.94,11.08,3.63,23.19,5.98,23.76,21.15.62,16.38-13.5,16.99-23.69,21.75h-6.33Z"/>
      <path class="cls-20" d="M14.67,161.88c-.03-.82-.21-1.67-.06-2.46.96-5.24.09-8.42-6.27-9.8-7.27-1.58-9.46-6.68-7.83-13.87,10.72.04,21.45.09,32.17.1,16.05.02,32.11.04,48.16-.03,1.98,0,3.57.34,4.68,2.06-.25,7.81,2.25,15.22,3.35,22.83-1.39,1.74-3.34,1.08-5.09,1.14-6.55.21-13.08-.5-19.66-.07-10.83.71-21.69-.63-32.56.03-5.61.34-11.26.06-16.89.06Z"/>
      <path d="M710.12,87.39c56.75.31,100.24,46.83,99.56,106.5-.68,59.93-44.3,105.42-101.05,105.37-57.68-.05-100.57-46.01-100.1-107.28.45-59.5,44.56-104.91,101.59-104.6ZM773.76,199.53c.31-42.57-21.93-72.28-54.37-77.86-30.37-5.22-57.85,10.98-69.83,41.16-13.6,34.26-2.51,74.45,25.87,92.7,20.27,13.03,41.79,13.85,62.78,2.82,25.33-13.32,34.8-36.46,35.55-58.82Z"/>
      <path d="M327.27,217.52c12.34,16.64,23.86,32.29,35.5,47.85,7.01,9.38,10.53,19.68-.07,27.78-11.23,8.58-20.52,2.45-27.87-7.65-12.69-17.42-25.52-34.75-38.34-52.08-5.56-7.51-38.6-13.7-46.26-8.77-3.91,2.52-2.64,6.54-2.67,10.02-.14,13.68.22,27.38-.16,41.05-.3,10.82-3.64,20.63-16.59,20.75-13.62.13-17.46-9.37-17.45-21.29.02-24.21.34-48.43-.18-72.64-.18-8.35,2.34-10.72,10.65-10.56,25.26.48,50.53.18,75.79,0,13.42-.09,24.93-4.68,32.1-16.58,12.52-20.78.56-46.64-23.65-50.26-23.52-3.52-47.31-.73-70.95-1.6-9.82-.36-22.69,3.11-23.59-13.29-.7-12.79,7.74-19.49,24.62-19.49,23.15,0,46.42-1.04,69.44.81,47.61,3.83,72.83,39.97,60.43,84.88-5.77,20.92-20.73,33.47-40.76,41.05Z"/>
      <path class="cls-15" d="M53.92,296.85c-2.79-8.17-3.82-16.87-7.5-24.77,1.35-1.83,3.33-1.18,5.07-1.2,8.44-.06,16.87-.04,25.31-.02,10.57.02,21.14.05,31.72.07.1,1.59.21,3.18.31,4.77-.8,5.73-.11,11.47-.04,17.19.04,3-.94,4.3-4.01,3.97-6.52-.69-13.35-1.03-19.58-.71-7.81.39-15.7-.08-23.5.69-.19-.24-.22-.49-.09-.77,0-3.29-.38-4.69-4.08-2.18-1.31.89-2.11,2.39-3.62,2.94Z"/>
      <path class="cls-49" d="M181.62,270.91c1.4,2.81,2.36,5.74,2.32,8.93-3.46,4.6-5.95,9.73-8.23,14.98-1.92,1.92-4.29,2.09-6.86,2.08-15.67-.06-31.35,0-47.03-.05-1.72,0-3.69.75-5.11-.99,1.63-2.89,3.1-5.88,4.91-8.64,3.26-4.97,4.91-10.87,8.99-15.35,1.74-.69,3.51-1.05,5.43-1.04,15.19.08,30.38.07,45.58.08Z"/>
      <path class="cls-33" d="M11.53,211.68c.44-7.25.87-14.51,1.31-21.76,5.73.01,11.47-.09,17.2.07,9.22.27,18.51-1.37,27.64,1.02,4.34,7.89,8.69,15.78,13.03,23.68-.04.36-.08.71-.12,1.06-1.66.04-3.33.21-4.98.09-8.03-.59-16.2-.64-24.12-.63-7.88,0-16,.04-23.99.63-2.99.22-5.48-.62-5.97-4.16Z"/>
      <path class="cls-20" d="M164.96,353.08c-2.72,7.27-6.29,14.31-6.66,22.26-.11,2.26-1.34,2.35-2.92,2.27-10.23-.54-20.45.69-30.73-.83-4.95-.73-10.2-.05-15.32-.79-2.27-.33-2.69-1-2.16-3.18,1.66-6.92,3.11-13.9,4.63-20.86,4.92.91,9.82-.28,14.75-.14,8.6.24,17.22-.14,25.81.16,4.19.14,8.61-1.47,12.6,1.12Z"/>
      <path d="M493.39,132.31c-20,48.71-39.1,95.22-58.19,141.73-1.2,2.91-2.43,5.81-3.51,8.77-4.01,10.95-11.44,17.43-22.96,12.48-10.76-4.63-10.98-14.25-6.79-24.18,23.47-55.6,46.95-111.19,70.35-166.82,4-9.52,10.38-16.02,21.08-16.35,11.56-.35,18.29,6.63,22.51,16.62,23.28,55.11,46.59,110.2,69.77,165.34,4.33,10.29,4.14,20.63-7.32,25.5-11.58,4.91-18.9-2.2-23.17-12.67-18.05-44.21-36.03-88.45-54.07-132.67-2.15-5.26-4.52-10.43-7.71-17.75Z"/>
      <path class="cls-15" d="M108.61,262.02c-1.13.12-.87,1.12-1.13,1.78-.92-.99-1.73-2.11-2.77,0-.86,1.74-1.37,3.71-2.95,5.03-10.38,1.61-20.75,1.74-31.11-.1-4.27-7.93-8.55-15.86-12.82-23.79,1.2-1.77,3.05-1.11,4.58-1.01,7.68.51,15.48.58,23.05.52,8.15-.06,16.46,0,24.69-.52,1.53-.1,3.39-.71,4.55,1.09-.51,2.67-2.25,4.72-3.4,7.07-1.52,3.08-4.76,5.85-2.67,9.95Z"/>
      <path class="cls-15" d="M108.83,303.01c-.13,7-.97,13.93-2.24,20.8-13.27,0-26.54,0-39.82.01-2.23-8.53-3.85-17.17-4.96-25.91,13.89-.02,27.78.17,41.66-.17,4.3-.11,5.59,1.44,5.35,5.26Z"/>
      <path class="cls-49" d="M108.61,262.02c-2.09-4.1,1.16-6.86,2.67-9.95,1.15-2.34,2.89-4.4,3.4-7.07,9.98-2.37,20.07-.89,30.11-.86l.43-.02.43.05c3.66,8.56,8.44,16.52,13.02,24.59-.84,1.47-2.29,1.09-3.55,1.09-13.36.02-26.72,0-40.09,0-1.52,0-2.97-.09-4.24-1.03l-2.18-6.81Z"/>
      <path class="cls-20" d="M89.58,166.89c.41,5.61.83,11.22,1.24,16.84.62,4.55-1.69,5.1-5.67,4.98-9.52-.29-19.1,1.23-28.58-.83-.29-.03-.58-.06-.87-.08-4.32-8.21-8.63-16.42-12.95-24.64,13.65-.1,27.3-.03,40.94-.41,3.5-.1,5.01,1.21,5.88,4.14Z"/>
      <path class="cls-33" d="M42.66,109.66c.36-.25.72-.51,1.09-.76,16.88.02,33.76.04,50.64.06-.07,3.6-2.21,6.43-3.57,9.54-2.31,5.29-4.28,10.66-5.28,16.35-3.44,0-6.9.17-10.33,0-6.5-.34-13.11,1.1-19.5-1.08-4.35-8.03-8.69-16.06-13.04-24.1Z"/>
      <path class="cls-20" d="M70.71,214.69c-4.34-7.89-8.69-15.78-13.03-23.68.03-.36.06-.71.1-1.07,11.25,0,22.49,0,33.74,0,.29,7.19,4.12,12.39,9.42,16.76,1.26,1.04,2.47,2.14,3.71,3.22-.97,1.63-1.95,3.25-2.92,4.88-10.34,1.6-20.68,1.87-31.01-.11Z"/>
      <path class="cls-20" d="M184.88,307.03c-.85,6.06-3.09,11.63-6.06,16.93-6.69-.6-13.49.97-20.09-1.14-4.7-7.74-8.99-15.7-12.97-23.83,1.17-1.79,3.02-1.17,4.54-1.07,8.2.54,16.41-.89,24.69.8,2.21.45,6.07-1.72,8.35-.41,3.08,1.78.41,5.84,1.54,8.72Z"/>
      <path class="cls-49" d="M118.7,216.86c5.37,2.23,10.97,3.92,16.02,6.91,1.76,6.33,5.66,11.55,8.86,17.13.08,1.53-.82,2.04-2.16,1.98-8.91-.4-17.9,1.09-26.74-1.12-3.5-8.37-7.86-16.27-12.84-23.84,5.49-2.34,11.25-.44,16.85-1.06Z"/>
      <path class="cls-20" d="M42.66,109.66c4.35,8.03,8.69,16.06,13.04,24.1-1.21,1.71-3.03,1.09-4.6,1.09-16.78.04-33.57.01-50.35,0,2.63-7.74,6.54-8.28,17.5-2.03,3.88-12.18,9.73-22.5,24.41-23.17ZM35.87,121.76c.01-1.59-2.53-1.56-2.1-3.44.17-.74,1.57-1.75.05-2.37-1.22-.5-2.23.39-2.86,1.36-.62.95-1.29,2.31-.26,3.13,1.4,1.11,2.9,2.84,5.16,1.32Z"/>
      <path class="cls-15" d="M44.54,270.93c1.53,8.56,1.64,17.23,2.03,25.88-6.64-.17-13.34.87-19.89-1.06-4.33-7.94-8.65-15.88-12.98-23.82.54-.34,1.07-.96,1.61-.96,7.64-.08,15.29-.29,22.92.03,2.13.09,4.19,1.06,6.3-.07Z"/>
      <path class="cls-33" d="M9.76,242.87c-.43-7.7.93-15.31,1.1-22.98,1.66-2.42,3.98-3.15,6.85-3.07,5.3.14,10.61-.08,15.91.1,2.36.08,4.97-1.03,7.07,1.02-3.19,8.47-7.99,16.08-12.66,23.76-5.96,2.4-12.19.63-18.27,1.17Z"/>
      <path class="cls-11" d="M156.6,384.02c5.65-.1,11.31-.14,16.96-.32,2.87-.09,3.67.73,2.11,3.39-2.68,4.58-5.23,9.24-7.84,13.87-6.52,2.14-13.38.01-19.95,1.92h18.8c-2.98,6.16-5.69,12.47-10.1,17.82-2.44-4.29-4.81-8.62-7.33-12.87-2.85-4.79-16.82-7.23-21.34-3.78-.19.14-.11.62-.16.95-1.78-1.6-3.79-2.27-6.25-2.17-4.9.19-9.82.09-14.72.11-.75-.38-.75-.76,0-1.13,1.81.02,3.64.21,5.43.02,4.46-.48,9.1,1.26,13.41-1.07l2.14-1.03c.04.85.21,1.92,1.14,1.93,5.28.09,10.57.26,15.82-.15,1.31-.1,2.97-1.47,3.89-3.27,2.48-4.83,5.3-9.49,7.99-14.21Z"/>
      <path class="cls-2" d="M16.81,323.81c-4.29-7.37-6.91-15.24-7.25-23.81,2.63-3.04,15.3-3.1,19.25-.09,3.95,7.29,7.91,14.58,11.86,21.87-.24,2.94-2.53,2.04-4.13,2.05-6.58.07-13.16,0-19.74-.02Z"/>
      <path class="cls-2" d="M44.7,350.89c-9.76-5.57-19.61-11.03-25.09-21.57-.75-1.45-1.39-2.96-2.07-4.44,8.43.33,16.93-.91,25.29,1.02,4.63,7.79,9.27,15.58,12.88,23.92-3.48,2.33-7.36.45-11.01,1.08Z"/>
      <path class="cls-20" d="M158.67,268.76c-4.58-8.07-9.36-16.03-13.02-24.59,6.09-.17,12.18-.33,18.27-.5,6.75,7.64,13.03,15.59,16.85,25.19-7.38,1.76-14.74,1.51-22.11-.1Z"/>
      <path class="cls-20" d="M12.85,188.84c.58-8.67,1.16-17.35,1.74-26.02,6.49.01,12.99-.07,19.48.09,2.2.06,4.68-1.02,6.6,1.04-4.25,7.92-8.5,15.85-12.75,23.78-4.88,2.3-10.06.68-15.08,1.11Z"/>
      <path class="cls-49" d="M75.71,384.06c13.32-.58,26.63-.64,39.95.03-3,5.55-6,11.1-9,16.66-7.32,1.73-14.64,1.7-21.96,0-2.99-5.56-5.99-11.12-8.98-16.68Z"/>
      <path class="cls-20" d="M177.98,326.09c-4.06,8.28-8.12,16.57-12.19,24.85-2.83-.03-5.67.12-8.48-.12-3.85-.34-7.89,1.21-11.55-1.07,3.96-8.15,8.28-16.09,12.97-23.85,6.43-1.3,12.85-2.13,19.25.18Z"/>
      <path class="cls-55" d="M100.89,353c-1.81,6.71-3.57,13.45-5.46,20.14-.87,3.08-3.03,4.56-6.32,4.5-4.65-.08-9.3-.11-13.94,0-4.15.11-4.44-1.46-2.48-4.65,1.26-2.05,3.31-3.19,4.82-4.92,2.39-4.7,4.78-9.41,7.17-14.12.39-.62.78-1.24,1.17-1.85,5.02.17,10.15-1.47,15.05.9Z"/>
      <path class="cls-56" d="M64.67,94.09c1.51-1.5,2.98-3.05,4.55-4.49,6.51-5.96,10.88-5.63,16.31,1.49,3.82,5.01,6.49,10.66,8.18,16.75-2.8,0-5.62.19-8.41-.02-4.87-.35-9.89,1.2-14.6-1.15-1.24-4.57-4.99-7.93-6.03-12.59Z"/>
      <path class="cls-46" d="M40.67,321.78c-3.95-7.29-7.91-14.58-11.87-21.87.05-2.69,2.11-2,3.59-2.02,4.75-.07,9.51-.01,14.26,0,1.75,9.69,4.73,18.74,12.98,25.06-6.42,1.12-12.85,2.59-18.97-1.16Z"/>
      <path class="cls-48" d="M129.4,0h29.21c-4.87,8.99-9.55,17.62-14.56,26.87-4.95-9.09-9.6-17.62-14.65-26.87Z"/>
      <path class="cls-48" d="M158.93,53.64c4.83-8.91,9.39-17.31,14.48-26.69,5,9.16,9.66,17.69,14.58,26.69h-29.06Z"/>
      <path class="cls-48" d="M100.51,53.69c4.97-9.12,9.62-17.65,14.59-26.75,5.01,9.23,9.65,17.76,14.52,26.75h-29.11Z"/>
      <path class="cls-39" d="M96.67,420.66c-6.6.12-13.2.24-19.8.34-.84.01-1.64-.19-2-1.1,4.08-4.83,5.94-11,9.68-16.03,5.42-1.39,10.95-1.01,16.46-.99,1.57,0,3.54-.49,3.66,2.11-2.67,5.22-5.34,10.44-8,15.67Z"/>
      <path class="cls-46" d="M106.79,402.93c4.91-.02,9.82.08,14.72-.11,2.47-.1,4.47.58,6.25,2.17,2.65,5.22,5.29,10.44,7.94,15.66-6.99.78-13.99.39-20.99.16-1.68-6.09-5.96-10.95-8.03-16.85.03-.34.06-.68.1-1.03Z"/>
      <path class="cls-2" d="M156.6,384.02c-2.69,4.73-5.51,9.38-7.99,14.21-.92,1.8-2.58,3.17-3.89,3.27-5.25.41-10.54.24-15.82.15-.92-.02-1.1-1.08-1.14-1.93,2.65-5.21,5.29-10.43,7.94-15.65,6.96-.61,13.93-.62,20.9-.06Z"/>
      <path class="cls-2" d="M135.71,420.65c-2.65-5.22-5.29-10.44-7.94-15.66.05-.32-.03-.8.16-.95,4.51-3.45,18.49-1.01,21.34,3.78,2.52,4.24,4.89,8.57,7.33,12.87-6.96.6-13.92.55-20.88-.04Z"/>
      <path class="cls-15" d="M55.71,349.81c-3.61-8.34-8.25-16.13-12.88-23.92,1.02-1.61,2.65-.99,4.03-1,5.25-.05,10.5,0,15.75.03,2.19,3.33,3.22,6.97,2.96,10.97-3.56,4.12-6.19,8.77-7.88,13.94-.66,0-1.31,0-1.97-.01Z"/>
      <path class="cls-39" d="M54.74,419.97c-6.6,2.21-13.36.71-20.04.84-3.74-5.08-1.44-10.86-1.83-16.32-.08-1.19,1.03-1.6,2.11-1.57,3.72.09,7.66-.99,10.85,1.98l8.92,15.08Z"/>
      <path class="cls-2" d="M13.7,271.93c4.33,7.94,8.65,15.88,12.98,23.82-4.16,2.47-8.71.41-13.01,1.14-2.62.45-3.96-.86-4.82-3.05-.1-3.28-.21-6.56-.31-9.83.19-2.74.92-5.57.45-8.18-.84-4.69.7-5.56,4.72-3.89Z"/>
      <path class="cls-2" d="M8.63,264.81c.06-7.01-.23-14.04,1.07-20.98,5.67.12,11.35.25,17.02.37-3.6,8.59-8.81,16.34-13.02,24.61-4.56,2.31-5.19-.38-5.08-4Z"/>
      <path class="cls-56" d="M34.68,383.87c6.35-.21,12.71-.56,19.05.19-2.67,5.22-5.35,10.45-8.02,15.67-3.27,3.4-7.45,1.84-11.29,2.02-.9.04-1.68-.6-1.61-1.53.44-5.47-1.89-11.26,1.87-16.35Z"/>
      <path class="cls-2" d="M84.67,353.95c-2.39,4.71-4.78,9.41-7.17,14.11-3.74.53-5.96,3.19-8.19,5.84-1.57-2.93-3.14-5.86-4.71-8.79.19-.85-.35-1.22-.99-1.52-.35-.63-.7-1.25-1.05-1.88,4.13-2.11,6.59-5.6,8.13-9.85,3.45,0,6.9-.03,10.35.03,1.54.03,3.51-.52,3.63,2.06Z"/>
      <path class="cls-39" d="M143.58,240.9c-3.2-5.59-7.1-10.8-8.86-17.13,11.47,2.73,20.91,8.58,27.89,18.2-5.99,1.49-11.97,1.52-17.95-.07-.36-.33-.72-.66-1.08-.99Z"/>
      <path class="cls-45" d="M104.87,333.87c-.46,5.77-2.07,11.31-3.36,16.92-4.9,0-9.8,0-14.7,0,0-.35.02-.69.02-1.04,4.3-7.93,8.6-15.85,12.9-23.78.66-.04,1.32-.08,1.98-.12.43,2.92,3.33,4.87,3.16,8.02Z"/>
      <path class="cls-36" d="M70.83,350.81c.72-8.92-2.39-17.25-3.94-25.83,2.39-.62,4.16.63,5.92,1.93,4.38,7.04,8.44,14.26,11.85,21.82-.09,2.56-2.01,2.09-3.56,2.1-3.42.03-6.85-.02-10.27-.03Z"/>
      <path class="cls-46" d="M130.61,271.86c-4.08,4.48-5.74,10.38-8.99,15.35-1.81,2.77-3.29,5.76-4.91,8.64-.31-.04-.63-.04-.94,0-1.36-8.33-2.72-16.67-4.08-25,6.3.58,12.71-1.17,18.92,1.01Z"/>
      <path class="cls-10" d="M112.83,345.9c.69-6.01,1.38-12.02,2.07-18.02.87-2.18,2.2-3.28,4.82-3.07,3.95.32,7.95.17,11.92.22-1.93,1.13-2.95,2.94-3.98,4.87-3.56,6.7-7.28,13.32-10.94,19.96-2.64,0-2.38-2.85-3.89-3.96Z"/>
      <path class="cls-10" d="M115.55,321.71c.11-7.6.22-15.2.33-22.8.29,0,.58-.02.86-.04,1.94,1.91,2.42,4.68,3.94,6.81,4.09,5.74,5.51,13.1,10.96,18-4.11.05-8.22.09-12.32.17-1.71.03-3.36.06-3.77-2.15Z"/>
      <path class="cls-18" d="M75.71,384.06c2.99,5.56,5.99,11.12,8.98,16.68-6.34,1.81-12.67,1.85-19-.03,2.72-5.69,5.48-11.35,8.98-16.62.35-.01.7-.02,1.04-.04Z"/>
      <path class="cls-57" d="M106.66,400.74c3-5.55,6-11.1,9-16.66.36,0,.71-.02,1.07-.03,2.97,5.56,5.94,11.13,8.91,16.69-4.31,2.33-8.95.6-13.41,1.07-1.79.19-3.62,0-5.43-.02-.05-.35-.09-.71-.14-1.06Z"/>
      <path class="cls-39" d="M45.71,399.73c2.67-5.22,5.35-10.45,8.02-15.67.64,0,1.28,0,1.93,0,2.67,5.23,5.35,10.47,8.02,15.7-.13.47-.18,1.3-.4,1.34-5.72,1.22-11.46,1.28-17.17-.02-.22-.05-.26-.88-.39-1.35Z"/>
      <path class="cls-5" d="M681.91,403.91c-20.83.02-32.44-12.09-32.34-33.7.11-21.24,12.31-33.64,32.95-33.51,19.76.13,31.42,12.39,31.59,33.21.18,21.6-11.55,33.99-32.21,34.01ZM703.41,370.04c-.28-13.46-10.15-23.74-22.38-23.32-11.55.4-20.63,10.59-20.79,23.33-.17,13.3,9.54,24.08,21.7,24.09,12.25.02,21.76-10.65,21.47-24.1Z"/>
      <path class="cls-56" d="M84.56,403.88c-3.74,5.03-5.6,11.2-9.68,16.03-3.48-5.45-6.67-11.07-9.21-17.03,6.28.57,12.69-1.22,18.89,1.01Z"/>
      <path class="cls-15" d="M125.63,400.75c-2.97-5.56-5.94-11.13-8.91-16.69,6.33-.61,12.66-.64,18.98.02-2.65,5.22-5.29,10.43-7.94,15.65-.71.34-1.42.68-2.14,1.03Z"/>
      <path class="cls-56" d="M54.74,419.97c-2.97-5.03-5.94-10.05-8.92-15.08.23-.57.44-1.63.68-1.64,5.79-.19,11.64-1.51,17.32.71-2.97,5.37-5.32,11.09-9.09,16Z"/>
      <path class="cls-36" d="M64.67,94.09c1.04,4.66,4.79,8.03,6.03,12.59-7.94,2.17-15.92,1.51-23.9.34,5.96-4.31,11.92-8.62,17.88-12.93Z"/>
      <path class="cls-56" d="M63.68,399.76c-2.67-5.23-5.35-10.47-8.02-15.7,6.34-.62,12.67-.67,19.01.03-3.5,5.26-6.26,10.93-8.98,16.62-.67-.32-1.34-.64-2.01-.96Z"/>
      <path class="cls-49" d="M106.69,403.96c2.07,5.91,6.35,10.76,8.03,16.85-6.02.29-12.03.56-18.04-.15,2.67-5.22,5.34-10.44,8-15.67.67-.35,1.34-.69,2.02-1.04Z"/>
      <path class="cls-37" d="M143.58,240.9c.36.33.72.66,1.08.99.05.75.09,1.5.14,2.25-10.05-.03-20.13-1.51-30.11.86-1.16-1.8-3.02-1.19-4.55-1.09-8.22.52-16.53.46-24.69.52-7.57.06-15.37,0-23.05-.52-1.52-.1-3.38-.76-4.58,1.01-.73,0-1.45.01-2.18.02-1.35-1.85-3.33-1.05-5.02-1.04-7.97.02-15.94.18-23.9.3-5.67-.12-11.35-.25-17.02-.37-.12-.33-.1-.65.05-.96,6.08-.54,12.31,1.23,18.27-1.17,1.05,1.97,2.91,1.1,4.4,1.12,5.91.1,11.82.12,17.72,0,1.85-.04,3.98.88,5.51-1.04,9.59,2.14,19.27.84,28.92.81.33,0,.67-.64,1-.98.39.03.78.06,1.16.09,1.13,1.83,2.97,1.11,4.51,1.13,6.29.08,12.59.08,18.88,0,1.55-.02,3.37.68,4.55-1.08,8.83,2.21,17.82.72,26.74,1.12,1.34.06,2.24-.45,2.16-1.98Z"/>
      <path class="cls-22" d="M106.69,403.96c-.67.35-1.34.69-2.02,1.04-.12-2.6-2.1-2.1-3.66-2.11-5.5-.02-11.03-.4-16.46.99-6.2-2.23-12.61-.43-18.89-1.01-.61.37-1.23.73-1.84,1.1-5.69-2.22-11.54-.9-17.32-.71-.24,0-.46,1.07-.68,1.64-3.2-2.96-7.14-1.88-10.85-1.98-1.07-.03-2.19.39-2.11,1.57.39,5.46-1.91,11.24,1.83,16.32-2.21.61-2.96-.25-2.95-2.5.06-10.66.05-21.32-.03-31.98-.02-2.26.77-3.1,2.97-2.46-3.76,5.08-1.43,10.88-1.87,16.35-.07.92.71,1.57,1.61,1.53,3.85-.18,8.02,1.39,11.29-2.02.13.47.17,1.3.39,1.35,5.72,1.3,11.45,1.24,17.17.02.22-.05.27-.88.4-1.34.67.32,1.34.64,2.01.96,6.33,1.88,12.67,1.83,19,.03,7.32,1.71,14.64,1.73,21.96,0,.05.35.09.7.14,1.06-.75.37-.75.75,0,1.13-.03.34-.06.68-.1,1.03Z"/>
      <path class="cls-47" d="M323.69,336.89c6.32.01,12.65-.03,18.97.03,3.28.03,6.63.57,7.04,4.59.52,5.12-3.22,6.55-7.13,5.9-13.11-2.18-12.96,5.82-12.56,15.03.46,10.52.13,21.07.08,31.61-.02,4.22.28,9.41-5.39,9.69-7,.34-6.39-5.6-6.44-10.24-.12-11.59-.34-23.2.05-34.78.25-7.39-.78-12.4-10.02-11.3-3.9.46-9.59,1.1-9.58-5.02.01-7.41,6.47-5.16,10.75-5.45,4.72-.31,9.48-.07,14.22-.06Z"/>
      <path class="cls-24" d="M116.74,298.88c-.29.02-.58.03-.86.04-.04-1.02-.07-2.04-.11-3.06.31-.04.63-.04.94,0,1.42,1.74,3.39.98,5.11.99,15.67.06,31.35-.01,47.03.05,2.57.01,4.94-.16,6.86-2.08,1.47,3.82,4.69,1.89,7.08,1.89,2.74,0,1.74-2.61,1.88-4.22.19-2.27.18-4.57.26-6.85,1.12,7.13,1.05,14.26-.04,21.39-1.13-2.87,1.54-6.94-1.54-8.72-2.28-1.32-6.14.86-8.35.41-8.28-1.69-16.49-.26-24.69-.8-1.52-.1-3.38-.72-4.54,1.07-6.89-2.04-13.95-.96-20.93-1.05-2.67-.03-5.61-1.13-8.08.94Z"/>
      <path class="cls-28" d="M184.91,285.63c-.08,2.28-.07,4.57-.26,6.85-.13,1.61.87,4.22-1.88,4.22-2.39,0-5.61,1.94-7.08-1.89,2.29-5.25,4.78-10.38,8.23-14.98,1.28,1.77.79,3.84.98,5.8Z"/>
      <path class="cls-53" d="M.75,134.85c16.78,0,33.57.03,50.35,0,1.57,0,3.39.63,4.6-1.09,6.4,2.18,13,.75,19.5,1.08,3.43.18,6.89.01,10.33,0,0,1.01-.01,2.03-.02,3.04-1.11-1.72-2.7-2.07-4.68-2.06-16.05.07-32.11.05-48.16.03-10.72-.01-21.45-.07-32.17-.1-.09-.35-.01-.65.23-.91Z"/>
      <path class="cls-13" d="M40.68,163.95c-1.92-2.06-4.4-.98-6.6-1.04-6.49-.17-12.99-.08-19.48-.09-.13-.33-.11-.64.07-.94,5.63,0,11.28.28,16.89-.06,10.87-.66,21.73.68,32.56-.03,6.58-.43,13.11.28,19.66.07,1.75-.06,3.7.6,5.09-1.14,1,1.97.88,4.07.7,6.17-.87-2.93-2.38-4.24-5.88-4.14-13.64.38-27.3.31-40.95.41-.69.26-1.38.53-2.07.8Z"/>
      <path class="cls-44" d="M57.68,349.82c1.69-5.18,4.32-9.82,7.88-13.94,1.78,5.13,1.37,10.16-.74,15.1-2.35-.55-5.03.92-7.14-1.16Z"/>
      <path class="cls-21" d="M604.44,369.1c0,9.4.16,18.81-.09,28.2-.09,3.12-1.3,6.34-5.24,6.63-4.95.37-6.23-3.04-6.25-7.04-.07-17.76-.05-35.52,0-53.28.01-3.41,1.33-6.32,5.12-6.64,4.91-.42,6.29,3.27,6.42,7.07.28,8.35.09,16.71.09,25.07h-.05Z"/>
      <path class="cls-14" d="M108.83,303.01c.24-3.82-1.05-5.37-5.35-5.26-13.88.34-27.77.16-41.66.17-.04-.35-.07-.71-.11-1.06,7.8-.77,15.69-.3,23.5-.69,6.23-.31,13.06.03,19.58.71,3.07.32,4.04-.97,4.01-3.97-.07-5.73-.76-11.47.04-17.19,1.47,9.1,1.4,18.2-.01,27.3Z"/>
      <path class="cls-6" d="M130.61,271.86c-6.21-2.17-12.63-.43-18.92-1.01-.68-.51-1.07-1.14-.89-2.03,1.27.95,2.73,1.04,4.24,1.03,13.36-.01,26.72,0,40.09,0,1.26,0,2.71.38,3.55-1.09,7.36,1.61,14.73,1.86,22.11.1.76.48.9,1.22.84,2.04-15.19-.02-30.38,0-45.58-.08-1.92,0-3.69.35-5.43,1.04Z"/>
      <path class="cls-19" d="M53.92,296.85c1.51-.55,2.31-2.05,3.62-2.94,3.7-2.51,4.08-1.11,4.08,2.18-2.48,4.09-.29,8.53-1.04,13.73-3.97-3.95-5.9-8.13-6.66-12.96Z"/>
      <path class="cls-27" d="M70.65,268.72c10.36,1.85,20.73,1.72,31.11.1,2.85,1.63,5.44,2.5,6.13-2.12,1.06,1.29.85,2.76.64,4.24-10.57-.03-21.14-.06-31.72-.07-8.44-.01-16.87-.04-25.31.02-1.74.01-3.73-.64-5.07,1.2-.31-.65-.62-1.3-.94-1.95.1-.13.2-.27.31-.4,6.45.04,12.9.17,19.35.08,1.84-.03,4.02.96,5.5-1.1Z"/>
      <path class="cls-52" d="M40.69,217.94c-2.1-2.05-4.71-.94-7.07-1.02-5.3-.18-10.61.04-15.91-.1-2.87-.07-5.19.65-6.85,3.07-.05-2.76-.45-5.55.67-8.21.49,3.54,2.97,4.38,5.97,4.16,7.99-.58,16.11-.62,23.99-.63,7.92,0,16.09.04,24.12.63,1.65.12,3.32-.05,4.98-.09.84.42,1.09,1.17,1.13,2.03-9.64-1.83-19.34-.81-29.02-.59-.67.25-1.34.49-2.01.74Z"/>
      <path class="cls-42" d="M112.83,345.9c1.51,1.11,1.25,3.96,3.89,3.96.54.32,1.1.93,1.63.91,9.14-.28,18.34,1.16,27.41-1.03,3.66,2.28,7.7.73,11.55,1.07,2.81.25,5.65.1,8.48.12-.04.81-.03,1.63-.83,2.14-3.99-2.59-8.4-.98-12.6-1.12-8.6-.29-17.21.08-25.81-.16-4.93-.14-9.83,1.05-14.75.14-.41-2.14.49-4.06,1.03-6.04Z"/>
      <path class="cls-17" d="M8.63,264.81c-.11,3.62.52,6.31,5.08,4,1.22,1.66,3,1,4.56,1.02,5.26.08,10.53-.25,15.76.11,4.38.3,7.82-.96,10.67-4.16-.15,1.46.13,2.8,1.11,3.95-.11.13-.21.26-.31.4-.32.26-.63.53-.95.79-2.11,1.13-4.18.16-6.3.07-7.63-.32-15.28-.12-22.92-.03-.54,0-1.07.63-1.61.96-4.02-1.66-5.56-.79-4.72,3.9.47,2.62-.26,5.45-.45,8.18-.99-6.4-1.13-12.8.09-19.2Z"/>
      <path class="cls-4" d="M64.61,365.11c1.57,2.93,3.14,5.86,4.71,8.79-.3,3.94-2.62,3.56-5.14,2.28-2.13-1.09-5.72-1.28-3.9-5.3,1.01-2.24,1.83-4.65,4.34-5.77Z"/>
      <path class="cls-34" d="M46.79,107.03c7.99,1.17,15.97,1.83,23.9-.34,4.71,2.34,9.73.79,14.6,1.15,2.79.2,5.61.02,8.41.02.23.37.46.74.68,1.1-16.88-.02-33.76-.04-50.64-.06,1.02-.62,2.03-1.25,3.05-1.87Z"/>
      <path class="cls-25" d="M71.71,217.79c-.04-.87-.28-1.61-1.13-2.03.04-.36.08-.71.12-1.07,10.33,1.98,20.67,1.71,31.01.11,4.29,1.87,8.6,1.61,12.92.15,1.35.64,2.7,1.28,4.05,1.91-5.6.62-11.36-1.28-16.85,1.06-.74-.01-1.47-.02-2.21-.03-6.53-2.34-13.28-.54-19.91-.94-2.31-.14-4.94-1.05-7.03.97-.34.02-.66-.03-.98-.14Z"/>
      <path class="cls-43" d="M62.6,324.91c-5.25-.02-10.5-.08-15.75-.03-1.38.01-3.01-.61-4.03,1-8.37-1.92-16.86-.68-25.29-1.02-.24-.35-.48-.71-.73-1.06,6.58.02,13.16.09,19.74.02,1.6-.02,3.88.88,4.13-2.05,6.12,3.75,12.55,2.28,18.97,1.16,1.21.32,2.29.83,2.96,1.97Z"/>
      <path class="cls-1" d="M72.81,326.92c-1.76-1.31-3.53-2.55-5.92-1.94-.04-.39-.08-.77-.12-1.16,13.27,0,26.54,0,39.82-.01-.01.37-.03.73-.04,1.1-1.65.15-3.5-.81-4.84.93-.66.04-1.32.08-1.98.12-.53-.34-1.05-.98-1.58-.99-7.74-.08-15.48-.08-23.22-.1-1.37,0-2.2.54-2.12,2.04Z"/>
      <path class="cls-51" d="M12.85,188.84c5.02-.43,10.19,1.19,15.07-1.11,1.11,1.87,2.94,1.08,4.46,1.1,5.92.09,11.84.11,17.76,0,1.86-.04,3.99.84,5.54-1.03.29.02.58.05.87.08.12.86.34,1.65,1.2,2.07-.03.35-.06.71-.1,1.07-9.14-2.39-18.43-.75-27.64-1.02-5.73-.17-11.47-.06-17.2-.07,0-.36.01-.72.02-1.08Z"/>
      <path class="cls-26" d="M115.55,321.71c.4,2.21,2.06,2.18,3.77,2.15,4.11-.08,8.22-.11,12.33-.17,9.01.03,18.01.05,27.02.08,0,.4,0,.79,0,1.19-9.01.02-18.01.05-27.02.07-3.98-.05-7.97.09-11.92-.23-2.62-.21-3.95.89-4.82,3.07-.22-2.1-.17-4.17.65-6.17Z"/>
      <path class="cls-58" d="M8.85,293.84c.86,2.19,2.2,3.49,4.82,3.05,4.3-.73,8.85,1.33,13.01-1.14,6.55,1.93,13.25.9,19.89,1.06.03.36.06.71.09,1.07-4.75,0-9.51-.06-14.26,0-1.48.02-3.54-.67-3.59,2.02-3.95-3.01-16.62-2.95-19.25.09-1.09-1.95-.93-4.05-.71-6.15Z"/>
      <path class="cls-31" d="M114.65,214.95c-4.33,1.46-8.64,1.72-12.92-.15.97-1.63,1.95-3.25,2.92-4.88,3.33,1.68,6.67,3.35,10.01,5.03Z"/>
      <path class="cls-50" d="M57.77,189.94c-.86-.43-1.08-1.22-1.2-2.07,9.48,2.05,19.05.54,28.58.83,3.98.12,6.3-.43,5.67-4.98,1.12,1.97.88,4.1.7,6.22-11.25,0-22.49,0-33.74,0Z"/>
      <path class="cls-41" d="M59.83,357.61c-5.22,1.31-8.29-2.85-12.23-4.8,3.37-2.13,6.74-.69,10.1.01.71,1.59,1.42,3.19,2.13,4.78Z"/>
      <path class="cls-49" d="M107.89,266.7c-.69,4.62-3.28,3.75-6.13,2.12,1.58-1.32,2.1-3.29,2.95-5.03,1.04-2.1,1.86-.98,2.77,0,.14.97.27,1.93.41,2.9Z"/>
      <path class="cls-32" d="M207.6,276.56v-87.81c.53,0,1.06-.01,1.59-.02v87.79c-.53.01-1.06.02-1.59.04Z"/>
      <path class="cls-29" d="M59.83,357.61c-.71-1.59-1.42-3.19-2.13-4.78,2.09-1.93,4.61-.65,6.92-.95-.71,2.65-1.47,5.26-4.78,5.73Z"/>
      <path class="cls-38" d="M64.62,351.88c-2.31.3-4.83-.98-6.92.95-3.37-.71-6.73-2.14-10.1-.01-.97-.64-1.93-1.28-2.9-1.93,3.64-.62,7.53,1.25,11.01-1.08.66,0,1.32,0,1.97.01,2.1,2.08,4.78.61,7.14,1.16.06.33,0,.63-.2.9Z"/>
      <path class="cls-35" d="M158.66,324.96c0-.4,0-.79,0-1.19.05-.32.07-.64.06-.96,6.6,2.11,13.41.54,20.09,1.14-.03.81-.02,1.63-.84,2.13-6.39-2.31-12.82-1.48-19.25-.19,0-.32-.03-.63-.07-.94Z"/>
      <path class="cls-59" d="M101.7,325.84c1.34-1.74,3.2-.78,4.84-.93-.2,3.05-.66,6.06-1.68,8.96.17-3.16-2.73-5.1-3.16-8.03Z"/>
      <path class="cls-30" d="M166.69,402.87h-18.8c6.57-1.9,13.43.23,19.95-1.92-.38.64-.77,1.28-1.15,1.92Z"/>
      <path class="cls-8" d="M144.8,244.14c-.05-.75-.09-1.5-.14-2.25,5.98,1.59,11.96,1.56,17.95.07.44.57.88,1.14,1.32,1.71-6.09.16-12.18.33-18.27.5,0,0-.43-.05-.43-.05l-.43.02Z"/>
      <path class="cls-54" d="M70.83,350.81c3.42.02,6.85.06,10.27.03,1.55-.01,3.47.45,3.56-2.1.72.34,1.44.67,2.17,1,0,.35-.02.69-.03,1.04-.32.44-.64.88-.96,1.31-.39.62-.78,1.23-1.17,1.85-.13-2.58-2.1-2.03-3.63-2.06-3.45-.06-6.9-.03-10.35-.03.05-.35.09-.7.14-1.05Z"/>
      <path class="cls-9" d="M62.56,361.71c.35.63.7,1.25,1.05,1.88-2.19,1.62-4.37,3.24-5.78,4.28.18-1.97,1.18-4.83,4.73-6.15Z"/>
      <path class="cls-12" d="M85.84,352.1c.32-.44.64-.88.96-1.31,4.9,0,9.8,0,14.7,0,.07.81.14,1.63-.61,2.22-4.89-2.38-10.02-.73-15.05-.9Z"/>
      <path class="cls-3" d="M175.43,456.62h-8.72c0-.17,0-.34,0-.51h8.77c-.02.17-.04.34-.05.51Z"/>
      <path class="cls-40" d="M500.83,370.51c6.14-7.06-8.97-23.28,11.58-23.24,14.88.03,24.04,8.98,24.11,23.16.06,13.96-9.34,23.16-24.05,23.25-20.62.13-5.5-16.12-11.64-23.17Z"/>
      <path class="cls-2" d="M45.8,269.74c-.98-1.15-1.25-2.49-1.11-3.95,2.79-7.4,7.14-13.98,10.96-20.84.73,0,1.45-.02,2.18-.02,4.28,7.93,8.55,15.86,12.83,23.79-1.48,2.06-3.66,1.07-5.5,1.1-6.45.09-12.9-.03-19.35-.08Z"/>
      <path class="cls-16" d="M55.7,187.79c-1.55,1.88-3.68,1-5.54,1.03-5.92.12-11.84.1-17.76,0-1.52-.02-3.36.77-4.46-1.1,4.25-7.93,8.5-15.85,12.75-23.78.69-.27,1.38-.53,2.07-.8,4.32,8.21,8.63,16.43,12.95,24.64Z"/>
      <path class="cls-49" d="M158.72,322.81c0,.32-.02.64-.06.96-9.01-.03-18.01-.05-27.02-.08-5.45-4.91-6.87-12.26-10.96-18-1.52-2.13-1.99-4.9-3.94-6.81,2.47-2.08,5.41-.97,8.08-.94,6.98.08,14.04-.99,20.93,1.05,3.98,8.13,8.27,16.09,12.97,23.83Z"/>
      <path class="cls-46" d="M99.64,217.89c.73,0,1.47.02,2.21.03,4.98,7.57,9.34,15.47,12.84,23.84-1.18,1.75-3,1.06-4.55,1.08-6.29.08-12.59.08-18.88,0-1.55-.02-3.38.7-4.52-1.13,3.92-8.15,8.26-16.06,12.91-23.81Z"/>
      <path class="cls-7" d="M35.87,121.76c-2.27,1.52-3.77-.21-5.16-1.32-1.03-.81-.36-2.18.26-3.13.64-.97,1.65-1.86,2.86-1.36,1.51.62.12,1.62-.05,2.37-.43,1.88,2.11,1.85,2.1,3.44Z"/>
      <path class="cls-15" d="M40.69,217.94c.67-.25,1.34-.49,2-.74,3.48,8.63,8.85,16.28,12.96,24.58-1.53,1.92-3.66,1-5.51,1.04-5.9.12-11.82.11-17.72,0-1.49-.03-3.35.85-4.4-1.12,4.67-7.68,9.48-15.29,12.67-23.76Z"/>
      <path class="cls-49" d="M158.66,324.96c.05.31.07.62.07.94-4.69,7.75-9.01,15.7-12.97,23.85-9.06,2.19-18.27.75-27.41,1.03-.53.02-1.09-.59-1.63-.91,3.66-6.65,7.38-13.26,10.94-19.96,1.03-1.93,2.05-3.74,3.98-4.87,9-.02,18.01-.05,27.02-.07Z"/>
      <path class="cls-15" d="M55.65,244.95c-3.82,6.86-8.17,13.44-10.96,20.84-2.85,3.2-6.29,4.46-10.67,4.16-5.23-.36-10.51-.04-15.76-.11-1.55-.02-3.34.63-4.56-1.02,4.21-8.27,9.42-16.02,13.02-24.61,7.97-.11,15.94-.28,23.9-.29,1.69,0,3.67-.8,5.02,1.04Z"/>
      <path class="cls-15" d="M86.83,349.75c-.72-.33-1.44-.67-2.17-1-3.42-7.57-7.47-14.78-11.85-21.82-.08-1.49.76-2.04,2.12-2.04,7.74.02,15.48.02,23.22.1.53,0,1.05.64,1.58.99-4.3,7.93-8.6,15.85-12.9,23.78Z"/>
      <path class="cls-33" d="M55.65,241.78c-4.11-8.31-9.48-15.95-12.96-24.58,9.68-.22,19.38-1.24,29.02.59.32.11.64.15.98.13,4.29,7.89,8.58,15.79,12.88,23.68-.33.34-.67.98-1,.98-9.65.02-19.34,1.33-28.92-.81Z"/>
      <path class="cls-49" d="M85.57,241.61c-4.29-7.89-8.58-15.79-12.88-23.68,2.09-2.03,4.73-1.11,7.03-.97,6.63.4,13.38-1.4,19.91.94-4.65,7.75-8.99,15.67-12.91,23.81-.39-.03-.78-.06-1.16-.1Z"/>
    </g>
  </g>
</svg>