<?xml version="1.0" encoding="UTF-8"?>
<svg id="Layer_2" xmlns="http://www.w3.org/2000/svg" viewBox="0 0 413.1 146">
  <defs>
    <style>
      .cls-1 {
        fill: #010101;
      }

      .cls-2 {
        fill: #c4c4c4;
      }

      .cls-3 {
        fill: #020202;
      }

      .cls-4 {
        fill: #101010;
      }

      .cls-5 {
        fill: #4b4b4b;
      }
    </style>
  </defs>
  <g id="Layer_1-2" data-name="Layer_1">
    <g>
      <path class="cls-5" d="M77.53,72.99c-.08-22.69-.16-45.37-.25-68.06,0-1.65-.12-3.29-.19-4.94h5c.01,47.34.02,94.69.02,142.03,0,.99-.15,1.98-.24,2.96-.28,0-.55,0-.83-.02.05-46.81.1-93.63.14-140.44,0-.66.14-1.44-.15-1.96-.32-.59-1.06-.96-1.61-1.43-.38.46-1.03.88-1.1,1.38-.18,1.31-.13,2.66-.13,3.99-.02,22.16-.03,44.32-.04,66.47-.21,0-.41,0-.62,0Z"/>
      <path class="cls-5" d="M77.53,72.99c.21,0,.41,0,.62,0,.01,1.83.04,3.65.04,5.48,0,20.75-.02,41.5.03,62.25,0,1.9-.99,4.76,2.83,4.26.28,0,.55.01.83.02.07.33.14.67.22,1h-5c.07-22.19.12-44.38.21-66.57,0-2.15.15-4.29.23-6.44Z"/>
      <path class="cls-2" d="M412.27,52.95c.28-.03.56-.02.83.05v5c-.29,0-.58.02-.87.04.01-1.7.03-3.39.04-5.09Z"/>
      <path d="M130.56,115c-25.22,0-43.81-19.92-42.34-45.34,1.46-25.17,22.54-42.96,47.41-40.27,9.57,1.04,18.04,4.2,25.39,10.49,1.9,1.63,2.48,2.71.47,4.68-2.49,2.44-4.27,6.44-7.13,7.36-1.95.63-5.23-2.87-7.91-4.53-12.16-7.54-26.99-5.6-35.77,4.69-9.45,11.09-9.26,29.68.41,40.51,9.09,10.17,23.85,11.87,35.84,4.12.14-.09.27-.19.4-.29,2.39-1.79,5.38-5.49,7.05-4.97,2.96.93,5,4.55,7.64,6.78,2.18,1.84,1.39,2.98-.27,4.56-8.76,8.3-19.1,12.47-31.2,12.21Z"/>
      <path class="cls-3" d="M238.39,110.32c-5.01,1.52-7.85-.05-10.36-3.95-2.12-3.29-3.28-8.24-9.21-7.49-2.44.31-3.11.96-2.92,3.21.16,1.81-.12,3.67.07,5.47.27,2.7-.89,3.34-3.42,3.35-2.58.02-3.01-1.09-3-3.29.07-9.13.1-18.27-.02-27.41-.03-2.51.57-3.59,3.3-3.45,4.97.24,9.98-.12,14.93.31,4.6.4,8.34,2.7,9.29,7.61.93,4.85.23,9.53-4.72,11.99-2.48,1.24-2.25,2.14-.87,3.95,2.36,3.11,4.56,6.35,6.92,9.68ZM220.92,94.02c.06-.18.13-.36.19-.53.5,0,.99.01,1.49,0,3.35-.11,7.11-.01,8.17-3.99.45-1.67-.62-5.27-1.63-5.53-4.03-1.05-8.32-1.13-12.51-1.57-.22,3.24-.78,6.51-.43,9.68.09.81,3.06,1.31,4.71,1.95Z"/>
      <path class="cls-3" d="M412.27,52.95c-.01,1.7-.03,3.39-.04,5.09-2.71,9.72-8.24,13.99-18.3,14.13q-12.35.17-12.35-12.23c0-6.14.1-12.29-.04-18.43-.06-2.56.72-3.58,3.38-3.39,3.96.28,7.99-.05,11.92.46,8.94,1.16,13.44,5.54,15.43,14.37ZM387.94,55.12c0,2.99-.11,5.98.06,8.96.05.93.8,2.57,1.31,2.6,4.82.3,9.72.45,13.44-3.5,3.43-3.64,3.94-7.92,2.18-12.46-2.06-5.29-8.43-8.45-15.08-6.55-4.44,1.26-.82,5.68-1.87,8.48-.27.73-.04,1.64-.04,2.47Z"/>
      <path class="cls-1" d="M318.45,37.83c10.31-.01,17.65,7.22,17.65,17.39,0,10.04-7.52,17.57-17.59,17.61-10.23.05-17.56-7.23-17.58-17.47-.03-10.22,7.27-17.52,17.52-17.54ZM329.59,55.34c0-6.59-4.68-11.67-10.89-11.82-6.41-.15-11.48,5.07-11.43,11.76.06,6.77,5.02,11.9,11.43,11.81,6.26-.09,10.88-5.08,10.89-11.75Z"/>
      <path class="cls-1" d="M197.09,59.66c2.75,3.91,5.47,7.8,8.43,12.01-4.7,1.26-7.64.28-10.17-3.75-2.09-3.31-3.32-8.28-9.23-7.51-2.28.29-3.31.67-3.05,3.12.19,1.81-.07,3.66.06,5.48.15,2.14-.21,3.26-2.85,3.28-2.73.02-3.26-.94-3.23-3.43.13-9.14.14-18.28,0-27.41-.04-2.65.76-3.47,3.38-3.32,4.47.26,8.99-.1,13.43.36,6.79.7,9.83,3.47,10.81,9.03.92,5.16-1.41,8.97-7.57,12.15ZM189.13,44c-.03-.15-.06-.29-.1-.44-1.96.47-5.43.6-5.62,1.46-.66,2.99-.46,6.28.12,9.32.11.55,3.58.47,5.5.65.49.05,1,0,1.5,0,4.01.12,7.8-.74,7.85-5.52.06-4.87-3.75-5.65-7.76-5.49-.5.02-1,0-1.5,0Z"/>
      <path class="cls-1" d="M365.11,59.62c2.73,3.93,5.44,7.85,8.31,12-4.74,1.45-7.6.18-10.15-3.77-2.04-3.16-3.08-8.06-8.8-7.44-2.36.26-3.79.41-3.41,3.27.24,1.8-.11,3.68.08,5.49.26,2.44-.65,3.08-3.06,3.09-2.47.02-3.07-.76-3.04-3.13.13-9.33-.03-18.66.17-27.99.02-1.01,1.6-2.8,2.52-2.84,4.64-.21,9.34-.26,13.96.19,6.94.68,9.92,3.34,10.91,8.92.95,5.33-1.25,8.99-7.49,12.2ZM356.4,44.06c-5.11-1.95-5.87,1.43-5.32,6.17.12.98-.2,2.06.09,2.96.22.7,1.05,1.69,1.65,1.71,2.98.12,6.22.66,8.87-.32,1.96-.72,4.4-3.56,4.35-5.39-.05-1.76-2.86-3.67-4.8-5.04-.89-.63-2.58-.11-4.83-.11Z"/>
      <path class="cls-3" d="M383.26,93.64c0-4.5.15-9.01-.06-13.5-.12-2.66.8-3.43,3.39-3.37,6.33.16,12.67-.07,18.99.17,1.04.04,2.02,1.63,3.02,2.51-.98.91-1.9,2.52-2.94,2.59-4.31.29-8.67.3-12.99.08-4.06-.21-2.91,2.6-3.07,4.7-.18,2.31-.19,4.32,3.22,4.06,3.48-.27,7.01-.26,10.48.06,1.05.1,1.97,1.62,2.95,2.49-.94.91-1.81,2.5-2.83,2.6-3.3.34-6.69.44-9.98.05-4.46-.53-3.73,2.29-3.9,4.96-.18,2.79.23,4.3,3.65,4.02,4.3-.35,8.67-.25,12.98.05.97.07,2.57,1.79,2.54,2.7-.04,1.03-1.56,2.84-2.49,2.88-6.66.25-13.33.27-19.99,0-1.04-.04-2.79-1.93-2.87-3.06-.33-4.64-.14-9.32-.14-13.99Z"/>
      <path d="M254.73,111.09c-4.1-.27-9.48.91-11.91-1.25-2.03-1.8-.68-7.49-.71-11.46-.05-6.16.08-12.33-.06-18.49-.06-2.34.56-3.18,3.03-3.11,6.49.17,13-.06,19.49.18.93.03,2.2,1.66,2.53,2.77.16.53-1.49,2.27-2.39,2.32-4.32.25-8.68.36-12.98.04-3.71-.28-3.55,1.83-3.47,4.32.08,2.29-.59,4.78,3.3,4.48,3.64-.29,7.34-.22,10.98.05.91.07,2.55,1.75,2.4,2.3-.3,1.12-1.51,2.68-2.48,2.79-3.13.36-6.34.37-9.48.07-3.61-.34-4.79.66-4.87,4.56-.09,4.17,1.59,4.63,4.94,4.39,3.32-.24,6.66-.14,9.99-.02,2.03.07,4.81-1.21,4.67,2.97-.14,4.17-2.98,2.65-4.95,2.79-2.65.19-5.33.05-7.99.05,0,.09,0,.17-.01.26Z"/>
      <path class="cls-3" d="M304.53,110.3c-4.36,1.34-7.27.68-8.21-3.78-.72-3.43-2.81-4.51-6.12-4.04-1.47.21-3.01.23-4.47,0-4.72-.74-7.65.66-9.3,5.59-.57,1.71-3.92,2.5-5.99,3.71-.36-.48-.73-.95-1.09-1.43,4.67-10.75,9.26-21.54,14.08-32.22,1.11-2.45,5.79-2.5,6.89-.08,4.84,10.65,9.47,21.4,14.23,32.25ZM286.74,84.25c-1.93,4.63-3.53,8.49-5.21,12.53h10.77c-1.87-4.22-3.58-8.07-5.56-12.53Z"/>
      <path class="cls-1" d="M230.93,55c0-4.66-.13-9.33.1-13.98.05-.99,1.41-2.72,2.19-2.72,4.97-.05,10-.08,14.92.6,5.44.76,8.63,4.68,8.96,9.8.36,5.64-2.19,9.7-7.4,11.64-1.08.4-2.23.69-3.37.81-2.96.29-6.72-.53-8.63,1-1.46,1.17-.36,5.3-.9,8.01-.17.84-1.97,1.87-3.01,1.86-.96,0-2.68-1.27-2.72-2.04-.25-4.98-.13-9.98-.13-14.98ZM236.93,48.95c.06,3.91-1.19,7.49,4.51,7.01,6.23-.52,9.58-2.25,9.48-6.29-.09-3.96-2.95-5.24-9.29-5.81-5.39-.48-5.09,2.39-4.7,5.09Z"/>
      <path class="cls-3" d="M205.64,81.52c-1.88,3.66-3.79,4.91-7.83,1.88-4.12-3.09-10.3-1.51-13.5,2.33-3.57,4.29-3.62,11.29-.11,15.74,3.19,4.05,8.71,5.2,13.48,2.8.74-.37,1.56-.72,2.11-1.31,2.4-2.56,4.02-.56,5.07,1.19.4.67-.55,2.79-1.47,3.51-7.23,5.67-18.69,4.46-24.35-2.4-5.9-7.15-5.25-18.25,1.42-24.48,6.95-6.49,17.72-6.17,25.17.73Z"/>
      <path class="cls-1" d="M281.52,37.24c2.96.95,6.06,1.61,8.81,2.99,1.4.7,4.76,1.16,2.7,4.4-1.67,2.63-3.27,2.73-5.94.85-4.42-3.11-9.62-2.53-13.33.76-3.79,3.36-4.96,9.34-2.77,14.18,2.17,4.81,6.53,7.38,11.66,6.49,1.89-.33,4.01-1.08,5.36-2.34,2.36-2.2,3.99-1.33,4.9.87.4.97-.5,3.13-1.47,3.91-5.85,4.66-14.75,4.7-20.93.35-6.08-4.27-8.69-12.5-6.34-20.01,2.28-7.3,8.97-11.91,17.35-12.44Z"/>
      <path class="cls-1" d="M363.62,102.23c2.8-7.18,5.59-13.57,7.76-20.16,1.43-4.35,3.48-6.54,8.68-4.75-4.36,10.63-8.67,21.28-13.2,31.84-.4.94-2.3,1.73-3.47,1.7-1.14-.03-2.85-.96-3.27-1.94-4.51-10.47-8.81-21.03-13.17-31.58,4.76-1.61,7.21-.11,8.71,4.4,2.23,6.71,5.1,13.2,7.97,20.48Z"/>
      <path class="cls-1" d="M316.1,96.59c0-1.83,0-3.66,0-5.49,0-7.94-.01-7.85-7.91-8.7-1.06-.11-2.63-1.68-2.71-2.68-.08-.88,1.56-2.73,2.48-2.76,7.48-.23,14.97-.23,22.46,0,.92.03,2.54,1.79,2.5,2.68-.05,1-1.54,2.65-2.54,2.76-8.08.87-8.09.78-8.09,9.21,0,5.32-.13,10.65.05,15.97.09,2.68-.85,3.32-3.42,3.35-2.75.03-2.89-1.29-2.84-3.36.1-3.66.03-7.32.03-10.98Z"/>
      <path d="M220.1,55.46c0,4.66-.16,9.32.06,13.96.13,2.78-1.37,3.23-3.29,2.64-1.09-.34-2.63-1.72-2.65-2.66-.2-9.47-.03-18.96-.18-28.43-.04-2.7,1.29-3.33,3.28-2.7,1.1.35,2.59,1.73,2.65,2.73.28,4.81.12,9.64.12,14.46Z"/>
      <path d="M337.1,93.56c0-4.66.16-9.32-.06-13.96-.13-2.75,1.33-3.26,3.27-2.66,1.1.34,2.65,1.71,2.67,2.64.2,9.47.03,18.96.18,28.43.04,2.67-1.24,3.36-3.27,2.72-1.11-.35-2.61-1.72-2.67-2.71-.28-4.81-.13-9.64-.13-14.46Z"/>
      <path d="M48.37,82.42c7.31,10.16,14.55,20.22,22.35,31.08-5.98,0-11.08.16-16.16-.12-1.14-.06-2.43-1.52-3.24-2.63-5.38-7.39-10.78-14.79-15.9-22.37-1.78-2.63-3.6-3.92-6.86-3.61-4.41.42-10.23-1.18-12.88,1.08-2.18,1.87-.68,8.1-.74,12.39-.05,3.83-.24,7.68.06,11.49.25,3.26-1.1,3.81-4,3.84-10.9.11-10.9.21-10.9-10.77,0-22.49.1-44.97-.1-67.46-.03-3.74.86-4.71,4.61-4.61,10.82.28,21.65-.01,32.48.16,3.79.06,7.69.39,11.34,1.34,12.01,3.14,18.46,11.2,19.36,23.6.82,11.25-5.32,20.69-16.43,25.3-.92.38-1.83.79-2.99,1.29ZM14.67,57.54c.09,0,.17,0,.26.01,0,3.67-.15,7.34.1,10.99.07,1.02,1.34,2.8,2.06,2.81,7.99.05,16.02.27,23.95-.47,7.31-.68,11.96-6.33,12.02-13.07.06-6.87-3.76-11.67-11.25-13.03-4.37-.79-8.93-.68-13.41-.75-4.3-.07-10.44-1.51-12.44.68-2.32,2.55-1.02,8.4-1.29,12.82Z"/>
      <path class="cls-4" d="M81.05,144.98c-3.82.51-2.82-2.35-2.83-4.26-.05-20.75-.03-41.5-.03-62.25,0-1.83-.03-3.65-.04-5.48.01-22.16.03-44.32.04-66.47,0-1.33-.05-2.68.13-3.99.07-.5.72-.93,1.1-1.38.55.47,1.29.83,1.61,1.43.29.53.15,1.3.15,1.96-.04,46.81-.09,93.63-.14,140.44Z"/>
    </g>
  </g>
</svg>