<?xml version="1.0" encoding="UTF-8"?>
<svg id="Layer_2" xmlns="http://www.w3.org/2000/svg" viewBox="0 0 800 97.97">
  <g id="Layer_1-2" data-name="Layer_1">
    <g id="ubFqQV.tif">
      <g>
        <path d="M202,0c6.66,2.87,13.49,5.42,19.92,8.74,2.96,1.53,5.15,4.55,8.11,7.29-1.82,1.54-3.14,2.65-4.65,3.92-7.88-9.75-17.78-14.84-30.04-15.03-18.46-.27-32.84,10.2-38.04,27.9-3.12,10.64-3.14,21.41-.02,32.05,5.42,18.5,21.58,29.59,40.46,27.99,18.97-1.61,33.69-15.73,35.14-35.54,1.19-16.25.65-32.62.87-48.94.03-1.95,0-3.91,0-5.75,6.06-1.91,9.49-.1,12.73,4.9,16.55,25.6,33.5,50.93,50.32,76.36.99,1.5,2.05,2.95,3.84,5.51V2.26c2.05-.11,3.62-.19,5.65-.3v93.42c-5.66,1.72-9.19.14-12.47-4.94-16.6-25.76-33.62-51.25-50.5-76.84-.89-1.36-1.84-2.68-3.76-3.94,0,1.71.02,3.42,0,5.12-.15,13.99.49,28.03-.63,41.94-2.03,25.3-20.9,41.7-45.91,41.11-24.33-.57-42.4-18.24-44.05-43.03-.59-8.9-.07-17.65,3.11-26.08,5.46-14.46,15.65-23.66,30.66-27.49C184.17.88,185.58.42,187,0c5,0,10,0,15,0Z"/>
        <path d="M561,0c.72.34,1.41.8,2.17.99,20.28,5.04,33.18,20.31,34.8,41.17,1.41,18.18-2.55,34.42-17.12,46.77,7.27,5.13,22.31,5.41,31.68.74,8.94-4.45,12.43-12.17,12.49-21.67.12-19.99.07-39.98.08-59.97,0-1.8,0-3.6,0-5.75,2.04-.13,3.62-.24,5.98-.39,0,2.1,0,3.87,0,5.63,0,18.33,0,36.65,0,54.98-.02,25.66-13.51,37.93-39.16,35.06-6-.67-11.83-4.14-17.74-4.15-5.76-.01-11.43,3.56-17.29,4.17-27.41,2.86-48.67-16.71-49.62-45.84-.65-19.92,5.42-36.9,24.23-46.85C535.69,2.67,540.49,1.6,545,0c5.33,0,10.67,0,16,0ZM569.74,88.73c-6.59-6.91-7.69-15.24-7.69-23.9,0-18.31-.08-36.62.07-54.93.03-3.16-1.02-4.37-4.07-4.8-15.29-2.2-30.85,4.73-38.09,18.37-9.15,17.23-9.14,35.03.69,51.96,9.58,16.5,32.4,22.53,49.09,13.3ZM575.53,85.94c15.58-13.18,18.51-30.08,15.22-48.57-2.35-13.2-9.21-23.51-22.32-29.26,0,21.5-.14,42.39.1,63.29.06,5.38,2.17,10.35,7,14.54Z"/>
        <path d="M0,71c3.94-1.47,5.82-.26,7.05,3.99,2.82,9.73,10.01,15.08,19.68,17.07,10.5,2.16,20.43.99,28.16-7.24,7.54-8.04,5.81-21.77-3.78-27.36-5.67-3.3-12.25-5.04-18.44-7.4-5.43-2.07-11.2-3.47-16.29-6.18C1.36,35.89.14,16.23,14.1,6.42,18.2,3.53,23.34,2.1,28,0,32.33,0,36.67,0,41,0c5.21,3.08,10.95,5.54,15.5,9.4,4.77,4.05,6.57,10.21,7.29,16.67-3.56,1.38-5.4.86-6.56-3.17C52.22,5.54,32.05-.97,17.51,9.87c-10.2,7.6-9.59,22.77,1.57,28.83,5.2,2.82,11.16,4.24,16.74,6.37,6.05,2.31,12.46,4.01,18.01,7.19,14.45,8.29,15.48,27.8,2.56,38.38-15.4,12.62-49.97,9.27-55.54-15.5-.1-.43-.56-.77-.85-1.15,0-1,0-2,0-3Z"/>
        <path d="M693,0c11.17,3.13,19.32,9.45,22.35,21.16.41,1.57.6,3.2.9,4.85-3.95,1.56-5.46.54-6.55-3.39-4.94-17.73-27.24-23.94-41.1-11.67-8.56,7.59-7.67,21.66,2.3,27.32,5.42,3.07,11.72,4.58,17.6,6.84,5.89,2.26,12.12,3.93,17.56,6.99,14.04,7.89,15.88,26.32,4.16,37.31-12.75,11.95-38.35,11.09-50.2-1.74-4.29-4.65-6.77-10.11-7.14-16.51,3.58-1.3,5.31-.77,6.37,3.09,5.93,21.63,35.72,23.16,47.28,11.59,8.22-8.23,7.05-22.56-3.07-28.46-5.66-3.3-12.26-4.99-18.46-7.35-5.28-2-10.87-3.38-15.83-5.97-15.57-8.12-16.68-28.09-2.11-38.02C670.93,3.4,675.66,1.98,680,0c4.33,0,8.67,0,13,0Z"/>
        <path d="M800,96h-59.41V2.29c1-.12,1.95-.32,2.9-.33,17-.02,34-.07,50.99.07,1.41.01,2.8,1.31,4.2,2.01-1.4.89-2.79,2.54-4.2,2.55-15.98.18-31.96.12-48.33.12v39.5c1.77.09,3.53.25,5.3.26,13.33.02,26.66-.05,39.99.11,1.41.02,2.8,1.36,4.19,2.08-1.43.83-2.86,2.37-4.3,2.39-13.16.19-26.33.11-39.49.11-1.79,0-3.59,0-5.73,0v39.84h53.89v5Z"/>
        <path d="M412.27,2.18h5.46v44.75h60.41V2.32c2.15-.15,3.7-.26,5.62-.39v93.78h-5.21v-43.21h-60.76v43.15h-5.53V2.18Z"/>
        <path d="M330.28,2.14h57.12c.85,4.46.85,4.55-3.44,4.56-14.15.04-28.31.02-42.46.02-1.81,0-3.63,0-6.28,0,0,3.95,0,7.53,0,11.1,0,7.99.19,15.99-.08,23.98-.13,3.83,1.22,4.8,4.86,4.75,13.65-.18,27.31-.03,40.96-.1,3-.01,5.03.48,3.49,4.71h-48.89v39.87c1.94,0,3.71,0,5.48,0,14.82,0,29.64-.07,44.46.12,1.41.02,2.8,1.64,4.19,2.51-1.35.76-2.69,2.17-4.04,2.18-18.3.15-36.6.1-55.38.1V2.14Z"/>
        <path d="M148.56,2.27c1.15,3.72-.4,4.52-3.4,4.48-8.49-.11-16.98-.04-25.47-.04-1.79,0-3.58,0-5.96,0v88.9c-2.01.13-3.43.22-5.44.34V6.71c-5.27,0-10.01,0-14.75,0-5.66,0-11.32-.11-16.98.04-3.17.08-4.36-1.06-3.27-4.48h75.26Z"/>
      </g>
    </g>
  </g>
</svg>