<?xml version="1.0" encoding="UTF-8"?>
<svg width="236px" height="148px" viewBox="0 0 59 37" version="1.1" xmlns="http://www.w3.org/2000/svg" xmlns:xlink="http://www.w3.org/1999/xlink">
    <title>B&amp;H/Brand/Logo/B&amp;H Full</title>
    <defs>
        <filter id="filter-1">
            <feColorMatrix in="SourceGraphic" type="matrix" values="0 0 0 0 1.000000 0 0 0 0 1.000000 0 0 0 0 1.000000 0 0 0 1.000000 0"></feColorMatrix>
        </filter>
    </defs>
    <g id="B&amp;H/Brand/Logo/B&amp;H-Full" stroke="none" stroke-width="1" fill="none" fill-rule="evenodd">
        <g id="Material/Solid" transform="translate(11.000000, 5.000000)" filter="url(#filter-1)">
            <g>
                <rect id="Surface" x="0" y="0" width="38" height="28"></rect>
            </g>
        </g>
        <g id="BH-logo-web" transform="translate(11.000000, 5.000000)" fill-rule="nonzero">
            <g id="Group">
                <g id="BandH" transform="translate(2.800000, 2.800000)">
                    <path d="M27.0666667,0 L27.0666667,7 L21.9333333,7 L21.9333333,0 L15.8666667,0 L15.8666667,6.90666667 L14.9333333,6.90666667 C14.9333333,6.90666667 14.9333333,5.97333333 14.9333333,5.22666667 C14.9333333,1.86666667 12.6933333,0 9.33333333,0 L0,0 L0,7.09333333 L0,10.1266667 L0,18.6666667 L19.74,18.6666667 L19.9266667,18.5733333 L21.84,18.5733333 L21.9333333,18.6666667 L21.9333333,12.6 L27.0666667,12.6 L27.0666667,18.6666667 L32.6666667,18.6666667 L32.6666667,0 L27.0666667,0 Z M5.6,4.2 L8.02666667,4.2 L8.02666667,4.2 C8.72666667,4.2 9.28666667,4.85333333 9.28666667,5.6 C9.28666667,6.39333333 8.72666667,7 8.02666667,7 L8.02666667,7 L5.6,7 L5.6,4.2 Z M8.77333333,14 L8.77333333,14 L5.6,14 L5.6,11.2 L8.77333333,11.2 L8.77333333,11.2 C9.52,11.2 10.1266667,11.8533333 10.1266667,12.6 C10.08,13.3466667 9.52,14 8.77333333,14" id="Shape" fill="currentColor"></path>
                    <path d="M20.02,14.0933333 L20.02,14.0466667 C20.2066667,13.3933333 20.2533333,12.8333333 20.2533333,12.6 L18.5733333,12.6 C18.5266667,13.02 18.48,13.3 18.4333333,13.58 C18.3866667,13.86 18.2933333,14.0933333 18.2,14.3733333 L15.8666667,11.76 C16.8,11.1066667 18.0133333,10.22 17.9666667,8.49333333 L17.9666667,8.4 L17.9666667,8.4 C17.8733333,6.86 16.5666667,5.64666667 14.9333333,5.64666667 C13.2533333,5.64666667 11.9466667,6.90666667 11.9,8.49333333 L11.9,8.54 C11.9,8.54 11.9,8.58666667 11.9,8.58666667 C11.9466667,9.70666667 12.4133333,10.3133333 13.3466667,11.3866667 C13.0666667,11.5733333 12.5066667,11.9933333 12.04,12.3666667 C11.2466667,13.0666667 10.8266667,14 10.78,15.0266667 C10.7333333,16.0533333 11.1066667,16.9866667 11.8533333,17.7333333 C12.6,18.48 13.6733333,18.9466667 14.8866667,18.9466667 C14.8866667,18.9466667 14.9333333,18.9466667 14.9333333,18.9466667 L14.98,18.9466667 C16.1933333,18.9 17.22,18.5266667 18.06,17.7333333 C18.2,17.5933333 18.34,17.4533333 18.48,17.3133333 L19.6933333,18.6666667 L21.9333333,18.6666667 L19.4133333,15.82 C19.6466667,15.3066667 19.88,14.7466667 20.02,14.0933333 Z M14.98,7.28 C15.7266667,7.28 16.38,7.84 16.38,8.54 C16.38,9.47333333 15.4466667,10.1733333 14.84,10.5933333 C14.3266667,10.1266667 13.58,9.42666667 13.58,8.54 C13.58,7.84 14.1866667,7.28 14.98,7.28 Z M16.8933333,16.6133333 C16.3333333,17.1266667 15.68,17.36 14.8866667,17.36 C14.14,17.36 13.4866667,17.08 13.0666667,16.66 C12.6933333,16.2866667 12.5066667,15.82 12.46,15.3066667 C12.46,15.0733333 12.46,14.8866667 12.5066667,14.7 L12.5066667,14.6533333 C12.5066667,14.6533333 12.5066667,14.6066667 12.5066667,14.6066667 C12.5533333,14.42 12.6466667,14.1866667 12.74,14 C12.7866667,13.9533333 12.7866667,13.9066667 12.8333333,13.86 C12.88,13.8133333 12.88,13.8133333 12.9266667,13.7666667 L12.9733333,13.72 C13.02,13.6733333 13.0666667,13.6266667 13.0666667,13.58 C13.1133333,13.5333333 13.16,13.4866667 13.2066667,13.4866667 C13.6266667,13.1133333 14.2333333,12.6933333 14.42,12.5533333 L17.4066667,15.96 C17.22,16.2866667 17.0333333,16.4733333 16.8933333,16.6133333 Z" id="Shape" class="darken" fill="var(--material)"></path>
                </g>
                <path d="M0,0 L0,28 L38.2666667,28 L38.2666667,0 L0,0 Z M37.3333333,27.0666667 L0.933333333,27.0666667 L0.933333333,0.933333333 L37.3333333,0.933333333 L37.3333333,27.0666667 Z" id="frame" fill="currentColor"></path>
            </g>
            <g id="Group" transform="translate(2.800000, 22.866667)" fill="currentColor">
                <g>
                    <path d="M1.26,0.653333333 C1.4,0.746666667 1.44666667,0.933333333 1.44666667,1.16666667 C1.44666667,1.4 1.4,1.58666667 1.26,1.68 C1.12,1.77333333 0.933333333,1.82 0.653333333,1.82 L0.42,1.82 L0.42,2.33333333 L0,2.33333333 L0,0.466666667 L0.653333333,0.466666667 C0.933333333,0.466666667 1.12,0.513333333 1.26,0.653333333 Z M0.933333333,1.35333333 C0.98,1.30666667 1.02666667,1.21333333 1.02666667,1.12 C1.02666667,1.02666667 0.98,0.933333333 0.933333333,0.886666667 C0.886666667,0.84 0.793333333,0.84 0.653333333,0.84 L0.42,0.84 L0.42,1.44666667 L0.7,1.44666667 C0.793333333,1.44666667 0.886666667,1.44666667 0.933333333,1.35333333 Z" id="Shape"></path>
                    <polygon id="Path" points="2.98666667 0.466666667 3.40666667 0.466666667 3.40666667 2.33333333 2.98666667 2.33333333 2.98666667 1.58666667 2.28666667 1.58666667 2.28666667 2.33333333 1.86666667 2.33333333 1.86666667 0.466666667 2.28666667 0.466666667 2.28666667 1.26 2.98666667 1.26"></polygon>
                    <path d="M5.50666667,2.05333333 C5.32,2.24 5.08666667,2.33333333 4.85333333,2.33333333 C4.57333333,2.33333333 4.34,2.24 4.2,2.05333333 C4.01333333,1.86666667 3.92,1.63333333 3.92,1.35333333 C3.92,1.07333333 4.01333333,0.84 4.2,0.653333333 C4.38666667,0.466666667 4.62,0.373333333 4.85333333,0.373333333 C5.13333333,0.373333333 5.36666667,0.466666667 5.50666667,0.653333333 C5.69333333,0.84 5.78666667,1.07333333 5.78666667,1.35333333 C5.78666667,1.68 5.69333333,1.91333333 5.50666667,2.05333333 Z M5.36666667,1.4 C5.36666667,1.21333333 5.32,1.07333333 5.22666667,0.98 C5.13333333,0.84 4.99333333,0.793333333 4.85333333,0.793333333 C4.71333333,0.793333333 4.57333333,0.84 4.48,0.98 C4.38666667,1.12 4.34,1.26 4.34,1.4 C4.34,1.58666667 4.38666667,1.72666667 4.48,1.82 C4.57333333,1.96 4.71333333,2.00666667 4.85333333,2.00666667 C4.99333333,2.00666667 5.13333333,1.96 5.22666667,1.82 C5.32,1.68 5.36666667,1.54 5.36666667,1.4 Z" id="Shape"></path>
                    <polygon id="Path" points="7 0.84 7 2.33333333 6.58 2.33333333 6.58 0.84 6.06666667 0.84 6.06666667 0.466666667 7.51333333 0.466666667 7.51333333 0.84"></polygon>
                    <path d="M9.38,2.05333333 C9.19333333,2.24 8.96,2.33333333 8.72666667,2.33333333 C8.44666667,2.33333333 8.21333333,2.24 8.07333333,2.05333333 C7.88666667,1.86666667 7.79333333,1.63333333 7.79333333,1.35333333 C7.79333333,1.07333333 7.88666667,0.84 8.07333333,0.653333333 C8.26,0.466666667 8.49333333,0.373333333 8.72666667,0.373333333 C9.00666667,0.373333333 9.24,0.466666667 9.38,0.653333333 C9.56666667,0.84 9.66,1.07333333 9.66,1.35333333 C9.66,1.68 9.56666667,1.91333333 9.38,2.05333333 Z M9.28666667,1.4 C9.28666667,1.21333333 9.24,1.07333333 9.14666667,0.98 C9.05333333,0.84 8.91333333,0.793333333 8.77333333,0.793333333 C8.63333333,0.793333333 8.49333333,0.84 8.4,0.98 C8.30666667,1.12 8.26,1.26 8.26,1.4 C8.26,1.58666667 8.30666667,1.72666667 8.4,1.82 C8.49333333,1.96 8.63333333,2.00666667 8.77333333,2.00666667 C8.91333333,2.00666667 9.05333333,1.96 9.14666667,1.82 C9.19333333,1.68 9.28666667,1.54 9.28666667,1.4 Z" id="Shape"></path>
                </g>
                <path d="M10.8266667,1.54 C10.78,1.49333333 10.7333333,1.4 10.7333333,1.35333333 C10.7333333,1.26 10.78,1.21333333 10.8266667,1.16666667 C10.8733333,1.12 10.92,1.07333333 11.0133333,1.07333333 C11.1066667,1.07333333 11.1533333,1.12 11.2,1.16666667 C11.2466667,1.21333333 11.2933333,1.30666667 11.2933333,1.35333333 C11.2933333,1.44666667 11.2466667,1.49333333 11.2,1.54 C11.1533333,1.58666667 11.1066667,1.63333333 11.0133333,1.63333333 C10.9666667,1.63333333 10.8733333,1.63333333 10.8266667,1.54 Z" id="Path"></path>
                <g transform="translate(12.133333, 0.000000)">
                    <polygon id="Path" points="1.02666667 1.63333333 1.49333333 0.466666667 1.91333333 0.466666667 1.16666667 2.33333333 0.84 2.33333333 0.0933333333 0.466666667 0.513333333 0.466666667"></polygon>
                    <polygon id="Path" points="2.28666667 0.466666667 2.70666667 0.466666667 2.70666667 2.33333333 2.28666667 2.33333333"></polygon>
                    <path d="M4.62,0.7 C4.80666667,0.84 4.9,1.07333333 4.9,1.4 C4.9,1.72666667 4.80666667,1.91333333 4.66666667,2.1 C4.48,2.24 4.2,2.33333333 3.87333333,2.33333333 L3.26666667,2.33333333 L3.26666667,0.466666667 L3.92,0.466666667 C4.2,0.466666667 4.48,0.56 4.62,0.7 Z M4.34,1.82 C4.43333333,1.72666667 4.48,1.58666667 4.48,1.4 C4.48,1.21333333 4.43333333,1.07333333 4.34,0.98 C4.24666667,0.886666667 4.10666667,0.84 3.87333333,0.84 L3.64,0.84 L3.64,1.96 L3.87333333,1.96 C4.10666667,1.96 4.24666667,1.91333333 4.34,1.82 Z" id="Shape"></path>
                    <polygon id="Path" points="6.67333333 0.466666667 6.67333333 0.84 5.78666667 0.84 5.78666667 1.21333333 6.58 1.21333333 6.58 1.58666667 5.78666667 1.58666667 5.78666667 1.96 6.72 1.96 6.72 2.33333333 5.36666667 2.33333333 5.36666667 0.466666667"></polygon>
                    <path d="M8.72666667,2.05333333 C8.54,2.24 8.30666667,2.33333333 8.07333333,2.33333333 C7.79333333,2.33333333 7.56,2.24 7.42,2.05333333 C7.23333333,1.86666667 7.14,1.63333333 7.14,1.35333333 C7.14,1.07333333 7.23333333,0.84 7.42,0.653333333 C7.60666667,0.466666667 7.84,0.373333333 8.07333333,0.373333333 C8.35333333,0.373333333 8.58666667,0.466666667 8.72666667,0.653333333 C8.91333333,0.84 9.00666667,1.07333333 9.00666667,1.35333333 C8.96,1.68 8.91333333,1.91333333 8.72666667,2.05333333 Z M8.58666667,1.4 C8.58666667,1.21333333 8.54,1.07333333 8.44666667,0.98 C8.35333333,0.84 8.21333333,0.793333333 8.07333333,0.793333333 C7.93333333,0.793333333 7.79333333,0.84 7.7,0.98 C7.60666667,1.12 7.56,1.26 7.56,1.4 C7.56,1.58666667 7.60666667,1.72666667 7.7,1.82 C7.79333333,1.96 7.93333333,2.00666667 8.07333333,2.00666667 C8.21333333,2.00666667 8.35333333,1.96 8.44666667,1.82 C8.54,1.68 8.58666667,1.54 8.58666667,1.4 Z" id="Shape"></path>
                </g>
                <path d="M22.26,1.54 C22.2133333,1.49333333 22.1666667,1.4 22.1666667,1.35333333 C22.1666667,1.26 22.2133333,1.21333333 22.26,1.16666667 C22.3066667,1.12 22.3533333,1.07333333 22.4466667,1.07333333 C22.54,1.07333333 22.5866667,1.12 22.6333333,1.16666667 C22.68,1.21333333 22.7266667,1.30666667 22.7266667,1.35333333 C22.7266667,1.44666667 22.68,1.49333333 22.6333333,1.54 C22.5866667,1.58666667 22.54,1.63333333 22.4466667,1.63333333 C22.4,1.63333333 22.3533333,1.63333333 22.26,1.54 Z" id="Path"></path>
                <g transform="translate(23.333333, 0.000000)">
                    <path d="M1.63333333,2.33333333 L1.44666667,1.91333333 L0.7,1.91333333 L0.56,2.33333333 L0.14,2.33333333 L0.933333333,0.466666667 L1.30666667,0.466666667 L2.1,2.33333333 L1.63333333,2.33333333 Z M1.07333333,1.02666667 L0.84,1.58666667 L1.30666667,1.58666667 L1.07333333,1.02666667 Z" id="Shape"></path>
                    <path d="M2.8,1.86666667 C2.84666667,1.96 2.94,2.00666667 3.08,2.00666667 C3.17333333,2.00666667 3.26666667,1.96 3.36,1.86666667 C3.40666667,1.77333333 3.45333333,1.68 3.45333333,1.49333333 L3.45333333,0.466666667 L3.87333333,0.466666667 L3.87333333,1.49333333 C3.87333333,1.77333333 3.78,1.96 3.64,2.1 C3.5,2.24 3.31333333,2.33333333 3.08,2.33333333 C2.84666667,2.33333333 2.66,2.24 2.52,2.1 C2.38,1.96 2.28666667,1.72666667 2.28666667,1.49333333 L2.28666667,0.466666667 L2.70666667,0.466666667 L2.70666667,1.49333333 C2.70666667,1.63333333 2.75333333,1.77333333 2.8,1.86666667 Z" id="Path"></path>
                    <path d="M5.78666667,0.7 C5.97333333,0.84 6.06666667,1.07333333 6.06666667,1.4 C6.06666667,1.72666667 5.97333333,1.91333333 5.83333333,2.1 C5.64666667,2.28666667 5.41333333,2.33333333 5.08666667,2.33333333 L4.48,2.33333333 L4.48,0.466666667 L5.13333333,0.466666667 C5.36666667,0.466666667 5.64666667,0.56 5.78666667,0.7 Z M5.50666667,1.82 C5.6,1.72666667 5.64666667,1.58666667 5.64666667,1.4 C5.64666667,1.21333333 5.6,1.07333333 5.50666667,0.98 C5.41333333,0.886666667 5.27333333,0.84 5.04,0.84 L4.80666667,0.84 L4.80666667,1.96 L5.04,1.96 C5.27333333,1.96 5.41333333,1.91333333 5.50666667,1.82 Z" id="Shape"></path>
                    <polygon id="Path" points="6.53333333 0.466666667 6.95333333 0.466666667 6.95333333 2.33333333 6.53333333 2.33333333"></polygon>
                    <path d="M9.05333333,2.05333333 C8.86666667,2.24 8.63333333,2.33333333 8.4,2.33333333 C8.12,2.33333333 7.88666667,2.24 7.74666667,2.05333333 C7.56,1.86666667 7.46666667,1.63333333 7.46666667,1.35333333 C7.46666667,1.07333333 7.56,0.84 7.74666667,0.653333333 C7.93333333,0.466666667 8.16666667,0.373333333 8.4,0.373333333 C8.68,0.373333333 8.91333333,0.466666667 9.05333333,0.653333333 C9.24,0.84 9.33333333,1.07333333 9.33333333,1.35333333 C9.33333333,1.68 9.24,1.91333333 9.05333333,2.05333333 Z M8.91333333,1.4 C8.91333333,1.21333333 8.86666667,1.07333333 8.77333333,0.98 C8.68,0.84 8.54,0.793333333 8.4,0.793333333 C8.26,0.793333333 8.12,0.84 8.02666667,0.98 C7.93333333,1.12 7.88666667,1.26 7.88666667,1.4 C7.88666667,1.58666667 7.93333333,1.72666667 8.02666667,1.82 C8.12,1.96 8.26,2.00666667 8.4,2.00666667 C8.54,2.00666667 8.68,1.96 8.77333333,1.82 C8.86666667,1.68 8.91333333,1.54 8.91333333,1.4 Z" id="Shape"></path>
                </g>
            </g>
        </g>
    </g>
</svg>